<svg width="24" height="24" viewBox="0 0 24 24" fill="none" xmlns="http://www.w3.org/2000/svg">
<path d="M0.925243 15.2606L1.55883 17.5791C2.29903 20.2853 2.67035 21.639 3.50982 22.5163C4.17238 23.2085 5.02955 23.6929 5.97307 23.9084C7.16916 24.182 8.55152 23.8196 11.3162 23.0947C14.0785 22.3699 15.4609 22.0074 16.3567 21.1854C16.4303 21.117 16.5038 21.0462 16.5724 20.9742C16.1551 20.937 15.7402 20.8769 15.3298 20.7941C14.4768 20.6285 13.4633 20.3621 12.2648 20.0477L12.1337 20.0129L12.103 20.0057C10.7991 19.6625 9.70962 19.3768 8.83951 19.0696C7.92407 18.7456 7.09318 18.346 6.38606 17.6979C5.41341 16.8056 4.73277 15.6508 4.43017 14.3797C4.20958 13.4568 4.27331 12.552 4.44488 11.6147C4.60909 10.7158 4.90321 9.63816 5.25616 8.34807L5.9118 5.9551L5.93386 5.87109C3.5809 6.49154 2.34192 6.85876 1.51593 7.61602C0.8082 8.26533 0.313048 9.10563 0.0931299 10.0306C-0.186284 11.2007 0.183817 12.5544 0.925243 15.2606Z" fill="#FFC700"/>
<path fill-rule="evenodd" clip-rule="evenodd" d="M23.0761 10.4587L22.4413 12.7773C21.6998 15.4835 21.3297 16.8372 20.4903 17.7144C19.8279 18.4071 18.9707 18.892 18.027 19.1077C17.9081 19.1353 17.7881 19.1558 17.6655 19.1702C16.5442 19.3058 15.1753 18.9469 12.6851 18.2941C9.92158 17.568 8.53921 17.2056 7.64338 16.3836C6.93585 15.7346 6.44071 14.8947 6.22057 13.9702C5.94116 12.7989 6.31126 11.4464 7.05268 8.74021L7.68627 6.42165L7.98529 5.33557C8.54289 3.33623 8.91789 2.23575 9.63726 1.4833C10.2998 0.791087 11.157 0.306662 12.1005 0.0911986C13.2966 -0.182421 14.679 0.180005 17.4437 0.906056C20.206 1.63091 21.5883 1.99333 22.4842 2.81419C23.1919 3.4635 23.687 4.3038 23.907 5.22876C24.1864 6.40005 23.8163 7.75254 23.0761 10.4587ZM11.0919 9.36666C11.1232 9.25246 11.1772 9.14542 11.2507 9.05165C11.3242 8.95788 11.4159 8.87922 11.5205 8.82015C11.6251 8.76109 11.7405 8.72278 11.8602 8.70741C11.9799 8.69205 12.1016 8.69993 12.2182 8.73061L18.1373 10.2847C18.257 10.3125 18.3698 10.3635 18.4689 10.4348C18.5681 10.506 18.6517 10.596 18.7147 10.6995C18.7777 10.8029 18.8188 10.9177 18.8357 11.037C18.8526 11.1563 18.8448 11.2777 18.8129 11.394C18.781 11.5103 18.7256 11.6192 18.6499 11.7142C18.5743 11.8091 18.4799 11.8882 18.3725 11.9468C18.265 12.0054 18.1466 12.0423 18.0244 12.0553C17.9021 12.0683 17.7784 12.0571 17.6606 12.0224L11.7414 10.4695C11.5062 10.4077 11.3057 10.2569 11.1839 10.0503C11.0621 9.84374 11.029 9.59709 11.0919 9.36666ZM10.1409 12.8457C10.2041 12.6153 10.3581 12.419 10.569 12.2997C10.78 12.1805 11.0306 12.1481 11.2659 12.2097L14.8174 13.1421C14.9377 13.1693 15.0511 13.2199 15.151 13.2909C15.2508 13.362 15.335 13.452 15.3986 13.5555C15.4621 13.6591 15.5037 13.7742 15.5209 13.8939C15.5381 14.0135 15.5305 14.1354 15.4985 14.2521C15.4666 14.3688 15.411 14.4781 15.335 14.5733C15.259 14.6685 15.1642 14.7478 15.0563 14.8064C14.9484 14.8649 14.8295 14.9016 14.7068 14.9143C14.584 14.9269 14.46 14.9152 14.3419 14.8798L10.7905 13.9486C10.6738 13.9179 10.5645 13.8651 10.4688 13.7931C10.373 13.7211 10.2927 13.6313 10.2324 13.5289C10.1721 13.4265 10.1329 13.3134 10.1173 13.1962C10.1016 13.079 10.1096 12.9599 10.1409 12.8457Z" fill="#FFC700"/>
</svg>
