<?xml version="1.0" encoding="UTF-8"?>
<svg width="23px" height="24px" viewBox="0 0 23 24" version="1.1" xmlns="http://www.w3.org/2000/svg" xmlns:xlink="http://www.w3.org/1999/xlink">
    <title>Notification-Bell-Primary</title>
    <g id="Page-1" stroke="none" stroke-width="1" fill="none" fill-rule="evenodd">
        <g id="Notification-Bell-Primary" transform="translate(0.118160, 0.000000)" fill-rule="nonzero">
            <path d="M20.69444,19.5345 L20.45834,19.3262 C19.78854,18.7294 19.20224,18.045 18.71524,17.2915 C18.18354,16.2516 17.86474,15.1159 17.77774,13.9512 L17.77774,10.5206 C17.77494,10.1039 17.73784,9.68816 17.66664,9.27756 C16.49034,9.03578 15.43374,8.39494 14.67574,7.46352 C13.91764,6.5321 13.50474,5.36735 13.50694,4.16645 L13.50694,3.72895 C12.78194,3.37214 12.00294,3.1375 11.20144,3.03451 L11.20144,2.15951 C11.20144,1.91363 11.10374,1.67782 10.92984,1.50396 C10.75604,1.3301 10.52014,1.23242 10.27434,1.23242 C10.02844,1.23242 9.79264,1.3301 9.61874,1.50396 C9.44494,1.67782 9.34724,1.91363 9.34724,2.15951 L9.34724,3.06923 C7.55259,3.32239 5.91013,4.21627 4.72307,5.58585 C3.53602,6.95542 2.88454,8.70821 2.88889,10.5206 L2.88889,13.9512 C2.80192,15.1159 2.48318,16.2516 1.95139,17.2915 C1.47284,18.0431 0.89597,18.7274 0.23612,19.3262 L0,19.5345 L0,21.4928 L20.69444,21.4928 L20.69444,19.5345 Z" id="Path" fill="#FFCE4F"></path>
            <path d="M18.88184,8 C21.09094,8 22.88184,6.20914 22.88184,4 C22.88184,1.79086 21.09094,0 18.88184,0 C16.67274,0 14.88184,1.79086 14.88184,4 C14.88184,6.20914 16.67274,8 18.88184,8 Z" id="Path" fill="#4AE098"></path>
            <path d="M9.93884,23.9998 C10.65744,23.987 11.34694,23.7793 11.88554,23.4134 C12.42414,23.0474 12.77704,22.5467 12.88184,22 L6.88184,22 C6.9896,22.5616 7.35901,23.074 7.92134,23.4419 C8.48364,23.8097 9.20064,24.008 9.93884,23.9998 Z" id="Path" fill="#FFCE4F"></path>
        </g>
    </g>
</svg>