<svg width="279" height="44" viewBox="0 0 279 44" fill="none" xmlns="http://www.w3.org/2000/svg">
<path d="M1.70898 3.04688H3.24023L6.11816 10.7236L8.98926 3.04688H10.5205L6.71973 13H5.50293L1.70898 3.04688ZM1.01172 3.04688H2.46777L2.7207 9.69141V13H1.01172V3.04688ZM9.76172 3.04688H11.2246V13H9.50879V9.69141L9.76172 3.04688ZM16.3584 13.1367C15.8115 13.1367 15.3171 13.0479 14.875 12.8701C14.4375 12.6878 14.0638 12.4349 13.7539 12.1113C13.4486 11.7878 13.2139 11.4072 13.0498 10.9697C12.8857 10.5322 12.8037 10.0605 12.8037 9.55469V9.28125C12.8037 8.70247 12.888 8.17839 13.0566 7.70898C13.2253 7.23958 13.46 6.83854 13.7607 6.50586C14.0615 6.16862 14.417 5.91113 14.8271 5.7334C15.2373 5.55566 15.6816 5.4668 16.1602 5.4668C16.6888 5.4668 17.1514 5.55566 17.5479 5.7334C17.9443 5.91113 18.2725 6.16178 18.5322 6.48535C18.7965 6.80436 18.9925 7.1849 19.1201 7.62695C19.2523 8.06901 19.3184 8.55664 19.3184 9.08984V9.79395H13.6035V8.61133H17.6914V8.48145C17.6823 8.18522 17.623 7.90723 17.5137 7.64746C17.4089 7.3877 17.2471 7.17806 17.0283 7.01855C16.8096 6.85905 16.5179 6.7793 16.1533 6.7793C15.8799 6.7793 15.6361 6.83854 15.4219 6.95703C15.2122 7.07096 15.0368 7.2373 14.8955 7.45605C14.7542 7.6748 14.6449 7.93913 14.5674 8.24902C14.4945 8.55436 14.458 8.89844 14.458 9.28125V9.55469C14.458 9.87826 14.5013 10.179 14.5879 10.457C14.679 10.7305 14.8112 10.9697 14.9844 11.1748C15.1576 11.3799 15.3672 11.5417 15.6133 11.6602C15.8594 11.7741 16.1396 11.8311 16.4541 11.8311C16.8506 11.8311 17.2038 11.7513 17.5137 11.5918C17.8236 11.4323 18.0924 11.2067 18.3203 10.915L19.1885 11.7559C19.029 11.9883 18.8216 12.2116 18.5664 12.4258C18.3112 12.6354 17.999 12.8063 17.6299 12.9385C17.2653 13.0706 16.8415 13.1367 16.3584 13.1367ZM24.7529 10.9971C24.7529 10.833 24.7119 10.6849 24.6299 10.5527C24.5479 10.416 24.3906 10.293 24.1582 10.1836C23.9303 10.0742 23.5931 9.97396 23.1465 9.88281C22.7546 9.79622 22.3945 9.69368 22.0664 9.5752C21.7428 9.45215 21.4648 9.30404 21.2324 9.13086C21 8.95768 20.82 8.7526 20.6924 8.51562C20.5648 8.27865 20.501 8.00521 20.501 7.69531C20.501 7.39453 20.5671 7.1097 20.6992 6.84082C20.8314 6.57194 21.0205 6.33496 21.2666 6.12988C21.5127 5.9248 21.8112 5.76302 22.1621 5.64453C22.5176 5.52604 22.9141 5.4668 23.3516 5.4668C23.9714 5.4668 24.5023 5.57161 24.9443 5.78125C25.391 5.98633 25.7327 6.2666 25.9697 6.62207C26.2067 6.97298 26.3252 7.36947 26.3252 7.81152H24.6777C24.6777 7.61556 24.6276 7.43327 24.5273 7.26465C24.4316 7.09147 24.2858 6.95247 24.0898 6.84766C23.8939 6.73828 23.6478 6.68359 23.3516 6.68359C23.069 6.68359 22.8343 6.72917 22.6475 6.82031C22.4652 6.9069 22.3285 7.02083 22.2373 7.16211C22.1507 7.30339 22.1074 7.45833 22.1074 7.62695C22.1074 7.75 22.1302 7.86165 22.1758 7.96191C22.2259 8.05762 22.3079 8.14648 22.4219 8.22852C22.5358 8.30599 22.6908 8.37891 22.8867 8.44727C23.0872 8.51562 23.3379 8.58171 23.6387 8.64551C24.2038 8.764 24.6891 8.91667 25.0947 9.10352C25.5049 9.28581 25.8193 9.52279 26.0381 9.81445C26.2568 10.1016 26.3662 10.4661 26.3662 10.9082C26.3662 11.2363 26.2956 11.5371 26.1543 11.8105C26.0176 12.0794 25.8171 12.3141 25.5527 12.5146C25.2884 12.7106 24.9717 12.8633 24.6025 12.9727C24.238 13.082 23.8278 13.1367 23.3721 13.1367C22.7021 13.1367 22.1348 13.0182 21.6699 12.7812C21.2051 12.5397 20.8519 12.2321 20.6104 11.8584C20.3734 11.4801 20.2549 11.0882 20.2549 10.6826H21.8477C21.8659 10.988 21.9502 11.2318 22.1006 11.4141C22.2555 11.5918 22.4469 11.7217 22.6748 11.8037C22.9072 11.8812 23.1465 11.9199 23.3926 11.9199C23.6888 11.9199 23.9372 11.8812 24.1377 11.8037C24.3382 11.7217 24.4909 11.6123 24.5957 11.4756C24.7005 11.3343 24.7529 11.1748 24.7529 10.9971ZM31.958 10.9971C31.958 10.833 31.917 10.6849 31.835 10.5527C31.7529 10.416 31.5957 10.293 31.3633 10.1836C31.1354 10.0742 30.7982 9.97396 30.3516 9.88281C29.9596 9.79622 29.5996 9.69368 29.2715 9.5752C28.9479 9.45215 28.6699 9.30404 28.4375 9.13086C28.2051 8.95768 28.0251 8.7526 27.8975 8.51562C27.7699 8.27865 27.7061 8.00521 27.7061 7.69531C27.7061 7.39453 27.7721 7.1097 27.9043 6.84082C28.0365 6.57194 28.2256 6.33496 28.4717 6.12988C28.7178 5.9248 29.0163 5.76302 29.3672 5.64453C29.7227 5.52604 30.1191 5.4668 30.5566 5.4668C31.1764 5.4668 31.7074 5.57161 32.1494 5.78125C32.596 5.98633 32.9378 6.2666 33.1748 6.62207C33.4118 6.97298 33.5303 7.36947 33.5303 7.81152H31.8828C31.8828 7.61556 31.8327 7.43327 31.7324 7.26465C31.6367 7.09147 31.4909 6.95247 31.2949 6.84766C31.099 6.73828 30.8529 6.68359 30.5566 6.68359C30.2741 6.68359 30.0394 6.72917 29.8525 6.82031C29.6702 6.9069 29.5335 7.02083 29.4424 7.16211C29.3558 7.30339 29.3125 7.45833 29.3125 7.62695C29.3125 7.75 29.3353 7.86165 29.3809 7.96191C29.431 8.05762 29.513 8.14648 29.627 8.22852C29.7409 8.30599 29.8958 8.37891 30.0918 8.44727C30.2923 8.51562 30.543 8.58171 30.8438 8.64551C31.4089 8.764 31.8942 8.91667 32.2998 9.10352C32.71 9.28581 33.0244 9.52279 33.2432 9.81445C33.4619 10.1016 33.5713 10.4661 33.5713 10.9082C33.5713 11.2363 33.5007 11.5371 33.3594 11.8105C33.2227 12.0794 33.0221 12.3141 32.7578 12.5146C32.4935 12.7106 32.1768 12.8633 31.8076 12.9727C31.443 13.082 31.0329 13.1367 30.5771 13.1367C29.9072 13.1367 29.3398 13.0182 28.875 12.7812C28.4102 12.5397 28.057 12.2321 27.8154 11.8584C27.5785 11.4801 27.46 11.0882 27.46 10.6826H29.0527C29.071 10.988 29.1553 11.2318 29.3057 11.4141C29.4606 11.5918 29.652 11.7217 29.8799 11.8037C30.1123 11.8812 30.3516 11.9199 30.5977 11.9199C30.8939 11.9199 31.1423 11.8812 31.3428 11.8037C31.5433 11.7217 31.696 11.6123 31.8008 11.4756C31.9056 11.3343 31.958 11.1748 31.958 10.9971ZM39.1836 11.5166V7.98926C39.1836 7.72493 39.1357 7.49707 39.04 7.30566C38.9443 7.11426 38.7985 6.96615 38.6025 6.86133C38.4111 6.75651 38.1696 6.7041 37.8779 6.7041C37.609 6.7041 37.3766 6.74967 37.1807 6.84082C36.9847 6.93197 36.832 7.05501 36.7227 7.20996C36.6133 7.36491 36.5586 7.54036 36.5586 7.73633H34.918C34.918 7.44466 34.9886 7.16211 35.1299 6.88867C35.2712 6.61523 35.4762 6.37142 35.7451 6.15723C36.014 5.94303 36.3353 5.77441 36.709 5.65137C37.0827 5.52832 37.502 5.4668 37.9668 5.4668C38.5228 5.4668 39.015 5.56022 39.4434 5.74707C39.8763 5.93392 40.2158 6.21647 40.4619 6.59473C40.7126 6.96842 40.8379 7.43783 40.8379 8.00293V11.291C40.8379 11.6283 40.8607 11.9313 40.9062 12.2002C40.9564 12.4645 41.027 12.6947 41.1182 12.8906V13H39.4297C39.3522 12.8223 39.2907 12.5967 39.2451 12.3232C39.2041 12.0452 39.1836 11.7764 39.1836 11.5166ZM39.4229 8.50195L39.4365 9.52051H38.2539C37.9486 9.52051 37.6797 9.55013 37.4473 9.60938C37.2148 9.66406 37.0212 9.74609 36.8662 9.85547C36.7113 9.96484 36.5951 10.097 36.5176 10.252C36.4401 10.4069 36.4014 10.5824 36.4014 10.7783C36.4014 10.9743 36.4469 11.1543 36.5381 11.3184C36.6292 11.4779 36.7614 11.6032 36.9346 11.6943C37.1123 11.7855 37.3265 11.8311 37.5771 11.8311C37.9144 11.8311 38.2083 11.7627 38.459 11.626C38.7142 11.4847 38.9147 11.3138 39.0605 11.1133C39.2064 10.9082 39.2839 10.7145 39.293 10.5322L39.8262 11.2637C39.7715 11.4505 39.6781 11.651 39.5459 11.8652C39.4137 12.0794 39.2406 12.2845 39.0264 12.4805C38.8167 12.6719 38.5638 12.8291 38.2676 12.9521C37.9759 13.0752 37.6387 13.1367 37.2559 13.1367C36.7728 13.1367 36.3421 13.041 35.9639 12.8496C35.5856 12.6536 35.2894 12.3916 35.0752 12.0635C34.861 11.7308 34.7539 11.3548 34.7539 10.9355C34.7539 10.5436 34.8268 10.1973 34.9727 9.89648C35.123 9.59115 35.3418 9.33594 35.6289 9.13086C35.9206 8.92578 36.276 8.77083 36.6953 8.66602C37.1146 8.55664 37.5931 8.50195 38.1309 8.50195H39.4229ZM47.2979 5.60352H48.7949V12.7949C48.7949 13.4603 48.6536 14.0254 48.3711 14.4902C48.0885 14.9551 47.6943 15.3083 47.1885 15.5498C46.6826 15.7959 46.097 15.9189 45.4316 15.9189C45.1491 15.9189 44.8346 15.8779 44.4883 15.7959C44.1465 15.7139 43.8138 15.5817 43.4902 15.3994C43.1712 15.2217 42.9046 14.987 42.6904 14.6953L43.4629 13.7246C43.7272 14.0391 44.0189 14.2692 44.3379 14.415C44.6569 14.5609 44.9919 14.6338 45.3428 14.6338C45.721 14.6338 46.0423 14.5632 46.3066 14.4219C46.5755 14.2852 46.7829 14.0824 46.9287 13.8135C47.0745 13.5446 47.1475 13.2165 47.1475 12.8291V7.27832L47.2979 5.60352ZM42.2734 9.38379V9.24023C42.2734 8.67969 42.3418 8.16927 42.4785 7.70898C42.6152 7.24414 42.8112 6.84538 43.0664 6.5127C43.3216 6.17546 43.6315 5.91797 43.9961 5.74023C44.3607 5.55794 44.7731 5.4668 45.2334 5.4668C45.7119 5.4668 46.1198 5.55339 46.457 5.72656C46.7988 5.89974 47.0837 6.14811 47.3115 6.47168C47.5394 6.79069 47.7171 7.1735 47.8447 7.62012C47.9769 8.06217 48.0749 8.55436 48.1387 9.09668V9.55469C48.0794 10.0833 47.9792 10.5664 47.8379 11.0039C47.6966 11.4414 47.5098 11.8197 47.2773 12.1387C47.0449 12.4577 46.7578 12.7038 46.416 12.877C46.0788 13.0501 45.68 13.1367 45.2197 13.1367C44.7686 13.1367 44.3607 13.0433 43.9961 12.8564C43.6361 12.6696 43.3262 12.4076 43.0664 12.0703C42.8112 11.7331 42.6152 11.3366 42.4785 10.8809C42.3418 10.4206 42.2734 9.92155 42.2734 9.38379ZM43.9209 9.24023V9.38379C43.9209 9.72103 43.9528 10.0355 44.0166 10.3271C44.085 10.6188 44.1875 10.8763 44.3242 11.0996C44.4655 11.3184 44.6432 11.4915 44.8574 11.6191C45.0762 11.7422 45.3337 11.8037 45.6299 11.8037C46.0173 11.8037 46.334 11.7217 46.5801 11.5576C46.8307 11.3936 47.0221 11.1725 47.1543 10.8945C47.291 10.612 47.3867 10.2975 47.4414 9.95117V8.71387C47.4141 8.44499 47.3571 8.19434 47.2705 7.96191C47.1885 7.72949 47.0768 7.52669 46.9355 7.35352C46.7943 7.17578 46.6165 7.03906 46.4023 6.94336C46.1882 6.8431 45.9352 6.79297 45.6436 6.79297C45.3473 6.79297 45.0898 6.85677 44.8711 6.98438C44.6523 7.11198 44.4723 7.28743 44.3311 7.51074C44.1943 7.73405 44.0918 7.99382 44.0234 8.29004C43.9551 8.58626 43.9209 8.90299 43.9209 9.24023ZM53.7646 13.1367C53.2178 13.1367 52.7233 13.0479 52.2812 12.8701C51.8438 12.6878 51.4701 12.4349 51.1602 12.1113C50.8548 11.7878 50.6201 11.4072 50.4561 10.9697C50.292 10.5322 50.21 10.0605 50.21 9.55469V9.28125C50.21 8.70247 50.2943 8.17839 50.4629 7.70898C50.6315 7.23958 50.8662 6.83854 51.167 6.50586C51.4678 6.16862 51.8232 5.91113 52.2334 5.7334C52.6436 5.55566 53.0879 5.4668 53.5664 5.4668C54.0951 5.4668 54.5576 5.55566 54.9541 5.7334C55.3506 5.91113 55.6787 6.16178 55.9385 6.48535C56.2028 6.80436 56.3988 7.1849 56.5264 7.62695C56.6585 8.06901 56.7246 8.55664 56.7246 9.08984V9.79395H51.0098V8.61133H55.0977V8.48145C55.0885 8.18522 55.0293 7.90723 54.9199 7.64746C54.8151 7.3877 54.6533 7.17806 54.4346 7.01855C54.2158 6.85905 53.9242 6.7793 53.5596 6.7793C53.2861 6.7793 53.0423 6.83854 52.8281 6.95703C52.6185 7.07096 52.443 7.2373 52.3018 7.45605C52.1605 7.6748 52.0511 7.93913 51.9736 8.24902C51.9007 8.55436 51.8643 8.89844 51.8643 9.28125V9.55469C51.8643 9.87826 51.9076 10.179 51.9941 10.457C52.0853 10.7305 52.2174 10.9697 52.3906 11.1748C52.5638 11.3799 52.7734 11.5417 53.0195 11.6602C53.2656 11.7741 53.5459 11.8311 53.8604 11.8311C54.2568 11.8311 54.61 11.7513 54.9199 11.5918C55.2298 11.4323 55.4987 11.2067 55.7266 10.915L56.5947 11.7559C56.4352 11.9883 56.2279 12.2116 55.9727 12.4258C55.7174 12.6354 55.4053 12.8063 55.0361 12.9385C54.6715 13.0706 54.2477 13.1367 53.7646 13.1367Z" fill="#354F5B"/>
<path d="M6.08858 38.9023C6.08858 38.668 6.04951 38.459 5.97139 38.2754C5.89326 38.0918 5.76436 37.9277 5.58467 37.7832C5.40889 37.6348 5.17061 37.498 4.86983 37.373C4.57295 37.2441 4.20186 37.1172 3.75655 36.9922C3.33076 36.8711 2.946 36.7383 2.60225 36.5938C2.2585 36.4492 1.96358 36.2832 1.71748 36.0957C1.4753 35.9082 1.28975 35.6895 1.16084 35.4395C1.03194 35.1855 0.967484 34.8906 0.967484 34.5547C0.967484 34.2266 1.0378 33.9277 1.17842 33.6582C1.31905 33.3887 1.51631 33.1562 1.77022 32.9609C2.02803 32.7656 2.33076 32.6152 2.67842 32.5098C3.02998 32.4043 3.41475 32.3516 3.83272 32.3516C4.43037 32.3516 4.946 32.4648 5.37959 32.6914C5.81709 32.918 6.15498 33.2246 6.39326 33.6113C6.63545 33.9941 6.75655 34.4238 6.75655 34.9004H6.03584C6.03584 34.5293 5.94795 34.1992 5.77217 33.9102C5.6003 33.6172 5.3503 33.3887 5.02217 33.2246C4.69795 33.0566 4.30147 32.9727 3.83272 32.9727C3.36397 32.9727 2.96944 33.0449 2.64912 33.1895C2.33272 33.3301 2.09248 33.5195 1.92842 33.7578C1.76826 33.9922 1.68819 34.2539 1.68819 34.543C1.68819 34.7461 1.72725 34.9336 1.80537 35.1055C1.8835 35.2734 2.01045 35.4316 2.18623 35.5801C2.36592 35.7246 2.60225 35.8613 2.89522 35.9902C3.18819 36.1152 3.54951 36.2344 3.9792 36.3477C4.43233 36.4727 4.83467 36.6113 5.18623 36.7637C5.5378 36.916 5.83467 37.0918 6.07686 37.291C6.31905 37.4863 6.50264 37.7148 6.62764 37.9766C6.75264 38.2383 6.81514 38.543 6.81514 38.8906C6.81514 39.2383 6.74092 39.5508 6.59248 39.8281C6.44795 40.1016 6.24287 40.334 5.97725 40.5254C5.71553 40.7168 5.40498 40.8633 5.04561 40.9648C4.69014 41.0664 4.30147 41.1172 3.87959 41.1172C3.50069 41.1172 3.12373 41.0684 2.74873 40.9707C2.37373 40.873 2.02998 40.7227 1.71748 40.5195C1.40889 40.3125 1.16084 40.0469 0.973343 39.7227C0.789749 39.3984 0.697952 39.0117 0.697952 38.5625H1.4128C1.4128 38.9219 1.48506 39.2246 1.62959 39.4707C1.77412 39.7168 1.96553 39.916 2.20381 40.0684C2.446 40.2207 2.71162 40.332 3.00069 40.4023C3.29366 40.4688 3.58662 40.502 3.87959 40.502C4.32881 40.502 4.71748 40.4355 5.04561 40.3027C5.37764 40.1699 5.6335 39.9844 5.81319 39.7461C5.99678 39.5039 6.08858 39.2227 6.08858 38.9023ZM10.6589 41.1172C10.2448 41.1172 9.86397 41.041 9.51631 40.8887C9.17256 40.7363 8.87178 40.5215 8.61397 40.2441C8.36006 39.9668 8.1628 39.6387 8.02217 39.2598C7.88545 38.877 7.81709 38.459 7.81709 38.0059V37.7539C7.81709 37.2656 7.88936 36.8242 8.03389 36.4297C8.17842 36.0352 8.37764 35.6973 8.63155 35.416C8.88545 35.1348 9.17451 34.9199 9.49873 34.7715C9.82686 34.6191 10.1706 34.543 10.53 34.543C10.9323 34.543 11.2897 34.6152 11.6022 34.7598C11.9147 34.9004 12.1765 35.1016 12.3874 35.3633C12.6022 35.6211 12.7644 35.9277 12.8737 36.2832C12.9831 36.6348 13.0378 37.0234 13.0378 37.4492V37.877H8.23897V37.2793H12.3405V37.1973C12.3327 36.8418 12.2605 36.5098 12.1237 36.2012C11.9909 35.8887 11.7917 35.6348 11.5261 35.4395C11.2605 35.2441 10.9284 35.1465 10.53 35.1465C10.2331 35.1465 9.95967 35.209 9.70967 35.334C9.46358 35.459 9.25069 35.6387 9.071 35.873C8.89522 36.1035 8.7585 36.3789 8.66084 36.6992C8.56709 37.0156 8.52022 37.3672 8.52022 37.7539V38.0059C8.52022 38.3574 8.571 38.6855 8.67256 38.9902C8.77803 39.291 8.92647 39.5566 9.11787 39.7871C9.31319 40.0176 9.54366 40.1973 9.80928 40.3262C10.0749 40.4551 10.3679 40.5195 10.6882 40.5195C11.0632 40.5195 11.3952 40.4512 11.6843 40.3145C11.9733 40.1738 12.2331 39.9531 12.4636 39.6523L12.903 39.9922C12.7663 40.1953 12.5944 40.3828 12.3874 40.5547C12.1843 40.7266 11.9401 40.8633 11.655 40.9648C11.3698 41.0664 11.0378 41.1172 10.6589 41.1172ZM15.1179 36.0137V41H14.4206V34.6602H15.0886L15.1179 36.0137ZM14.9597 37.4375L14.6491 37.2617C14.6726 36.8867 14.7487 36.5352 14.8776 36.207C15.0065 35.8789 15.1804 35.5898 15.3991 35.3398C15.6218 35.0898 15.8815 34.8945 16.1784 34.7539C16.4792 34.6133 16.8112 34.543 17.1745 34.543C17.4909 34.543 17.7741 34.5859 18.0241 34.6719C18.2741 34.7578 18.487 34.8945 18.6628 35.082C18.8386 35.2695 18.9714 35.5098 19.0612 35.8027C19.155 36.0957 19.2019 36.4531 19.2019 36.875V41H18.4987V36.8691C18.4987 36.4316 18.4382 36.0898 18.3171 35.8438C18.196 35.5938 18.0241 35.416 17.8015 35.3105C17.5788 35.2051 17.3151 35.1523 17.0105 35.1523C16.6745 35.1523 16.3796 35.2266 16.1257 35.375C15.8757 35.5195 15.6647 35.709 15.4929 35.9434C15.3249 36.1738 15.196 36.4219 15.1062 36.6875C15.0163 36.9492 14.9675 37.1992 14.9597 37.4375ZM25.1374 39.7695V32H25.8405V41H25.1843L25.1374 39.7695ZM20.737 37.8945V37.7715C20.737 37.2793 20.7937 36.8359 20.9069 36.4414C21.0202 36.043 21.1823 35.7031 21.3933 35.4219C21.6081 35.1367 21.8659 34.9199 22.1667 34.7715C22.4675 34.6191 22.8073 34.543 23.1862 34.543C23.5573 34.543 23.8855 34.6035 24.1706 34.7246C24.4558 34.8457 24.6999 35.0195 24.903 35.2461C25.1101 35.4727 25.2761 35.7422 25.4011 36.0547C25.53 36.3672 25.6237 36.7148 25.6823 37.0977V38.6621C25.6355 39.0215 25.5495 39.3516 25.4245 39.6523C25.2995 39.9492 25.1335 40.209 24.9265 40.4316C24.7194 40.6504 24.4694 40.8203 24.1765 40.9414C23.8874 41.0586 23.5534 41.1172 23.1745 41.1172C22.7995 41.1172 22.4616 41.0391 22.1608 40.8828C21.8601 40.7266 21.6042 40.5059 21.3933 40.2207C21.1823 39.9316 21.0202 39.5898 20.9069 39.1953C20.7937 38.8008 20.737 38.3672 20.737 37.8945ZM21.4401 37.7715V37.8945C21.4401 38.2656 21.4772 38.6094 21.5515 38.9258C21.6257 39.2422 21.739 39.5176 21.8913 39.752C22.0437 39.9863 22.237 40.1699 22.4714 40.3027C22.7058 40.4355 22.9831 40.502 23.3034 40.502C23.7058 40.502 24.0437 40.4258 24.3171 40.2734C24.5905 40.1172 24.8093 39.9121 24.9733 39.6582C25.1374 39.4004 25.2565 39.1191 25.3308 38.8145V36.9922C25.2839 36.7852 25.2155 36.5742 25.1257 36.3594C25.0358 36.1445 24.9128 35.9473 24.7565 35.7676C24.6042 35.584 24.4089 35.4375 24.1706 35.3281C23.9362 35.2148 23.6511 35.1582 23.3151 35.1582C22.9909 35.1582 22.7116 35.2246 22.4772 35.3574C22.2429 35.4902 22.0476 35.6758 21.8913 35.9141C21.739 36.1484 21.6257 36.4238 21.5515 36.7402C21.4772 37.0566 21.4401 37.4004 21.4401 37.7715ZM34.4714 39.8633V36.5938C34.4714 36.293 34.4089 36.0332 34.2839 35.8145C34.1589 35.5957 33.9753 35.4277 33.7331 35.3105C33.4909 35.1934 33.1921 35.1348 32.8366 35.1348C32.5085 35.1348 32.2155 35.1934 31.9577 35.3105C31.7038 35.4238 31.5026 35.5781 31.3542 35.7734C31.2097 35.9648 31.1374 36.1777 31.1374 36.4121L30.4343 36.4062C30.4343 36.168 30.4929 35.9375 30.6101 35.7148C30.7272 35.4922 30.8933 35.293 31.1081 35.1172C31.323 34.9414 31.5788 34.8027 31.8757 34.7012C32.1765 34.5957 32.5065 34.543 32.8659 34.543C33.319 34.543 33.7175 34.6191 34.0612 34.7715C34.4089 34.9238 34.6804 35.1523 34.8757 35.457C35.071 35.7617 35.1687 36.1445 35.1687 36.6055V39.6699C35.1687 39.8887 35.1843 40.1152 35.2155 40.3496C35.2507 40.584 35.2995 40.7773 35.362 40.9297V41H34.6179C34.571 40.8594 34.5339 40.6836 34.5065 40.4727C34.4831 40.2578 34.4714 40.0547 34.4714 39.8633ZM34.6355 37.3086L34.6472 37.8477H33.2702C32.9108 37.8477 32.5886 37.8809 32.3034 37.9473C32.0222 38.0098 31.7839 38.1035 31.5886 38.2285C31.3933 38.3496 31.2429 38.4961 31.1374 38.668C31.0358 38.8398 30.9851 39.0352 30.9851 39.2539C30.9851 39.4805 31.0417 39.6875 31.155 39.875C31.2722 40.0625 31.4362 40.2129 31.6472 40.3262C31.862 40.4355 32.1159 40.4902 32.4089 40.4902C32.7995 40.4902 33.1433 40.418 33.4401 40.2734C33.7409 40.1289 33.989 39.9395 34.1843 39.7051C34.3796 39.4707 34.5105 39.2148 34.5769 38.9375L34.8815 39.3418C34.8308 39.5371 34.737 39.7383 34.6003 39.9453C34.4675 40.1484 34.2937 40.3398 34.0788 40.5195C33.864 40.6953 33.6101 40.8398 33.3171 40.9531C33.028 41.0625 32.6999 41.1172 32.3327 41.1172C31.9187 41.1172 31.5573 41.0391 31.2487 40.8828C30.944 40.7266 30.7058 40.5137 30.5339 40.2441C30.3659 39.9707 30.2819 39.6621 30.2819 39.3184C30.2819 39.0059 30.3483 38.7266 30.4812 38.4805C30.614 38.2305 30.8054 38.0195 31.0554 37.8477C31.3093 37.6719 31.614 37.5391 31.9694 37.4492C32.3288 37.3555 32.7312 37.3086 33.1765 37.3086H34.6355ZM37.7468 36.0137V41H37.0495V34.6602H37.7175L37.7468 36.0137ZM37.5886 37.4375L37.278 37.2617C37.3015 36.8867 37.3776 36.5352 37.5065 36.207C37.6355 35.8789 37.8093 35.5898 38.028 35.3398C38.2507 35.0898 38.5105 34.8945 38.8073 34.7539C39.1081 34.6133 39.4401 34.543 39.8034 34.543C40.1198 34.543 40.403 34.5859 40.653 34.6719C40.903 34.7578 41.1159 34.8945 41.2917 35.082C41.4675 35.2695 41.6003 35.5098 41.6901 35.8027C41.7839 36.0957 41.8308 36.4531 41.8308 36.875V41H41.1276V36.8691C41.1276 36.4316 41.0671 36.0898 40.946 35.8438C40.8249 35.5938 40.653 35.416 40.4304 35.3105C40.2077 35.2051 39.944 35.1523 39.6394 35.1523C39.3034 35.1523 39.0085 35.2266 38.7546 35.375C38.5046 35.5195 38.2937 35.709 38.1218 35.9434C37.9538 36.1738 37.8249 36.4219 37.7351 36.6875C37.6452 36.9492 37.5964 37.1992 37.5886 37.4375ZM45.528 40.3672L47.5026 34.6602H48.2585L45.5749 42.0195C45.5202 42.1641 45.4499 42.3242 45.364 42.5C45.2819 42.6758 45.1726 42.8438 45.0358 43.0039C44.903 43.168 44.7351 43.3008 44.5319 43.4023C44.3327 43.5078 44.0886 43.5605 43.7995 43.5605C43.7253 43.5605 43.6296 43.5508 43.5124 43.5312C43.3991 43.5156 43.3171 43.5 43.2663 43.4844L43.2605 42.8926C43.3034 42.9043 43.3659 42.9141 43.448 42.9219C43.53 42.9297 43.5866 42.9336 43.6179 42.9336C43.8718 42.9336 44.0847 42.8906 44.2565 42.8047C44.4323 42.7188 44.5788 42.5898 44.696 42.418C44.8132 42.25 44.9167 42.0391 45.0065 41.7852L45.528 40.3672ZM43.6823 34.6602L45.7038 40.1035L45.8913 40.8359L45.3815 41.123L42.9206 34.6602H43.6823ZM54.6804 34.6602V35.2344H51.5046V34.6602H54.6804ZM52.6706 33.0312H53.3679V39.459C53.3679 39.752 53.4069 39.9727 53.4851 40.1211C53.5632 40.2695 53.6647 40.3691 53.7897 40.4199C53.9147 40.4707 54.0495 40.4961 54.194 40.4961C54.2995 40.4961 54.4011 40.4902 54.4987 40.4785C54.5964 40.4629 54.6843 40.4473 54.7624 40.4316L54.7917 41.0234C54.7058 41.0508 54.5944 41.0723 54.4577 41.0879C54.321 41.1074 54.1843 41.1172 54.0476 41.1172C53.778 41.1172 53.5397 41.0684 53.3327 40.9707C53.1257 40.8691 52.9636 40.6973 52.8464 40.4551C52.7292 40.209 52.6706 39.875 52.6706 39.4531V33.0312ZM58.6003 41.1172C58.1862 41.1172 57.8054 41.041 57.4577 40.8887C57.114 40.7363 56.8132 40.5215 56.5554 40.2441C56.3015 39.9668 56.1042 39.6387 55.9636 39.2598C55.8269 38.877 55.7585 38.459 55.7585 38.0059V37.7539C55.7585 37.2656 55.8308 36.8242 55.9753 36.4297C56.1198 36.0352 56.319 35.6973 56.573 35.416C56.8269 35.1348 57.1159 34.9199 57.4401 34.7715C57.7683 34.6191 58.112 34.543 58.4714 34.543C58.8737 34.543 59.2312 34.6152 59.5437 34.7598C59.8562 34.9004 60.1179 35.1016 60.3288 35.3633C60.5437 35.6211 60.7058 35.9277 60.8151 36.2832C60.9245 36.6348 60.9792 37.0234 60.9792 37.4492V37.877H56.1804V37.2793H60.2819V37.1973C60.2741 36.8418 60.2019 36.5098 60.0651 36.2012C59.9323 35.8887 59.7331 35.6348 59.4675 35.4395C59.2019 35.2441 58.8698 35.1465 58.4714 35.1465C58.1745 35.1465 57.9011 35.209 57.6511 35.334C57.405 35.459 57.1921 35.6387 57.0124 35.873C56.8366 36.1035 56.6999 36.3789 56.6022 36.6992C56.5085 37.0156 56.4616 37.3672 56.4616 37.7539V38.0059C56.4616 38.3574 56.5124 38.6855 56.614 38.9902C56.7194 39.291 56.8679 39.5566 57.0593 39.7871C57.2546 40.0176 57.4851 40.1973 57.7507 40.3262C58.0163 40.4551 58.3093 40.5195 58.6296 40.5195C59.0046 40.5195 59.3366 40.4512 59.6257 40.3145C59.9147 40.1738 60.1745 39.9531 60.405 39.6523L60.8444 39.9922C60.7077 40.1953 60.5358 40.3828 60.3288 40.5547C60.1257 40.7266 59.8815 40.8633 59.5964 40.9648C59.3112 41.0664 58.9792 41.1172 58.6003 41.1172ZM62.6374 34.6602L64.3483 37.2207L66.0651 34.6602H66.8972L64.7468 37.7656L66.9851 41H66.1647L64.3542 38.3223L62.5495 41H61.7292L63.9675 37.7656L61.8171 34.6602H62.6374ZM70.6062 34.6602V35.2344H67.4304V34.6602H70.6062ZM68.5964 33.0312H69.2937V39.459C69.2937 39.752 69.3327 39.9727 69.4108 40.1211C69.489 40.2695 69.5905 40.3691 69.7155 40.4199C69.8405 40.4707 69.9753 40.4961 70.1198 40.4961C70.2253 40.4961 70.3269 40.4902 70.4245 40.4785C70.5222 40.4629 70.6101 40.4473 70.6882 40.4316L70.7175 41.0234C70.6315 41.0508 70.5202 41.0723 70.3835 41.0879C70.2468 41.1074 70.1101 41.1172 69.9733 41.1172C69.7038 41.1172 69.4655 41.0684 69.2585 40.9707C69.0515 40.8691 68.8894 40.6973 68.7722 40.4551C68.655 40.209 68.5964 39.875 68.5964 39.4531V33.0312ZM75.6687 35.9727V41H74.9655V34.6602H75.6394L75.6687 35.9727ZM75.5397 37.4375L75.1999 37.2617C75.2233 36.8867 75.2937 36.5352 75.4108 36.207C75.5319 35.8789 75.6999 35.5898 75.9147 35.3398C76.1296 35.0898 76.3874 34.8945 76.6882 34.7539C76.989 34.6133 77.3308 34.543 77.7136 34.543C78.0222 34.543 78.3015 34.5859 78.5515 34.6719C78.8054 34.7539 79.0202 34.8848 79.196 35.0645C79.3757 35.2402 79.5144 35.4707 79.612 35.7559C79.7097 36.041 79.7585 36.3828 79.7585 36.7812V41H79.0612V36.8047C79.0612 36.3828 78.9948 36.0527 78.862 35.8145C78.7331 35.5762 78.5515 35.4062 78.3171 35.3047C78.0866 35.2031 77.819 35.1523 77.5144 35.1523C77.155 35.1523 76.8503 35.2266 76.6003 35.375C76.3542 35.5195 76.153 35.709 75.9968 35.9434C75.8444 36.1738 75.7312 36.4219 75.6569 36.6875C75.5827 36.9492 75.5437 37.1992 75.5397 37.4375ZM79.7526 36.8867L79.2839 36.8984C79.3034 36.5898 79.3737 36.2949 79.4948 36.0137C79.6198 35.7324 79.7897 35.4824 80.0046 35.2637C80.2194 35.041 80.4753 34.8652 80.7722 34.7363C81.073 34.6074 81.4108 34.543 81.7858 34.543C82.114 34.543 82.4069 34.5879 82.6647 34.6777C82.9226 34.7637 83.1394 34.9023 83.3151 35.0938C83.4948 35.2812 83.6315 35.5215 83.7253 35.8145C83.819 36.1074 83.8659 36.459 83.8659 36.8691V41H83.1628V36.8633C83.1628 36.4141 83.0964 36.0664 82.9636 35.8203C82.8347 35.5703 82.655 35.3965 82.4245 35.2988C82.194 35.2012 81.9245 35.1523 81.6159 35.1523C81.3112 35.1562 81.0437 35.2129 80.8132 35.3223C80.5827 35.4277 80.3894 35.5684 80.2331 35.7441C80.0808 35.916 79.9636 36.1016 79.8815 36.3008C79.8034 36.5 79.7605 36.6953 79.7526 36.8867ZM88.0964 41.1172C87.6823 41.1172 87.3015 41.041 86.9538 40.8887C86.6101 40.7363 86.3093 40.5215 86.0515 40.2441C85.7976 39.9668 85.6003 39.6387 85.4597 39.2598C85.323 38.877 85.2546 38.459 85.2546 38.0059V37.7539C85.2546 37.2656 85.3269 36.8242 85.4714 36.4297C85.6159 36.0352 85.8151 35.6973 86.069 35.416C86.323 35.1348 86.612 34.9199 86.9362 34.7715C87.2644 34.6191 87.6081 34.543 87.9675 34.543C88.3698 34.543 88.7272 34.6152 89.0397 34.7598C89.3522 34.9004 89.614 35.1016 89.8249 35.3633C90.0397 35.6211 90.2019 35.9277 90.3112 36.2832C90.4206 36.6348 90.4753 37.0234 90.4753 37.4492V37.877H85.6765V37.2793H89.778V37.1973C89.7702 36.8418 89.698 36.5098 89.5612 36.2012C89.4284 35.8887 89.2292 35.6348 88.9636 35.4395C88.698 35.2441 88.3659 35.1465 87.9675 35.1465C87.6706 35.1465 87.3972 35.209 87.1472 35.334C86.9011 35.459 86.6882 35.6387 86.5085 35.873C86.3327 36.1035 86.196 36.3789 86.0983 36.6992C86.0046 37.0156 85.9577 37.3672 85.9577 37.7539V38.0059C85.9577 38.3574 86.0085 38.6855 86.1101 38.9902C86.2155 39.291 86.364 39.5566 86.5554 39.7871C86.7507 40.0176 86.9812 40.1973 87.2468 40.3262C87.5124 40.4551 87.8054 40.5195 88.1257 40.5195C88.5007 40.5195 88.8327 40.4512 89.1218 40.3145C89.4108 40.1738 89.6706 39.9531 89.9011 39.6523L90.3405 39.9922C90.2038 40.1953 90.0319 40.3828 89.8249 40.5547C89.6218 40.7266 89.3776 40.8633 89.0925 40.9648C88.8073 41.0664 88.4753 41.1172 88.0964 41.1172ZM95.655 39.3828C95.655 39.2109 95.612 39.041 95.5261 38.873C95.4401 38.7051 95.2741 38.5508 95.028 38.4102C94.7858 38.2695 94.4284 38.1504 93.9558 38.0527C93.6042 37.9746 93.2897 37.8867 93.0124 37.7891C92.739 37.6914 92.5085 37.5742 92.321 37.4375C92.1335 37.3008 91.9909 37.1367 91.8933 36.9453C91.7956 36.7539 91.7468 36.5273 91.7468 36.2656C91.7468 36.0312 91.7976 35.8105 91.8991 35.6035C92.0046 35.3926 92.153 35.209 92.3444 35.0527C92.5397 34.8926 92.7741 34.7676 93.0476 34.6777C93.3249 34.5879 93.6355 34.543 93.9792 34.543C94.4675 34.543 94.8855 34.627 95.2331 34.7949C95.5847 34.959 95.8522 35.1836 96.0358 35.4688C96.2233 35.7539 96.3171 36.0762 96.3171 36.4355H95.6198C95.6198 36.2168 95.5554 36.0098 95.4265 35.8145C95.3015 35.6191 95.1159 35.459 94.8698 35.334C94.6276 35.209 94.3308 35.1465 93.9792 35.1465C93.6159 35.1465 93.321 35.2012 93.0944 35.3105C92.8679 35.4199 92.7019 35.5586 92.5964 35.7266C92.4948 35.8945 92.444 36.0684 92.444 36.248C92.444 36.3887 92.4655 36.5176 92.5085 36.6348C92.5554 36.748 92.6374 36.8535 92.7546 36.9512C92.8757 37.0488 93.0476 37.1406 93.2702 37.2266C93.4929 37.3125 93.7819 37.3965 94.1374 37.4785C94.6491 37.5918 95.0671 37.7305 95.3913 37.8945C95.7194 38.0547 95.9616 38.2539 96.1179 38.4922C96.2741 38.7266 96.3522 39.0117 96.3522 39.3477C96.3522 39.6094 96.2976 39.8496 96.1882 40.0684C96.0788 40.2832 95.9206 40.4688 95.7136 40.625C95.5105 40.7812 95.2644 40.9023 94.9753 40.9883C94.6901 41.0742 94.3698 41.1172 94.0144 41.1172C93.4792 41.1172 93.0261 41.0293 92.655 40.8535C92.2878 40.6738 92.0085 40.4395 91.8171 40.1504C91.6296 39.8574 91.5358 39.5469 91.5358 39.2188H92.2331C92.2565 39.5469 92.3601 39.8066 92.5437 39.998C92.7272 40.1855 92.9519 40.3184 93.2175 40.3965C93.487 40.4746 93.7526 40.5137 94.0144 40.5137C94.3737 40.5137 94.6745 40.4609 94.9167 40.3555C95.1589 40.25 95.3425 40.1113 95.4675 39.9395C95.5925 39.7676 95.655 39.582 95.655 39.3828ZM101.737 39.3828C101.737 39.2109 101.694 39.041 101.608 38.873C101.522 38.7051 101.356 38.5508 101.11 38.4102C100.868 38.2695 100.51 38.1504 100.038 38.0527C99.6862 37.9746 99.3718 37.8867 99.0944 37.7891C98.821 37.6914 98.5905 37.5742 98.403 37.4375C98.2155 37.3008 98.073 37.1367 97.9753 36.9453C97.8776 36.7539 97.8288 36.5273 97.8288 36.2656C97.8288 36.0312 97.8796 35.8105 97.9812 35.6035C98.0866 35.3926 98.2351 35.209 98.4265 35.0527C98.6218 34.8926 98.8562 34.7676 99.1296 34.6777C99.4069 34.5879 99.7175 34.543 100.061 34.543C100.55 34.543 100.967 34.627 101.315 34.7949C101.667 34.959 101.934 35.1836 102.118 35.4688C102.305 35.7539 102.399 36.0762 102.399 36.4355H101.702C101.702 36.2168 101.637 36.0098 101.508 35.8145C101.383 35.6191 101.198 35.459 100.952 35.334C100.71 35.209 100.413 35.1465 100.061 35.1465C99.698 35.1465 99.403 35.2012 99.1765 35.3105C98.9499 35.4199 98.7839 35.5586 98.6784 35.7266C98.5769 35.8945 98.5261 36.0684 98.5261 36.248C98.5261 36.3887 98.5476 36.5176 98.5905 36.6348C98.6374 36.748 98.7194 36.8535 98.8366 36.9512C98.9577 37.0488 99.1296 37.1406 99.3522 37.2266C99.5749 37.3125 99.864 37.3965 100.219 37.4785C100.731 37.5918 101.149 37.7305 101.473 37.8945C101.801 38.0547 102.044 38.2539 102.2 38.4922C102.356 38.7266 102.434 39.0117 102.434 39.3477C102.434 39.6094 102.38 39.8496 102.27 40.0684C102.161 40.2832 102.003 40.4688 101.796 40.625C101.592 40.7812 101.346 40.9023 101.057 40.9883C100.772 41.0742 100.452 41.1172 100.096 41.1172C99.5612 41.1172 99.1081 41.0293 98.737 40.8535C98.3698 40.6738 98.0905 40.4395 97.8991 40.1504C97.7116 39.8574 97.6179 39.5469 97.6179 39.2188H98.3151C98.3386 39.5469 98.4421 39.8066 98.6257 39.998C98.8093 40.1855 99.0339 40.3184 99.2995 40.3965C99.569 40.4746 99.8347 40.5137 100.096 40.5137C100.456 40.5137 100.757 40.4609 100.999 40.3555C101.241 40.25 101.425 40.1113 101.55 39.9395C101.675 39.7676 101.737 39.582 101.737 39.3828ZM107.878 39.8633V36.5938C107.878 36.293 107.815 36.0332 107.69 35.8145C107.565 35.5957 107.382 35.4277 107.139 35.3105C106.897 35.1934 106.598 35.1348 106.243 35.1348C105.915 35.1348 105.622 35.1934 105.364 35.3105C105.11 35.4238 104.909 35.5781 104.76 35.7734C104.616 35.9648 104.544 36.1777 104.544 36.4121L103.841 36.4062C103.841 36.168 103.899 35.9375 104.016 35.7148C104.133 35.4922 104.3 35.293 104.514 35.1172C104.729 34.9414 104.985 34.8027 105.282 34.7012C105.583 34.5957 105.913 34.543 106.272 34.543C106.725 34.543 107.124 34.6191 107.467 34.7715C107.815 34.9238 108.087 35.1523 108.282 35.457C108.477 35.7617 108.575 36.1445 108.575 36.6055V39.6699C108.575 39.8887 108.591 40.1152 108.622 40.3496C108.657 40.584 108.706 40.7773 108.768 40.9297V41H108.024C107.977 40.8594 107.94 40.6836 107.913 40.4727C107.889 40.2578 107.878 40.0547 107.878 39.8633ZM108.042 37.3086L108.053 37.8477H106.676C106.317 37.8477 105.995 37.8809 105.71 37.9473C105.428 38.0098 105.19 38.1035 104.995 38.2285C104.8 38.3496 104.649 38.4961 104.544 38.668C104.442 38.8398 104.391 39.0352 104.391 39.2539C104.391 39.4805 104.448 39.6875 104.561 39.875C104.678 40.0625 104.842 40.2129 105.053 40.3262C105.268 40.4355 105.522 40.4902 105.815 40.4902C106.206 40.4902 106.55 40.418 106.846 40.2734C107.147 40.1289 107.395 39.9395 107.591 39.7051C107.786 39.4707 107.917 39.2148 107.983 38.9375L108.288 39.3418C108.237 39.5371 108.143 39.7383 108.007 39.9453C107.874 40.1484 107.7 40.3398 107.485 40.5195C107.27 40.6953 107.016 40.8398 106.723 40.9531C106.434 41.0625 106.106 41.1172 105.739 41.1172C105.325 41.1172 104.964 41.0391 104.655 40.8828C104.35 40.7266 104.112 40.5137 103.94 40.2441C103.772 39.9707 103.688 39.6621 103.688 39.3184C103.688 39.0059 103.755 38.7266 103.887 38.4805C104.02 38.2305 104.212 38.0195 104.462 37.8477C104.716 37.6719 105.02 37.5391 105.376 37.4492C105.735 37.3555 106.137 37.3086 106.583 37.3086H108.042ZM114.628 34.6602H115.278V40.8887C115.278 41.4395 115.173 41.9121 114.962 42.3066C114.755 42.7012 114.46 43.0039 114.077 43.2148C113.698 43.4258 113.251 43.5312 112.735 43.5312C112.473 43.5312 112.204 43.4902 111.926 43.4082C111.653 43.3301 111.393 43.209 111.147 43.0449C110.905 42.8848 110.698 42.6855 110.526 42.4473L110.919 42.0195C111.176 42.332 111.452 42.5605 111.745 42.7051C112.038 42.8535 112.354 42.9277 112.694 42.9277C113.096 42.9277 113.436 42.8477 113.714 42.6875C113.995 42.5273 114.208 42.2969 114.352 41.9961C114.501 41.6953 114.575 41.334 114.575 40.9121V36.0547L114.628 34.6602ZM110.175 37.8945V37.7715C110.175 37.2793 110.229 36.8359 110.339 36.4414C110.452 36.043 110.614 35.7031 110.825 35.4219C111.036 35.1367 111.292 34.9199 111.592 34.7715C111.897 34.6191 112.241 34.543 112.624 34.543C112.991 34.543 113.317 34.6035 113.602 34.7246C113.887 34.8457 114.133 35.0195 114.341 35.2461C114.548 35.4727 114.714 35.7422 114.839 36.0547C114.967 36.3672 115.061 36.7148 115.12 37.0977V38.6621C115.073 39.0215 114.987 39.3516 114.862 39.6523C114.737 39.9492 114.571 40.209 114.364 40.4316C114.157 40.6504 113.907 40.8203 113.614 40.9414C113.325 41.0586 112.991 41.1172 112.612 41.1172C112.233 41.1172 111.893 41.0391 111.592 40.8828C111.292 40.7266 111.036 40.5059 110.825 40.2207C110.614 39.9316 110.452 39.5898 110.339 39.1953C110.229 38.8008 110.175 38.3672 110.175 37.8945ZM110.878 37.7715V37.8945C110.878 38.2656 110.915 38.6094 110.989 38.9258C111.063 39.2422 111.176 39.5176 111.329 39.752C111.481 39.9863 111.675 40.1699 111.909 40.3027C112.143 40.4355 112.419 40.502 112.735 40.502C113.137 40.502 113.475 40.4258 113.749 40.2734C114.022 40.1172 114.239 39.9121 114.399 39.6582C114.559 39.4004 114.676 39.1191 114.751 38.8145V36.9922C114.708 36.7852 114.641 36.5742 114.551 36.3594C114.466 36.1445 114.344 35.9473 114.188 35.7676C114.036 35.584 113.841 35.4375 113.602 35.3281C113.368 35.2148 113.083 35.1582 112.747 35.1582C112.426 35.1582 112.147 35.2246 111.909 35.3574C111.675 35.4902 111.481 35.6758 111.329 35.9141C111.176 36.1484 111.063 36.4238 110.989 36.7402C110.915 37.0566 110.878 37.4004 110.878 37.7715ZM119.561 41.1172C119.147 41.1172 118.766 41.041 118.419 40.8887C118.075 40.7363 117.774 40.5215 117.516 40.2441C117.262 39.9668 117.065 39.6387 116.925 39.2598C116.788 38.877 116.719 38.459 116.719 38.0059V37.7539C116.719 37.2656 116.792 36.8242 116.936 36.4297C117.081 36.0352 117.28 35.6973 117.534 35.416C117.788 35.1348 118.077 34.9199 118.401 34.7715C118.729 34.6191 119.073 34.543 119.432 34.543C119.835 34.543 120.192 34.6152 120.505 34.7598C120.817 34.9004 121.079 35.1016 121.29 35.3633C121.505 35.6211 121.667 35.9277 121.776 36.2832C121.885 36.6348 121.94 37.0234 121.94 37.4492V37.877H117.141V37.2793H121.243V37.1973C121.235 36.8418 121.163 36.5098 121.026 36.2012C120.893 35.8887 120.694 35.6348 120.428 35.4395C120.163 35.2441 119.831 35.1465 119.432 35.1465C119.135 35.1465 118.862 35.209 118.612 35.334C118.366 35.459 118.153 35.6387 117.973 35.873C117.798 36.1035 117.661 36.3789 117.563 36.6992C117.469 37.0156 117.423 37.3672 117.423 37.7539V38.0059C117.423 38.3574 117.473 38.6855 117.575 38.9902C117.68 39.291 117.829 39.5566 118.02 39.7871C118.216 40.0176 118.446 40.1973 118.712 40.3262C118.977 40.4551 119.27 40.5195 119.591 40.5195C119.966 40.5195 120.298 40.4512 120.587 40.3145C120.876 40.1738 121.135 39.9531 121.366 39.6523L121.805 39.9922C121.669 40.1953 121.497 40.3828 121.29 40.5547C121.087 40.7266 120.842 40.8633 120.557 40.9648C120.272 41.0664 119.94 41.1172 119.561 41.1172ZM127.032 34.6602V41H126.335V34.6602H127.032ZM126.212 32.8262C126.212 32.6934 126.253 32.582 126.335 32.4922C126.421 32.3984 126.538 32.3516 126.686 32.3516C126.835 32.3516 126.952 32.3984 127.038 32.4922C127.128 32.582 127.173 32.6934 127.173 32.8262C127.173 32.9551 127.128 33.0664 127.038 33.1602C126.952 33.25 126.835 33.2949 126.686 33.2949C126.538 33.2949 126.421 33.25 126.335 33.1602C126.253 33.0664 126.212 32.9551 126.212 32.8262ZM129.645 36.0137V41H128.948V34.6602H129.616L129.645 36.0137ZM129.487 37.4375L129.176 37.2617C129.2 36.8867 129.276 36.5352 129.405 36.207C129.534 35.8789 129.708 35.5898 129.926 35.3398C130.149 35.0898 130.409 34.8945 130.706 34.7539C131.007 34.6133 131.339 34.543 131.702 34.543C132.018 34.543 132.301 34.5859 132.551 34.6719C132.801 34.7578 133.014 34.8945 133.19 35.082C133.366 35.2695 133.499 35.5098 133.589 35.8027C133.682 36.0957 133.729 36.4531 133.729 36.875V41H133.026V36.8691C133.026 36.4316 132.966 36.0898 132.844 35.8438C132.723 35.5938 132.551 35.416 132.329 35.3105C132.106 35.2051 131.842 35.1523 131.538 35.1523C131.202 35.1523 130.907 35.2266 130.653 35.375C130.403 35.5195 130.192 35.709 130.02 35.9434C129.852 36.1738 129.723 36.4219 129.633 36.6875C129.544 36.9492 129.495 37.1992 129.487 37.4375ZM139.173 35.709V41H138.475V34.6602H139.155L139.173 35.709ZM141.417 34.6133L141.399 35.2578C141.321 35.2461 141.245 35.2363 141.171 35.2285C141.096 35.2207 141.016 35.2168 140.93 35.2168C140.626 35.2168 140.358 35.2734 140.128 35.3867C139.901 35.4961 139.71 35.6504 139.553 35.8496C139.397 36.0449 139.278 36.2754 139.196 36.541C139.114 36.8027 139.067 37.084 139.055 37.3848L138.798 37.4844C138.798 37.0703 138.841 36.6855 138.926 36.3301C139.012 35.9746 139.143 35.6641 139.319 35.3984C139.499 35.1289 139.723 34.9199 139.993 34.7715C140.266 34.6191 140.587 34.543 140.954 34.543C141.044 34.543 141.132 34.5508 141.217 34.5664C141.307 34.5781 141.374 34.5938 141.417 34.6133ZM144.85 41.1172C144.436 41.1172 144.055 41.041 143.708 40.8887C143.364 40.7363 143.063 40.5215 142.805 40.2441C142.551 39.9668 142.354 39.6387 142.214 39.2598C142.077 38.877 142.008 38.459 142.008 38.0059V37.7539C142.008 37.2656 142.081 36.8242 142.225 36.4297C142.37 36.0352 142.569 35.6973 142.823 35.416C143.077 35.1348 143.366 34.9199 143.69 34.7715C144.018 34.6191 144.362 34.543 144.721 34.543C145.124 34.543 145.481 34.6152 145.794 34.7598C146.106 34.9004 146.368 35.1016 146.579 35.3633C146.794 35.6211 146.956 35.9277 147.065 36.2832C147.175 36.6348 147.229 37.0234 147.229 37.4492V37.877H142.43V37.2793H146.532V37.1973C146.524 36.8418 146.452 36.5098 146.315 36.2012C146.182 35.8887 145.983 35.6348 145.717 35.4395C145.452 35.2441 145.12 35.1465 144.721 35.1465C144.425 35.1465 144.151 35.209 143.901 35.334C143.655 35.459 143.442 35.6387 143.262 35.873C143.087 36.1035 142.95 36.3789 142.852 36.6992C142.758 37.0156 142.712 37.3672 142.712 37.7539V38.0059C142.712 38.3574 142.762 38.6855 142.864 38.9902C142.969 39.291 143.118 39.5566 143.309 39.7871C143.505 40.0176 143.735 40.1973 144.001 40.3262C144.266 40.4551 144.559 40.5195 144.88 40.5195C145.255 40.5195 145.587 40.4512 145.876 40.3145C146.165 40.1738 146.425 39.9531 146.655 39.6523L147.094 39.9922C146.958 40.1953 146.786 40.3828 146.579 40.5547C146.376 40.7266 146.132 40.8633 145.846 40.9648C145.561 41.0664 145.229 41.1172 144.85 41.1172ZM152.731 43.4375V35.8789L152.778 34.6602H153.428V43.4375H152.731ZM148.331 37.8945V37.7715C148.331 37.2793 148.385 36.8359 148.495 36.4414C148.604 36.043 148.764 35.7031 148.975 35.4219C149.19 35.1367 149.448 34.9199 149.749 34.7715C150.053 34.6191 150.399 34.543 150.786 34.543C151.157 34.543 151.487 34.6035 151.776 34.7246C152.065 34.8457 152.313 35.0195 152.52 35.2461C152.731 35.4727 152.901 35.7422 153.03 36.0547C153.159 36.3672 153.253 36.7148 153.311 37.0977V38.6621C153.264 39.0215 153.176 39.3516 153.048 39.6523C152.923 39.9492 152.755 40.209 152.544 40.4316C152.333 40.6504 152.079 40.8203 151.782 40.9414C151.489 41.0586 151.153 41.1172 150.774 41.1172C150.391 41.1172 150.048 41.0391 149.743 40.8828C149.442 40.7266 149.186 40.5059 148.975 40.2207C148.768 39.9316 148.608 39.5898 148.495 39.1953C148.385 38.8008 148.331 38.3672 148.331 37.8945ZM149.034 37.7715V37.8945C149.034 38.2656 149.071 38.6094 149.145 38.9258C149.223 39.2422 149.339 39.5195 149.491 39.7578C149.643 39.9961 149.837 40.1816 150.071 40.3145C150.309 40.4473 150.587 40.5137 150.903 40.5137C151.305 40.5137 151.645 40.4355 151.923 40.2793C152.2 40.123 152.421 39.916 152.585 39.6582C152.753 39.4004 152.874 39.1191 152.948 38.8145V36.9922C152.909 36.793 152.842 36.5859 152.749 36.3711C152.655 36.1562 152.528 35.957 152.368 35.7734C152.212 35.5859 152.014 35.4355 151.776 35.3223C151.538 35.2051 151.251 35.1465 150.915 35.1465C150.594 35.1465 150.315 35.2148 150.077 35.3516C149.842 35.4844 149.647 35.6699 149.491 35.9082C149.339 36.1465 149.223 36.4238 149.145 36.7402C149.071 37.0566 149.034 37.4004 149.034 37.7715ZM159.364 39.5352V34.6602H160.067V41H159.393L159.364 39.5352ZM159.493 38.3633L159.856 38.3516C159.856 38.75 159.809 39.1172 159.716 39.4531C159.622 39.7891 159.475 40.082 159.276 40.332C159.077 40.582 158.819 40.7754 158.503 40.9121C158.186 41.0488 157.805 41.1172 157.36 41.1172C157.051 41.1172 156.768 41.0742 156.51 40.9883C156.257 40.8984 156.038 40.7578 155.854 40.5664C155.671 40.375 155.528 40.127 155.426 39.8223C155.329 39.5176 155.28 39.1484 155.28 38.7148V34.6602H155.977V38.7266C155.977 39.0664 156.014 39.3496 156.089 39.5762C156.167 39.8027 156.272 39.9844 156.405 40.1211C156.542 40.2578 156.698 40.3555 156.874 40.4141C157.05 40.4727 157.239 40.502 157.442 40.502C157.958 40.502 158.364 40.4023 158.661 40.2031C158.962 40.0039 159.175 39.7422 159.3 39.418C159.428 39.0898 159.493 38.7383 159.493 38.3633ZM164.35 41.1172C163.936 41.1172 163.555 41.041 163.208 40.8887C162.864 40.7363 162.563 40.5215 162.305 40.2441C162.051 39.9668 161.854 39.6387 161.714 39.2598C161.577 38.877 161.508 38.459 161.508 38.0059V37.7539C161.508 37.2656 161.581 36.8242 161.725 36.4297C161.87 36.0352 162.069 35.6973 162.323 35.416C162.577 35.1348 162.866 34.9199 163.19 34.7715C163.518 34.6191 163.862 34.543 164.221 34.543C164.624 34.543 164.981 34.6152 165.294 34.7598C165.606 34.9004 165.868 35.1016 166.079 35.3633C166.294 35.6211 166.456 35.9277 166.565 36.2832C166.675 36.6348 166.729 37.0234 166.729 37.4492V37.877H161.93V37.2793H166.032V37.1973C166.024 36.8418 165.952 36.5098 165.815 36.2012C165.682 35.8887 165.483 35.6348 165.217 35.4395C164.952 35.2441 164.62 35.1465 164.221 35.1465C163.925 35.1465 163.651 35.209 163.401 35.334C163.155 35.459 162.942 35.6387 162.762 35.873C162.587 36.1035 162.45 36.3789 162.352 36.6992C162.258 37.0156 162.212 37.3672 162.212 37.7539V38.0059C162.212 38.3574 162.262 38.6855 162.364 38.9902C162.469 39.291 162.618 39.5566 162.809 39.7871C163.005 40.0176 163.235 40.1973 163.501 40.3262C163.766 40.4551 164.059 40.5195 164.38 40.5195C164.755 40.5195 165.087 40.4512 165.376 40.3145C165.665 40.1738 165.925 39.9531 166.155 39.6523L166.594 39.9922C166.458 40.1953 166.286 40.3828 166.079 40.5547C165.876 40.7266 165.632 40.8633 165.346 40.9648C165.061 41.0664 164.729 41.1172 164.35 41.1172ZM171.909 39.3828C171.909 39.2109 171.866 39.041 171.78 38.873C171.694 38.7051 171.528 38.5508 171.282 38.4102C171.04 38.2695 170.682 38.1504 170.21 38.0527C169.858 37.9746 169.544 37.8867 169.266 37.7891C168.993 37.6914 168.762 37.5742 168.575 37.4375C168.387 37.3008 168.245 37.1367 168.147 36.9453C168.05 36.7539 168.001 36.5273 168.001 36.2656C168.001 36.0312 168.051 35.8105 168.153 35.6035C168.258 35.3926 168.407 35.209 168.598 35.0527C168.794 34.8926 169.028 34.7676 169.301 34.6777C169.579 34.5879 169.889 34.543 170.233 34.543C170.721 34.543 171.139 34.627 171.487 34.7949C171.839 34.959 172.106 35.1836 172.29 35.4688C172.477 35.7539 172.571 36.0762 172.571 36.4355H171.874C171.874 36.2168 171.809 36.0098 171.68 35.8145C171.555 35.6191 171.37 35.459 171.124 35.334C170.882 35.209 170.585 35.1465 170.233 35.1465C169.87 35.1465 169.575 35.2012 169.348 35.3105C169.122 35.4199 168.956 35.5586 168.85 35.7266C168.749 35.8945 168.698 36.0684 168.698 36.248C168.698 36.3887 168.719 36.5176 168.762 36.6348C168.809 36.748 168.891 36.8535 169.008 36.9512C169.13 37.0488 169.301 37.1406 169.524 37.2266C169.747 37.3125 170.036 37.3965 170.391 37.4785C170.903 37.5918 171.321 37.7305 171.645 37.8945C171.973 38.0547 172.216 38.2539 172.372 38.4922C172.528 38.7266 172.606 39.0117 172.606 39.3477C172.606 39.6094 172.551 39.8496 172.442 40.0684C172.333 40.2832 172.175 40.4688 171.967 40.625C171.764 40.7812 171.518 40.9023 171.229 40.9883C170.944 41.0742 170.624 41.1172 170.268 41.1172C169.733 41.1172 169.28 41.0293 168.909 40.8535C168.542 40.6738 168.262 40.4395 168.071 40.1504C167.883 39.8574 167.79 39.5469 167.79 39.2188H168.487C168.51 39.5469 168.614 39.8066 168.798 39.998C168.981 40.1855 169.206 40.3184 169.471 40.3965C169.741 40.4746 170.007 40.5137 170.268 40.5137C170.628 40.5137 170.928 40.4609 171.171 40.3555C171.413 40.25 171.596 40.1113 171.721 39.9395C171.846 39.7676 171.909 39.582 171.909 39.3828ZM176.591 34.6602V35.2344H173.415V34.6602H176.591ZM174.581 33.0312H175.278V39.459C175.278 39.752 175.317 39.9727 175.395 40.1211C175.473 40.2695 175.575 40.3691 175.7 40.4199C175.825 40.4707 175.96 40.4961 176.104 40.4961C176.21 40.4961 176.311 40.4902 176.409 40.4785C176.507 40.4629 176.594 40.4473 176.673 40.4316L176.702 41.0234C176.616 41.0508 176.505 41.0723 176.368 41.0879C176.231 41.1074 176.094 41.1172 175.958 41.1172C175.688 41.1172 175.45 41.0684 175.243 40.9707C175.036 40.8691 174.874 40.6973 174.757 40.4551C174.639 40.209 174.581 39.875 174.581 39.4531V33.0312ZM177.997 40.5723C177.997 40.4355 178.04 40.3203 178.126 40.2266C178.216 40.1289 178.337 40.0801 178.489 40.0801C178.645 40.0801 178.768 40.127 178.858 40.2207C178.948 40.3145 178.993 40.4316 178.993 40.5723C178.993 40.7051 178.948 40.8184 178.858 40.9121C178.768 41.0059 178.645 41.0527 178.489 41.0527C178.337 41.0527 178.216 41.0059 178.126 40.9121C178.04 40.8184 177.997 40.7051 177.997 40.5723ZM180.868 40.5723C180.868 40.4355 180.911 40.3203 180.997 40.2266C181.087 40.1289 181.208 40.0801 181.36 40.0801C181.516 40.0801 181.639 40.127 181.729 40.2207C181.819 40.3145 181.864 40.4316 181.864 40.5723C181.864 40.7051 181.819 40.8184 181.729 40.9121C181.639 41.0059 181.516 41.0527 181.36 41.0527C181.208 41.0527 181.087 41.0059 180.997 40.9121C180.911 40.8184 180.868 40.7051 180.868 40.5723Z" fill="#354F5B"/>
</svg>
