<svg width="392" height="37" viewBox="0 0 392 37" fill="none" xmlns="http://www.w3.org/2000/svg">
<path d="M147 19C147 13.4772 151.477 9 157 9H247.227C252.75 9 257.227 13.4772 257.227 19V35H147V19Z" fill="#97A9B4"/>
<path d="M179.141 23.665H180.266C180.207 24.2041 180.053 24.6865 179.803 25.1123C179.553 25.5381 179.199 25.876 178.742 26.126C178.285 26.3721 177.715 26.4951 177.031 26.4951C176.531 26.4951 176.076 26.4014 175.666 26.2139C175.26 26.0264 174.91 25.7607 174.617 25.417C174.324 25.0693 174.098 24.6533 173.938 24.1689C173.781 23.6807 173.703 23.1377 173.703 22.54V21.6904C173.703 21.0928 173.781 20.5518 173.938 20.0674C174.098 19.5791 174.326 19.1611 174.623 18.8135C174.924 18.4658 175.285 18.1982 175.707 18.0107C176.129 17.8232 176.604 17.7295 177.131 17.7295C177.775 17.7295 178.32 17.8506 178.766 18.0928C179.211 18.335 179.557 18.6709 179.803 19.1006C180.053 19.5264 180.207 20.0205 180.266 20.583H179.141C179.086 20.1846 178.984 19.8428 178.836 19.5576C178.688 19.2686 178.477 19.0459 178.203 18.8896C177.93 18.7334 177.572 18.6553 177.131 18.6553C176.752 18.6553 176.418 18.7275 176.129 18.8721C175.844 19.0166 175.604 19.2217 175.408 19.4873C175.217 19.7529 175.072 20.0713 174.975 20.4424C174.877 20.8135 174.828 21.2256 174.828 21.6787V22.54C174.828 22.958 174.871 23.3506 174.957 23.7178C175.047 24.085 175.182 24.4072 175.361 24.6846C175.541 24.9619 175.77 25.1807 176.047 25.3408C176.324 25.4971 176.652 25.5752 177.031 25.5752C177.512 25.5752 177.895 25.499 178.18 25.3467C178.465 25.1943 178.68 24.9756 178.824 24.6904C178.973 24.4053 179.078 24.0635 179.141 23.665ZM182.555 23.2783V23.1436C182.555 22.6865 182.622 22.2627 182.755 21.8721C182.887 21.4775 183.079 21.1357 183.329 20.8467C183.579 20.5537 183.882 20.3271 184.237 20.167C184.593 20.0029 184.991 19.9209 185.432 19.9209C185.878 19.9209 186.278 20.0029 186.634 20.167C186.993 20.3271 187.298 20.5537 187.548 20.8467C187.802 21.1357 187.995 21.4775 188.128 21.8721C188.261 22.2627 188.327 22.6865 188.327 23.1436V23.2783C188.327 23.7354 188.261 24.1592 188.128 24.5498C187.995 24.9404 187.802 25.2822 187.548 25.5752C187.298 25.8643 186.995 26.0908 186.639 26.2549C186.288 26.415 185.889 26.4951 185.444 26.4951C184.999 26.4951 184.598 26.415 184.243 26.2549C183.887 26.0908 183.583 25.8643 183.329 25.5752C183.079 25.2822 182.887 24.9404 182.755 24.5498C182.622 24.1592 182.555 23.7354 182.555 23.2783ZM183.639 23.1436V23.2783C183.639 23.5947 183.677 23.8936 183.751 24.1748C183.825 24.4521 183.936 24.6982 184.085 24.9131C184.237 25.1279 184.427 25.2979 184.653 25.4229C184.88 25.5439 185.143 25.6045 185.444 25.6045C185.741 25.6045 186.001 25.5439 186.223 25.4229C186.45 25.2979 186.637 25.1279 186.786 24.9131C186.934 24.6982 187.046 24.4521 187.12 24.1748C187.198 23.8936 187.237 23.5947 187.237 23.2783V23.1436C187.237 22.8311 187.198 22.5361 187.12 22.2588C187.046 21.9775 186.932 21.7295 186.78 21.5146C186.632 21.2959 186.444 21.124 186.218 20.999C185.995 20.874 185.733 20.8115 185.432 20.8115C185.136 20.8115 184.874 20.874 184.647 20.999C184.425 21.124 184.237 21.2959 184.085 21.5146C183.936 21.7295 183.825 21.9775 183.751 22.2588C183.677 22.5361 183.639 22.8311 183.639 23.1436ZM191.97 21.3916V26.3779H190.886V20.0381H191.912L191.97 21.3916ZM191.712 22.9678L191.261 22.9502C191.265 22.5166 191.33 22.1162 191.455 21.749C191.58 21.3779 191.755 21.0557 191.982 20.7822C192.209 20.5088 192.478 20.2979 192.791 20.1494C193.107 19.9971 193.457 19.9209 193.839 19.9209C194.152 19.9209 194.433 19.9639 194.683 20.0498C194.933 20.1318 195.146 20.2646 195.322 20.4482C195.502 20.6318 195.638 20.8701 195.732 21.1631C195.826 21.4521 195.873 21.8057 195.873 22.2236V26.3779H194.783V22.2119C194.783 21.8799 194.734 21.6143 194.636 21.415C194.539 21.2119 194.396 21.0654 194.209 20.9756C194.021 20.8818 193.791 20.835 193.517 20.835C193.248 20.835 193.002 20.8916 192.779 21.0049C192.56 21.1182 192.371 21.2744 192.211 21.4736C192.054 21.6729 191.931 21.9014 191.841 22.1592C191.755 22.4131 191.712 22.6826 191.712 22.9678ZM201.373 20.0381V20.8701H197.946V20.0381H201.373ZM199.106 18.4971H200.19V24.8076C200.19 25.0225 200.223 25.1846 200.289 25.2939C200.356 25.4033 200.442 25.4756 200.547 25.5107C200.653 25.5459 200.766 25.5635 200.887 25.5635C200.977 25.5635 201.071 25.5557 201.168 25.54C201.27 25.5205 201.346 25.5049 201.397 25.4932L201.403 26.3779C201.317 26.4053 201.204 26.4307 201.063 26.4541C200.926 26.4814 200.76 26.4951 200.565 26.4951C200.299 26.4951 200.055 26.4424 199.832 26.3369C199.61 26.2314 199.432 26.0557 199.299 25.8096C199.17 25.5596 199.106 25.2236 199.106 24.8018V18.4971ZM207.583 25.2939V22.0303C207.583 21.7803 207.532 21.5635 207.431 21.3799C207.333 21.1924 207.185 21.0479 206.986 20.9463C206.786 20.8447 206.54 20.7939 206.247 20.7939C205.974 20.7939 205.734 20.8408 205.527 20.9346C205.323 21.0283 205.163 21.1514 205.046 21.3037C204.933 21.4561 204.876 21.6201 204.876 21.7959H203.792C203.792 21.5693 203.851 21.3447 203.968 21.1221C204.085 20.8994 204.253 20.6982 204.472 20.5186C204.695 20.335 204.96 20.1904 205.269 20.085C205.581 19.9756 205.929 19.9209 206.312 19.9209C206.773 19.9209 207.179 19.999 207.53 20.1553C207.886 20.3115 208.163 20.5479 208.362 20.8643C208.566 21.1768 208.667 21.5693 208.667 22.042V24.9951C208.667 25.2061 208.685 25.4307 208.72 25.6689C208.759 25.9072 208.816 26.1123 208.89 26.2842V26.3779H207.759C207.704 26.2529 207.661 26.0869 207.63 25.8799C207.599 25.6689 207.583 25.4736 207.583 25.2939ZM207.771 22.5342L207.782 23.2959H206.687C206.378 23.2959 206.103 23.3213 205.861 23.3721C205.618 23.4189 205.415 23.4912 205.251 23.5889C205.087 23.6865 204.962 23.8096 204.876 23.958C204.79 24.1025 204.747 24.2725 204.747 24.4678C204.747 24.667 204.792 24.8486 204.882 25.0127C204.972 25.1768 205.107 25.3076 205.286 25.4053C205.47 25.499 205.695 25.5459 205.96 25.5459C206.292 25.5459 206.585 25.4756 206.839 25.335C207.093 25.1943 207.294 25.0225 207.443 24.8193C207.595 24.6162 207.677 24.4189 207.689 24.2275L208.152 24.749C208.124 24.9131 208.05 25.0947 207.929 25.2939C207.808 25.4932 207.646 25.6846 207.443 25.8682C207.243 26.0479 207.005 26.1982 206.728 26.3193C206.454 26.4365 206.146 26.4951 205.802 26.4951C205.372 26.4951 204.995 26.4111 204.671 26.2432C204.351 26.0752 204.101 25.8506 203.921 25.5693C203.745 25.2842 203.657 24.9658 203.657 24.6143C203.657 24.2744 203.724 23.9756 203.857 23.7178C203.989 23.4561 204.181 23.2393 204.431 23.0674C204.681 22.8916 204.982 22.7588 205.333 22.6689C205.685 22.5791 206.077 22.5342 206.511 22.5342H207.771ZM214.109 25.6045C214.367 25.6045 214.605 25.5518 214.824 25.4463C215.043 25.3408 215.223 25.1963 215.363 25.0127C215.504 24.8252 215.584 24.6123 215.604 24.374H216.635C216.615 24.749 216.488 25.0986 216.254 25.4229C216.023 25.7432 215.721 26.0029 215.346 26.2021C214.971 26.3975 214.559 26.4951 214.109 26.4951C213.633 26.4951 213.217 26.4111 212.861 26.2432C212.51 26.0752 212.217 25.8447 211.982 25.5518C211.752 25.2588 211.578 24.9229 211.461 24.5439C211.348 24.1611 211.291 23.7568 211.291 23.3311V23.085C211.291 22.6592 211.348 22.2568 211.461 21.8779C211.578 21.4951 211.752 21.1572 211.982 20.8643C212.217 20.5713 212.51 20.3408 212.861 20.1729C213.217 20.0049 213.633 19.9209 214.109 19.9209C214.605 19.9209 215.039 20.0225 215.41 20.2256C215.781 20.4248 216.072 20.6982 216.283 21.0459C216.498 21.3896 216.615 21.7803 216.635 22.2178H215.604C215.584 21.9561 215.51 21.7197 215.381 21.5088C215.256 21.2979 215.084 21.1299 214.865 21.0049C214.65 20.876 214.398 20.8115 214.109 20.8115C213.777 20.8115 213.498 20.8779 213.271 21.0107C213.049 21.1396 212.871 21.3154 212.738 21.5381C212.609 21.7568 212.516 22.001 212.457 22.2705C212.402 22.5361 212.375 22.8076 212.375 23.085V23.3311C212.375 23.6084 212.402 23.8818 212.457 24.1514C212.512 24.4209 212.604 24.665 212.732 24.8838C212.865 25.1025 213.043 25.2783 213.266 25.4111C213.492 25.54 213.773 25.6045 214.109 25.6045ZM221.708 20.0381V20.8701H218.28V20.0381H221.708ZM219.44 18.4971H220.524V24.8076C220.524 25.0225 220.557 25.1846 220.624 25.2939C220.69 25.4033 220.776 25.4756 220.882 25.5107C220.987 25.5459 221.1 25.5635 221.221 25.5635C221.311 25.5635 221.405 25.5557 221.503 25.54C221.604 25.5205 221.68 25.5049 221.731 25.4932L221.737 26.3779C221.651 26.4053 221.538 26.4307 221.397 26.4541C221.261 26.4814 221.095 26.4951 220.899 26.4951C220.634 26.4951 220.389 26.4424 220.167 26.3369C219.944 26.2314 219.766 26.0557 219.634 25.8096C219.505 25.5596 219.44 25.2236 219.44 24.8018V18.4971ZM227.871 24.6963C227.871 24.54 227.836 24.3955 227.765 24.2627C227.699 24.126 227.56 24.0029 227.349 23.8936C227.142 23.7803 226.83 23.6826 226.412 23.6006C226.06 23.5264 225.742 23.4385 225.457 23.3369C225.175 23.2354 224.935 23.1123 224.736 22.9678C224.541 22.8232 224.39 22.6533 224.285 22.458C224.179 22.2627 224.127 22.0342 224.127 21.7725C224.127 21.5225 224.181 21.2861 224.291 21.0635C224.404 20.8408 224.562 20.6436 224.765 20.4717C224.972 20.2998 225.22 20.165 225.509 20.0674C225.798 19.9697 226.121 19.9209 226.476 19.9209C226.984 19.9209 227.418 20.0107 227.777 20.1904C228.136 20.3701 228.412 20.6104 228.603 20.9111C228.795 21.208 228.89 21.5381 228.89 21.9014H227.806C227.806 21.7256 227.754 21.5557 227.648 21.3916C227.546 21.2236 227.396 21.085 227.197 20.9756C227.002 20.8662 226.761 20.8115 226.476 20.8115C226.175 20.8115 225.931 20.8584 225.744 20.9521C225.56 21.042 225.425 21.1572 225.339 21.2979C225.257 21.4385 225.216 21.5869 225.216 21.7432C225.216 21.8604 225.236 21.9658 225.275 22.0596C225.318 22.1494 225.392 22.2334 225.498 22.3115C225.603 22.3857 225.752 22.4561 225.943 22.5225C226.134 22.5889 226.379 22.6553 226.675 22.7217C227.195 22.8389 227.623 22.9795 227.959 23.1436C228.295 23.3076 228.545 23.5088 228.709 23.7471C228.873 23.9854 228.955 24.2744 228.955 24.6143C228.955 24.8916 228.896 25.1455 228.779 25.376C228.666 25.6064 228.5 25.8057 228.281 25.9736C228.066 26.1377 227.808 26.2666 227.507 26.3604C227.211 26.4502 226.877 26.4951 226.505 26.4951C225.947 26.4951 225.474 26.3955 225.088 26.1963C224.701 25.9971 224.408 25.7393 224.209 25.4229C224.009 25.1064 223.91 24.7725 223.91 24.4209H225C225.015 24.7178 225.101 24.9541 225.257 25.1299C225.414 25.3018 225.605 25.4248 225.832 25.499C226.058 25.5693 226.283 25.6045 226.505 25.6045C226.802 25.6045 227.05 25.5654 227.25 25.4873C227.453 25.4092 227.607 25.3018 227.713 25.165C227.818 25.0283 227.871 24.8721 227.871 24.6963Z" fill="white"/>
<path d="M391.5 35.4967H144.102C138.579 35.4967 134.102 31.0196 134.102 25.4967V11C134.102 5.47715 129.624 1 124.102 1H26.3453C20.8225 1 16.3453 5.47715 16.3453 11V25.4967C16.3453 31.0196 11.8682 35.4967 6.34534 35.4967H0" stroke="#4E6E81" stroke-width="2"/>
<path d="M37.3008 14.2031H41.8271C42.7998 14.2031 43.6289 14.3496 44.3145 14.6426C45 14.9355 45.5244 15.3691 45.8877 15.9434C46.2568 16.5117 46.4414 17.2148 46.4414 18.0527C46.4414 18.6914 46.3242 19.2539 46.0898 19.7402C45.8555 20.2266 45.5244 20.6367 45.0967 20.9707C44.6689 21.2988 44.1592 21.5537 43.5674 21.7354L42.8994 22.0605H38.8301L38.8125 20.3115H41.8623C42.3896 20.3115 42.8291 20.2178 43.1807 20.0303C43.5322 19.8428 43.7959 19.5879 43.9717 19.2656C44.1533 18.9375 44.2441 18.5684 44.2441 18.1582C44.2441 17.7129 44.1562 17.3262 43.9805 16.998C43.8105 16.6641 43.5469 16.4092 43.1895 16.2334C42.832 16.0518 42.3779 15.9609 41.8271 15.9609H39.5068V27H37.3008V14.2031ZM44.6045 27L41.5986 21.252L43.9102 21.2432L46.96 26.8857V27H44.6045ZM54.4201 27.1758C53.717 27.1758 53.0813 27.0615 52.5129 26.833C51.9504 26.5986 51.4699 26.2734 51.0715 25.8574C50.6789 25.4414 50.3771 24.9521 50.1662 24.3896C49.9553 23.8271 49.8498 23.2207 49.8498 22.5703V22.2188C49.8498 21.4746 49.9582 20.8008 50.175 20.1973C50.3918 19.5938 50.6936 19.0781 51.0803 18.6504C51.467 18.2168 51.924 17.8857 52.4514 17.6572C52.9787 17.4287 53.55 17.3145 54.1652 17.3145C54.8449 17.3145 55.4396 17.4287 55.9494 17.6572C56.4592 17.8857 56.8811 18.208 57.215 18.624C57.5549 19.0342 57.8068 19.5234 57.9709 20.0918C58.1408 20.6602 58.2258 21.2871 58.2258 21.9727V22.8779H50.8781V21.3574H56.134V21.1904C56.1223 20.8096 56.0461 20.4521 55.9055 20.1182C55.7707 19.7842 55.5627 19.5146 55.2814 19.3096C55.0002 19.1045 54.6252 19.002 54.1564 19.002C53.8049 19.002 53.4914 19.0781 53.216 19.2305C52.9465 19.377 52.7209 19.5908 52.5393 19.8721C52.3576 20.1533 52.217 20.4932 52.1174 20.8916C52.0236 21.2842 51.9768 21.7266 51.9768 22.2188V22.5703C51.9768 22.9863 52.0324 23.373 52.1438 23.7305C52.2609 24.082 52.4309 24.3896 52.6535 24.6533C52.8762 24.917 53.1457 25.125 53.4621 25.2773C53.7785 25.4238 54.1389 25.4971 54.5432 25.4971C55.0529 25.4971 55.507 25.3945 55.9055 25.1895C56.3039 24.9844 56.6496 24.6943 56.9426 24.3193L58.0588 25.4004C57.8537 25.6992 57.5871 25.9863 57.259 26.2617C56.9309 26.5312 56.5295 26.751 56.0549 26.9209C55.5861 27.0908 55.0412 27.1758 54.4201 27.1758ZM67.0131 24.4248C67.0131 24.2139 66.9604 24.0234 66.8549 23.8535C66.7494 23.6777 66.5473 23.5195 66.2484 23.3789C65.9555 23.2383 65.5219 23.1094 64.9477 22.9922C64.4438 22.8809 63.9809 22.749 63.559 22.5967C63.143 22.4385 62.7855 22.248 62.4867 22.0254C62.1879 21.8027 61.9564 21.5391 61.7924 21.2344C61.6283 20.9297 61.5463 20.5781 61.5463 20.1797C61.5463 19.793 61.6313 19.4268 61.8012 19.0811C61.9711 18.7354 62.2143 18.4307 62.5307 18.167C62.8471 17.9033 63.2309 17.6953 63.682 17.543C64.1391 17.3906 64.6488 17.3145 65.2113 17.3145C66.0082 17.3145 66.6908 17.4492 67.2592 17.7188C67.8334 17.9824 68.2729 18.3428 68.5775 18.7998C68.8822 19.251 69.0346 19.7607 69.0346 20.3291H66.9164C66.9164 20.0771 66.852 19.8428 66.723 19.626C66.6 19.4033 66.4125 19.2246 66.1605 19.0898C65.9086 18.9492 65.5922 18.8789 65.2113 18.8789C64.848 18.8789 64.5463 18.9375 64.3061 19.0547C64.0717 19.166 63.8959 19.3125 63.7787 19.4941C63.6674 19.6758 63.6117 19.875 63.6117 20.0918C63.6117 20.25 63.641 20.3936 63.6996 20.5225C63.7641 20.6455 63.8695 20.7598 64.016 20.8652C64.1625 20.9648 64.3617 21.0586 64.6137 21.1465C64.8715 21.2344 65.1938 21.3193 65.5805 21.4014C66.307 21.5537 66.9311 21.75 67.4525 21.9902C67.9799 22.2246 68.3842 22.5293 68.6654 22.9043C68.9467 23.2734 69.0873 23.7422 69.0873 24.3105C69.0873 24.7324 68.9965 25.1191 68.8148 25.4707C68.6391 25.8164 68.3813 26.1182 68.0414 26.376C67.7016 26.6279 67.2943 26.8242 66.8197 26.9648C66.351 27.1055 65.8236 27.1758 65.2377 27.1758C64.3764 27.1758 63.6469 27.0234 63.0492 26.7188C62.4516 26.4082 61.9975 26.0127 61.6869 25.5322C61.3822 25.0459 61.2299 24.542 61.2299 24.0205H63.2777C63.3012 24.4131 63.4096 24.7266 63.6029 24.9609C63.8021 25.1895 64.0482 25.3564 64.3412 25.4619C64.64 25.5615 64.9477 25.6113 65.2641 25.6113C65.6449 25.6113 65.9643 25.5615 66.2221 25.4619C66.4799 25.3564 66.6762 25.2158 66.8109 25.04C66.9457 24.8584 67.0131 24.6533 67.0131 24.4248ZM74.8688 19.3184V30.6562H72.7506V17.4902H74.7018L74.8688 19.3184ZM81.065 22.1572V22.3418C81.065 23.0332 80.983 23.6748 80.8189 24.2666C80.6607 24.8525 80.4234 25.3652 80.107 25.8047C79.7965 26.2383 79.4127 26.5752 78.9557 26.8154C78.4986 27.0557 77.9713 27.1758 77.3736 27.1758C76.7818 27.1758 76.2633 27.0674 75.818 26.8506C75.3785 26.6279 75.0064 26.3145 74.7018 25.9102C74.3971 25.5059 74.151 25.0312 73.9635 24.4863C73.7818 23.9355 73.6529 23.332 73.5768 22.6758V21.9639C73.6529 21.2666 73.7818 20.6338 73.9635 20.0654C74.151 19.4971 74.3971 19.0078 74.7018 18.5977C75.0064 18.1875 75.3785 17.8711 75.818 17.6484C76.2574 17.4258 76.7701 17.3145 77.3561 17.3145C77.9537 17.3145 78.484 17.4316 78.9469 17.666C79.4098 17.8945 79.7994 18.2227 80.1158 18.6504C80.4322 19.0723 80.6695 19.582 80.8277 20.1797C80.9859 20.7715 81.065 21.4307 81.065 22.1572ZM78.9469 22.3418V22.1572C78.9469 21.7178 78.9059 21.3105 78.8238 20.9355C78.7418 20.5547 78.6129 20.2207 78.4371 19.9336C78.2613 19.6465 78.0357 19.4238 77.7604 19.2656C77.4908 19.1016 77.1656 19.0195 76.7848 19.0195C76.4098 19.0195 76.0875 19.084 75.818 19.2129C75.5484 19.3359 75.3229 19.5088 75.1412 19.7314C74.9596 19.9541 74.8189 20.2148 74.7193 20.5137C74.6197 20.8066 74.5494 21.126 74.5084 21.4717V23.1768C74.5787 23.5986 74.6988 23.9854 74.8688 24.3369C75.0387 24.6885 75.2789 24.9697 75.5895 25.1807C75.9059 25.3857 76.3102 25.4883 76.8023 25.4883C77.1832 25.4883 77.5084 25.4062 77.7779 25.2422C78.0475 25.0781 78.2672 24.8525 78.4371 24.5654C78.6129 24.2725 78.7418 23.9355 78.8238 23.5547C78.9059 23.1738 78.9469 22.7695 78.9469 22.3418ZM84.2625 22.3506V22.1484C84.2625 21.4629 84.3621 20.8271 84.5613 20.2412C84.7605 19.6494 85.0477 19.1367 85.4227 18.7031C85.8035 18.2637 86.2664 17.9238 86.8113 17.6836C87.3621 17.4375 87.9832 17.3145 88.6746 17.3145C89.3719 17.3145 89.993 17.4375 90.5379 17.6836C91.0887 17.9238 91.5545 18.2637 91.9354 18.7031C92.3162 19.1367 92.6063 19.6494 92.8055 20.2412C93.0047 20.8271 93.1043 21.4629 93.1043 22.1484V22.3506C93.1043 23.0361 93.0047 23.6719 92.8055 24.2578C92.6063 24.8438 92.3162 25.3564 91.9354 25.7959C91.5545 26.2295 91.0916 26.5693 90.5467 26.8154C90.0018 27.0557 89.3836 27.1758 88.6922 27.1758C87.9949 27.1758 87.3709 27.0557 86.8201 26.8154C86.2752 26.5693 85.8123 26.2295 85.4314 25.7959C85.0506 25.3564 84.7605 24.8438 84.5613 24.2578C84.3621 23.6719 84.2625 23.0361 84.2625 22.3506ZM86.3807 22.1484V22.3506C86.3807 22.7783 86.4246 23.1826 86.5125 23.5635C86.6004 23.9443 86.7381 24.2783 86.9256 24.5654C87.1131 24.8525 87.3533 25.0781 87.6463 25.2422C87.9393 25.4062 88.2879 25.4883 88.6922 25.4883C89.0848 25.4883 89.4246 25.4062 89.7117 25.2422C90.0047 25.0781 90.2449 24.8525 90.4324 24.5654C90.6199 24.2783 90.7576 23.9443 90.8455 23.5635C90.9393 23.1826 90.9861 22.7783 90.9861 22.3506V22.1484C90.9861 21.7266 90.9393 21.3281 90.8455 20.9531C90.7576 20.5723 90.617 20.2354 90.4236 19.9424C90.2361 19.6494 89.9959 19.4209 89.7029 19.2568C89.4158 19.0869 89.073 19.002 88.6746 19.002C88.2762 19.002 87.9305 19.0869 87.6375 19.2568C87.3504 19.4209 87.1131 19.6494 86.9256 19.9424C86.7381 20.2354 86.6004 20.5723 86.5125 20.9531C86.4246 21.3281 86.3807 21.7266 86.3807 22.1484ZM98.7803 19.5205V27H96.6621V17.4902H98.6572L98.7803 19.5205ZM98.4023 21.8936L97.7168 21.8848C97.7227 21.2109 97.8164 20.5928 97.998 20.0303C98.1855 19.4678 98.4434 18.9844 98.7715 18.5801C99.1055 18.1758 99.5039 17.8652 99.9668 17.6484C100.43 17.4258 100.945 17.3145 101.514 17.3145C101.971 17.3145 102.384 17.3789 102.753 17.5078C103.128 17.6309 103.447 17.833 103.711 18.1143C103.98 18.3955 104.186 18.7617 104.326 19.2129C104.467 19.6582 104.537 20.2061 104.537 20.8564V27H102.41V20.8477C102.41 20.3906 102.343 20.0303 102.208 19.7666C102.079 19.4971 101.889 19.3066 101.637 19.1953C101.391 19.0781 101.083 19.0195 100.714 19.0195C100.351 19.0195 100.025 19.0957 99.7383 19.248C99.4512 19.4004 99.208 19.6084 99.0088 19.8721C98.8154 20.1357 98.666 20.4404 98.5605 20.7861C98.4551 21.1318 98.4023 21.501 98.4023 21.8936ZM114.3 25.0312V13.5H116.427V27H114.502L114.3 25.0312ZM108.113 22.3506V22.166C108.113 21.4453 108.197 20.7891 108.367 20.1973C108.537 19.5996 108.783 19.0869 109.106 18.6592C109.428 18.2256 109.821 17.8945 110.283 17.666C110.746 17.4316 111.268 17.3145 111.848 17.3145C112.422 17.3145 112.926 17.4258 113.36 17.6484C113.793 17.8711 114.162 18.1904 114.467 18.6064C114.772 19.0166 115.015 19.5088 115.196 20.083C115.378 20.6514 115.507 21.2842 115.583 21.9814V22.5703C115.507 23.25 115.378 23.8711 115.196 24.4336C115.015 24.9961 114.772 25.4824 114.467 25.8926C114.162 26.3027 113.79 26.6191 113.351 26.8418C112.917 27.0645 112.41 27.1758 111.83 27.1758C111.256 27.1758 110.738 27.0557 110.275 26.8154C109.818 26.5752 109.428 26.2383 109.106 25.8047C108.783 25.3711 108.537 24.8613 108.367 24.2754C108.197 23.6836 108.113 23.042 108.113 22.3506ZM110.231 22.166V22.3506C110.231 22.7842 110.269 23.1885 110.345 23.5635C110.427 23.9385 110.553 24.2695 110.723 24.5566C110.893 24.8379 111.113 25.0605 111.382 25.2246C111.657 25.3828 111.986 25.4619 112.366 25.4619C112.847 25.4619 113.242 25.3564 113.553 25.1455C113.863 24.9346 114.107 24.6504 114.282 24.293C114.464 23.9297 114.587 23.5254 114.652 23.0801V21.4893C114.616 21.1436 114.543 20.8213 114.432 20.5225C114.326 20.2236 114.183 19.9629 114.001 19.7402C113.82 19.5117 113.594 19.3359 113.324 19.2129C113.061 19.084 112.747 19.0195 112.384 19.0195C111.997 19.0195 111.669 19.1016 111.4 19.2656C111.13 19.4297 110.907 19.6553 110.732 19.9424C110.562 20.2295 110.436 20.5635 110.354 20.9443C110.272 21.3252 110.231 21.7324 110.231 22.166Z" fill="#4E6E81"/>
<path d="M267 19C267 13.4772 271.477 9 277 9H367.227C372.75 9 377.227 13.4772 377.227 19V35H267V19Z" fill="#97A9B4"/>
<path d="M311.641 24.665H312.766C312.707 25.2041 312.553 25.6865 312.303 26.1123C312.053 26.5381 311.699 26.876 311.242 27.126C310.785 27.3721 310.215 27.4951 309.531 27.4951C309.031 27.4951 308.576 27.4014 308.166 27.2139C307.76 27.0264 307.41 26.7607 307.117 26.417C306.824 26.0693 306.598 25.6533 306.438 25.1689C306.281 24.6807 306.203 24.1377 306.203 23.54V22.6904C306.203 22.0928 306.281 21.5518 306.438 21.0674C306.598 20.5791 306.826 20.1611 307.123 19.8135C307.424 19.4658 307.785 19.1982 308.207 19.0107C308.629 18.8232 309.104 18.7295 309.631 18.7295C310.275 18.7295 310.82 18.8506 311.266 19.0928C311.711 19.335 312.057 19.6709 312.303 20.1006C312.553 20.5264 312.707 21.0205 312.766 21.583H311.641C311.586 21.1846 311.484 20.8428 311.336 20.5576C311.188 20.2686 310.977 20.0459 310.703 19.8896C310.43 19.7334 310.072 19.6553 309.631 19.6553C309.252 19.6553 308.918 19.7275 308.629 19.8721C308.344 20.0166 308.104 20.2217 307.908 20.4873C307.717 20.7529 307.572 21.0713 307.475 21.4424C307.377 21.8135 307.328 22.2256 307.328 22.6787V23.54C307.328 23.958 307.371 24.3506 307.457 24.7178C307.547 25.085 307.682 25.4072 307.861 25.6846C308.041 25.9619 308.27 26.1807 308.547 26.3408C308.824 26.4971 309.152 26.5752 309.531 26.5752C310.012 26.5752 310.395 26.499 310.68 26.3467C310.965 26.1943 311.18 25.9756 311.324 25.6904C311.473 25.4053 311.578 25.0635 311.641 24.665ZM316.427 18.3779V27.3779H315.343V18.3779H316.427ZM316.169 23.9678L315.718 23.9502C315.721 23.5166 315.786 23.1162 315.911 22.749C316.036 22.3779 316.212 22.0557 316.438 21.7822C316.665 21.5088 316.934 21.2979 317.247 21.1494C317.563 20.9971 317.913 20.9209 318.296 20.9209C318.608 20.9209 318.889 20.9639 319.139 21.0498C319.389 21.1318 319.602 21.2646 319.778 21.4482C319.958 21.6318 320.095 21.8701 320.188 22.1631C320.282 22.4521 320.329 22.8057 320.329 23.2236V27.3779H319.239V23.2119C319.239 22.8799 319.19 22.6143 319.093 22.415C318.995 22.2119 318.852 22.0654 318.665 21.9756C318.477 21.8818 318.247 21.835 317.973 21.835C317.704 21.835 317.458 21.8916 317.235 22.0049C317.016 22.1182 316.827 22.2744 316.667 22.4736C316.511 22.6729 316.387 22.9014 316.298 23.1592C316.212 23.4131 316.169 23.6826 316.169 23.9678ZM326.89 26.2939V23.0303C326.89 22.7803 326.839 22.5635 326.738 22.3799C326.64 22.1924 326.492 22.0479 326.293 21.9463C326.093 21.8447 325.847 21.7939 325.554 21.7939C325.281 21.7939 325.041 21.8408 324.834 21.9346C324.63 22.0283 324.47 22.1514 324.353 22.3037C324.24 22.4561 324.183 22.6201 324.183 22.7959H323.099C323.099 22.5693 323.158 22.3447 323.275 22.1221C323.392 21.8994 323.56 21.6982 323.779 21.5186C324.002 21.335 324.267 21.1904 324.576 21.085C324.888 20.9756 325.236 20.9209 325.619 20.9209C326.08 20.9209 326.486 20.999 326.837 21.1553C327.193 21.3115 327.47 21.5479 327.67 21.8643C327.873 22.1768 327.974 22.5693 327.974 23.042V25.9951C327.974 26.2061 327.992 26.4307 328.027 26.6689C328.066 26.9072 328.123 27.1123 328.197 27.2842V27.3779H327.066C327.011 27.2529 326.968 27.0869 326.937 26.8799C326.906 26.6689 326.89 26.4736 326.89 26.2939ZM327.078 23.5342L327.089 24.2959H325.994C325.685 24.2959 325.41 24.3213 325.168 24.3721C324.925 24.4189 324.722 24.4912 324.558 24.5889C324.394 24.6865 324.269 24.8096 324.183 24.958C324.097 25.1025 324.054 25.2725 324.054 25.4678C324.054 25.667 324.099 25.8486 324.189 26.0127C324.279 26.1768 324.414 26.3076 324.593 26.4053C324.777 26.499 325.002 26.5459 325.267 26.5459C325.599 26.5459 325.892 26.4756 326.146 26.335C326.4 26.1943 326.601 26.0225 326.75 25.8193C326.902 25.6162 326.984 25.4189 326.996 25.2275L327.459 25.749C327.431 25.9131 327.357 26.0947 327.236 26.2939C327.115 26.4932 326.953 26.6846 326.75 26.8682C326.55 27.0479 326.312 27.1982 326.035 27.3193C325.761 27.4365 325.453 27.4951 325.109 27.4951C324.679 27.4951 324.302 27.4111 323.978 27.2432C323.658 27.0752 323.408 26.8506 323.228 26.5693C323.052 26.2842 322.964 25.9658 322.964 25.6143C322.964 25.2744 323.031 24.9756 323.164 24.7178C323.296 24.4561 323.488 24.2393 323.738 24.0674C323.988 23.8916 324.289 23.7588 324.64 23.6689C324.992 23.5791 325.384 23.5342 325.818 23.5342H327.078ZM333.534 21.0381V21.8701H330.106V21.0381H333.534ZM331.266 19.4971H332.35V25.8076C332.35 26.0225 332.383 26.1846 332.45 26.2939C332.516 26.4033 332.602 26.4756 332.707 26.5107C332.813 26.5459 332.926 26.5635 333.047 26.5635C333.137 26.5635 333.231 26.5557 333.329 26.54C333.43 26.5205 333.506 26.5049 333.557 26.4932L333.563 27.3779C333.477 27.4053 333.364 27.4307 333.223 27.4541C333.086 27.4814 332.92 27.4951 332.725 27.4951C332.459 27.4951 332.215 27.4424 331.993 27.3369C331.77 27.2314 331.592 27.0557 331.459 26.8096C331.33 26.5596 331.266 26.2236 331.266 25.8018V19.4971ZM339.696 25.6963C339.696 25.54 339.661 25.3955 339.591 25.2627C339.525 25.126 339.386 25.0029 339.175 24.8936C338.968 24.7803 338.655 24.6826 338.237 24.6006C337.886 24.5264 337.568 24.4385 337.282 24.3369C337.001 24.2354 336.761 24.1123 336.562 23.9678C336.366 23.8232 336.216 23.6533 336.111 23.458C336.005 23.2627 335.952 23.0342 335.952 22.7725C335.952 22.5225 336.007 22.2861 336.116 22.0635C336.23 21.8408 336.388 21.6436 336.591 21.4717C336.798 21.2998 337.046 21.165 337.335 21.0674C337.624 20.9697 337.946 20.9209 338.302 20.9209C338.81 20.9209 339.243 21.0107 339.603 21.1904C339.962 21.3701 340.237 21.6104 340.429 21.9111C340.62 22.208 340.716 22.5381 340.716 22.9014H339.632C339.632 22.7256 339.579 22.5557 339.474 22.3916C339.372 22.2236 339.222 22.085 339.023 21.9756C338.827 21.8662 338.587 21.8115 338.302 21.8115C338.001 21.8115 337.757 21.8584 337.57 21.9521C337.386 22.042 337.251 22.1572 337.165 22.2979C337.083 22.4385 337.042 22.5869 337.042 22.7432C337.042 22.8604 337.062 22.9658 337.101 23.0596C337.144 23.1494 337.218 23.2334 337.323 23.3115C337.429 23.3857 337.577 23.4561 337.769 23.5225C337.96 23.5889 338.204 23.6553 338.501 23.7217C339.021 23.8389 339.448 23.9795 339.784 24.1436C340.12 24.3076 340.37 24.5088 340.534 24.7471C340.698 24.9854 340.78 25.2744 340.78 25.6143C340.78 25.8916 340.722 26.1455 340.605 26.376C340.491 26.6064 340.325 26.8057 340.107 26.9736C339.892 27.1377 339.634 27.2666 339.333 27.3604C339.036 27.4502 338.702 27.4951 338.331 27.4951C337.773 27.4951 337.3 27.3955 336.913 27.1963C336.527 26.9971 336.234 26.7393 336.034 26.4229C335.835 26.1064 335.736 25.7725 335.736 25.4209H336.825C336.841 25.7178 336.927 25.9541 337.083 26.1299C337.239 26.3018 337.431 26.4248 337.657 26.499C337.884 26.5693 338.109 26.6045 338.331 26.6045C338.628 26.6045 338.876 26.5654 339.075 26.4873C339.279 26.4092 339.433 26.3018 339.538 26.165C339.644 26.0283 339.696 25.8721 339.696 25.6963Z" fill="white"/>
</svg>
