<?xml version="1.0" encoding="UTF-8"?>
<svg width="401px" height="43px" viewBox="0 0 401 43" version="1.1" xmlns="http://www.w3.org/2000/svg" xmlns:xlink="http://www.w3.org/1999/xlink">
    <title>reqSelected</title>
    <g id="Page-1" stroke="none" stroke-width="1" fill="none" fill-rule="evenodd">
        <g id="reqSelected" transform="translate(0.000000, 1.000000)">
            <g id="Request-Button-(1)">
                <path d="M0,41 L36.0692,41 C42.6966,41 48.0692,34.8812056 48.0692,27.3333333 L48.0692,13.6666667 C48.0692,6.11879444 53.4417,0 60.0692,0 L183.915,0 C190.543,0 195.915,6.11879444 195.915,13.6666667 L195.915,27.3333333 C195.915,34.8812056 201.288,41 207.915,41 L401,41" id="Path" stroke="#4E6E81" stroke-width="2"></path>
                <path d="M85.3203,14.625 L89.0859,14.625 C89.9401,14.625 90.6615,14.7552 91.25,15.0156 C91.8438,15.276 92.2943,15.6615 92.6016,16.1719 C92.9141,16.6771 93.0703,17.2995 93.0703,18.0391 C93.0703,18.5599 92.9635,19.0365 92.75,19.4688 C92.5417,19.8958 92.2396,20.2604 91.8438,20.5625 C91.4531,20.8594 90.9844,21.0807 90.4375,21.2266 L90.0156,21.3906 L86.4766,21.3906 L86.4609,20.1641 L89.1328,20.1641 C89.6745,20.1641 90.125,20.0703 90.4844,19.8828 C90.8438,19.6901 91.1146,19.4323 91.2969,19.1094 C91.4792,18.7865 91.5703,18.4297 91.5703,18.0391 C91.5703,17.6016 91.4844,17.2188 91.3125,16.8906 C91.1406,16.5625 90.8698,16.3099 90.5,16.1328 C90.1354,15.9505 89.6641,15.8594 89.0859,15.8594 L86.8281,15.8594 L86.8281,26 L85.3203,26 L85.3203,14.625 Z M91.9688,26 L89.2031,20.8438 L90.7734,20.8359 L93.5781,25.9062 L93.5781,26 L91.9688,26 Z M100.0688,26.1562 C99.4802,26.1562 98.9464,26.0573 98.4672,25.8594 C97.9932,25.6562 97.5844,25.3724 97.2406,25.0078 C96.9021,24.6432 96.6417,24.2109 96.4594,23.7109 C96.2771,23.2109 96.1859,22.6641 96.1859,22.0703 L96.1859,21.7422 C96.1859,21.0547 96.2875,20.4427 96.4906,19.9062 C96.6938,19.3646 96.9698,18.9062 97.3188,18.5312 C97.6677,18.1562 98.0635,17.8724 98.5063,17.6797 C98.949,17.487 99.4073,17.3906 99.8813,17.3906 C100.4854,17.3906 101.0063,17.4948 101.4438,17.7031 C101.8865,17.9115 102.2484,18.2031 102.5297,18.5781 C102.8109,18.9479 103.0193,19.3854 103.1547,19.8906 C103.2901,20.3906 103.3578,20.9375 103.3578,21.5312 L103.3578,22.1797 L97.0453,22.1797 L97.0453,21 L101.9125,21 L101.9125,20.8906 C101.8917,20.5156 101.8135,20.151 101.6781,19.7969 C101.5479,19.4427 101.3396,19.151 101.0531,18.9219 C100.7667,18.6927 100.376,18.5781 99.8813,18.5781 C99.5531,18.5781 99.251,18.6484 98.975,18.7891 C98.699,18.9245 98.462,19.1276 98.2641,19.3984 C98.0661,19.6693 97.9125,20 97.8031,20.3906 C97.6938,20.7812 97.6391,21.2318 97.6391,21.7422 L97.6391,22.0703 C97.6391,22.4714 97.6938,22.849 97.8031,23.2031 C97.9177,23.5521 98.0818,23.8594 98.2953,24.125 C98.5141,24.3906 98.7771,24.599 99.0844,24.75 C99.3969,24.901 99.751,24.9766 100.1469,24.9766 C100.6573,24.9766 101.0896,24.8724 101.4438,24.6641 C101.7979,24.4557 102.1078,24.1771 102.3734,23.8281 L103.2484,24.5234 C103.0661,24.7995 102.8344,25.0625 102.5531,25.3125 C102.2719,25.5625 101.9255,25.7656 101.5141,25.9219 C101.1078,26.0781 100.626,26.1562 100.0688,26.1562 Z M111.9656,29.25 L111.9656,19.1719 L112.0906,17.5469 L113.4188,17.5469 L113.4188,29.25 L111.9656,29.25 Z M106.2859,21.8672 L106.2859,21.7031 C106.2859,21.0573 106.3615,20.4714 106.5125,19.9453 C106.6635,19.4141 106.8849,18.9583 107.1766,18.5781 C107.4682,18.1979 107.8198,17.9062 108.2313,17.7031 C108.6479,17.4948 109.1219,17.3906 109.6531,17.3906 C110.1844,17.3906 110.6505,17.4844 111.0516,17.6719 C111.4578,17.8542 111.8016,18.1224 112.0828,18.4766 C112.3693,18.8255 112.5958,19.2474 112.7625,19.7422 C112.9292,20.237 113.0438,20.7969 113.1063,21.4219 L113.1063,22.1406 C113.049,22.7604 112.937,23.3177 112.7703,23.8125 C112.6036,24.3073 112.3771,24.7292 112.0906,25.0781 C111.8094,25.4271 111.463,25.6953 111.0516,25.8828 C110.6453,26.0651 110.174,26.1562 109.6375,26.1562 C109.1167,26.1562 108.6479,26.0495 108.2313,25.8359 C107.8198,25.6224 107.4682,25.3229 107.1766,24.9375 C106.8901,24.5521 106.6688,24.099 106.5125,23.5781 C106.3615,23.0521 106.2859,22.4818 106.2859,21.8672 Z M107.7391,21.7031 L107.7391,21.8672 C107.7391,22.2891 107.7833,22.6875 107.8719,23.0625 C107.9604,23.4323 108.0958,23.7604 108.2781,24.0469 C108.4656,24.3333 108.7,24.5599 108.9813,24.7266 C109.2677,24.888 109.6063,24.9688 109.9969,24.9688 C110.476,24.9688 110.8745,24.8646 111.1922,24.6562 C111.5151,24.4479 111.7729,24.1745 111.9656,23.8359 C112.1583,23.4922 112.3068,23.125 112.4109,22.7344 L112.4109,20.8516 C112.3536,20.5651 112.2625,20.2865 112.1375,20.0156 C112.0177,19.7448 111.8615,19.5026 111.6688,19.2891 C111.476,19.0703 111.2417,18.8984 110.9656,18.7734 C110.6948,18.6432 110.3771,18.5781 110.0125,18.5781 C109.6167,18.5781 109.2755,18.6615 108.9891,18.8281 C108.7026,18.9948 108.4656,19.224 108.2781,19.5156 C108.0958,19.8021 107.9604,20.1328 107.8719,20.5078 C107.7833,20.8828 107.7391,21.2812 107.7391,21.7031 Z M122.5109,24.0469 L122.5109,17.5469 L123.9641,17.5469 L123.9641,26 L122.5812,26 L122.5109,24.0469 Z M122.7844,22.2656 L123.3859,22.25 C123.3859,22.8125 123.326,23.3333 123.2062,23.8125 C123.0917,24.2865 122.9042,24.6979 122.6437,25.0469 C122.3833,25.3958 122.0422,25.6693 121.6203,25.8672 C121.1984,26.0599 120.6854,26.1562 120.0812,26.1562 C119.6698,26.1562 119.2922,26.0964 118.9484,25.9766 C118.6099,25.8568 118.3182,25.6719 118.0734,25.4219 C117.8286,25.1719 117.6385,24.8464 117.5031,24.4453 C117.3729,24.0443 117.3078,23.5625 117.3078,23 L117.3078,17.5469 L118.7531,17.5469 L118.7531,23.0156 C118.7531,23.3958 118.7948,23.7109 118.8781,23.9609 C118.9667,24.2057 119.0839,24.401 119.2297,24.5469 C119.3807,24.6875 119.5474,24.7865 119.7297,24.8438 C119.9172,24.901 120.1099,24.9297 120.3078,24.9297 C120.9224,24.9297 121.4094,24.8125 121.7687,24.5781 C122.1281,24.3385 122.3859,24.0182 122.5422,23.6172 C122.7036,23.2109 122.7844,22.7604 122.7844,22.2656 Z M131.275,26.1562 C130.6865,26.1562 130.1526,26.0573 129.6734,25.8594 C129.1995,25.6562 128.7906,25.3724 128.4469,25.0078 C128.1083,24.6432 127.8479,24.2109 127.6656,23.7109 C127.4833,23.2109 127.3922,22.6641 127.3922,22.0703 L127.3922,21.7422 C127.3922,21.0547 127.4938,20.4427 127.6969,19.9062 C127.9,19.3646 128.176,18.9062 128.525,18.5312 C128.874,18.1562 129.2698,17.8724 129.7125,17.6797 C130.1552,17.487 130.6135,17.3906 131.0875,17.3906 C131.6917,17.3906 132.2125,17.4948 132.65,17.7031 C133.0927,17.9115 133.4547,18.2031 133.7359,18.5781 C134.0172,18.9479 134.2255,19.3854 134.3609,19.8906 C134.4964,20.3906 134.5641,20.9375 134.5641,21.5312 L134.5641,22.1797 L128.2516,22.1797 L128.2516,21 L133.1188,21 L133.1188,20.8906 C133.0979,20.5156 133.0198,20.151 132.8844,19.7969 C132.7542,19.4427 132.5458,19.151 132.2594,18.9219 C131.9729,18.6927 131.5823,18.5781 131.0875,18.5781 C130.7594,18.5781 130.4573,18.6484 130.1813,18.7891 C129.9052,18.9245 129.6682,19.1276 129.4703,19.3984 C129.2724,19.6693 129.1188,20 129.0094,20.3906 C128.9,20.7812 128.8453,21.2318 128.8453,21.7422 L128.8453,22.0703 C128.8453,22.4714 128.9,22.849 129.0094,23.2031 C129.124,23.5521 129.288,23.8594 129.5016,24.125 C129.7203,24.3906 129.9833,24.599 130.2906,24.75 C130.6031,24.901 130.9573,24.9766 131.3531,24.9766 C131.8635,24.9766 132.2958,24.8724 132.65,24.6641 C133.0042,24.4557 133.3141,24.1771 133.5797,23.8281 L134.4547,24.5234 C134.2724,24.7995 134.0406,25.0625 133.7594,25.3125 C133.4781,25.5625 133.1318,25.7656 132.7203,25.9219 C132.3141,26.0781 131.8323,26.1562 131.275,26.1562 Z M142.7734,23.7578 C142.7734,23.5495 142.7266,23.3568 142.6328,23.1797 C142.5443,22.9974 142.3594,22.8333 142.0781,22.6875 C141.8021,22.5365 141.3854,22.4062 140.8281,22.2969 C140.3594,22.1979 139.9349,22.0807 139.5547,21.9453 C139.1797,21.8099 138.8594,21.6458 138.5938,21.4531 C138.3333,21.2604 138.1328,21.0339 137.9922,20.7734 C137.8516,20.513 137.7812,20.2083 137.7812,19.8594 C137.7812,19.526 137.8542,19.2109 138,18.9141 C138.151,18.6172 138.362,18.3542 138.6328,18.125 C138.9089,17.8958 139.2396,17.7161 139.625,17.5859 C140.0104,17.4557 140.4401,17.3906 140.9141,17.3906 C141.5911,17.3906 142.1693,17.5104 142.6484,17.75 C143.1276,17.9896 143.4948,18.3099 143.75,18.7109 C144.0052,19.1068 144.1328,19.5469 144.1328,20.0312 L142.6875,20.0312 C142.6875,19.7969 142.6172,19.5703 142.4766,19.3516 C142.3411,19.1276 142.1406,18.9427 141.875,18.7969 C141.6146,18.651 141.2943,18.5781 140.9141,18.5781 C140.513,18.5781 140.1875,18.6406 139.9375,18.7656 C139.6927,18.8854 139.513,19.0391 139.3984,19.2266 C139.2891,19.4141 139.2344,19.612 139.2344,19.8203 C139.2344,19.9766 139.2604,20.1172 139.3125,20.2422 C139.3698,20.362 139.4688,20.474 139.6094,20.5781 C139.75,20.6771 139.9479,20.7708 140.2031,20.8594 C140.4583,20.9479 140.7839,21.0365 141.1797,21.125 C141.8724,21.2812 142.4427,21.4688 142.8906,21.6875 C143.3385,21.9062 143.6719,22.1745 143.8906,22.4922 C144.1094,22.8099 144.2188,23.1953 144.2188,23.6484 C144.2188,24.0182 144.1406,24.3568 143.9844,24.6641 C143.8333,24.9714 143.612,25.237 143.3203,25.4609 C143.0339,25.6797 142.6901,25.8516 142.2891,25.9766 C141.8932,26.0964 141.4479,26.1562 140.9531,26.1562 C140.2083,26.1562 139.5781,26.0234 139.0625,25.7578 C138.5469,25.4922 138.1562,25.1484 137.8906,24.7266 C137.625,24.3047 137.4922,23.8594 137.4922,23.3906 L138.9453,23.3906 C138.9661,23.7865 139.0807,24.1016 139.2891,24.3359 C139.4974,24.5651 139.7526,24.7292 140.0547,24.8281 C140.3568,24.9219 140.6562,24.9688 140.9531,24.9688 C141.349,24.9688 141.6797,24.9167 141.9453,24.8125 C142.2161,24.7083 142.4219,24.5651 142.5625,24.3828 C142.7031,24.2005 142.7734,23.9922 142.7734,23.7578 Z M151.256,17.5469 L151.256,18.6562 L146.6859,18.6562 L146.6859,17.5469 L151.256,17.5469 Z M148.2328,15.4922 L149.678,15.4922 L149.678,23.9062 C149.678,24.1927 149.722,24.4089 149.811,24.5547 C149.899,24.7005 150.014,24.7969 150.155,24.8438 C150.295,24.8906 150.446,24.9141 150.608,24.9141 C150.728,24.9141 150.853,24.9036 150.983,24.8828 C151.118,24.8568 151.22,24.8359 151.287,24.8203 L151.295,26 C151.181,26.0365 151.03,26.0703 150.842,26.1016 C150.66,26.138 150.439,26.1562 150.178,26.1562 C149.824,26.1562 149.498,26.0859 149.202,25.9453 C148.9047,25.8047 148.6677,25.5703 148.4906,25.2422 C148.3187,24.9089 148.2328,24.4609 148.2328,23.8984 L148.2328,15.4922 Z M159.473,23.7578 C159.473,23.5495 159.427,23.3568 159.333,23.1797 C159.244,22.9974 159.059,22.8333 158.778,22.6875 C158.502,22.5365 158.085,22.4062 157.528,22.2969 C157.059,22.1979 156.635,22.0807 156.255,21.9453 C155.88,21.8099 155.559,21.6458 155.294,21.4531 C155.033,21.2604 154.833,21.0339 154.692,20.7734 C154.552,20.513 154.481,20.2083 154.481,19.8594 C154.481,19.526 154.554,19.2109 154.7,18.9141 C154.851,18.6172 155.062,18.3542 155.333,18.125 C155.609,17.8958 155.94,17.7161 156.325,17.5859 C156.71,17.4557 157.14,17.3906 157.614,17.3906 C158.291,17.3906 158.869,17.5104 159.348,17.75 C159.828,17.9896 160.195,18.3099 160.45,18.7109 C160.705,19.1068 160.833,19.5469 160.833,20.0312 L159.387,20.0312 C159.387,19.7969 159.317,19.5703 159.177,19.3516 C159.041,19.1276 158.841,18.9427 158.575,18.7969 C158.315,18.651 157.994,18.5781 157.614,18.5781 C157.213,18.5781 156.887,18.6406 156.637,18.7656 C156.393,18.8854 156.213,19.0391 156.098,19.2266 C155.989,19.4141 155.934,19.612 155.934,19.8203 C155.934,19.9766 155.96,20.1172 156.012,20.2422 C156.07,20.362 156.169,20.474 156.309,20.5781 C156.45,20.6771 156.648,20.7708 156.903,20.8594 C157.158,20.9479 157.484,21.0365 157.88,21.125 C158.572,21.2812 159.143,21.4688 159.591,21.6875 C160.039,21.9062 160.372,22.1745 160.591,22.4922 C160.809,22.8099 160.919,23.1953 160.919,23.6484 C160.919,24.0182 160.841,24.3568 160.684,24.6641 C160.533,24.9714 160.312,25.237 160.02,25.4609 C159.734,25.6797 159.39,25.8516 158.989,25.9766 C158.593,26.0964 158.148,26.1562 157.653,26.1562 C156.908,26.1562 156.278,26.0234 155.762,25.7578 C155.247,25.4922 154.856,25.1484 154.591,24.7266 C154.325,24.3047 154.192,23.8594 154.192,23.3906 L155.645,23.3906 C155.666,23.7865 155.781,24.1016 155.989,24.3359 C156.197,24.5651 156.453,24.7292 156.755,24.8281 C157.057,24.9219 157.356,24.9688 157.653,24.9688 C158.049,24.9688 158.38,24.9167 158.645,24.8125 C158.916,24.7083 159.122,24.5651 159.262,24.3828 C159.403,24.2005 159.473,23.9922 159.473,23.7578 Z" id="Shape" fill="#4E6E81" fill-rule="nonzero"></path>
            </g>
            <g id="Connects-Button-US" transform="translate(219.000000, 6.000000)" fill-rule="nonzero">
                <path d="M0,12 C0,5.37258 5.37258,0 12,0 L137,0 C143.627,0 149,5.37258 149,12 L149,36 L0,36 L0,12 Z" id="Path" fill="#97A9B4"></path>
                <path d="M43.2826242,20.1256738 L44.789374,20.1256738 C44.7109226,20.8636994 44.5041965,21.5241029 44.1693967,22.106987 C43.8345969,22.6898711 43.3610756,23.1524206 42.7489334,23.4947379 C42.1368916,23.8316135 41.3730699,24 40.4574683,24 C39.7877682,24 39.1783381,23.8716567 38.6289771,23.61497 C38.0848395,23.3582833 37.6166421,22.9947123 37.224184,22.5241542 C36.8318264,22.0481544 36.5283669,21.478618 36.3139062,20.8155449 C36.1046689,20.1470301 36,19.4037682 36,18.5855537 L36,17.422455 C36,16.6042405 36.1046689,15.863648 36.3139062,15.2004723 C36.5283669,14.5320602 36.8344381,13.9598542 37.2321196,13.4839571 C37.634924,13.0079573 38.1188921,12.6417167 38.6839233,12.38503 C39.2489544,12.1283433 39.884602,12 40.5908658,12 C41.454133,12 42.1840027,12.1657169 42.7803742,12.4972535 C43.3767458,12.82879 43.8398203,13.2887725 44.1693967,13.8769957 C44.5041965,14.4598799 44.7109226,15.1363006 44.789374,15.9063607 L43.2826242,15.9063607 C43.2093961,15.3609528 43.0733869,14.8930643 42.8744959,14.5025925 C42.6757054,14.1068843 42.39324,13.8021459 42.0269993,13.5881719 C41.6607587,13.3743005 41.1821145,13.2673135 40.5908658,13.2673135 C40.0833925,13.2673135 39.6360887,13.3662919 39.2489544,13.564146 C38.8670436,13.7620001 38.5453023,14.0427127 38.28363,14.4063864 C38.0272817,14.7700601 37.8337145,15.2058114 37.7029287,15.7138457 C37.5721428,16.22188 37.5067498,16.7860773 37.5067498,17.4064377 L37.5067498,18.5855537 C37.5067498,19.1577596 37.5643077,19.6951589 37.6794234,20.1978541 C37.7997624,20.7005493 37.9802711,21.1417424 38.2208488,21.5214333 C38.461527,21.9011243 38.7675981,22.2005236 39.1390622,22.4198367 C39.5105262,22.6337081 39.9499949,22.7406951 40.4574683,22.7406951 C41.1009509,22.7406951 41.6136476,22.6363776 41.9955585,22.4278454 C42.3775698,22.2193131 42.6652586,21.9198111 42.8588257,21.529442 C43.0576162,21.1390728 43.1989493,20.6711844 43.2826242,20.1256738 Z M47.8562126,19.5962832 L47.8562126,19.4117768 C47.8562126,18.7860773 47.9452113,18.2058627 48.1231082,17.671133 C48.3009047,17.1309615 48.5572531,16.6630731 48.8921534,16.2673649 C49.2269532,15.8663176 49.6324698,15.5561374 50.1085023,15.3369269 C50.5846352,15.1122748 51.1182256,14.9999487 51.7094742,14.9999487 C52.3058458,14.9999487 52.8421483,15.1122748 53.3181808,15.3369269 C53.7995371,15.5561374 54.207565,15.8663176 54.5424652,16.2673649 C54.8824884,16.6630731 55.1414485,17.1309615 55.3193454,17.671133 C55.4972424,18.2058627 55.5861406,18.7860773 55.5861406,19.4117768 L55.5861406,19.5962832 C55.5861406,20.2219826 55.4972424,20.8021972 55.3193454,21.3369269 C55.1414485,21.8716567 54.8824884,22.3396478 54.5424652,22.7406951 C54.207565,23.1364033 53.8021488,23.4465835 53.3260159,23.671133 C52.8552068,23.8904461 52.321516,24 51.7251444,24 C51.1286724,24 50.5924703,23.8904461 50.1163374,23.671133 C49.6403049,23.4465835 49.2321766,23.1364033 48.8921534,22.7406951 C48.5572531,22.3396478 48.3009047,21.8716567 48.1231082,21.3369269 C47.9452113,20.8021972 47.8562126,20.2219826 47.8562126,19.5962832 Z M49.3080163,19.4117768 L49.3080163,19.5962832 C49.3080163,20.0294676 49.3577391,20.4385235 49.4571845,20.8235536 C49.5565296,21.2032445 49.7056978,21.5401201 49.9044883,21.8342831 C50.1085023,22.1283433 50.3622389,22.3610042 50.6656984,22.5321628 C50.9691578,22.6978798 51.3222395,22.7808409 51.7251444,22.7808409 C52.1227255,22.7808409 52.4706842,22.6978798 52.7689202,22.5321628 C53.0722792,22.3610042 53.3234042,22.1283433 53.5222951,21.8342831 C53.7210857,21.5401201 53.8701535,21.2032445 53.9695989,20.8235536 C54.0741674,20.4385235 54.1265018,20.0294676 54.1265018,19.5962832 L54.1265018,19.4117768 C54.1265018,18.9839314 54.0741674,18.5802146 53.9695989,18.2005236 C53.8701535,17.8154936 53.718474,17.4759485 53.5143596,17.1817855 C53.3155691,16.8823862 53.0644441,16.6470558 52.7609847,16.4758971 C52.4628491,16.3048411 52.1122787,16.2192104 51.7094742,16.2192104 C51.3117927,16.2192104 50.9613227,16.3048411 50.6578633,16.4758971 C50.3596272,16.6470558 50.1085023,16.8823862 49.9044883,17.1817855 C49.7056978,17.4759485 49.5565296,17.8154936 49.4571845,18.2005236 C49.3577391,18.5802146 49.3080163,18.9839314 49.3080163,19.4117768 Z M60.4659006,17.013399 L60.4659006,23.8396222 L59.0139965,23.8396222 L59.0139965,15.1604292 L60.3873487,15.1604292 L60.4659006,17.013399 Z M60.1205536,19.1711073 L59.5162464,19.1470815 C59.5214698,18.5535192 59.6078568,18.0053391 59.7753069,17.5026439 C59.9426566,16.9946096 60.1781114,16.5534165 60.4815708,16.1791673 C60.7850302,15.8048154 61.145947,15.5159916 61.5645221,15.3127984 C61.9883207,15.1042661 62.4565181,14.9999487 62.9692148,14.9999487 C63.3877899,14.9999487 63.7644774,15.0587813 64.0992772,15.1764464 C64.4341774,15.2887725 64.7192545,15.4706094 64.9547093,15.721957 C65.1953874,15.9732019 65.3785078,16.2993994 65.5040703,16.7005493 C65.6296327,17.0962575 65.692414,17.5801633 65.692414,18.1523692 L65.692414,23.8396222 L64.2327752,23.8396222 L64.2327752,18.136352 C64.2327752,17.6818112 64.1672818,17.3181375 64.0364959,17.0454335 C63.90571,16.7673905 63.7147546,16.5668669 63.4636296,16.4438626 C63.2125047,16.3155193 62.9038219,16.2513476 62.5376816,16.2513476 C62.1766644,16.2513476 61.847088,16.328867 61.548852,16.4839057 C61.2558393,16.6390472 61.0021027,16.8529185 60.7876419,17.1256225 C60.5783042,17.3984291 60.4135662,17.7111761 60.2932271,18.0641717 C60.1781114,18.4117254 60.1205536,18.7807382 60.1205536,19.1711073 Z M73.0597175,15.1604292 L73.0597175,16.2993994 L68.4688517,16.2993994 L68.4688517,15.1604292 L73.0597175,15.1604292 Z M70.0227126,13.0507726 L71.4745162,13.0507726 L71.4745162,21.6898198 C71.4745162,21.9839828 71.5190156,22.2059654 71.6079138,22.3556651 C71.6969125,22.5053648 71.8120282,22.6043431 71.9532609,22.6524976 C72.0944936,22.7005493 72.2462735,22.7246779 72.4083998,22.7246779 C72.5287389,22.7246779 72.6543014,22.713897 72.7850872,22.6925407 C72.9210965,22.6658453 73.0231537,22.6443863 73.0911584,22.628369 L73.0989935,23.8396222 C72.9838778,23.8770984 72.8321983,23.9118025 72.6438546,23.9439396 C72.4607342,23.9813132 72.238338,24 71.9767662,24 C71.6210728,24 71.2940076,23.9278197 70.995872,23.7834591 C70.697636,23.6390985 70.4595696,23.3984291 70.2816726,23.0615535 C70.1089991,22.7193388 70.0227126,22.2593562 70.0227126,21.6818112 L70.0227126,13.0507726 Z M81.3766752,22.3556651 L81.3766752,17.8876739 C81.3766752,17.5454592 81.3086706,17.2486267 81.1726613,16.9972791 C81.0418754,16.7405924 80.8430849,16.5427383 80.5762897,16.4037168 C80.3093941,16.2646953 79.9798177,16.1951846 79.58746,16.1951846 C79.2212194,16.1951846 78.8994781,16.2593562 78.6222361,16.3876996 C78.3501171,16.5160429 78.1356564,16.6844294 77.978653,16.8930643 C77.8269735,17.1015966 77.7511338,17.3261461 77.7511338,17.5668155 L76.2993301,17.5668155 C76.2993301,17.2566354 76.3777815,16.9492274 76.5346844,16.6443863 C76.6916878,16.3395452 76.9165953,16.0641717 77.2096079,15.8181632 C77.5078439,15.5668155 77.8635373,15.3689614 78.276889,15.2246009 C78.6954641,15.0747985 79.1610498,14.9999487 79.6737466,14.9999487 C80.2911122,14.9999487 80.8352498,15.1069357 81.3060589,15.320807 C81.7821918,15.534781 82.1536559,15.8583089 82.4204511,16.2913907 C82.6924696,16.7192361 82.8285794,17.2566354 82.8285794,17.9037938 L82.8285794,21.9465065 C82.8285794,22.2353304 82.8520847,22.542841 82.8991957,22.8690385 C82.9514297,23.1952359 83.0273699,23.4759485 83.1267149,23.7112788 L83.1267149,23.8396222 L81.61213,23.8396222 C81.538902,23.6684635 81.4813441,23.4412444 81.4394565,23.1577596 C81.3976693,22.8690385 81.3766752,22.6016736 81.3766752,22.3556651 Z M81.6278002,18.577545 L81.6435709,19.6203091 L80.1759965,19.6203091 C79.7627453,19.6203091 79.3938929,19.6551158 79.0695399,19.7246265 C78.7450864,19.7887982 78.4730679,19.8876739 78.2533837,20.0213563 C78.0335992,20.1551414 77.866149,20.3235279 77.7511338,20.5267211 C77.6360181,20.7245752 77.5784603,20.957236 77.5784603,21.2246009 C77.5784603,21.4974075 77.6386298,21.7459829 77.7589689,21.970635 C77.879308,22.1951846 78.0598166,22.3743519 78.3003943,22.5080343 C78.5462959,22.6363776 78.8471436,22.7005493 79.2029375,22.7005493 C79.6476296,22.7005493 80.0399872,22.6043431 80.3801109,22.4118281 C80.7201341,22.2193131 80.989541,21.9839828 81.1883315,21.7059397 C81.3924459,21.427794 81.5022377,21.1577596 81.5180084,20.8957339 L82.1379857,21.6096309 C82.1013215,21.8342831 82.001876,22.0829611 81.8397497,22.3556651 C81.677523,22.628369 81.4604505,22.8903948 81.1883315,23.1417424 C80.9215363,23.3877509 80.6024067,23.5936136 80.2309427,23.7594332 C79.864702,23.9198111 79.4514508,24 78.990988,24 C78.41551,24 77.9106484,23.885107 77.4764031,23.6551158 C77.0473812,23.4252272 76.7125814,23.1177165 76.4719032,22.7326865 C76.2365489,22.3423174 76.1188215,21.9064634 76.1188215,21.4251245 C76.1188215,20.9599055 76.2077197,20.5508496 76.3856166,20.1978541 C76.5635136,19.8396222 76.8198619,19.5427897 77.1546618,19.3074593 C77.4894616,19.0668926 77.8923665,18.8850557 78.3631756,18.7620514 C78.8340851,18.6390472 79.3598404,18.577545 79.9406422,18.577545 L81.6278002,18.577545 Z M90.1174315,22.7808409 C90.4626781,22.7808409 90.7819081,22.7085579 91.0748203,22.5641973 C91.3678329,22.4198367 91.6085111,22.2219826 91.7968548,21.970635 C91.9851986,21.7139484 92.0923787,21.422455 92.1185961,21.0962575 L93.4997835,21.0962575 C93.473566,21.6096309 93.3036047,22.0883002 92.9896984,22.5321628 C92.6810156,22.9705837 92.275499,23.3262488 91.7732491,23.5989527 C91.2709991,23.8663176 90.7191269,24 90.1174315,24 C89.4791722,24 88.9219761,23.885107 88.4458432,23.6551158 C87.9750341,23.4252272 87.5826764,23.1097079 87.2687702,22.7085579 C86.9600874,22.3075107 86.7272443,21.8476308 86.570241,21.3289183 C86.4185615,20.8048668 86.3427218,20.2513476 86.3427218,19.6684635 L86.3427218,19.3315879 C86.3427218,18.7487037 86.4185615,18.1978541 86.570241,17.6791416 C86.7272443,17.1550901 86.9600874,16.6925407 87.2687702,16.2913907 C87.5826764,15.8903434 87.9750341,15.5748242 88.4458432,15.3449356 C88.9219761,15.1149443 89.4791722,14.9999487 90.1174315,14.9999487 C90.7819081,14.9999487 91.3626095,15.1389702 91.8596361,15.4171159 C92.3566626,15.6898198 92.7464086,16.0641717 93.0288739,16.5400688 C93.3166632,17.0107295 93.473566,17.5454592 93.4997835,18.1443606 L92.1185961,18.1443606 C92.0923787,17.7861287 91.9930337,17.4626007 91.8203601,17.1737769 C91.65291,16.8850557 91.4227791,16.6550644 91.1297665,16.4839057 C90.8420777,16.3075107 90.5045657,16.2192104 90.1174315,16.2192104 C89.6727394,16.2192104 89.2986636,16.3101802 88.9952042,16.492017 C88.6969682,16.6684121 88.4590022,16.9090816 88.2811052,17.2139227 C88.1084317,17.513322 87.9828692,17.8476308 87.9044178,18.2165409 C87.8311897,18.5802146 87.7945255,18.9518969 87.7945255,19.3315879 L87.7945255,19.6684635 C87.7945255,20.0481544 87.8311897,20.4225063 87.9044178,20.7914164 C87.9776458,21.1604292 88.1005966,21.4946352 88.2732701,21.7941373 C88.4510666,22.0936393 88.6891331,22.3343087 88.9873691,22.5160429 C89.2908285,22.6925407 89.667516,22.7808409 90.1174315,22.7808409 Z M100.294221,15.1604292 L100.294221,16.2993994 L95.7033549,16.2993994 L95.7033549,15.1604292 L100.294221,15.1604292 Z M97.2572158,13.0507726 L98.7090195,13.0507726 L98.7090195,21.6898198 C98.7090195,21.9839828 98.7535188,22.2059654 98.842417,22.3556651 C98.9314157,22.5053648 99.0465314,22.6043431 99.1877641,22.6524976 C99.3289968,22.7005493 99.4807767,22.7246779 99.642903,22.7246779 C99.7632421,22.7246779 99.8888046,22.713897 100.01959,22.6925407 C100.1556,22.6658453 100.257657,22.6443863 100.325662,22.628369 L100.333497,23.8396222 C100.218381,23.8770984 100.066702,23.9118025 99.8783578,23.9439396 C99.6952374,23.9813132 99.4728412,24 99.2112694,24 C98.855576,24 98.5285108,23.9278197 98.2303753,23.7834591 C97.9321392,23.6390985 97.6940728,23.3984291 97.5161758,23.0615535 C97.3435023,22.7193388 97.2572158,22.2593562 97.2572158,21.6818112 L97.2572158,13.0507726 Z M108.548498,21.5374506 C108.548498,21.3235792 108.501286,21.1257251 108.406863,20.9438883 C108.318467,20.7567124 108.132635,20.5882232 107.85037,20.4385235 C107.573128,20.2834848 107.154252,20.1496997 106.594745,20.0374763 C106.123635,19.9358283 105.696722,19.8154936 105.315013,19.6764721 C104.938325,19.5374506 104.616885,19.3689614 104.349688,19.1711073 C104.088518,18.9732532 103.886614,18.7406951 103.745984,18.4732276 C103.604349,18.2058627 103.534034,17.893013 103.534034,17.534781 C103.534034,17.1924637 103.607363,16.8689358 103.753015,16.5641973 C103.905699,16.2593562 104.116644,15.9893218 104.388864,15.7539915 C104.666106,15.5186611 104.998595,15.3341547 105.385328,15.2004723 C105.773064,15.0667899 106.204999,14.9999487 106.681132,14.9999487 C107.361179,14.9999487 107.94178,15.1229529 108.422935,15.3689614 C108.904091,15.61497 109.272742,15.943837 109.52889,16.3555624 C109.786042,16.7620514 109.913613,17.2139227 109.913613,17.7111761 L108.462111,17.7111761 C108.462111,17.4706094 108.391796,17.2379486 108.250161,17.013399 C108.114554,16.7834078 107.912649,16.5935623 107.645452,16.4438626 C107.384282,16.2940603 107.062842,16.2192104 106.681132,16.2192104 C106.278328,16.2192104 105.950861,16.2833821 105.699736,16.4117254 C105.453634,16.5347297 105.273828,16.6925407 105.158311,16.8850557 C105.04882,17.0775707 104.993573,17.2807639 104.993573,17.4946352 C104.993573,17.6551158 105.01969,17.7994764 105.071924,17.9278197 C105.12918,18.050824 105.228626,18.1658196 105.37026,18.2727039 C105.51089,18.3743519 105.709781,18.470558 105.966933,18.5615278 C106.22308,18.6523949 106.549543,18.7433646 106.947325,18.8342317 C107.643443,18.9946096 108.216008,19.1872273 108.666024,19.4117768 C109.11604,19.6363263 109.450539,19.9118025 109.670524,20.2379999 C109.89051,20.5641973 110,20.9599055 110,21.4251245 C110,21.8048154 109.921649,22.1524719 109.764947,22.4679912 C109.613268,22.7835104 109.390269,23.0562144 109.097959,23.286103 C108.809668,23.5107552 108.465124,23.6872529 108.06232,23.8155963 C107.664538,23.9386005 107.216531,24 106.720308,24 C105.971955,24 105.339121,23.863648 104.820799,23.5909441 C104.302477,23.3182402 103.910722,22.9652446 103.643525,22.5321628 C103.376328,22.0989784 103.243734,21.6417681 103.243734,21.1604292 L104.703272,21.1604292 C104.724367,21.5669182 104.83888,21.8904461 105.04882,22.1310129 C105.257756,22.3663432 105.513904,22.5348324 105.817262,22.6363776 C106.120621,22.7326865 106.421971,22.7808409 106.720308,22.7808409 C107.117085,22.7808409 107.449575,22.7273474 107.716772,22.6203604 C107.988991,22.5133734 108.194914,22.3663432 108.336548,22.1791673 C108.478183,21.9919914 108.548498,21.77812 108.548498,21.5374506 Z" id="Shape" fill="#FFFFFF"></path>
            </g>
        </g>
    </g>
</svg>