<?xml version="1.0" encoding="UTF-8"?>
<svg width="401px" height="43px" viewBox="0 0 401 43" version="1.1" xmlns="http://www.w3.org/2000/svg" xmlns:xlink="http://www.w3.org/1999/xlink">
    <title>reqSelected</title>
    <g id="Page-1" stroke="none" stroke-width="1" fill="none" fill-rule="evenodd">
        <g id="reqSelected" transform="translate(0.000000, 1.000000)">
            <g id="Request-Button-(1)">
                <path d="M0,41 L36.0692,41 C42.6966,41 48.0692,34.8812056 48.0692,27.3333333 L48.0692,13.6666667 C48.0692,6.11879444 53.4417,0 60.0692,0 L183.915,0 C190.543,0 195.915,6.11879444 195.915,13.6666667 L195.915,27.3333333 C195.915,34.8812056 201.288,41 207.915,41 L401,41" id="Path" stroke="#4E6E81" stroke-width="2"></path>
                <path d="M86.3203,16.625 L90.0859,16.625 C90.9401,16.625 91.6615,16.7552 92.25,17.0156 C92.8438,17.276 93.2943,17.6615 93.6016,18.1719 C93.9141,18.6771 94.0703,19.2995 94.0703,20.0391 C94.0703,20.5599 93.9635,21.0365 93.75,21.4688 C93.5417,21.8958 93.2396,22.2604 92.8438,22.5625 C92.4531,22.8594 91.9844,23.0807 91.4375,23.2266 L91.0156,23.3906 L87.4766,23.3906 L87.4609,22.1641 L90.1328,22.1641 C90.6745,22.1641 91.125,22.0703 91.4844,21.8828 C91.8438,21.6901 92.1146,21.4323 92.2969,21.1094 C92.4792,20.7865 92.5703,20.4297 92.5703,20.0391 C92.5703,19.6016 92.4844,19.2188 92.3125,18.8906 C92.1406,18.5625 91.8698,18.3099 91.5,18.1328 C91.1354,17.9505 90.6641,17.8594 90.0859,17.8594 L87.8281,17.8594 L87.8281,28 L86.3203,28 L86.3203,16.625 Z M92.9688,28 L90.2031,22.8438 L91.7734,22.8359 L94.5781,27.9062 L94.5781,28 L92.9688,28 Z M101.0688,28.1562 C100.4802,28.1562 99.9464,28.0573 99.4672,27.8594 C98.9932,27.6562 98.5844,27.3724 98.2406,27.0078 C97.9021,26.6432 97.6417,26.2109 97.4594,25.7109 C97.2771,25.2109 97.1859,24.6641 97.1859,24.0703 L97.1859,23.7422 C97.1859,23.0547 97.2875,22.4427 97.4906,21.9062 C97.6938,21.3646 97.9698,20.9062 98.3188,20.5312 C98.6677,20.1562 99.0635,19.8724 99.5063,19.6797 C99.949,19.487 100.4073,19.3906 100.8813,19.3906 C101.4854,19.3906 102.0063,19.4948 102.4438,19.7031 C102.8865,19.9115 103.2484,20.2031 103.5297,20.5781 C103.8109,20.9479 104.0193,21.3854 104.1547,21.8906 C104.2901,22.3906 104.3578,22.9375 104.3578,23.5312 L104.3578,24.1797 L98.0453,24.1797 L98.0453,23 L102.9125,23 L102.9125,22.8906 C102.8917,22.5156 102.8135,22.151 102.6781,21.7969 C102.5479,21.4427 102.3396,21.151 102.0531,20.9219 C101.7667,20.6927 101.376,20.5781 100.8813,20.5781 C100.5531,20.5781 100.251,20.6484 99.975,20.7891 C99.699,20.9245 99.462,21.1276 99.2641,21.3984 C99.0661,21.6693 98.9125,22 98.8031,22.3906 C98.6938,22.7812 98.6391,23.2318 98.6391,23.7422 L98.6391,24.0703 C98.6391,24.4714 98.6938,24.849 98.8031,25.2031 C98.9177,25.5521 99.0818,25.8594 99.2953,26.125 C99.5141,26.3906 99.7771,26.599 100.0844,26.75 C100.3969,26.901 100.751,26.9766 101.1469,26.9766 C101.6573,26.9766 102.0896,26.8724 102.4438,26.6641 C102.7979,26.4557 103.1078,26.1771 103.3734,25.8281 L104.2484,26.5234 C104.0661,26.7995 103.8344,27.0625 103.5531,27.3125 C103.2719,27.5625 102.9255,27.7656 102.5141,27.9219 C102.1078,28.0781 101.626,28.1562 101.0688,28.1562 Z M112.5672,25.7578 C112.5672,25.5495 112.5203,25.3568 112.4266,25.1797 C112.338,24.9974 112.1531,24.8333 111.8719,24.6875 C111.5958,24.5365 111.1792,24.4062 110.6219,24.2969 C110.1531,24.1979 109.7286,24.0807 109.3484,23.9453 C108.9734,23.8099 108.6531,23.6458 108.3875,23.4531 C108.1271,23.2604 107.9266,23.0339 107.7859,22.7734 C107.6453,22.513 107.575,22.2083 107.575,21.8594 C107.575,21.526 107.6479,21.2109 107.7938,20.9141 C107.9448,20.6172 108.1557,20.3542 108.4266,20.125 C108.7026,19.8958 109.0333,19.7161 109.4188,19.5859 C109.8042,19.4557 110.2339,19.3906 110.7078,19.3906 C111.3849,19.3906 111.963,19.5104 112.4422,19.75 C112.9214,19.9896 113.289,20.3099 113.544,20.7109 C113.799,21.1068 113.927,21.5469 113.927,22.0312 L112.4813,22.0312 C112.4813,21.7969 112.4109,21.5703 112.2703,21.3516 C112.1349,21.1276 111.9344,20.9427 111.6688,20.7969 C111.4083,20.651 111.088,20.5781 110.7078,20.5781 C110.3068,20.5781 109.9813,20.6406 109.7313,20.7656 C109.4865,20.8854 109.3068,21.0391 109.1922,21.2266 C109.0828,21.4141 109.0281,21.612 109.0281,21.8203 C109.0281,21.9766 109.0542,22.1172 109.1063,22.2422 C109.1635,22.362 109.2625,22.474 109.4031,22.5781 C109.5438,22.6771 109.7417,22.7708 109.9969,22.8594 C110.2521,22.9479 110.5776,23.0365 110.9734,23.125 C111.6661,23.2812 112.2365,23.4688 112.6844,23.6875 C113.132,23.9062 113.466,24.1745 113.684,24.4922 C113.903,24.8099 114.013,25.1953 114.013,25.6484 C114.013,26.0182 113.934,26.3568 113.778,26.6641 C113.627,26.9714 113.406,27.237 113.114,27.4609 C112.8276,27.6797 112.4839,27.8516 112.0828,27.9766 C111.687,28.0964 111.2417,28.1562 110.7469,28.1562 C110.0021,28.1562 109.3719,28.0234 108.8563,27.7578 C108.3406,27.4922 107.95,27.1484 107.6844,26.7266 C107.4188,26.3047 107.2859,25.8594 107.2859,25.3906 L108.7391,25.3906 C108.7599,25.7865 108.8745,26.1016 109.0828,26.3359 C109.2911,26.5651 109.5464,26.7292 109.8484,26.8281 C110.1505,26.9219 110.45,26.9688 110.7469,26.9688 C111.1427,26.9688 111.4734,26.9167 111.7391,26.8125 C112.0099,26.7083 112.2156,26.5651 112.3563,26.3828 C112.4969,26.2005 112.5672,25.9922 112.5672,25.7578 Z M118.956,21.1719 L118.956,31.25 L117.503,31.25 L117.503,19.5469 L118.831,19.5469 L118.956,21.1719 Z M124.652,23.7031 L124.652,23.8672 C124.652,24.4818 124.579,25.0521 124.433,25.5781 C124.287,26.099 124.073,26.5521 123.792,26.9375 C123.516,27.3229 123.175,27.6224 122.769,27.8359 C122.362,28.0495 121.896,28.1562 121.37,28.1562 C120.834,28.1562 120.36,28.0677 119.948,27.8906 C119.537,27.7135 119.188,27.4557 118.902,27.1172 C118.615,26.7786 118.386,26.3724 118.214,25.8984 C118.047,25.4245 117.933,24.8906 117.87,24.2969 L117.87,23.4219 C117.933,22.7969 118.05,22.237 118.222,21.7422 C118.394,21.2474 118.62,20.8255 118.902,20.4766 C119.188,20.1224 119.534,19.8542 119.941,19.6719 C120.347,19.4844 120.816,19.3906 121.347,19.3906 C121.878,19.3906 122.349,19.4948 122.761,19.7031 C123.172,19.9062 123.519,20.1979 123.8,20.5781 C124.081,20.9583 124.292,21.4141 124.433,21.9453 C124.579,22.4714 124.652,23.0573 124.652,23.7031 Z M123.198,23.8672 L123.198,23.7031 C123.198,23.2812 123.154,22.8854 123.066,22.5156 C122.977,22.1406 122.839,21.8125 122.652,21.5312 C122.469,21.2448 122.235,21.0208 121.948,20.8594 C121.662,20.6927 121.321,20.6094 120.925,20.6094 C120.56,20.6094 120.243,20.6719 119.972,20.7969 C119.706,20.9219 119.48,21.0911 119.292,21.3047 C119.105,21.513 118.951,21.7526 118.831,22.0234 C118.717,22.2891 118.631,22.5651 118.573,22.8516 L118.573,24.875 C118.678,25.2396 118.823,25.5833 119.011,25.9062 C119.198,26.224 119.448,26.4818 119.761,26.6797 C120.073,26.8724 120.467,26.9688 120.941,26.9688 C121.331,26.9688 121.667,26.888 121.948,26.7266 C122.235,26.5599 122.469,26.3333 122.652,26.0469 C122.839,25.7604 122.977,25.4323 123.066,25.0625 C123.154,24.6875 123.198,24.2891 123.198,23.8672 Z M127.713,23.8672 L127.713,23.6875 C127.713,23.0781 127.801,22.513 127.978,21.9922 C128.155,21.4661 128.41,21.0104 128.744,20.625 C129.077,20.2344 129.481,19.9323 129.955,19.7188 C130.429,19.5 130.96,19.3906 131.548,19.3906 C132.142,19.3906 132.676,19.5 133.15,19.7188 C133.629,19.9323 134.035,20.2344 134.369,20.625 C134.707,21.0104 134.965,21.4661 135.142,21.9922 C135.319,22.513 135.408,23.0781 135.408,23.6875 L135.408,23.8672 C135.408,24.4766 135.319,25.0417 135.142,25.5625 C134.965,26.0833 134.707,26.5391 134.369,26.9297 C134.035,27.3151 133.632,27.6172 133.158,27.8359 C132.689,28.0495 132.158,28.1562 131.564,28.1562 C130.97,28.1562 130.436,28.0495 129.963,27.8359 C129.489,27.6172 129.082,27.3151 128.744,26.9297 C128.41,26.5391 128.155,26.0833 127.978,25.5625 C127.801,25.0417 127.713,24.4766 127.713,23.8672 Z M129.158,23.6875 L129.158,23.8672 C129.158,24.2891 129.207,24.6875 129.306,25.0625 C129.405,25.4323 129.554,25.7604 129.752,26.0469 C129.955,26.3333 130.207,26.5599 130.509,26.7266 C130.811,26.888 131.163,26.9688 131.564,26.9688 C131.96,26.9688 132.306,26.888 132.603,26.7266 C132.905,26.5599 133.155,26.3333 133.353,26.0469 C133.551,25.7604 133.699,25.4323 133.798,25.0625 C133.903,24.6875 133.955,24.2891 133.955,23.8672 L133.955,23.6875 C133.955,23.2708 133.903,22.8776 133.798,22.5078 C133.699,22.1328 133.548,21.8021 133.345,21.5156 C133.147,21.224 132.897,20.9948 132.595,20.8281 C132.298,20.6615 131.949,20.5781 131.548,20.5781 C131.153,20.5781 130.804,20.6615 130.502,20.8281 C130.205,20.9948 129.955,21.224 129.752,21.5156 C129.554,21.8021 129.405,22.1328 129.306,22.5078 C129.207,22.8776 129.158,23.2708 129.158,23.6875 Z M140.266,21.3516 L140.266,28 L138.82,28 L138.82,19.5469 L140.188,19.5469 L140.266,21.3516 Z M139.922,23.4531 L139.32,23.4297 C139.326,22.8516 139.411,22.3177 139.578,21.8281 C139.745,21.3333 139.979,20.9036 140.281,20.5391 C140.583,20.1745 140.943,19.8932 141.359,19.6953 C141.781,19.4922 142.247,19.3906 142.758,19.3906 C143.174,19.3906 143.549,19.4479 143.883,19.5625 C144.216,19.6719 144.5,19.849 144.734,20.0938 C144.974,20.3385 145.156,20.6562 145.281,21.0469 C145.406,21.4323 145.469,21.9036 145.469,22.4609 L145.469,28 L144.016,28 L144.016,22.4453 C144.016,22.0026 143.951,21.6484 143.82,21.3828 C143.69,21.112 143.5,20.9167 143.25,20.7969 C143,20.6719 142.693,20.6094 142.328,20.6094 C141.969,20.6094 141.641,20.6849 141.344,20.8359 C141.052,20.987 140.799,21.1953 140.586,21.4609 C140.378,21.7266 140.214,22.0312 140.094,22.375 C139.979,22.7135 139.922,23.0729 139.922,23.4531 Z M154.592,26.3594 L154.592,16 L156.045,16 L156.045,28 L154.717,28 L154.592,26.3594 Z M148.905,23.8672 L148.905,23.7031 C148.905,23.0573 148.983,22.4714 149.139,21.9453 C149.301,21.4141 149.527,20.9583 149.819,20.5781 C150.116,20.1979 150.467,19.9062 150.873,19.7031 C151.285,19.4948 151.743,19.3906 152.248,19.3906 C152.78,19.3906 153.243,19.4844 153.639,19.6719 C154.04,19.8542 154.379,20.1224 154.655,20.4766 C154.936,20.8255 155.157,21.2474 155.319,21.7422 C155.48,22.237 155.592,22.7969 155.655,23.4219 L155.655,24.1406 C155.597,24.7604 155.485,25.3177 155.319,25.8125 C155.157,26.3073 154.936,26.7292 154.655,27.0781 C154.379,27.4271 154.04,27.6953 153.639,27.8828 C153.238,28.0651 152.769,28.1562 152.233,28.1562 C151.738,28.1562 151.285,28.0495 150.873,27.8359 C150.467,27.6224 150.116,27.3229 149.819,26.9375 C149.527,26.5521 149.301,26.099 149.139,25.5781 C148.983,25.0521 148.905,24.4818 148.905,23.8672 Z M150.358,23.7031 L150.358,23.8672 C150.358,24.2891 150.399,24.6849 150.483,25.0547 C150.571,25.4245 150.707,25.75 150.889,26.0312 C151.071,26.3125 151.303,26.5339 151.584,26.6953 C151.866,26.8516 152.202,26.9297 152.592,26.9297 C153.071,26.9297 153.465,26.8281 153.772,26.625 C154.084,26.4219 154.334,26.1536 154.522,25.8203 C154.709,25.487 154.855,25.125 154.959,24.7344 L154.959,22.8516 C154.897,22.5651 154.806,22.2891 154.686,22.0234 C154.571,21.7526 154.42,21.513 154.233,21.3047 C154.051,21.0911 153.824,20.9219 153.553,20.7969 C153.287,20.6719 152.972,20.6094 152.608,20.6094 C152.212,20.6094 151.871,20.6927 151.584,20.8594 C151.303,21.0208 151.071,21.2448 150.889,21.5312 C150.707,21.8125 150.571,22.1406 150.483,22.5156 C150.399,22.8854 150.358,23.2812 150.358,23.7031 Z" id="Shape" fill="#4E6E81" fill-rule="nonzero"></path>
            </g>
            <g id="Connects-Button-US" transform="translate(219.000000, 6.000000)" fill-rule="nonzero">
                <path d="M0,12 C0,5.37258 5.37258,0 12,0 L137,0 C143.627,0 149,5.37258 149,12 L149,36 L0,36 L0,12 Z" id="Path" fill="#97A9B4"></path>
                <path d="M47.188,21.3828 L48.688,21.3828 C48.609,22.1016 48.404,22.7448 48.07,23.3125 C47.737,23.8802 47.266,24.3307 46.656,24.6641 C46.047,24.9922 45.286,25.1562 44.375,25.1562 C43.708,25.1562 43.102,25.0312 42.555,24.7812 C42.013,24.5312 41.547,24.1771 41.156,23.7188 C40.766,23.2552 40.464,22.7005 40.25,22.0547 C40.042,21.4036 39.938,20.6797 39.938,19.8828 L39.938,18.75 C39.938,17.9531 40.042,17.2318 40.25,16.5859 C40.464,15.9349 40.768,15.3776 41.164,14.9141 C41.565,14.4505 42.047,14.0938 42.609,13.8438 C43.172,13.5938 43.805,13.4688 44.508,13.4688 C45.367,13.4688 46.094,13.6302 46.688,13.9531 C47.281,14.276 47.742,14.724 48.07,15.2969 C48.404,15.8646 48.609,16.5234 48.688,17.2734 L47.188,17.2734 C47.115,16.7422 46.979,16.2865 46.781,15.9062 C46.583,15.5208 46.302,15.224 45.938,15.0156 C45.573,14.8073 45.096,14.7031 44.508,14.7031 C44.003,14.7031 43.557,14.7995 43.172,14.9922 C42.792,15.1849 42.471,15.4583 42.211,15.8125 C41.956,16.1667 41.763,16.5911 41.633,17.0859 C41.503,17.5807 41.438,18.1302 41.438,18.7344 L41.438,19.8828 C41.438,20.4401 41.495,20.9635 41.609,21.4531 C41.729,21.9427 41.909,22.3724 42.148,22.7422 C42.388,23.112 42.693,23.4036 43.062,23.6172 C43.432,23.8255 43.87,23.9297 44.375,23.9297 C45.016,23.9297 45.526,23.8281 45.906,23.625 C46.286,23.4219 46.573,23.1302 46.766,22.75 C46.964,22.3698 47.104,21.9141 47.188,21.3828 Z M51.741,20.8672 L51.741,20.6875 C51.741,20.0781 51.829,19.513 52.006,18.9922 C52.183,18.4661 52.439,18.0104 52.772,17.625 C53.105,17.2344 53.509,16.9323 53.983,16.7188 C54.457,16.5 54.988,16.3906 55.577,16.3906 C56.17,16.3906 56.704,16.5 57.178,16.7188 C57.657,16.9323 58.064,17.2344 58.397,17.625 C58.735,18.0104 58.993,18.4661 59.17,18.9922 C59.347,19.513 59.436,20.0781 59.436,20.6875 L59.436,20.8672 C59.436,21.4766 59.347,22.0417 59.17,22.5625 C58.993,23.0833 58.735,23.5391 58.397,23.9297 C58.064,24.3151 57.66,24.6172 57.186,24.8359 C56.717,25.0495 56.186,25.1562 55.592,25.1562 C54.998,25.1562 54.465,25.0495 53.991,24.8359 C53.517,24.6172 53.11,24.3151 52.772,23.9297 C52.439,23.5391 52.183,23.0833 52.006,22.5625 C51.829,22.0417 51.741,21.4766 51.741,20.8672 Z M53.186,20.6875 L53.186,20.8672 C53.186,21.2891 53.235,21.6875 53.334,22.0625 C53.433,22.4323 53.582,22.7604 53.78,23.0469 C53.983,23.3333 54.235,23.5599 54.538,23.7266 C54.84,23.888 55.191,23.9688 55.592,23.9688 C55.988,23.9688 56.334,23.888 56.631,23.7266 C56.933,23.5599 57.183,23.3333 57.381,23.0469 C57.579,22.7604 57.728,22.4323 57.827,22.0625 C57.931,21.6875 57.983,21.2891 57.983,20.8672 L57.983,20.6875 C57.983,20.2708 57.931,19.8776 57.827,19.5078 C57.728,19.1328 57.577,18.8021 57.373,18.5156 C57.176,18.224 56.926,17.9948 56.623,17.8281 C56.327,17.6615 55.978,17.5781 55.577,17.5781 C55.181,17.5781 54.832,17.6615 54.53,17.8281 C54.233,17.9948 53.983,18.224 53.78,18.5156 C53.582,18.8021 53.433,19.1328 53.334,19.5078 C53.235,19.8776 53.186,20.2708 53.186,20.6875 Z M64.294,18.3516 L64.294,25 L62.848,25 L62.848,16.5469 L64.216,16.5469 L64.294,18.3516 Z M63.95,20.4531 L63.348,20.4297 C63.354,19.8516 63.44,19.3177 63.606,18.8281 C63.773,18.3333 64.007,17.9036 64.309,17.5391 C64.611,17.1745 64.971,16.8932 65.388,16.6953 C65.809,16.4922 66.276,16.3906 66.786,16.3906 C67.203,16.3906 67.578,16.4479 67.911,16.5625 C68.244,16.6719 68.528,16.849 68.763,17.0938 C69.002,17.3385 69.184,17.6562 69.309,18.0469 C69.434,18.4323 69.497,18.9036 69.497,19.4609 L69.497,25 L68.044,25 L68.044,19.4453 C68.044,19.0026 67.979,18.6484 67.848,18.3828 C67.718,18.112 67.528,17.9167 67.278,17.7969 C67.028,17.6719 66.721,17.6094 66.356,17.6094 C65.997,17.6094 65.669,17.6849 65.372,17.8359 C65.08,17.987 64.828,18.1953 64.614,18.4609 C64.406,18.7266 64.242,19.0312 64.122,19.375 C64.007,19.7135 63.95,20.0729 63.95,20.4531 Z M74.737,18.3516 L74.737,25 L73.292,25 L73.292,16.5469 L74.659,16.5469 L74.737,18.3516 Z M74.394,20.4531 L73.792,20.4297 C73.797,19.8516 73.883,19.3177 74.05,18.8281 C74.217,18.3333 74.451,17.9036 74.753,17.5391 C75.055,17.1745 75.415,16.8932 75.831,16.6953 C76.253,16.4922 76.719,16.3906 77.23,16.3906 C77.646,16.3906 78.021,16.4479 78.355,16.5625 C78.688,16.6719 78.972,16.849 79.206,17.0938 C79.446,17.3385 79.628,17.6562 79.753,18.0469 C79.878,18.4323 79.941,18.9036 79.941,19.4609 L79.941,25 L78.487,25 L78.487,19.4453 C78.487,19.0026 78.422,18.6484 78.292,18.3828 C78.162,18.112 77.972,17.9167 77.722,17.7969 C77.472,17.6719 77.165,17.6094 76.8,17.6094 C76.441,17.6094 76.112,17.6849 75.816,17.8359 C75.524,17.987 75.271,18.1953 75.058,18.4609 C74.849,18.7266 74.685,19.0312 74.566,19.375 C74.451,19.7135 74.394,20.0729 74.394,20.4531 Z M87.244,25.1562 C86.655,25.1562 86.121,25.0573 85.642,24.8594 C85.168,24.6562 84.759,24.3724 84.416,24.0078 C84.077,23.6432 83.817,23.2109 83.634,22.7109 C83.452,22.2109 83.361,21.6641 83.361,21.0703 L83.361,20.7422 C83.361,20.0547 83.463,19.4427 83.666,18.9062 C83.869,18.3646 84.145,17.9062 84.494,17.5312 C84.843,17.1562 85.239,16.8724 85.681,16.6797 C86.124,16.487 86.582,16.3906 87.056,16.3906 C87.66,16.3906 88.181,16.4948 88.619,16.7031 C89.061,16.9115 89.423,17.2031 89.705,17.5781 C89.986,17.9479 90.194,18.3854 90.33,18.8906 C90.465,19.3906 90.533,19.9375 90.533,20.5312 L90.533,21.1797 L84.22,21.1797 L84.22,20 L89.088,20 L89.088,19.8906 C89.067,19.5156 88.989,19.151 88.853,18.7969 C88.723,18.4427 88.515,18.151 88.228,17.9219 C87.942,17.6927 87.551,17.5781 87.056,17.5781 C86.728,17.5781 86.426,17.6484 86.15,17.7891 C85.874,17.9245 85.637,18.1276 85.439,18.3984 C85.241,18.6693 85.088,19 84.978,19.3906 C84.869,19.7812 84.814,20.2318 84.814,20.7422 L84.814,21.0703 C84.814,21.4714 84.869,21.849 84.978,22.2031 C85.093,22.5521 85.257,22.8594 85.47,23.125 C85.689,23.3906 85.952,23.599 86.259,23.75 C86.572,23.901 86.926,23.9766 87.322,23.9766 C87.832,23.9766 88.265,23.8724 88.619,23.6641 C88.973,23.4557 89.283,23.1771 89.548,22.8281 L90.423,23.5234 C90.241,23.7995 90.009,24.0625 89.728,24.3125 C89.447,24.5625 89.101,24.7656 88.689,24.9219 C88.283,25.0781 87.801,25.1562 87.244,25.1562 Z M97.203,23.9688 C97.547,23.9688 97.865,23.8984 98.156,23.7578 C98.448,23.6172 98.688,23.4245 98.875,23.1797 C99.062,22.9297 99.169,22.6458 99.195,22.3281 L100.57,22.3281 C100.544,22.8281 100.375,23.2943 100.062,23.7266 C99.755,24.1536 99.352,24.5 98.852,24.7656 C98.352,25.026 97.802,25.1562 97.203,25.1562 C96.568,25.1562 96.013,25.0443 95.539,24.8203 C95.07,24.5964 94.68,24.2891 94.367,23.8984 C94.06,23.5078 93.828,23.0599 93.672,22.5547 C93.521,22.0443 93.445,21.5052 93.445,20.9375 L93.445,20.6094 C93.445,20.0417 93.521,19.5052 93.672,19 C93.828,18.4896 94.06,18.0391 94.367,17.6484 C94.68,17.2578 95.07,16.9505 95.539,16.7266 C96.013,16.5026 96.568,16.3906 97.203,16.3906 C97.865,16.3906 98.443,16.526 98.938,16.7969 C99.432,17.0625 99.82,17.4271 100.102,17.8906 C100.388,18.349 100.544,18.8698 100.57,19.4531 L99.195,19.4531 C99.169,19.1042 99.07,18.7891 98.898,18.5078 C98.732,18.2266 98.503,18.0026 98.211,17.8359 C97.924,17.6641 97.589,17.5781 97.203,17.5781 C96.76,17.5781 96.388,17.6667 96.086,17.8438 C95.789,18.0156 95.552,18.25 95.375,18.5469 C95.203,18.8385 95.078,19.1641 95,19.5234 C94.927,19.8776 94.891,20.2396 94.891,20.6094 L94.891,20.9375 C94.891,21.3073 94.927,21.6719 95,22.0312 C95.073,22.3906 95.195,22.7161 95.367,23.0078 C95.544,23.2995 95.781,23.5339 96.078,23.7109 C96.38,23.8828 96.755,23.9688 97.203,23.9688 Z M107.334,16.5469 L107.334,17.6562 L102.764,17.6562 L102.764,16.5469 L107.334,16.5469 Z M104.311,14.4922 L105.756,14.4922 L105.756,22.9062 C105.756,23.1927 105.801,23.4089 105.889,23.5547 C105.978,23.7005 106.092,23.7969 106.233,23.8438 C106.373,23.8906 106.524,23.9141 106.686,23.9141 C106.806,23.9141 106.931,23.9036 107.061,23.8828 C107.196,23.8568 107.298,23.8359 107.366,23.8203 L107.373,25 C107.259,25.0365 107.108,25.0703 106.92,25.1016 C106.738,25.138 106.517,25.1562 106.256,25.1562 C105.902,25.1562 105.577,25.0859 105.28,24.9453 C104.983,24.8047 104.746,24.5703 104.569,24.2422 C104.397,23.9089 104.311,23.4609 104.311,22.8984 L104.311,14.4922 Z" id="Shape" fill="#FFFFFF"></path>
            </g>
        </g>
    </g>
</svg>