<svg width="392" height="37" viewBox="0 0 392 37" fill="none" xmlns="http://www.w3.org/2000/svg">
<path d="M147 19C147 13.4772 151.477 9 157 9H247.227C252.75 9 257.227 13.4772 257.227 19V35H147V19Z" fill="#97A9B4"/>
<path d="M179.141 23.665H180.266C180.207 24.2041 180.053 24.6865 179.803 25.1123C179.553 25.5381 179.199 25.876 178.742 26.126C178.285 26.3721 177.715 26.4951 177.031 26.4951C176.531 26.4951 176.076 26.4014 175.666 26.2139C175.26 26.0264 174.91 25.7607 174.617 25.417C174.324 25.0693 174.098 24.6533 173.938 24.1689C173.781 23.6807 173.703 23.1377 173.703 22.54V21.6904C173.703 21.0928 173.781 20.5518 173.938 20.0674C174.098 19.5791 174.326 19.1611 174.623 18.8135C174.924 18.4658 175.285 18.1982 175.707 18.0107C176.129 17.8232 176.604 17.7295 177.131 17.7295C177.775 17.7295 178.32 17.8506 178.766 18.0928C179.211 18.335 179.557 18.6709 179.803 19.1006C180.053 19.5264 180.207 20.0205 180.266 20.583H179.141C179.086 20.1846 178.984 19.8428 178.836 19.5576C178.688 19.2686 178.477 19.0459 178.203 18.8896C177.93 18.7334 177.572 18.6553 177.131 18.6553C176.752 18.6553 176.418 18.7275 176.129 18.8721C175.844 19.0166 175.604 19.2217 175.408 19.4873C175.217 19.7529 175.072 20.0713 174.975 20.4424C174.877 20.8135 174.828 21.2256 174.828 21.6787V22.54C174.828 22.958 174.871 23.3506 174.957 23.7178C175.047 24.085 175.182 24.4072 175.361 24.6846C175.541 24.9619 175.77 25.1807 176.047 25.3408C176.324 25.4971 176.652 25.5752 177.031 25.5752C177.512 25.5752 177.895 25.499 178.18 25.3467C178.465 25.1943 178.68 24.9756 178.824 24.6904C178.973 24.4053 179.078 24.0635 179.141 23.665ZM182.555 23.2783V23.1436C182.555 22.6865 182.622 22.2627 182.755 21.8721C182.887 21.4775 183.079 21.1357 183.329 20.8467C183.579 20.5537 183.882 20.3271 184.237 20.167C184.593 20.0029 184.991 19.9209 185.432 19.9209C185.878 19.9209 186.278 20.0029 186.634 20.167C186.993 20.3271 187.298 20.5537 187.548 20.8467C187.802 21.1357 187.995 21.4775 188.128 21.8721C188.261 22.2627 188.327 22.6865 188.327 23.1436V23.2783C188.327 23.7354 188.261 24.1592 188.128 24.5498C187.995 24.9404 187.802 25.2822 187.548 25.5752C187.298 25.8643 186.995 26.0908 186.639 26.2549C186.288 26.415 185.889 26.4951 185.444 26.4951C184.999 26.4951 184.598 26.415 184.243 26.2549C183.887 26.0908 183.583 25.8643 183.329 25.5752C183.079 25.2822 182.887 24.9404 182.755 24.5498C182.622 24.1592 182.555 23.7354 182.555 23.2783ZM183.639 23.1436V23.2783C183.639 23.5947 183.677 23.8936 183.751 24.1748C183.825 24.4521 183.936 24.6982 184.085 24.9131C184.237 25.1279 184.427 25.2979 184.653 25.4229C184.88 25.5439 185.143 25.6045 185.444 25.6045C185.741 25.6045 186.001 25.5439 186.223 25.4229C186.45 25.2979 186.637 25.1279 186.786 24.9131C186.934 24.6982 187.046 24.4521 187.12 24.1748C187.198 23.8936 187.237 23.5947 187.237 23.2783V23.1436C187.237 22.8311 187.198 22.5361 187.12 22.2588C187.046 21.9775 186.932 21.7295 186.78 21.5146C186.632 21.2959 186.444 21.124 186.218 20.999C185.995 20.874 185.733 20.8115 185.432 20.8115C185.136 20.8115 184.874 20.874 184.647 20.999C184.425 21.124 184.237 21.2959 184.085 21.5146C183.936 21.7295 183.825 21.9775 183.751 22.2588C183.677 22.5361 183.639 22.8311 183.639 23.1436ZM191.97 21.3916V26.3779H190.886V20.0381H191.912L191.97 21.3916ZM191.712 22.9678L191.261 22.9502C191.265 22.5166 191.33 22.1162 191.455 21.749C191.58 21.3779 191.755 21.0557 191.982 20.7822C192.209 20.5088 192.478 20.2979 192.791 20.1494C193.107 19.9971 193.457 19.9209 193.839 19.9209C194.152 19.9209 194.433 19.9639 194.683 20.0498C194.933 20.1318 195.146 20.2646 195.322 20.4482C195.502 20.6318 195.638 20.8701 195.732 21.1631C195.826 21.4521 195.873 21.8057 195.873 22.2236V26.3779H194.783V22.2119C194.783 21.8799 194.734 21.6143 194.636 21.415C194.539 21.2119 194.396 21.0654 194.209 20.9756C194.021 20.8818 193.791 20.835 193.517 20.835C193.248 20.835 193.002 20.8916 192.779 21.0049C192.56 21.1182 192.371 21.2744 192.211 21.4736C192.054 21.6729 191.931 21.9014 191.841 22.1592C191.755 22.4131 191.712 22.6826 191.712 22.9678ZM201.373 20.0381V20.8701H197.946V20.0381H201.373ZM199.106 18.4971H200.19V24.8076C200.19 25.0225 200.223 25.1846 200.289 25.2939C200.356 25.4033 200.442 25.4756 200.547 25.5107C200.653 25.5459 200.766 25.5635 200.887 25.5635C200.977 25.5635 201.071 25.5557 201.168 25.54C201.27 25.5205 201.346 25.5049 201.397 25.4932L201.403 26.3779C201.317 26.4053 201.204 26.4307 201.063 26.4541C200.926 26.4814 200.76 26.4951 200.565 26.4951C200.299 26.4951 200.055 26.4424 199.832 26.3369C199.61 26.2314 199.432 26.0557 199.299 25.8096C199.17 25.5596 199.106 25.2236 199.106 24.8018V18.4971ZM207.583 25.2939V22.0303C207.583 21.7803 207.532 21.5635 207.431 21.3799C207.333 21.1924 207.185 21.0479 206.986 20.9463C206.786 20.8447 206.54 20.7939 206.247 20.7939C205.974 20.7939 205.734 20.8408 205.527 20.9346C205.323 21.0283 205.163 21.1514 205.046 21.3037C204.933 21.4561 204.876 21.6201 204.876 21.7959H203.792C203.792 21.5693 203.851 21.3447 203.968 21.1221C204.085 20.8994 204.253 20.6982 204.472 20.5186C204.695 20.335 204.96 20.1904 205.269 20.085C205.581 19.9756 205.929 19.9209 206.312 19.9209C206.773 19.9209 207.179 19.999 207.53 20.1553C207.886 20.3115 208.163 20.5479 208.362 20.8643C208.566 21.1768 208.667 21.5693 208.667 22.042V24.9951C208.667 25.2061 208.685 25.4307 208.72 25.6689C208.759 25.9072 208.816 26.1123 208.89 26.2842V26.3779H207.759C207.704 26.2529 207.661 26.0869 207.63 25.8799C207.599 25.6689 207.583 25.4736 207.583 25.2939ZM207.771 22.5342L207.782 23.2959H206.687C206.378 23.2959 206.103 23.3213 205.861 23.3721C205.618 23.4189 205.415 23.4912 205.251 23.5889C205.087 23.6865 204.962 23.8096 204.876 23.958C204.79 24.1025 204.747 24.2725 204.747 24.4678C204.747 24.667 204.792 24.8486 204.882 25.0127C204.972 25.1768 205.107 25.3076 205.286 25.4053C205.47 25.499 205.695 25.5459 205.96 25.5459C206.292 25.5459 206.585 25.4756 206.839 25.335C207.093 25.1943 207.294 25.0225 207.443 24.8193C207.595 24.6162 207.677 24.4189 207.689 24.2275L208.152 24.749C208.124 24.9131 208.05 25.0947 207.929 25.2939C207.808 25.4932 207.646 25.6846 207.443 25.8682C207.243 26.0479 207.005 26.1982 206.728 26.3193C206.454 26.4365 206.146 26.4951 205.802 26.4951C205.372 26.4951 204.995 26.4111 204.671 26.2432C204.351 26.0752 204.101 25.8506 203.921 25.5693C203.745 25.2842 203.657 24.9658 203.657 24.6143C203.657 24.2744 203.724 23.9756 203.857 23.7178C203.989 23.4561 204.181 23.2393 204.431 23.0674C204.681 22.8916 204.982 22.7588 205.333 22.6689C205.685 22.5791 206.077 22.5342 206.511 22.5342H207.771ZM214.109 25.6045C214.367 25.6045 214.605 25.5518 214.824 25.4463C215.043 25.3408 215.223 25.1963 215.363 25.0127C215.504 24.8252 215.584 24.6123 215.604 24.374H216.635C216.615 24.749 216.488 25.0986 216.254 25.4229C216.023 25.7432 215.721 26.0029 215.346 26.2021C214.971 26.3975 214.559 26.4951 214.109 26.4951C213.633 26.4951 213.217 26.4111 212.861 26.2432C212.51 26.0752 212.217 25.8447 211.982 25.5518C211.752 25.2588 211.578 24.9229 211.461 24.5439C211.348 24.1611 211.291 23.7568 211.291 23.3311V23.085C211.291 22.6592 211.348 22.2568 211.461 21.8779C211.578 21.4951 211.752 21.1572 211.982 20.8643C212.217 20.5713 212.51 20.3408 212.861 20.1729C213.217 20.0049 213.633 19.9209 214.109 19.9209C214.605 19.9209 215.039 20.0225 215.41 20.2256C215.781 20.4248 216.072 20.6982 216.283 21.0459C216.498 21.3896 216.615 21.7803 216.635 22.2178H215.604C215.584 21.9561 215.51 21.7197 215.381 21.5088C215.256 21.2979 215.084 21.1299 214.865 21.0049C214.65 20.876 214.398 20.8115 214.109 20.8115C213.777 20.8115 213.498 20.8779 213.271 21.0107C213.049 21.1396 212.871 21.3154 212.738 21.5381C212.609 21.7568 212.516 22.001 212.457 22.2705C212.402 22.5361 212.375 22.8076 212.375 23.085V23.3311C212.375 23.6084 212.402 23.8818 212.457 24.1514C212.512 24.4209 212.604 24.665 212.732 24.8838C212.865 25.1025 213.043 25.2783 213.266 25.4111C213.492 25.54 213.773 25.6045 214.109 25.6045ZM221.708 20.0381V20.8701H218.28V20.0381H221.708ZM219.44 18.4971H220.524V24.8076C220.524 25.0225 220.557 25.1846 220.624 25.2939C220.69 25.4033 220.776 25.4756 220.882 25.5107C220.987 25.5459 221.1 25.5635 221.221 25.5635C221.311 25.5635 221.405 25.5557 221.503 25.54C221.604 25.5205 221.68 25.5049 221.731 25.4932L221.737 26.3779C221.651 26.4053 221.538 26.4307 221.397 26.4541C221.261 26.4814 221.095 26.4951 220.899 26.4951C220.634 26.4951 220.389 26.4424 220.167 26.3369C219.944 26.2314 219.766 26.0557 219.634 25.8096C219.505 25.5596 219.44 25.2236 219.44 24.8018V18.4971ZM227.871 24.6963C227.871 24.54 227.836 24.3955 227.765 24.2627C227.699 24.126 227.56 24.0029 227.349 23.8936C227.142 23.7803 226.83 23.6826 226.412 23.6006C226.06 23.5264 225.742 23.4385 225.457 23.3369C225.175 23.2354 224.935 23.1123 224.736 22.9678C224.541 22.8232 224.39 22.6533 224.285 22.458C224.179 22.2627 224.127 22.0342 224.127 21.7725C224.127 21.5225 224.181 21.2861 224.291 21.0635C224.404 20.8408 224.562 20.6436 224.765 20.4717C224.972 20.2998 225.22 20.165 225.509 20.0674C225.798 19.9697 226.121 19.9209 226.476 19.9209C226.984 19.9209 227.418 20.0107 227.777 20.1904C228.136 20.3701 228.412 20.6104 228.603 20.9111C228.795 21.208 228.89 21.5381 228.89 21.9014H227.806C227.806 21.7256 227.754 21.5557 227.648 21.3916C227.546 21.2236 227.396 21.085 227.197 20.9756C227.002 20.8662 226.761 20.8115 226.476 20.8115C226.175 20.8115 225.931 20.8584 225.744 20.9521C225.56 21.042 225.425 21.1572 225.339 21.2979C225.257 21.4385 225.216 21.5869 225.216 21.7432C225.216 21.8604 225.236 21.9658 225.275 22.0596C225.318 22.1494 225.392 22.2334 225.498 22.3115C225.603 22.3857 225.752 22.4561 225.943 22.5225C226.134 22.5889 226.379 22.6553 226.675 22.7217C227.195 22.8389 227.623 22.9795 227.959 23.1436C228.295 23.3076 228.545 23.5088 228.709 23.7471C228.873 23.9854 228.955 24.2744 228.955 24.6143C228.955 24.8916 228.896 25.1455 228.779 25.376C228.666 25.6064 228.5 25.8057 228.281 25.9736C228.066 26.1377 227.808 26.2666 227.507 26.3604C227.211 26.4502 226.877 26.4951 226.505 26.4951C225.947 26.4951 225.474 26.3955 225.088 26.1963C224.701 25.9971 224.408 25.7393 224.209 25.4229C224.009 25.1064 223.91 24.7725 223.91 24.4209H225C225.015 24.7178 225.101 24.9541 225.257 25.1299C225.414 25.3018 225.605 25.4248 225.832 25.499C226.058 25.5693 226.283 25.6045 226.505 25.6045C226.802 25.6045 227.05 25.5654 227.25 25.4873C227.453 25.4092 227.607 25.3018 227.713 25.165C227.818 25.0283 227.871 24.8721 227.871 24.6963Z" fill="white"/>
<path d="M391.5 35.4967H144.102C138.579 35.4967 134.102 31.0196 134.102 25.4967V11C134.102 5.47715 129.624 1 124.102 1H26.3453C20.8225 1 16.3453 5.47715 16.3453 11V25.4967C16.3453 31.0196 11.8682 35.4967 6.34534 35.4967H0" stroke="#4E6E81" stroke-width="2"/>
<path d="M31.3008 14.2031H35.8271C36.7998 14.2031 37.6289 14.3496 38.3145 14.6426C39 14.9355 39.5244 15.3691 39.8877 15.9434C40.2568 16.5117 40.4414 17.2148 40.4414 18.0527C40.4414 18.6914 40.3242 19.2539 40.0898 19.7402C39.8555 20.2266 39.5244 20.6367 39.0967 20.9707C38.6689 21.2988 38.1592 21.5537 37.5674 21.7354L36.8994 22.0605H32.8301L32.8125 20.3115H35.8623C36.3896 20.3115 36.8291 20.2178 37.1807 20.0303C37.5322 19.8428 37.7959 19.5879 37.9717 19.2656C38.1533 18.9375 38.2441 18.5684 38.2441 18.1582C38.2441 17.7129 38.1562 17.3262 37.9805 16.998C37.8105 16.6641 37.5469 16.4092 37.1895 16.2334C36.832 16.0518 36.3779 15.9609 35.8271 15.9609H33.5068V27H31.3008V14.2031ZM38.6045 27L35.5986 21.252L37.9102 21.2432L40.96 26.8857V27H38.6045ZM48.4201 27.1758C47.717 27.1758 47.0813 27.0615 46.5129 26.833C45.9504 26.5986 45.4699 26.2734 45.0715 25.8574C44.6789 25.4414 44.3771 24.9521 44.1662 24.3896C43.9553 23.8271 43.8498 23.2207 43.8498 22.5703V22.2188C43.8498 21.4746 43.9582 20.8008 44.175 20.1973C44.3918 19.5938 44.6936 19.0781 45.0803 18.6504C45.467 18.2168 45.924 17.8857 46.4514 17.6572C46.9787 17.4287 47.55 17.3145 48.1652 17.3145C48.8449 17.3145 49.4396 17.4287 49.9494 17.6572C50.4592 17.8857 50.8811 18.208 51.215 18.624C51.5549 19.0342 51.8068 19.5234 51.9709 20.0918C52.1408 20.6602 52.2258 21.2871 52.2258 21.9727V22.8779H44.8781V21.3574H50.134V21.1904C50.1223 20.8096 50.0461 20.4521 49.9055 20.1182C49.7707 19.7842 49.5627 19.5146 49.2814 19.3096C49.0002 19.1045 48.6252 19.002 48.1564 19.002C47.8049 19.002 47.4914 19.0781 47.216 19.2305C46.9465 19.377 46.7209 19.5908 46.5393 19.8721C46.3576 20.1533 46.217 20.4932 46.1174 20.8916C46.0236 21.2842 45.9768 21.7266 45.9768 22.2188V22.5703C45.9768 22.9863 46.0324 23.373 46.1438 23.7305C46.2609 24.082 46.4309 24.3896 46.6535 24.6533C46.8762 24.917 47.1457 25.125 47.4621 25.2773C47.7785 25.4238 48.1389 25.4971 48.5432 25.4971C49.0529 25.4971 49.507 25.3945 49.9055 25.1895C50.3039 24.9844 50.6496 24.6943 50.9426 24.3193L52.0588 25.4004C51.8537 25.6992 51.5871 25.9863 51.259 26.2617C50.9309 26.5312 50.5295 26.751 50.0549 26.9209C49.5861 27.0908 49.0412 27.1758 48.4201 27.1758ZM61.4701 30.6562V19.3799L61.7162 17.4902H63.6059V30.6562H61.4701ZM55.2914 22.3418V22.1572C55.2914 21.4365 55.3734 20.7803 55.5375 20.1885C55.7016 19.5908 55.9447 19.0781 56.267 18.6504C56.5893 18.2227 56.9818 17.8945 57.4447 17.666C57.9076 17.4316 58.4408 17.3145 59.0443 17.3145C59.6303 17.3145 60.14 17.4258 60.5736 17.6484C61.0131 17.8711 61.3822 18.1904 61.6811 18.6064C61.9857 19.0166 62.2289 19.5059 62.4105 20.0742C62.5922 20.6426 62.724 21.2754 62.8061 21.9727V22.5615C62.7299 23.2412 62.601 23.8623 62.4193 24.4248C62.2377 24.9873 61.9945 25.4736 61.6898 25.8838C61.3852 26.2939 61.0131 26.6133 60.5736 26.8418C60.1342 27.0645 59.6186 27.1758 59.0268 27.1758C58.435 27.1758 57.9076 27.0557 57.4447 26.8154C56.9818 26.5752 56.5893 26.2383 56.267 25.8047C55.9506 25.3652 55.7074 24.8525 55.5375 24.2666C55.3734 23.6748 55.2914 23.0332 55.2914 22.3418ZM57.4096 22.1572V22.3418C57.4096 22.7754 57.4477 23.1826 57.5238 23.5635C57.6059 23.9385 57.7348 24.2725 57.9105 24.5654C58.0863 24.8525 58.309 25.0781 58.5785 25.2422C58.848 25.4062 59.1732 25.4883 59.5541 25.4883C60.0521 25.4883 60.4594 25.3799 60.7758 25.1631C61.098 24.9463 61.3441 24.6562 61.5141 24.293C61.6898 23.9238 61.8129 23.5166 61.8832 23.0713V21.4805C61.8422 21.1348 61.7689 20.8125 61.6635 20.5137C61.558 20.209 61.4115 19.9453 61.224 19.7227C61.0424 19.4941 60.8139 19.3184 60.5385 19.1953C60.2689 19.0664 59.9467 19.002 59.5717 19.002C59.1908 19.002 58.8627 19.084 58.5873 19.248C58.3119 19.4121 58.0863 19.6406 57.9105 19.9336C57.7406 20.2207 57.6146 20.5547 57.5326 20.9355C57.4506 21.3164 57.4096 21.7236 57.4096 22.1572ZM73.3951 24.7588V17.4902H75.5221V27H73.5182L73.3951 24.7588ZM73.6939 22.7812L74.4059 22.7637C74.4059 23.4023 74.3355 23.9912 74.1949 24.5303C74.0543 25.0635 73.8375 25.5293 73.5445 25.9277C73.2516 26.3203 72.8766 26.6279 72.4195 26.8506C71.9625 27.0674 71.4146 27.1758 70.776 27.1758C70.3131 27.1758 69.8883 27.1084 69.5016 26.9736C69.1148 26.8389 68.7809 26.6309 68.4996 26.3496C68.2242 26.0684 68.0104 25.7021 67.858 25.251C67.7057 24.7998 67.6295 24.2607 67.6295 23.6338V17.4902H69.7477V23.6514C69.7477 23.9971 69.7887 24.2871 69.8707 24.5215C69.9527 24.75 70.0641 24.9346 70.2047 25.0752C70.3453 25.2158 70.5094 25.3154 70.6969 25.374C70.8844 25.4326 71.0836 25.4619 71.2945 25.4619C71.898 25.4619 72.3727 25.3447 72.7184 25.1104C73.0699 24.8701 73.3189 24.5479 73.4654 24.1436C73.6178 23.7393 73.6939 23.2852 73.6939 22.7812ZM83.6854 27.1758C82.9822 27.1758 82.3465 27.0615 81.7781 26.833C81.2156 26.5986 80.7352 26.2734 80.3367 25.8574C79.9441 25.4414 79.6424 24.9521 79.4314 24.3896C79.2205 23.8271 79.115 23.2207 79.115 22.5703V22.2188C79.115 21.4746 79.2234 20.8008 79.4402 20.1973C79.657 19.5938 79.9588 19.0781 80.3455 18.6504C80.7322 18.2168 81.1893 17.8857 81.7166 17.6572C82.2439 17.4287 82.8152 17.3145 83.4305 17.3145C84.1102 17.3145 84.7049 17.4287 85.2146 17.6572C85.7244 17.8857 86.1463 18.208 86.4803 18.624C86.8201 19.0342 87.0721 19.5234 87.2361 20.0918C87.4061 20.6602 87.491 21.2871 87.491 21.9727V22.8779H80.1434V21.3574H85.3992V21.1904C85.3875 20.8096 85.3113 20.4521 85.1707 20.1182C85.0359 19.7842 84.8279 19.5146 84.5467 19.3096C84.2654 19.1045 83.8904 19.002 83.4217 19.002C83.0701 19.002 82.7566 19.0781 82.4813 19.2305C82.2117 19.377 81.9861 19.5908 81.8045 19.8721C81.6229 20.1533 81.4822 20.4932 81.3826 20.8916C81.2889 21.2842 81.242 21.7266 81.242 22.2188V22.5703C81.242 22.9863 81.2977 23.373 81.409 23.7305C81.5262 24.082 81.6961 24.3896 81.9188 24.6533C82.1414 24.917 82.4109 25.125 82.7273 25.2773C83.0438 25.4238 83.4041 25.4971 83.8084 25.4971C84.3182 25.4971 84.7723 25.3945 85.1707 25.1895C85.5691 24.9844 85.9148 24.6943 86.2078 24.3193L87.324 25.4004C87.1189 25.6992 86.8523 25.9863 86.5242 26.2617C86.1961 26.5312 85.7947 26.751 85.3201 26.9209C84.8514 27.0908 84.3064 27.1758 83.6854 27.1758ZM96.2783 24.4248C96.2783 24.2139 96.2256 24.0234 96.1201 23.8535C96.0146 23.6777 95.8125 23.5195 95.5137 23.3789C95.2207 23.2383 94.7871 23.1094 94.2129 22.9922C93.709 22.8809 93.2461 22.749 92.8242 22.5967C92.4082 22.4385 92.0508 22.248 91.752 22.0254C91.4531 21.8027 91.2217 21.5391 91.0576 21.2344C90.8936 20.9297 90.8115 20.5781 90.8115 20.1797C90.8115 19.793 90.8965 19.4268 91.0664 19.0811C91.2363 18.7354 91.4795 18.4307 91.7959 18.167C92.1123 17.9033 92.4961 17.6953 92.9473 17.543C93.4043 17.3906 93.9141 17.3145 94.4766 17.3145C95.2734 17.3145 95.9561 17.4492 96.5244 17.7188C97.0986 17.9824 97.5381 18.3428 97.8428 18.7998C98.1475 19.251 98.2998 19.7607 98.2998 20.3291H96.1816C96.1816 20.0771 96.1172 19.8428 95.9883 19.626C95.8652 19.4033 95.6777 19.2246 95.4258 19.0898C95.1738 18.9492 94.8574 18.8789 94.4766 18.8789C94.1133 18.8789 93.8115 18.9375 93.5713 19.0547C93.3369 19.166 93.1611 19.3125 93.0439 19.4941C92.9326 19.6758 92.877 19.875 92.877 20.0918C92.877 20.25 92.9062 20.3936 92.9648 20.5225C93.0293 20.6455 93.1348 20.7598 93.2812 20.8652C93.4277 20.9648 93.627 21.0586 93.8789 21.1465C94.1367 21.2344 94.459 21.3193 94.8457 21.4014C95.5723 21.5537 96.1963 21.75 96.7178 21.9902C97.2451 22.2246 97.6494 22.5293 97.9307 22.9043C98.2119 23.2734 98.3525 23.7422 98.3525 24.3105C98.3525 24.7324 98.2617 25.1191 98.0801 25.4707C97.9043 25.8164 97.6465 26.1182 97.3066 26.376C96.9668 26.6279 96.5596 26.8242 96.085 26.9648C95.6162 27.1055 95.0889 27.1758 94.5029 27.1758C93.6416 27.1758 92.9121 27.0234 92.3145 26.7188C91.7168 26.4082 91.2627 26.0127 90.9521 25.5322C90.6475 25.0459 90.4951 24.542 90.4951 24.0205H92.543C92.5664 24.4131 92.6748 24.7266 92.8682 24.9609C93.0674 25.1895 93.3135 25.3564 93.6064 25.4619C93.9053 25.5615 94.2129 25.6113 94.5293 25.6113C94.9102 25.6113 95.2295 25.5615 95.4873 25.4619C95.7451 25.3564 95.9414 25.2158 96.0762 25.04C96.2109 24.8584 96.2783 24.6533 96.2783 24.4248ZM106.366 17.4902V19.0371H101.005V17.4902H106.366ZM102.552 15.1611H104.67V24.3721C104.67 24.665 104.711 24.8906 104.793 25.0488C104.881 25.2012 105.001 25.3037 105.154 25.3564C105.306 25.4092 105.485 25.4355 105.69 25.4355C105.836 25.4355 105.977 25.4268 106.112 25.4092C106.246 25.3916 106.355 25.374 106.437 25.3564L106.446 26.9736C106.27 27.0264 106.065 27.0732 105.83 27.1143C105.602 27.1553 105.338 27.1758 105.039 27.1758C104.553 27.1758 104.122 27.0908 103.747 26.9209C103.372 26.7451 103.079 26.4609 102.868 26.0684C102.657 25.6758 102.552 25.1543 102.552 24.5039V15.1611ZM115.136 24.4248C115.136 24.2139 115.083 24.0234 114.978 23.8535C114.872 23.6777 114.67 23.5195 114.371 23.3789C114.079 23.2383 113.645 23.1094 113.071 22.9922C112.567 22.8809 112.104 22.749 111.682 22.5967C111.266 22.4385 110.909 22.248 110.61 22.0254C110.311 21.8027 110.079 21.5391 109.915 21.2344C109.751 20.9297 109.669 20.5781 109.669 20.1797C109.669 19.793 109.754 19.4268 109.924 19.0811C110.094 18.7354 110.337 18.4307 110.654 18.167C110.97 17.9033 111.354 17.6953 111.805 17.543C112.262 17.3906 112.772 17.3145 113.334 17.3145C114.131 17.3145 114.814 17.4492 115.382 17.7188C115.956 17.9824 116.396 18.3428 116.701 18.7998C117.005 19.251 117.158 19.7607 117.158 20.3291H115.039C115.039 20.0771 114.975 19.8428 114.846 19.626C114.723 19.4033 114.536 19.2246 114.284 19.0898C114.032 18.9492 113.715 18.8789 113.334 18.8789C112.971 18.8789 112.669 18.9375 112.429 19.0547C112.195 19.166 112.019 19.3125 111.902 19.4941C111.79 19.6758 111.735 19.875 111.735 20.0918C111.735 20.25 111.764 20.3936 111.823 20.5225C111.887 20.6455 111.993 20.7598 112.139 20.8652C112.286 20.9648 112.485 21.0586 112.737 21.1465C112.995 21.2344 113.317 21.3193 113.704 21.4014C114.43 21.5537 115.054 21.75 115.576 21.9902C116.103 22.2246 116.507 22.5293 116.788 22.9043C117.07 23.2734 117.21 23.7422 117.21 24.3105C117.21 24.7324 117.12 25.1191 116.938 25.4707C116.762 25.8164 116.504 26.1182 116.164 26.376C115.825 26.6279 115.417 26.8242 114.943 26.9648C114.474 27.1055 113.947 27.1758 113.361 27.1758C112.499 27.1758 111.77 27.0234 111.172 26.7188C110.575 26.4082 110.121 26.0127 109.81 25.5322C109.505 25.0459 109.353 24.542 109.353 24.0205H111.401C111.424 24.4131 111.533 24.7266 111.726 24.9609C111.925 25.1895 112.171 25.3564 112.464 25.4619C112.763 25.5615 113.071 25.6113 113.387 25.6113C113.768 25.6113 114.087 25.5615 114.345 25.4619C114.603 25.3564 114.799 25.2158 114.934 25.04C115.069 24.8584 115.136 24.6533 115.136 24.4248Z" fill="#4E6E81"/>
<path d="M267 19C267 13.4772 271.477 9 277 9H367.227C372.75 9 377.227 13.4772 377.227 19V35H267V19Z" fill="#97A9B4"/>
<path d="M311.641 24.665H312.766C312.707 25.2041 312.553 25.6865 312.303 26.1123C312.053 26.5381 311.699 26.876 311.242 27.126C310.785 27.3721 310.215 27.4951 309.531 27.4951C309.031 27.4951 308.576 27.4014 308.166 27.2139C307.76 27.0264 307.41 26.7607 307.117 26.417C306.824 26.0693 306.598 25.6533 306.438 25.1689C306.281 24.6807 306.203 24.1377 306.203 23.54V22.6904C306.203 22.0928 306.281 21.5518 306.438 21.0674C306.598 20.5791 306.826 20.1611 307.123 19.8135C307.424 19.4658 307.785 19.1982 308.207 19.0107C308.629 18.8232 309.104 18.7295 309.631 18.7295C310.275 18.7295 310.82 18.8506 311.266 19.0928C311.711 19.335 312.057 19.6709 312.303 20.1006C312.553 20.5264 312.707 21.0205 312.766 21.583H311.641C311.586 21.1846 311.484 20.8428 311.336 20.5576C311.188 20.2686 310.977 20.0459 310.703 19.8896C310.43 19.7334 310.072 19.6553 309.631 19.6553C309.252 19.6553 308.918 19.7275 308.629 19.8721C308.344 20.0166 308.104 20.2217 307.908 20.4873C307.717 20.7529 307.572 21.0713 307.475 21.4424C307.377 21.8135 307.328 22.2256 307.328 22.6787V23.54C307.328 23.958 307.371 24.3506 307.457 24.7178C307.547 25.085 307.682 25.4072 307.861 25.6846C308.041 25.9619 308.27 26.1807 308.547 26.3408C308.824 26.4971 309.152 26.5752 309.531 26.5752C310.012 26.5752 310.395 26.499 310.68 26.3467C310.965 26.1943 311.18 25.9756 311.324 25.6904C311.473 25.4053 311.578 25.0635 311.641 24.665ZM316.427 18.3779V27.3779H315.343V18.3779H316.427ZM316.169 23.9678L315.718 23.9502C315.721 23.5166 315.786 23.1162 315.911 22.749C316.036 22.3779 316.212 22.0557 316.438 21.7822C316.665 21.5088 316.934 21.2979 317.247 21.1494C317.563 20.9971 317.913 20.9209 318.296 20.9209C318.608 20.9209 318.889 20.9639 319.139 21.0498C319.389 21.1318 319.602 21.2646 319.778 21.4482C319.958 21.6318 320.095 21.8701 320.188 22.1631C320.282 22.4521 320.329 22.8057 320.329 23.2236V27.3779H319.239V23.2119C319.239 22.8799 319.19 22.6143 319.093 22.415C318.995 22.2119 318.852 22.0654 318.665 21.9756C318.477 21.8818 318.247 21.835 317.973 21.835C317.704 21.835 317.458 21.8916 317.235 22.0049C317.016 22.1182 316.827 22.2744 316.667 22.4736C316.511 22.6729 316.387 22.9014 316.298 23.1592C316.212 23.4131 316.169 23.6826 316.169 23.9678ZM326.89 26.2939V23.0303C326.89 22.7803 326.839 22.5635 326.738 22.3799C326.64 22.1924 326.492 22.0479 326.293 21.9463C326.093 21.8447 325.847 21.7939 325.554 21.7939C325.281 21.7939 325.041 21.8408 324.834 21.9346C324.63 22.0283 324.47 22.1514 324.353 22.3037C324.24 22.4561 324.183 22.6201 324.183 22.7959H323.099C323.099 22.5693 323.158 22.3447 323.275 22.1221C323.392 21.8994 323.56 21.6982 323.779 21.5186C324.002 21.335 324.267 21.1904 324.576 21.085C324.888 20.9756 325.236 20.9209 325.619 20.9209C326.08 20.9209 326.486 20.999 326.837 21.1553C327.193 21.3115 327.47 21.5479 327.67 21.8643C327.873 22.1768 327.974 22.5693 327.974 23.042V25.9951C327.974 26.2061 327.992 26.4307 328.027 26.6689C328.066 26.9072 328.123 27.1123 328.197 27.2842V27.3779H327.066C327.011 27.2529 326.968 27.0869 326.937 26.8799C326.906 26.6689 326.89 26.4736 326.89 26.2939ZM327.078 23.5342L327.089 24.2959H325.994C325.685 24.2959 325.41 24.3213 325.168 24.3721C324.925 24.4189 324.722 24.4912 324.558 24.5889C324.394 24.6865 324.269 24.8096 324.183 24.958C324.097 25.1025 324.054 25.2725 324.054 25.4678C324.054 25.667 324.099 25.8486 324.189 26.0127C324.279 26.1768 324.414 26.3076 324.593 26.4053C324.777 26.499 325.002 26.5459 325.267 26.5459C325.599 26.5459 325.892 26.4756 326.146 26.335C326.4 26.1943 326.601 26.0225 326.75 25.8193C326.902 25.6162 326.984 25.4189 326.996 25.2275L327.459 25.749C327.431 25.9131 327.357 26.0947 327.236 26.2939C327.115 26.4932 326.953 26.6846 326.75 26.8682C326.55 27.0479 326.312 27.1982 326.035 27.3193C325.761 27.4365 325.453 27.4951 325.109 27.4951C324.679 27.4951 324.302 27.4111 323.978 27.2432C323.658 27.0752 323.408 26.8506 323.228 26.5693C323.052 26.2842 322.964 25.9658 322.964 25.6143C322.964 25.2744 323.031 24.9756 323.164 24.7178C323.296 24.4561 323.488 24.2393 323.738 24.0674C323.988 23.8916 324.289 23.7588 324.64 23.6689C324.992 23.5791 325.384 23.5342 325.818 23.5342H327.078ZM333.534 21.0381V21.8701H330.106V21.0381H333.534ZM331.266 19.4971H332.35V25.8076C332.35 26.0225 332.383 26.1846 332.45 26.2939C332.516 26.4033 332.602 26.4756 332.707 26.5107C332.813 26.5459 332.926 26.5635 333.047 26.5635C333.137 26.5635 333.231 26.5557 333.329 26.54C333.43 26.5205 333.506 26.5049 333.557 26.4932L333.563 27.3779C333.477 27.4053 333.364 27.4307 333.223 27.4541C333.086 27.4814 332.92 27.4951 332.725 27.4951C332.459 27.4951 332.215 27.4424 331.993 27.3369C331.77 27.2314 331.592 27.0557 331.459 26.8096C331.33 26.5596 331.266 26.2236 331.266 25.8018V19.4971ZM339.696 25.6963C339.696 25.54 339.661 25.3955 339.591 25.2627C339.525 25.126 339.386 25.0029 339.175 24.8936C338.968 24.7803 338.655 24.6826 338.237 24.6006C337.886 24.5264 337.568 24.4385 337.282 24.3369C337.001 24.2354 336.761 24.1123 336.562 23.9678C336.366 23.8232 336.216 23.6533 336.111 23.458C336.005 23.2627 335.952 23.0342 335.952 22.7725C335.952 22.5225 336.007 22.2861 336.116 22.0635C336.23 21.8408 336.388 21.6436 336.591 21.4717C336.798 21.2998 337.046 21.165 337.335 21.0674C337.624 20.9697 337.946 20.9209 338.302 20.9209C338.81 20.9209 339.243 21.0107 339.603 21.1904C339.962 21.3701 340.237 21.6104 340.429 21.9111C340.62 22.208 340.716 22.5381 340.716 22.9014H339.632C339.632 22.7256 339.579 22.5557 339.474 22.3916C339.372 22.2236 339.222 22.085 339.023 21.9756C338.827 21.8662 338.587 21.8115 338.302 21.8115C338.001 21.8115 337.757 21.8584 337.57 21.9521C337.386 22.042 337.251 22.1572 337.165 22.2979C337.083 22.4385 337.042 22.5869 337.042 22.7432C337.042 22.8604 337.062 22.9658 337.101 23.0596C337.144 23.1494 337.218 23.2334 337.323 23.3115C337.429 23.3857 337.577 23.4561 337.769 23.5225C337.96 23.5889 338.204 23.6553 338.501 23.7217C339.021 23.8389 339.448 23.9795 339.784 24.1436C340.12 24.3076 340.37 24.5088 340.534 24.7471C340.698 24.9854 340.78 25.2744 340.78 25.6143C340.78 25.8916 340.722 26.1455 340.605 26.376C340.491 26.6064 340.325 26.8057 340.107 26.9736C339.892 27.1377 339.634 27.2666 339.333 27.3604C339.036 27.4502 338.702 27.4951 338.331 27.4951C337.773 27.4951 337.3 27.3955 336.913 27.1963C336.527 26.9971 336.234 26.7393 336.034 26.4229C335.835 26.1064 335.736 25.7725 335.736 25.4209H336.825C336.841 25.7178 336.927 25.9541 337.083 26.1299C337.239 26.3018 337.431 26.4248 337.657 26.499C337.884 26.5693 338.109 26.6045 338.331 26.6045C338.628 26.6045 338.876 26.5654 339.075 26.4873C339.279 26.4092 339.433 26.3018 339.538 26.165C339.644 26.0283 339.696 25.8721 339.696 25.6963Z" fill="white"/>
</svg>
