<?xml version="1.0" encoding="UTF-8"?>
<svg width="401px" height="43px" viewBox="0 0 401 43" version="1.1" xmlns="http://www.w3.org/2000/svg" xmlns:xlink="http://www.w3.org/1999/xlink">
    <title>Group</title>
    <g id="Page-1" stroke="none" stroke-width="1" fill="none" fill-rule="evenodd">
        <g id="Group" transform="translate(0.000000, 1.000000)">
            <g id="Request-Button-(1)">
                <path d="M0,41 L36.0692,41 C42.6966,41 48.0692,34.8812056 48.0692,27.3333333 L48.0692,13.6666667 C48.0692,6.11879444 53.4417,0 60.0692,0 L183.915,0 C190.543,0 195.915,6.11879444 195.915,13.6666667 L195.915,27.3333333 C195.915,34.8812056 201.288,41 207.915,41 L401,41" id="Path" stroke="#4E6E81" stroke-width="2"></path>
                <path d="M89,12.6904762 L92.9953497,12.6904762 C93.9016669,12.6904762 94.6670815,12.8382164 95.2914875,13.1336967 C95.9215169,13.429177 96.3995031,13.8666105 96.7255524,14.4457701 C97.0571189,15.0190292 97.2228491,15.7252772 97.2228491,16.564514 C97.2228491,17.1554746 97.1095329,17.6962808 96.8830067,18.186819 C96.6619977,18.6713433 96.3414657,19.0850611 95.9215169,19.4278592 C95.5069792,19.7647567 95.0096825,20.0158696 94.4294146,20.1814248 L93.9817733,20.3675184 L90.2268491,20.3675184 L90.2101912,18.9757879 L93.0451112,18.9757879 C93.6198619,18.9757879 94.0978481,18.8693514 94.4791761,18.6565919 C94.8605041,18.4379319 95.1478264,18.1454019 95.341249,17.7790017 C95.5346716,17.4126015 95.6313299,17.0077345 95.6313299,16.564514 C95.6313299,16.0680752 95.5401889,15.6337055 95.3578008,15.2612913 C95.1754127,14.8889906 94.8880904,14.6023611 94.4957279,14.4014027 C94.1088826,14.1945438 93.6088273,14.091171 92.9953497,14.091171 L90.5997951,14.091171 L90.5997951,25.5978836 L89,25.5978836 L89,12.6904762 Z M96.0541435,25.5978836 L93.1197004,19.7470551 L94.7858088,19.7380908 L97.7616314,25.4914471 L97.7616314,25.5978836 L96.0541435,25.5978836 Z M104.648347,25.7751264 C104.023835,25.7751264 103.457466,25.6629029 102.949029,25.4383424 C102.446109,25.2077678 102.012367,24.8857351 101.647591,24.4720173 C101.288438,24.0582994 101.01215,23.5677612 100.818727,23.0004026 C100.625305,22.433044 100.52854,21.8125807 100.52854,21.1387857 L100.52854,20.766485 C100.52854,19.986367 100.636339,19.2919201 100.851831,18.6831443 C101.067429,18.0685815 101.360268,17.5484272 101.730562,17.1229083 C102.100749,16.6973893 102.520698,16.3753566 102.990515,16.1566966 C103.460225,15.9380366 103.946487,15.8286499 104.449407,15.8286499 C105.090365,15.8286499 105.643047,15.9468874 106.10724,16.183249 C106.57695,16.4197241 106.96093,16.7506076 107.259393,17.1761265 C107.55775,17.5957449 107.778865,18.0921836 107.922526,18.6654427 C108.066187,19.2328013 108.138018,19.8533781 108.138018,20.5270597 L108.138018,21.2629237 L101.440375,21.2629237 L101.440375,19.9242979 L106.604536,19.9242979 L106.604536,19.8001599 C106.582467,19.3746409 106.499496,18.9609231 106.355835,18.5591197 C106.217691,18.1572029 105.996682,17.8262059 105.692702,17.5662422 C105.388828,17.3061651 104.97429,17.1761265 104.449407,17.1761265 C104.101183,17.1761265 103.780651,17.2558971 103.487811,17.4155518 C103.194972,17.5691925 102.943512,17.7996536 102.733537,18.106935 C102.523457,18.4143298 102.360485,18.7895808 102.24441,19.2328013 C102.128442,19.6760218 102.070404,20.1873254 102.070404,20.766485 L102.070404,21.1387857 C102.070404,21.5939207 102.128442,22.0223899 102.24441,22.4241932 C102.366002,22.8202095 102.540115,23.1689081 102.766641,23.470289 C102.99879,23.7716698 103.277837,24.0081449 103.603886,24.1794872 C103.935453,24.3508295 104.311157,24.4366141 104.731212,24.4366141 C105.272753,24.4366141 105.731429,24.3183766 106.10724,24.082015 C106.482944,23.8455399 106.811752,23.5294077 107.093557,23.1333915 L108.021943,23.9223603 C107.828521,24.2356557 107.582684,24.5340863 107.284221,24.8177656 C106.985864,25.1014449 106.618329,25.3319059 106.181829,25.5092622 C105.750739,25.686505 105.239543,25.7751264 104.648347,25.7751264 Z M117.271004,29.2857143 L117.271004,17.8499215 L117.404055,16.0060062 L118.81308,16.0060062 L118.81308,29.2857143 L117.271004,29.2857143 Z M111.24477,20.9083246 L111.24477,20.7221175 C111.24477,19.9893172 111.324982,19.3244864 111.485195,18.7275118 C111.645408,18.12475 111.880316,17.607546 112.189814,17.1761265 C112.499205,16.744707 112.872257,16.4137101 113.308864,16.183249 C113.750882,15.9468874 114.253802,15.8286499 114.817412,15.8286499 C115.381128,15.8286499 115.875666,15.9350864 116.301238,16.1478458 C116.732222,16.3547048 117.096998,16.6590359 117.395567,17.0609527 C117.699016,17.4568555 117.939866,17.9355927 118.117055,18.4970507 C118.293184,19.0585088 118.4152,19.6938369 118.480983,20.4030351 L118.480983,21.2185563 C118.420505,21.921854 118.301672,22.5542318 118.124483,23.1156899 C117.948354,23.6771479 117.707505,24.1558851 117.404055,24.5517879 C117.105274,24.9478042 116.737739,25.2521353 116.301238,25.4648947 C115.870149,25.6717537 115.370093,25.7751264 114.80086,25.7751264 C114.248285,25.7751264 113.750882,25.6540521 113.308864,25.4116765 C112.872257,25.1694144 112.499205,24.8295666 112.189814,24.3922466 C111.885834,23.9549267 111.651031,23.4407863 111.485195,22.8497122 C111.324982,22.252851 111.24477,21.6057218 111.24477,20.9083246 Z M112.786633,20.7221175 L112.786633,20.9083246 C112.786633,21.3870618 112.83353,21.8391331 112.927536,22.264652 C113.021435,22.6842704 113.165097,23.0565711 113.358519,23.3816676 C113.557459,23.7066505 113.806161,23.9637775 114.104623,24.1529348 C114.408497,24.3360781 114.767756,24.4277633 115.182188,24.4277633 C115.690519,24.4277633 116.113333,24.3095258 116.450417,24.0730507 C116.793018,23.8366891 117.066547,23.5264575 117.271004,23.1422422 C117.475143,22.75224 117.633234,22.3355718 117.743579,21.8923513 L117.743579,19.7559059 C117.683101,19.4308094 117.586549,19.1146772 117.453922,18.8072824 C117.326601,18.500001 117.160552,18.2251725 116.956095,17.9829104 C116.751532,17.7346343 116.502937,17.5395764 116.209991,17.3977368 C115.922669,17.2499966 115.585585,17.1761265 115.19874,17.1761265 C114.778791,17.1761265 114.416773,17.2707619 114.112899,17.4598058 C113.808919,17.6489631 113.557459,17.9090403 113.358519,18.2399238 C113.165097,18.5650203 113.021435,18.9402712 112.927536,19.3657902 C112.83353,19.7913091 112.786633,20.2433804 112.786633,20.7221175 Z M128.459808,23.3816676 L128.459808,16.0060062 L130.00146,16.0060062 L130.00146,25.5978836 L128.534079,25.5978836 L128.459808,23.3816676 Z M128.749465,21.3603959 L129.388194,21.3426943 C129.388194,21.9809727 129.324533,22.5719334 129.197212,23.1156899 C129.076257,23.6535458 128.876786,24.1203684 128.600923,24.5163847 C128.323998,24.9122875 127.962193,25.2226326 127.514446,25.4471932 C127.066698,25.6658532 126.522399,25.7751264 125.881547,25.7751264 C125.445471,25.7751264 125.044408,25.7072703 124.67942,25.5713312 C124.320797,25.4353921 124.010981,25.2255829 123.751033,24.9419036 C123.492146,24.6582243 123.290554,24.2888739 123.146256,23.8337389 C123.008324,23.3787173 122.939359,22.8320106 122.939359,22.1937322 L122.939359,16.0060062 L124.472522,16.0060062 L124.472522,22.2114338 C124.472522,22.6428532 124.517085,23.0004026 124.605149,23.2840819 C124.699579,23.5618606 124.823717,23.7834709 124.978625,23.9490261 C125.138838,24.1085674 125.314966,24.2209044 125.509132,24.2859236 C125.707541,24.3508295 125.912316,24.3833958 126.122397,24.3833958 C126.773859,24.3833958 127.290572,24.250407 127.672537,23.9844293 C128.05344,23.7125511 128.327181,23.3491012 128.492699,22.8940796 C128.664584,22.433044 128.749465,21.921854 128.749465,21.3603959 Z M137.758524,25.7751264 C137.133588,25.7751264 136.568068,25.6629029 136.058782,25.4383424 C135.555862,25.2077678 135.122968,24.8857351 134.75798,24.4720173 C134.398297,24.0582994 134.122433,23.5677612 133.929329,23.0004026 C133.735164,22.433044 133.638611,21.8125807 133.638611,21.1387857 L133.638611,20.766485 C133.638611,19.986367 133.746835,19.2919201 133.96222,18.6831443 C134.177606,18.0685815 134.470445,17.5484272 134.840739,17.1229083 C135.211032,16.6973893 135.631193,16.3753566 136.101222,16.1566966 C136.57019,15.9380366 137.057195,15.8286499 137.560115,15.8286499 C138.200966,15.8286499 138.753754,15.9468874 139.217417,16.183249 C139.687445,16.4197241 140.071532,16.7506076 140.369677,17.1761265 C140.667821,17.5957449 140.889573,18.0921836 141.03281,18.6654427 C141.176046,19.2328013 141.248195,19.8533781 141.248195,20.5270597 L141.248195,21.2629237 L134.551082,21.2629237 L134.551082,19.9242979 L139.715032,19.9242979 L139.715032,19.8001599 C139.69275,19.3746409 139.609991,18.9609231 139.465694,18.5591197 C139.327762,18.1572029 139.107071,17.8262059 138.802561,17.5662422 C138.499111,17.3061651 138.084255,17.1761265 137.560115,17.1761265 C137.211042,17.1761265 136.890616,17.2558971 136.597776,17.4155518 C136.304937,17.5691925 136.053477,17.7996536 135.843396,18.106935 C135.633315,18.4143298 135.470981,18.7895808 135.354269,19.2328013 C135.238619,19.6760218 135.180263,20.1873254 135.180263,20.766485 L135.180263,21.1387857 C135.180263,21.5939207 135.238619,22.0223899 135.354269,22.4241932 C135.476286,22.8202095 135.650292,23.1689081 135.877348,23.470289 C136.108649,23.7716698 136.387696,24.0081449 136.714488,24.1794872 C137.045524,24.3508295 137.421122,24.4366141 137.841283,24.4366141 C138.383461,24.4366141 138.841818,24.3183766 139.217417,24.082015 C139.593015,23.8455399 139.921929,23.5294077 140.204159,23.1333915 L141.132545,23.9223603 C140.938379,24.2356557 140.693285,24.5340863 140.39408,24.8177656 C140.095935,25.1014449 139.728825,25.3319059 139.291688,25.5092622 C138.860916,25.686505 138.349508,25.7751264 137.758524,25.7751264 Z M149.958049,23.0536208 C149.958049,22.8172593 149.909242,22.5985993 149.809507,22.3976409 C149.715077,22.1907819 149.51879,22.0045748 149.220645,21.8391331 C148.927806,21.6677908 148.485363,21.5199372 147.894379,21.3959126 C147.396764,21.2835756 146.946895,21.1505867 146.54371,20.996946 C146.14583,20.8433053 145.805245,20.6570982 145.524077,20.4384383 C145.247152,20.2197783 145.03495,19.9627648 144.885347,19.667171 C144.736805,19.3716907 144.661473,19.0259424 144.661473,18.6300396 C144.661473,18.2517249 144.738927,17.8941755 144.893835,17.5573915 C145.054048,17.2204939 145.277922,16.9220633 145.565456,16.6619862 C145.858296,16.401909 146.209491,16.1980003 146.617981,16.0502602 C147.026471,15.90252 147.482706,15.8286499 147.985626,15.8286499 C148.703932,15.8286499 149.317197,15.964589 149.825422,16.2364672 C150.334709,16.5083455 150.7241,16.8717954 150.994659,17.3268169 C151.265217,17.7760514 151.401026,18.2754405 151.401026,18.824984 L149.867863,18.824984 C149.867863,18.5591197 149.792531,18.3019928 149.643989,18.0538302 C149.499692,17.7996536 149.287489,17.5898444 149.00526,17.4244026 C148.729396,17.2588474 148.388811,17.1761265 147.985626,17.1761265 C147.56016,17.1761265 147.215331,17.2470463 146.950078,17.388886 C146.69013,17.5248251 146.499147,17.6992311 146.377131,17.9119906 C146.261481,18.12475 146.203125,18.3493105 146.203125,18.5856721 C146.203125,18.7630284 146.230711,18.9225696 146.285884,19.0644093 C146.347423,19.2003484 146.452463,19.3274367 146.601005,19.4455608 C146.750607,19.5578978 146.960688,19.6642208 147.231246,19.7647567 C147.501804,19.8651792 147.847695,19.9657151 148.267856,20.0661376 C149.002077,20.2433804 149.607915,20.4562533 150.083249,20.704416 C150.558582,20.9525786 150.9119,21.2570232 151.144261,21.6175228 C151.375562,21.9780225 151.492274,22.4153425 151.492274,22.9294828 C151.492274,23.3491012 151.409515,23.7333164 151.242936,24.082015 C151.082723,24.4307136 150.848239,24.7320944 150.538423,24.9861576 C150.234973,25.2344337 149.869985,25.4294916 149.444519,25.5713312 C149.024358,25.7072703 148.552207,25.7751264 148.027006,25.7751264 C147.236551,25.7751264 146.568113,25.624436 146.020631,25.3230551 C145.474209,25.0216742 145.059353,24.6315585 144.778185,24.1529348 C144.495955,23.6741976 144.354841,23.1689081 144.354841,22.6369527 L145.896492,22.6369527 C145.918773,23.0861872 146.04079,23.4437366 146.261481,23.7096008 C146.482171,23.969678 146.75379,24.1558851 147.074216,24.2681086 C147.394642,24.3745451 147.711885,24.4277633 148.027006,24.4277633 C148.447167,24.4277633 148.798362,24.3686445 149.07953,24.250407 C149.367065,24.1321695 149.585634,23.969678 149.734175,23.762819 C149.883778,23.5559601 149.958049,23.3195985 149.958049,23.0536208 Z M158.958621,16.0060062 L158.958621,17.2647479 L154.109792,17.2647479 L154.109792,16.0060062 L158.958621,16.0060062 Z M155.751179,13.6745029 L157.284342,13.6745029 L157.284342,23.2220129 C157.284342,23.5471093 157.331027,23.7924352 157.425457,23.9578769 C157.518826,24.1233187 157.640843,24.2327054 157.790445,24.2859236 C157.938987,24.3390284 158.0992,24.3656943 158.271084,24.3656943 C158.398406,24.3656943 158.531032,24.3537797 158.668964,24.3301776 C158.812201,24.300675 158.920424,24.2769594 158.991512,24.2592578 L159,25.5978836 C158.879045,25.6393008 158.718832,25.6776542 158.519361,25.7131709 C158.326257,25.7544746 158.091773,25.7751264 157.814849,25.7751264 C157.43925,25.7751264 157.09336,25.6953558 156.7793,25.5358146 C156.464179,25.3762733 156.212719,25.1102956 156.02492,24.737995 C155.842426,24.3597937 155.751179,23.8514405 155.751179,23.2131621 L155.751179,13.6745029 Z" id="Shape" fill="#4E6E81" fill-rule="nonzero"></path>
            </g>
            <g id="Connects-Button-US" transform="translate(219.000000, 6.000000)" fill-rule="nonzero">
                <path d="M0,12 C0,5.37258 5.37258,0 12,0 L137,0 C143.627,0 149,5.37258 149,12 L149,36 L0,36 L0,12 Z" id="Path" fill="#97A9B4"></path>
                <path d="M43.2826242,20.1256738 L44.789374,20.1256738 C44.7109226,20.8636994 44.5041965,21.5241029 44.1693967,22.106987 C43.8345969,22.6898711 43.3610756,23.1524206 42.7489334,23.4947379 C42.1368916,23.8316135 41.3730699,24 40.4574683,24 C39.7877682,24 39.1783381,23.8716567 38.6289771,23.61497 C38.0848395,23.3582833 37.6166421,22.9947123 37.224184,22.5241542 C36.8318264,22.0481544 36.5283669,21.478618 36.3139062,20.8155449 C36.1046689,20.1470301 36,19.4037682 36,18.5855537 L36,17.422455 C36,16.6042405 36.1046689,15.863648 36.3139062,15.2004723 C36.5283669,14.5320602 36.8344381,13.9598542 37.2321196,13.4839571 C37.634924,13.0079573 38.1188921,12.6417167 38.6839233,12.38503 C39.2489544,12.1283433 39.884602,12 40.5908658,12 C41.454133,12 42.1840027,12.1657169 42.7803742,12.4972535 C43.3767458,12.82879 43.8398203,13.2887725 44.1693967,13.8769957 C44.5041965,14.4598799 44.7109226,15.1363006 44.789374,15.9063607 L43.2826242,15.9063607 C43.2093961,15.3609528 43.0733869,14.8930643 42.8744959,14.5025925 C42.6757054,14.1068843 42.39324,13.8021459 42.0269993,13.5881719 C41.6607587,13.3743005 41.1821145,13.2673135 40.5908658,13.2673135 C40.0833925,13.2673135 39.6360887,13.3662919 39.2489544,13.564146 C38.8670436,13.7620001 38.5453023,14.0427127 38.28363,14.4063864 C38.0272817,14.7700601 37.8337145,15.2058114 37.7029287,15.7138457 C37.5721428,16.22188 37.5067498,16.7860773 37.5067498,17.4064377 L37.5067498,18.5855537 C37.5067498,19.1577596 37.5643077,19.6951589 37.6794234,20.1978541 C37.7997624,20.7005493 37.9802711,21.1417424 38.2208488,21.5214333 C38.461527,21.9011243 38.7675981,22.2005236 39.1390622,22.4198367 C39.5105262,22.6337081 39.9499949,22.7406951 40.4574683,22.7406951 C41.1009509,22.7406951 41.6136476,22.6363776 41.9955585,22.4278454 C42.3775698,22.2193131 42.6652586,21.9198111 42.8588257,21.529442 C43.0576162,21.1390728 43.1989493,20.6711844 43.2826242,20.1256738 Z M47.8562126,19.5962832 L47.8562126,19.4117768 C47.8562126,18.7860773 47.9452113,18.2058627 48.1231082,17.671133 C48.3009047,17.1309615 48.5572531,16.6630731 48.8921534,16.2673649 C49.2269532,15.8663176 49.6324698,15.5561374 50.1085023,15.3369269 C50.5846352,15.1122748 51.1182256,14.9999487 51.7094742,14.9999487 C52.3058458,14.9999487 52.8421483,15.1122748 53.3181808,15.3369269 C53.7995371,15.5561374 54.207565,15.8663176 54.5424652,16.2673649 C54.8824884,16.6630731 55.1414485,17.1309615 55.3193454,17.671133 C55.4972424,18.2058627 55.5861406,18.7860773 55.5861406,19.4117768 L55.5861406,19.5962832 C55.5861406,20.2219826 55.4972424,20.8021972 55.3193454,21.3369269 C55.1414485,21.8716567 54.8824884,22.3396478 54.5424652,22.7406951 C54.207565,23.1364033 53.8021488,23.4465835 53.3260159,23.671133 C52.8552068,23.8904461 52.321516,24 51.7251444,24 C51.1286724,24 50.5924703,23.8904461 50.1163374,23.671133 C49.6403049,23.4465835 49.2321766,23.1364033 48.8921534,22.7406951 C48.5572531,22.3396478 48.3009047,21.8716567 48.1231082,21.3369269 C47.9452113,20.8021972 47.8562126,20.2219826 47.8562126,19.5962832 Z M49.3080163,19.4117768 L49.3080163,19.5962832 C49.3080163,20.0294676 49.3577391,20.4385235 49.4571845,20.8235536 C49.5565296,21.2032445 49.7056978,21.5401201 49.9044883,21.8342831 C50.1085023,22.1283433 50.3622389,22.3610042 50.6656984,22.5321628 C50.9691578,22.6978798 51.3222395,22.7808409 51.7251444,22.7808409 C52.1227255,22.7808409 52.4706842,22.6978798 52.7689202,22.5321628 C53.0722792,22.3610042 53.3234042,22.1283433 53.5222951,21.8342831 C53.7210857,21.5401201 53.8701535,21.2032445 53.9695989,20.8235536 C54.0741674,20.4385235 54.1265018,20.0294676 54.1265018,19.5962832 L54.1265018,19.4117768 C54.1265018,18.9839314 54.0741674,18.5802146 53.9695989,18.2005236 C53.8701535,17.8154936 53.718474,17.4759485 53.5143596,17.1817855 C53.3155691,16.8823862 53.0644441,16.6470558 52.7609847,16.4758971 C52.4628491,16.3048411 52.1122787,16.2192104 51.7094742,16.2192104 C51.3117927,16.2192104 50.9613227,16.3048411 50.6578633,16.4758971 C50.3596272,16.6470558 50.1085023,16.8823862 49.9044883,17.1817855 C49.7056978,17.4759485 49.5565296,17.8154936 49.4571845,18.2005236 C49.3577391,18.5802146 49.3080163,18.9839314 49.3080163,19.4117768 Z M60.4659006,17.013399 L60.4659006,23.8396222 L59.0139965,23.8396222 L59.0139965,15.1604292 L60.3873487,15.1604292 L60.4659006,17.013399 Z M60.1205536,19.1711073 L59.5162464,19.1470815 C59.5214698,18.5535192 59.6078568,18.0053391 59.7753069,17.5026439 C59.9426566,16.9946096 60.1781114,16.5534165 60.4815708,16.1791673 C60.7850302,15.8048154 61.145947,15.5159916 61.5645221,15.3127984 C61.9883207,15.1042661 62.4565181,14.9999487 62.9692148,14.9999487 C63.3877899,14.9999487 63.7644774,15.0587813 64.0992772,15.1764464 C64.4341774,15.2887725 64.7192545,15.4706094 64.9547093,15.721957 C65.1953874,15.9732019 65.3785078,16.2993994 65.5040703,16.7005493 C65.6296327,17.0962575 65.692414,17.5801633 65.692414,18.1523692 L65.692414,23.8396222 L64.2327752,23.8396222 L64.2327752,18.136352 C64.2327752,17.6818112 64.1672818,17.3181375 64.0364959,17.0454335 C63.90571,16.7673905 63.7147546,16.5668669 63.4636296,16.4438626 C63.2125047,16.3155193 62.9038219,16.2513476 62.5376816,16.2513476 C62.1766644,16.2513476 61.847088,16.328867 61.548852,16.4839057 C61.2558393,16.6390472 61.0021027,16.8529185 60.7876419,17.1256225 C60.5783042,17.3984291 60.4135662,17.7111761 60.2932271,18.0641717 C60.1781114,18.4117254 60.1205536,18.7807382 60.1205536,19.1711073 Z M73.0597175,15.1604292 L73.0597175,16.2993994 L68.4688517,16.2993994 L68.4688517,15.1604292 L73.0597175,15.1604292 Z M70.0227126,13.0507726 L71.4745162,13.0507726 L71.4745162,21.6898198 C71.4745162,21.9839828 71.5190156,22.2059654 71.6079138,22.3556651 C71.6969125,22.5053648 71.8120282,22.6043431 71.9532609,22.6524976 C72.0944936,22.7005493 72.2462735,22.7246779 72.4083998,22.7246779 C72.5287389,22.7246779 72.6543014,22.713897 72.7850872,22.6925407 C72.9210965,22.6658453 73.0231537,22.6443863 73.0911584,22.628369 L73.0989935,23.8396222 C72.9838778,23.8770984 72.8321983,23.9118025 72.6438546,23.9439396 C72.4607342,23.9813132 72.238338,24 71.9767662,24 C71.6210728,24 71.2940076,23.9278197 70.995872,23.7834591 C70.697636,23.6390985 70.4595696,23.3984291 70.2816726,23.0615535 C70.1089991,22.7193388 70.0227126,22.2593562 70.0227126,21.6818112 L70.0227126,13.0507726 Z M81.3766752,22.3556651 L81.3766752,17.8876739 C81.3766752,17.5454592 81.3086706,17.2486267 81.1726613,16.9972791 C81.0418754,16.7405924 80.8430849,16.5427383 80.5762897,16.4037168 C80.3093941,16.2646953 79.9798177,16.1951846 79.58746,16.1951846 C79.2212194,16.1951846 78.8994781,16.2593562 78.6222361,16.3876996 C78.3501171,16.5160429 78.1356564,16.6844294 77.978653,16.8930643 C77.8269735,17.1015966 77.7511338,17.3261461 77.7511338,17.5668155 L76.2993301,17.5668155 C76.2993301,17.2566354 76.3777815,16.9492274 76.5346844,16.6443863 C76.6916878,16.3395452 76.9165953,16.0641717 77.2096079,15.8181632 C77.5078439,15.5668155 77.8635373,15.3689614 78.276889,15.2246009 C78.6954641,15.0747985 79.1610498,14.9999487 79.6737466,14.9999487 C80.2911122,14.9999487 80.8352498,15.1069357 81.3060589,15.320807 C81.7821918,15.534781 82.1536559,15.8583089 82.4204511,16.2913907 C82.6924696,16.7192361 82.8285794,17.2566354 82.8285794,17.9037938 L82.8285794,21.9465065 C82.8285794,22.2353304 82.8520847,22.542841 82.8991957,22.8690385 C82.9514297,23.1952359 83.0273699,23.4759485 83.1267149,23.7112788 L83.1267149,23.8396222 L81.61213,23.8396222 C81.538902,23.6684635 81.4813441,23.4412444 81.4394565,23.1577596 C81.3976693,22.8690385 81.3766752,22.6016736 81.3766752,22.3556651 Z M81.6278002,18.577545 L81.6435709,19.6203091 L80.1759965,19.6203091 C79.7627453,19.6203091 79.3938929,19.6551158 79.0695399,19.7246265 C78.7450864,19.7887982 78.4730679,19.8876739 78.2533837,20.0213563 C78.0335992,20.1551414 77.866149,20.3235279 77.7511338,20.5267211 C77.6360181,20.7245752 77.5784603,20.957236 77.5784603,21.2246009 C77.5784603,21.4974075 77.6386298,21.7459829 77.7589689,21.970635 C77.879308,22.1951846 78.0598166,22.3743519 78.3003943,22.5080343 C78.5462959,22.6363776 78.8471436,22.7005493 79.2029375,22.7005493 C79.6476296,22.7005493 80.0399872,22.6043431 80.3801109,22.4118281 C80.7201341,22.2193131 80.989541,21.9839828 81.1883315,21.7059397 C81.3924459,21.427794 81.5022377,21.1577596 81.5180084,20.8957339 L82.1379857,21.6096309 C82.1013215,21.8342831 82.001876,22.0829611 81.8397497,22.3556651 C81.677523,22.628369 81.4604505,22.8903948 81.1883315,23.1417424 C80.9215363,23.3877509 80.6024067,23.5936136 80.2309427,23.7594332 C79.864702,23.9198111 79.4514508,24 78.990988,24 C78.41551,24 77.9106484,23.885107 77.4764031,23.6551158 C77.0473812,23.4252272 76.7125814,23.1177165 76.4719032,22.7326865 C76.2365489,22.3423174 76.1188215,21.9064634 76.1188215,21.4251245 C76.1188215,20.9599055 76.2077197,20.5508496 76.3856166,20.1978541 C76.5635136,19.8396222 76.8198619,19.5427897 77.1546618,19.3074593 C77.4894616,19.0668926 77.8923665,18.8850557 78.3631756,18.7620514 C78.8340851,18.6390472 79.3598404,18.577545 79.9406422,18.577545 L81.6278002,18.577545 Z M90.1174315,22.7808409 C90.4626781,22.7808409 90.7819081,22.7085579 91.0748203,22.5641973 C91.3678329,22.4198367 91.6085111,22.2219826 91.7968548,21.970635 C91.9851986,21.7139484 92.0923787,21.422455 92.1185961,21.0962575 L93.4997835,21.0962575 C93.473566,21.6096309 93.3036047,22.0883002 92.9896984,22.5321628 C92.6810156,22.9705837 92.275499,23.3262488 91.7732491,23.5989527 C91.2709991,23.8663176 90.7191269,24 90.1174315,24 C89.4791722,24 88.9219761,23.885107 88.4458432,23.6551158 C87.9750341,23.4252272 87.5826764,23.1097079 87.2687702,22.7085579 C86.9600874,22.3075107 86.7272443,21.8476308 86.570241,21.3289183 C86.4185615,20.8048668 86.3427218,20.2513476 86.3427218,19.6684635 L86.3427218,19.3315879 C86.3427218,18.7487037 86.4185615,18.1978541 86.570241,17.6791416 C86.7272443,17.1550901 86.9600874,16.6925407 87.2687702,16.2913907 C87.5826764,15.8903434 87.9750341,15.5748242 88.4458432,15.3449356 C88.9219761,15.1149443 89.4791722,14.9999487 90.1174315,14.9999487 C90.7819081,14.9999487 91.3626095,15.1389702 91.8596361,15.4171159 C92.3566626,15.6898198 92.7464086,16.0641717 93.0288739,16.5400688 C93.3166632,17.0107295 93.473566,17.5454592 93.4997835,18.1443606 L92.1185961,18.1443606 C92.0923787,17.7861287 91.9930337,17.4626007 91.8203601,17.1737769 C91.65291,16.8850557 91.4227791,16.6550644 91.1297665,16.4839057 C90.8420777,16.3075107 90.5045657,16.2192104 90.1174315,16.2192104 C89.6727394,16.2192104 89.2986636,16.3101802 88.9952042,16.492017 C88.6969682,16.6684121 88.4590022,16.9090816 88.2811052,17.2139227 C88.1084317,17.513322 87.9828692,17.8476308 87.9044178,18.2165409 C87.8311897,18.5802146 87.7945255,18.9518969 87.7945255,19.3315879 L87.7945255,19.6684635 C87.7945255,20.0481544 87.8311897,20.4225063 87.9044178,20.7914164 C87.9776458,21.1604292 88.1005966,21.4946352 88.2732701,21.7941373 C88.4510666,22.0936393 88.6891331,22.3343087 88.9873691,22.5160429 C89.2908285,22.6925407 89.667516,22.7808409 90.1174315,22.7808409 Z M100.294221,15.1604292 L100.294221,16.2993994 L95.7033549,16.2993994 L95.7033549,15.1604292 L100.294221,15.1604292 Z M97.2572158,13.0507726 L98.7090195,13.0507726 L98.7090195,21.6898198 C98.7090195,21.9839828 98.7535188,22.2059654 98.842417,22.3556651 C98.9314157,22.5053648 99.0465314,22.6043431 99.1877641,22.6524976 C99.3289968,22.7005493 99.4807767,22.7246779 99.642903,22.7246779 C99.7632421,22.7246779 99.8888046,22.713897 100.01959,22.6925407 C100.1556,22.6658453 100.257657,22.6443863 100.325662,22.628369 L100.333497,23.8396222 C100.218381,23.8770984 100.066702,23.9118025 99.8783578,23.9439396 C99.6952374,23.9813132 99.4728412,24 99.2112694,24 C98.855576,24 98.5285108,23.9278197 98.2303753,23.7834591 C97.9321392,23.6390985 97.6940728,23.3984291 97.5161758,23.0615535 C97.3435023,22.7193388 97.2572158,22.2593562 97.2572158,21.6818112 L97.2572158,13.0507726 Z M108.548498,21.5374506 C108.548498,21.3235792 108.501286,21.1257251 108.406863,20.9438883 C108.318467,20.7567124 108.132635,20.5882232 107.85037,20.4385235 C107.573128,20.2834848 107.154252,20.1496997 106.594745,20.0374763 C106.123635,19.9358283 105.696722,19.8154936 105.315013,19.6764721 C104.938325,19.5374506 104.616885,19.3689614 104.349688,19.1711073 C104.088518,18.9732532 103.886614,18.7406951 103.745984,18.4732276 C103.604349,18.2058627 103.534034,17.893013 103.534034,17.534781 C103.534034,17.1924637 103.607363,16.8689358 103.753015,16.5641973 C103.905699,16.2593562 104.116644,15.9893218 104.388864,15.7539915 C104.666106,15.5186611 104.998595,15.3341547 105.385328,15.2004723 C105.773064,15.0667899 106.204999,14.9999487 106.681132,14.9999487 C107.361179,14.9999487 107.94178,15.1229529 108.422935,15.3689614 C108.904091,15.61497 109.272742,15.943837 109.52889,16.3555624 C109.786042,16.7620514 109.913613,17.2139227 109.913613,17.7111761 L108.462111,17.7111761 C108.462111,17.4706094 108.391796,17.2379486 108.250161,17.013399 C108.114554,16.7834078 107.912649,16.5935623 107.645452,16.4438626 C107.384282,16.2940603 107.062842,16.2192104 106.681132,16.2192104 C106.278328,16.2192104 105.950861,16.2833821 105.699736,16.4117254 C105.453634,16.5347297 105.273828,16.6925407 105.158311,16.8850557 C105.04882,17.0775707 104.993573,17.2807639 104.993573,17.4946352 C104.993573,17.6551158 105.01969,17.7994764 105.071924,17.9278197 C105.12918,18.050824 105.228626,18.1658196 105.37026,18.2727039 C105.51089,18.3743519 105.709781,18.470558 105.966933,18.5615278 C106.22308,18.6523949 106.549543,18.7433646 106.947325,18.8342317 C107.643443,18.9946096 108.216008,19.1872273 108.666024,19.4117768 C109.11604,19.6363263 109.450539,19.9118025 109.670524,20.2379999 C109.89051,20.5641973 110,20.9599055 110,21.4251245 C110,21.8048154 109.921649,22.1524719 109.764947,22.4679912 C109.613268,22.7835104 109.390269,23.0562144 109.097959,23.286103 C108.809668,23.5107552 108.465124,23.6872529 108.06232,23.8155963 C107.664538,23.9386005 107.216531,24 106.720308,24 C105.971955,24 105.339121,23.863648 104.820799,23.5909441 C104.302477,23.3182402 103.910722,22.9652446 103.643525,22.5321628 C103.376328,22.0989784 103.243734,21.6417681 103.243734,21.1604292 L104.703272,21.1604292 C104.724367,21.5669182 104.83888,21.8904461 105.04882,22.1310129 C105.257756,22.3663432 105.513904,22.5348324 105.817262,22.6363776 C106.120621,22.7326865 106.421971,22.7808409 106.720308,22.7808409 C107.117085,22.7808409 107.449575,22.7273474 107.716772,22.6203604 C107.988991,22.5133734 108.194914,22.3663432 108.336548,22.1791673 C108.478183,21.9919914 108.548498,21.77812 108.548498,21.5374506 Z" id="Shape" fill="#FFFFFF"></path>
            </g>
        </g>
    </g>
</svg>