<?xml version="1.0" encoding="UTF-8"?>
<svg width="401px" height="43px" viewBox="0 0 401 43" version="1.1" xmlns="http://www.w3.org/2000/svg" xmlns:xlink="http://www.w3.org/1999/xlink">
    <title>conSelected</title>
    <g id="Page-1" stroke="none" stroke-width="1" fill="none" fill-rule="evenodd">
        <g id="conSelected" transform="translate(0.000000, 1.000000)">
            <g id="Request-Button">
                <path d="M401,41 L364.931,41 C358.303,41 352.931,34.8812056 352.931,27.3333333 L352.931,13.6666667 C352.931,6.11879444 347.558,0 340.931,0 L217.085,0 C210.457,0 205.085,6.11879444 205.085,13.6666667 L205.085,27.3333333 C205.085,34.8812056 199.712,41 193.085,41 L0,41" id="Path" stroke="#4E6E81" stroke-width="2"></path>
                <path d="M253.188,22.3828 L254.688,22.3828 C254.609,23.1016 254.404,23.7448 254.07,24.3125 C253.737,24.8802 253.266,25.3307 252.656,25.6641 C252.047,25.9922 251.286,26.1562 250.375,26.1562 C249.708,26.1562 249.102,26.0312 248.555,25.7812 C248.013,25.5312 247.547,25.1771 247.156,24.7188 C246.766,24.2552 246.464,23.7005 246.25,23.0547 C246.042,22.4036 245.938,21.6797 245.938,20.8828 L245.938,19.75 C245.938,18.9531 246.042,18.2318 246.25,17.5859 C246.464,16.9349 246.768,16.3776 247.164,15.9141 C247.565,15.4505 248.047,15.0938 248.609,14.8438 C249.172,14.5938 249.805,14.4688 250.508,14.4688 C251.367,14.4688 252.094,14.6302 252.688,14.9531 C253.281,15.276 253.742,15.724 254.07,16.2969 C254.404,16.8646 254.609,17.5234 254.688,18.2734 L253.188,18.2734 C253.115,17.7422 252.979,17.2865 252.781,16.9062 C252.583,16.5208 252.302,16.224 251.938,16.0156 C251.573,15.8073 251.096,15.7031 250.508,15.7031 C250.003,15.7031 249.557,15.7995 249.172,15.9922 C248.792,16.1849 248.471,16.4583 248.211,16.8125 C247.956,17.1667 247.763,17.5911 247.633,18.0859 C247.503,18.5807 247.438,19.1302 247.438,19.7344 L247.438,20.8828 C247.438,21.4401 247.495,21.9635 247.609,22.4531 C247.729,22.9427 247.909,23.3724 248.148,23.7422 C248.388,24.112 248.693,24.4036 249.062,24.6172 C249.432,24.8255 249.87,24.9297 250.375,24.9297 C251.016,24.9297 251.526,24.8281 251.906,24.625 C252.286,24.4219 252.573,24.1302 252.766,23.75 C252.964,23.3698 253.104,22.9141 253.188,22.3828 Z M257.741,21.8672 L257.741,21.6875 C257.741,21.0781 257.829,20.513 258.006,19.9922 C258.183,19.4661 258.439,19.0104 258.772,18.625 C259.105,18.2344 259.509,17.9323 259.983,17.7188 C260.457,17.5 260.988,17.3906 261.577,17.3906 C262.17,17.3906 262.704,17.5 263.178,17.7188 C263.657,17.9323 264.064,18.2344 264.397,18.625 C264.735,19.0104 264.993,19.4661 265.17,19.9922 C265.347,20.513 265.436,21.0781 265.436,21.6875 L265.436,21.8672 C265.436,22.4766 265.347,23.0417 265.17,23.5625 C264.993,24.0833 264.735,24.5391 264.397,24.9297 C264.064,25.3151 263.66,25.6172 263.186,25.8359 C262.717,26.0495 262.186,26.1562 261.592,26.1562 C260.998,26.1562 260.465,26.0495 259.991,25.8359 C259.517,25.6172 259.11,25.3151 258.772,24.9297 C258.439,24.5391 258.183,24.0833 258.006,23.5625 C257.829,23.0417 257.741,22.4766 257.741,21.8672 Z M259.186,21.6875 L259.186,21.8672 C259.186,22.2891 259.235,22.6875 259.334,23.0625 C259.433,23.4323 259.582,23.7604 259.78,24.0469 C259.983,24.3333 260.235,24.5599 260.538,24.7266 C260.84,24.888 261.191,24.9688 261.592,24.9688 C261.988,24.9688 262.334,24.888 262.631,24.7266 C262.933,24.5599 263.183,24.3333 263.381,24.0469 C263.579,23.7604 263.728,23.4323 263.827,23.0625 C263.931,22.6875 263.983,22.2891 263.983,21.8672 L263.983,21.6875 C263.983,21.2708 263.931,20.8776 263.827,20.5078 C263.728,20.1328 263.577,19.8021 263.373,19.5156 C263.176,19.224 262.926,18.9948 262.623,18.8281 C262.327,18.6615 261.978,18.5781 261.577,18.5781 C261.181,18.5781 260.832,18.6615 260.53,18.8281 C260.233,18.9948 259.983,19.224 259.78,19.5156 C259.582,19.8021 259.433,20.1328 259.334,20.5078 C259.235,20.8776 259.186,21.2708 259.186,21.6875 Z M270.294,19.3516 L270.294,26 L268.848,26 L268.848,17.5469 L270.216,17.5469 L270.294,19.3516 Z M269.95,21.4531 L269.348,21.4297 C269.354,20.8516 269.44,20.3177 269.606,19.8281 C269.773,19.3333 270.007,18.9036 270.309,18.5391 C270.611,18.1745 270.971,17.8932 271.388,17.6953 C271.809,17.4922 272.276,17.3906 272.786,17.3906 C273.203,17.3906 273.578,17.4479 273.911,17.5625 C274.244,17.6719 274.528,17.849 274.763,18.0938 C275.002,18.3385 275.184,18.6562 275.309,19.0469 C275.434,19.4323 275.497,19.9036 275.497,20.4609 L275.497,26 L274.044,26 L274.044,20.4453 C274.044,20.0026 273.979,19.6484 273.848,19.3828 C273.718,19.112 273.528,18.9167 273.278,18.7969 C273.028,18.6719 272.721,18.6094 272.356,18.6094 C271.997,18.6094 271.669,18.6849 271.372,18.8359 C271.08,18.987 270.828,19.1953 270.614,19.4609 C270.406,19.7266 270.242,20.0312 270.122,20.375 C270.007,20.7135 269.95,21.0729 269.95,21.4531 Z M280.737,19.3516 L280.737,26 L279.292,26 L279.292,17.5469 L280.659,17.5469 L280.737,19.3516 Z M280.394,21.4531 L279.792,21.4297 C279.797,20.8516 279.883,20.3177 280.05,19.8281 C280.217,19.3333 280.451,18.9036 280.753,18.5391 C281.055,18.1745 281.415,17.8932 281.831,17.6953 C282.253,17.4922 282.719,17.3906 283.23,17.3906 C283.646,17.3906 284.021,17.4479 284.355,17.5625 C284.688,17.6719 284.972,17.849 285.206,18.0938 C285.446,18.3385 285.628,18.6562 285.753,19.0469 C285.878,19.4323 285.941,19.9036 285.941,20.4609 L285.941,26 L284.487,26 L284.487,20.4453 C284.487,20.0026 284.422,19.6484 284.292,19.3828 C284.162,19.112 283.972,18.9167 283.722,18.7969 C283.472,18.6719 283.165,18.6094 282.8,18.6094 C282.441,18.6094 282.112,18.6849 281.816,18.8359 C281.524,18.987 281.271,19.1953 281.058,19.4609 C280.849,19.7266 280.685,20.0312 280.566,20.375 C280.451,20.7135 280.394,21.0729 280.394,21.4531 Z M293.244,26.1562 C292.655,26.1562 292.121,26.0573 291.642,25.8594 C291.168,25.6562 290.759,25.3724 290.416,25.0078 C290.077,24.6432 289.817,24.2109 289.634,23.7109 C289.452,23.2109 289.361,22.6641 289.361,22.0703 L289.361,21.7422 C289.361,21.0547 289.463,20.4427 289.666,19.9062 C289.869,19.3646 290.145,18.9062 290.494,18.5312 C290.843,18.1562 291.239,17.8724 291.681,17.6797 C292.124,17.487 292.582,17.3906 293.056,17.3906 C293.66,17.3906 294.181,17.4948 294.619,17.7031 C295.061,17.9115 295.423,18.2031 295.705,18.5781 C295.986,18.9479 296.194,19.3854 296.33,19.8906 C296.465,20.3906 296.533,20.9375 296.533,21.5312 L296.533,22.1797 L290.22,22.1797 L290.22,21 L295.088,21 L295.088,20.8906 C295.067,20.5156 294.989,20.151 294.853,19.7969 C294.723,19.4427 294.515,19.151 294.228,18.9219 C293.942,18.6927 293.551,18.5781 293.056,18.5781 C292.728,18.5781 292.426,18.6484 292.15,18.7891 C291.874,18.9245 291.637,19.1276 291.439,19.3984 C291.241,19.6693 291.088,20 290.978,20.3906 C290.869,20.7812 290.814,21.2318 290.814,21.7422 L290.814,22.0703 C290.814,22.4714 290.869,22.849 290.978,23.2031 C291.093,23.5521 291.257,23.8594 291.47,24.125 C291.689,24.3906 291.952,24.599 292.259,24.75 C292.572,24.901 292.926,24.9766 293.322,24.9766 C293.832,24.9766 294.265,24.8724 294.619,24.6641 C294.973,24.4557 295.283,24.1771 295.548,23.8281 L296.423,24.5234 C296.241,24.7995 296.009,25.0625 295.728,25.3125 C295.447,25.5625 295.101,25.7656 294.689,25.9219 C294.283,26.0781 293.801,26.1562 293.244,26.1562 Z M303.203,24.9688 C303.547,24.9688 303.865,24.8984 304.156,24.7578 C304.448,24.6172 304.688,24.4245 304.875,24.1797 C305.062,23.9297 305.169,23.6458 305.195,23.3281 L306.57,23.3281 C306.544,23.8281 306.375,24.2943 306.062,24.7266 C305.755,25.1536 305.352,25.5 304.852,25.7656 C304.352,26.026 303.802,26.1562 303.203,26.1562 C302.568,26.1562 302.013,26.0443 301.539,25.8203 C301.07,25.5964 300.68,25.2891 300.367,24.8984 C300.06,24.5078 299.828,24.0599 299.672,23.5547 C299.521,23.0443 299.445,22.5052 299.445,21.9375 L299.445,21.6094 C299.445,21.0417 299.521,20.5052 299.672,20 C299.828,19.4896 300.06,19.0391 300.367,18.6484 C300.68,18.2578 301.07,17.9505 301.539,17.7266 C302.013,17.5026 302.568,17.3906 303.203,17.3906 C303.865,17.3906 304.443,17.526 304.938,17.7969 C305.432,18.0625 305.82,18.4271 306.102,18.8906 C306.388,19.349 306.544,19.8698 306.57,20.4531 L305.195,20.4531 C305.169,20.1042 305.07,19.7891 304.898,19.5078 C304.732,19.2266 304.503,19.0026 304.211,18.8359 C303.924,18.6641 303.589,18.5781 303.203,18.5781 C302.76,18.5781 302.388,18.6667 302.086,18.8438 C301.789,19.0156 301.552,19.25 301.375,19.5469 C301.203,19.8385 301.078,20.1641 301,20.5234 C300.927,20.8776 300.891,21.2396 300.891,21.6094 L300.891,21.9375 C300.891,22.3073 300.927,22.6719 301,23.0312 C301.073,23.3906 301.195,23.7161 301.367,24.0078 C301.544,24.2995 301.781,24.5339 302.078,24.7109 C302.38,24.8828 302.755,24.9688 303.203,24.9688 Z M313.334,17.5469 L313.334,18.6562 L308.764,18.6562 L308.764,17.5469 L313.334,17.5469 Z M310.311,15.4922 L311.756,15.4922 L311.756,23.9062 C311.756,24.1927 311.801,24.4089 311.889,24.5547 C311.978,24.7005 312.092,24.7969 312.233,24.8438 C312.373,24.8906 312.524,24.9141 312.686,24.9141 C312.806,24.9141 312.931,24.9036 313.061,24.8828 C313.196,24.8568 313.298,24.8359 313.366,24.8203 L313.373,26 C313.259,26.0365 313.108,26.0703 312.92,26.1016 C312.738,26.138 312.517,26.1562 312.256,26.1562 C311.902,26.1562 311.577,26.0859 311.28,25.9453 C310.983,25.8047 310.746,25.5703 310.569,25.2422 C310.397,24.9089 310.311,24.4609 310.311,23.8984 L310.311,15.4922 Z" id="Shape" fill="#4E6E81" fill-rule="nonzero"></path>
            </g>
            <g id="Connects-Button-US-(1)" transform="translate(33.000000, 6.000000)" fill-rule="nonzero">
                <path d="M0,12 C0,5.37258 5.37258,0 12,0 L137,0 C143.627,0 149,5.37258 149,12 L149,36 L0,36 L0,12 Z" id="Path" fill="#97A9B4"></path>
                <path d="M40.3203,10.625 L44.0859,10.625 C44.9401,10.625 45.6615,10.7552 46.25,11.0156 C46.8438,11.276 47.2943,11.6615 47.6016,12.1719 C47.9141,12.6771 48.0703,13.2995 48.0703,14.0391 C48.0703,14.5599 47.9635,15.0365 47.75,15.4688 C47.5417,15.8958 47.2396,16.2604 46.8438,16.5625 C46.4531,16.8594 45.9844,17.0807 45.4375,17.2266 L45.0156,17.3906 L41.4766,17.3906 L41.4609,16.1641 L44.1328,16.1641 C44.6745,16.1641 45.125,16.0703 45.4844,15.8828 C45.8438,15.6901 46.1146,15.4323 46.2969,15.1094 C46.4792,14.7865 46.5703,14.4297 46.5703,14.0391 C46.5703,13.6016 46.4844,13.2188 46.3125,12.8906 C46.1406,12.5625 45.8698,12.3099 45.5,12.1328 C45.1354,11.9505 44.6641,11.8594 44.0859,11.8594 L41.8281,11.8594 L41.8281,22 L40.3203,22 L40.3203,10.625 Z M46.9688,22 L44.2031,16.8438 L45.7734,16.8359 L48.5781,21.9062 L48.5781,22 L46.9688,22 Z M55.0688,22.1562 C54.4802,22.1562 53.9464,22.0573 53.4672,21.8594 C52.9932,21.6562 52.5844,21.3724 52.2406,21.0078 C51.9021,20.6432 51.6417,20.2109 51.4594,19.7109 C51.2771,19.2109 51.1859,18.6641 51.1859,18.0703 L51.1859,17.7422 C51.1859,17.0547 51.2875,16.4427 51.4906,15.9062 C51.6938,15.3646 51.9698,14.9062 52.3188,14.5312 C52.6677,14.1562 53.0635,13.8724 53.5063,13.6797 C53.949,13.487 54.4073,13.3906 54.8813,13.3906 C55.4854,13.3906 56.0063,13.4948 56.4438,13.7031 C56.8865,13.9115 57.2484,14.2031 57.5297,14.5781 C57.8109,14.9479 58.0193,15.3854 58.1547,15.8906 C58.2901,16.3906 58.3578,16.9375 58.3578,17.5312 L58.3578,18.1797 L52.0453,18.1797 L52.0453,17 L56.9125,17 L56.9125,16.8906 C56.8917,16.5156 56.8135,16.151 56.6781,15.7969 C56.5479,15.4427 56.3396,15.151 56.0531,14.9219 C55.7667,14.6927 55.376,14.5781 54.8813,14.5781 C54.5531,14.5781 54.251,14.6484 53.975,14.7891 C53.699,14.9245 53.462,15.1276 53.2641,15.3984 C53.0661,15.6693 52.9125,16 52.8031,16.3906 C52.6938,16.7812 52.6391,17.2318 52.6391,17.7422 L52.6391,18.0703 C52.6391,18.4714 52.6938,18.849 52.8031,19.2031 C52.9177,19.5521 53.0818,19.8594 53.2953,20.125 C53.5141,20.3906 53.7771,20.599 54.0844,20.75 C54.3969,20.901 54.751,20.9766 55.1469,20.9766 C55.6573,20.9766 56.0896,20.8724 56.4438,20.6641 C56.7979,20.4557 57.1078,20.1771 57.3734,19.8281 L58.2484,20.5234 C58.0661,20.7995 57.8344,21.0625 57.5531,21.3125 C57.2719,21.5625 56.9255,21.7656 56.5141,21.9219 C56.1078,22.0781 55.626,22.1562 55.0688,22.1562 Z M66.5672,19.7578 C66.5672,19.5495 66.5203,19.3568 66.4266,19.1797 C66.338,18.9974 66.1531,18.8333 65.8719,18.6875 C65.5958,18.5365 65.1792,18.4062 64.6219,18.2969 C64.1531,18.1979 63.7286,18.0807 63.3484,17.9453 C62.9734,17.8099 62.6531,17.6458 62.3875,17.4531 C62.1271,17.2604 61.9266,17.0339 61.7859,16.7734 C61.6453,16.513 61.575,16.2083 61.575,15.8594 C61.575,15.526 61.6479,15.2109 61.7938,14.9141 C61.9448,14.6172 62.1557,14.3542 62.4266,14.125 C62.7026,13.8958 63.0333,13.7161 63.4188,13.5859 C63.8042,13.4557 64.2339,13.3906 64.7078,13.3906 C65.3849,13.3906 65.963,13.5104 66.4422,13.75 C66.9214,13.9896 67.289,14.3099 67.544,14.7109 C67.799,15.1068 67.927,15.5469 67.927,16.0312 L66.4813,16.0312 C66.4813,15.7969 66.4109,15.5703 66.2703,15.3516 C66.1349,15.1276 65.9344,14.9427 65.6688,14.7969 C65.4083,14.651 65.088,14.5781 64.7078,14.5781 C64.3068,14.5781 63.9813,14.6406 63.7313,14.7656 C63.4865,14.8854 63.3068,15.0391 63.1922,15.2266 C63.0828,15.4141 63.0281,15.612 63.0281,15.8203 C63.0281,15.9766 63.0542,16.1172 63.1063,16.2422 C63.1635,16.362 63.2625,16.474 63.4031,16.5781 C63.5438,16.6771 63.7417,16.7708 63.9969,16.8594 C64.2521,16.9479 64.5776,17.0365 64.9734,17.125 C65.6661,17.2812 66.2365,17.4688 66.6844,17.6875 C67.132,17.9062 67.466,18.1745 67.684,18.4922 C67.903,18.8099 68.013,19.1953 68.013,19.6484 C68.013,20.0182 67.934,20.3568 67.778,20.6641 C67.627,20.9714 67.406,21.237 67.114,21.4609 C66.8276,21.6797 66.4839,21.8516 66.0828,21.9766 C65.687,22.0964 65.2417,22.1562 64.7469,22.1562 C64.0021,22.1562 63.3719,22.0234 62.8563,21.7578 C62.3406,21.4922 61.95,21.1484 61.6844,20.7266 C61.4188,20.3047 61.2859,19.8594 61.2859,19.3906 L62.7391,19.3906 C62.7599,19.7865 62.8745,20.1016 63.0828,20.3359 C63.2911,20.5651 63.5464,20.7292 63.8484,20.8281 C64.1505,20.9219 64.45,20.9688 64.7469,20.9688 C65.1427,20.9688 65.4734,20.9167 65.7391,20.8125 C66.0099,20.7083 66.2156,20.5651 66.3563,20.3828 C66.4969,20.2005 66.5672,19.9922 66.5672,19.7578 Z M72.956,15.1719 L72.956,25.25 L71.503,25.25 L71.503,13.5469 L72.831,13.5469 L72.956,15.1719 Z M78.652,17.7031 L78.652,17.8672 C78.652,18.4818 78.579,19.0521 78.433,19.5781 C78.287,20.099 78.073,20.5521 77.792,20.9375 C77.516,21.3229 77.175,21.6224 76.769,21.8359 C76.362,22.0495 75.896,22.1562 75.37,22.1562 C74.834,22.1562 74.36,22.0677 73.948,21.8906 C73.537,21.7135 73.188,21.4557 72.902,21.1172 C72.615,20.7786 72.386,20.3724 72.214,19.8984 C72.047,19.4245 71.933,18.8906 71.87,18.2969 L71.87,17.4219 C71.933,16.7969 72.05,16.237 72.222,15.7422 C72.394,15.2474 72.62,14.8255 72.902,14.4766 C73.188,14.1224 73.534,13.8542 73.941,13.6719 C74.347,13.4844 74.816,13.3906 75.347,13.3906 C75.878,13.3906 76.349,13.4948 76.761,13.7031 C77.172,13.9062 77.519,14.1979 77.8,14.5781 C78.081,14.9583 78.292,15.4141 78.433,15.9453 C78.579,16.4714 78.652,17.0573 78.652,17.7031 Z M77.198,17.8672 L77.198,17.7031 C77.198,17.2812 77.154,16.8854 77.066,16.5156 C76.977,16.1406 76.839,15.8125 76.652,15.5312 C76.469,15.2448 76.235,15.0208 75.948,14.8594 C75.662,14.6927 75.321,14.6094 74.925,14.6094 C74.56,14.6094 74.243,14.6719 73.972,14.7969 C73.706,14.9219 73.48,15.0911 73.292,15.3047 C73.105,15.513 72.951,15.7526 72.831,16.0234 C72.717,16.2891 72.631,16.5651 72.573,16.8516 L72.573,18.875 C72.678,19.2396 72.823,19.5833 73.011,19.9062 C73.198,20.224 73.448,20.4818 73.761,20.6797 C74.073,20.8724 74.467,20.9688 74.941,20.9688 C75.331,20.9688 75.667,20.888 75.948,20.7266 C76.235,20.5599 76.469,20.3333 76.652,20.0469 C76.839,19.7604 76.977,19.4323 77.066,19.0625 C77.154,18.6875 77.198,18.2891 77.198,17.8672 Z M81.713,17.8672 L81.713,17.6875 C81.713,17.0781 81.801,16.513 81.978,15.9922 C82.155,15.4661 82.41,15.0104 82.744,14.625 C83.077,14.2344 83.481,13.9323 83.955,13.7188 C84.429,13.5 84.96,13.3906 85.548,13.3906 C86.142,13.3906 86.676,13.5 87.15,13.7188 C87.629,13.9323 88.035,14.2344 88.369,14.625 C88.707,15.0104 88.965,15.4661 89.142,15.9922 C89.319,16.513 89.408,17.0781 89.408,17.6875 L89.408,17.8672 C89.408,18.4766 89.319,19.0417 89.142,19.5625 C88.965,20.0833 88.707,20.5391 88.369,20.9297 C88.035,21.3151 87.632,21.6172 87.158,21.8359 C86.689,22.0495 86.158,22.1562 85.564,22.1562 C84.97,22.1562 84.436,22.0495 83.963,21.8359 C83.489,21.6172 83.082,21.3151 82.744,20.9297 C82.41,20.5391 82.155,20.0833 81.978,19.5625 C81.801,19.0417 81.713,18.4766 81.713,17.8672 Z M83.158,17.6875 L83.158,17.8672 C83.158,18.2891 83.207,18.6875 83.306,19.0625 C83.405,19.4323 83.554,19.7604 83.752,20.0469 C83.955,20.3333 84.207,20.5599 84.509,20.7266 C84.811,20.888 85.163,20.9688 85.564,20.9688 C85.96,20.9688 86.306,20.888 86.603,20.7266 C86.905,20.5599 87.155,20.3333 87.353,20.0469 C87.551,19.7604 87.699,19.4323 87.798,19.0625 C87.903,18.6875 87.955,18.2891 87.955,17.8672 L87.955,17.6875 C87.955,17.2708 87.903,16.8776 87.798,16.5078 C87.699,16.1328 87.548,15.8021 87.345,15.5156 C87.147,15.224 86.897,14.9948 86.595,14.8281 C86.298,14.6615 85.949,14.5781 85.548,14.5781 C85.153,14.5781 84.804,14.6615 84.502,14.8281 C84.205,14.9948 83.955,15.224 83.752,15.5156 C83.554,15.8021 83.405,16.1328 83.306,16.5078 C83.207,16.8776 83.158,17.2708 83.158,17.6875 Z M94.266,15.3516 L94.266,22 L92.82,22 L92.82,13.5469 L94.188,13.5469 L94.266,15.3516 Z M93.922,17.4531 L93.32,17.4297 C93.326,16.8516 93.411,16.3177 93.578,15.8281 C93.745,15.3333 93.979,14.9036 94.281,14.5391 C94.583,14.1745 94.943,13.8932 95.359,13.6953 C95.781,13.4922 96.247,13.3906 96.758,13.3906 C97.174,13.3906 97.549,13.4479 97.883,13.5625 C98.216,13.6719 98.5,13.849 98.734,14.0938 C98.974,14.3385 99.156,14.6562 99.281,15.0469 C99.406,15.4323 99.469,15.9036 99.469,16.4609 L99.469,22 L98.016,22 L98.016,16.4453 C98.016,16.0026 97.951,15.6484 97.82,15.3828 C97.69,15.112 97.5,14.9167 97.25,14.7969 C97,14.6719 96.693,14.6094 96.328,14.6094 C95.969,14.6094 95.641,14.6849 95.344,14.8359 C95.052,14.987 94.799,15.1953 94.586,15.4609 C94.378,15.7266 94.214,16.0312 94.094,16.375 C93.979,16.7135 93.922,17.0729 93.922,17.4531 Z M108.592,20.3594 L108.592,10 L110.045,10 L110.045,22 L108.717,22 L108.592,20.3594 Z M102.905,17.8672 L102.905,17.7031 C102.905,17.0573 102.983,16.4714 103.139,15.9453 C103.301,15.4141 103.527,14.9583 103.819,14.5781 C104.116,14.1979 104.467,13.9062 104.873,13.7031 C105.285,13.4948 105.743,13.3906 106.248,13.3906 C106.78,13.3906 107.243,13.4844 107.639,13.6719 C108.04,13.8542 108.379,14.1224 108.655,14.4766 C108.936,14.8255 109.157,15.2474 109.319,15.7422 C109.48,16.237 109.592,16.7969 109.655,17.4219 L109.655,18.1406 C109.597,18.7604 109.485,19.3177 109.319,19.8125 C109.157,20.3073 108.936,20.7292 108.655,21.0781 C108.379,21.4271 108.04,21.6953 107.639,21.8828 C107.238,22.0651 106.769,22.1562 106.233,22.1562 C105.738,22.1562 105.285,22.0495 104.873,21.8359 C104.467,21.6224 104.116,21.3229 103.819,20.9375 C103.527,20.5521 103.301,20.099 103.139,19.5781 C102.983,19.0521 102.905,18.4818 102.905,17.8672 Z M104.358,17.7031 L104.358,17.8672 C104.358,18.2891 104.399,18.6849 104.483,19.0547 C104.571,19.4245 104.707,19.75 104.889,20.0312 C105.071,20.3125 105.303,20.5339 105.584,20.6953 C105.866,20.8516 106.202,20.9297 106.592,20.9297 C107.071,20.9297 107.465,20.8281 107.772,20.625 C108.084,20.4219 108.334,20.1536 108.522,19.8203 C108.709,19.487 108.855,19.125 108.959,18.7344 L108.959,16.8516 C108.897,16.5651 108.806,16.2891 108.686,16.0234 C108.571,15.7526 108.42,15.513 108.233,15.3047 C108.051,15.0911 107.824,14.9219 107.553,14.7969 C107.287,14.6719 106.972,14.6094 106.608,14.6094 C106.212,14.6094 105.871,14.6927 105.584,14.8594 C105.303,15.0208 105.071,15.2448 104.889,15.5312 C104.707,15.8125 104.571,16.1406 104.483,16.5156 C104.399,16.8854 104.358,17.2812 104.358,17.7031 Z" id="Shape" fill="#FFFFFF"></path>
            </g>
        </g>
    </g>
</svg>