<svg width="393" height="36" viewBox="0 0 393 36" fill="none" xmlns="http://www.w3.org/2000/svg">
<path d="M11.5 19C11.5 13.4772 15.9772 9 21.5 9H111.727C117.25 9 121.727 13.4772 121.727 19V35H11.5V19Z" fill="#97A9B4"/>
<path d="M38.4902 18.8467H41.3145C41.9551 18.8467 42.4961 18.9443 42.9375 19.1396C43.3828 19.335 43.7207 19.624 43.9512 20.0068C44.1855 20.3857 44.3027 20.8525 44.3027 21.4072C44.3027 21.7979 44.2227 22.1553 44.0625 22.4795C43.9062 22.7998 43.6797 23.0732 43.3828 23.2998C43.0898 23.5225 42.7383 23.6885 42.3281 23.7979L42.0117 23.9209H39.3574L39.3457 23.001H41.3496C41.7559 23.001 42.0938 22.9307 42.3633 22.79C42.6328 22.6455 42.8359 22.4521 42.9727 22.21C43.1094 21.9678 43.1777 21.7002 43.1777 21.4072C43.1777 21.0791 43.1133 20.792 42.9844 20.5459C42.8555 20.2998 42.6523 20.1104 42.375 19.9775C42.1016 19.8408 41.748 19.7725 41.3145 19.7725H39.6211V27.3779H38.4902V18.8467ZM43.4766 27.3779L41.4023 23.5107L42.5801 23.5049L44.6836 27.3076V27.3779H43.4766ZM49.5516 27.4951C49.1102 27.4951 48.7098 27.4209 48.3504 27.2725C47.9949 27.1201 47.6883 26.9072 47.4305 26.6338C47.1766 26.3604 46.9812 26.0361 46.8445 25.6611C46.7078 25.2861 46.6395 24.876 46.6395 24.4307V24.1846C46.6395 23.6689 46.7156 23.21 46.868 22.8076C47.0203 22.4014 47.2273 22.0576 47.4891 21.7764C47.7508 21.4951 48.0477 21.2822 48.3797 21.1377C48.7117 20.9932 49.0555 20.9209 49.4109 20.9209C49.8641 20.9209 50.2547 20.999 50.5828 21.1553C50.9148 21.3115 51.1863 21.5303 51.3973 21.8115C51.6082 22.0889 51.7645 22.417 51.866 22.7959C51.9676 23.1709 52.0184 23.5811 52.0184 24.0264V24.5127H47.284V23.6279H50.9344V23.5459C50.9187 23.2646 50.8602 22.9912 50.7586 22.7256C50.6609 22.46 50.5047 22.2412 50.2898 22.0693C50.075 21.8975 49.782 21.8115 49.4109 21.8115C49.1648 21.8115 48.9383 21.8643 48.7312 21.9697C48.5242 22.0713 48.3465 22.2236 48.198 22.4268C48.0496 22.6299 47.9344 22.8779 47.8523 23.1709C47.7703 23.4639 47.7293 23.8018 47.7293 24.1846V24.4307C47.7293 24.7314 47.7703 25.0146 47.8523 25.2803C47.9383 25.542 48.0613 25.7725 48.2215 25.9717C48.3855 26.1709 48.5828 26.3271 48.8133 26.4404C49.0477 26.5537 49.3133 26.6104 49.6102 26.6104C49.993 26.6104 50.3172 26.5322 50.5828 26.376C50.8484 26.2197 51.0809 26.0107 51.2801 25.749L51.9363 26.2705C51.7996 26.4775 51.6258 26.6748 51.4148 26.8623C51.2039 27.0498 50.9441 27.2021 50.6355 27.3193C50.3309 27.4365 49.9695 27.4951 49.5516 27.4951ZM58.1754 25.6963C58.1754 25.54 58.1402 25.3955 58.0699 25.2627C58.0035 25.126 57.8648 25.0029 57.6539 24.8936C57.4469 24.7803 57.1344 24.6826 56.7164 24.6006C56.3648 24.5264 56.0465 24.4385 55.7613 24.3369C55.4801 24.2354 55.2398 24.1123 55.0406 23.9678C54.8453 23.8232 54.6949 23.6533 54.5895 23.458C54.484 23.2627 54.4312 23.0342 54.4312 22.7725C54.4312 22.5225 54.4859 22.2861 54.5953 22.0635C54.7086 21.8408 54.8668 21.6436 55.0699 21.4717C55.277 21.2998 55.525 21.165 55.8141 21.0674C56.1031 20.9697 56.4254 20.9209 56.7809 20.9209C57.2887 20.9209 57.7223 21.0107 58.0816 21.1904C58.441 21.3701 58.7164 21.6104 58.9078 21.9111C59.0992 22.208 59.1949 22.5381 59.1949 22.9014H58.1109C58.1109 22.7256 58.0582 22.5557 57.9527 22.3916C57.8512 22.2236 57.7008 22.085 57.5016 21.9756C57.3062 21.8662 57.066 21.8115 56.7809 21.8115C56.4801 21.8115 56.2359 21.8584 56.0484 21.9521C55.8648 22.042 55.7301 22.1572 55.6441 22.2979C55.5621 22.4385 55.5211 22.5869 55.5211 22.7432C55.5211 22.8604 55.5406 22.9658 55.5797 23.0596C55.6227 23.1494 55.6969 23.2334 55.8023 23.3115C55.9078 23.3857 56.0562 23.4561 56.2477 23.5225C56.4391 23.5889 56.6832 23.6553 56.9801 23.7217C57.4996 23.8389 57.9273 23.9795 58.2633 24.1436C58.5992 24.3076 58.8492 24.5088 59.0133 24.7471C59.1773 24.9854 59.2594 25.2744 59.2594 25.6143C59.2594 25.8916 59.2008 26.1455 59.0836 26.376C58.9703 26.6064 58.8043 26.8057 58.5855 26.9736C58.3707 27.1377 58.1129 27.2666 57.8121 27.3604C57.5152 27.4502 57.1812 27.4951 56.8102 27.4951C56.2516 27.4951 55.7789 27.3955 55.3922 27.1963C55.0055 26.9971 54.7125 26.7393 54.5133 26.4229C54.3141 26.1064 54.2145 25.7725 54.2145 25.4209H55.3043C55.3199 25.7178 55.4059 25.9541 55.5621 26.1299C55.7184 26.3018 55.9098 26.4248 56.1363 26.499C56.3629 26.5693 56.5875 26.6045 56.8102 26.6045C57.107 26.6045 57.3551 26.5654 57.5543 26.4873C57.7574 26.4092 57.9117 26.3018 58.0172 26.165C58.1227 26.0283 58.1754 25.8721 58.1754 25.6963ZM62.9672 22.2568V29.8154H61.8773V21.0381H62.8734L62.9672 22.2568ZM67.2387 24.1553V24.2783C67.2387 24.7393 67.184 25.167 67.0746 25.5615C66.9652 25.9521 66.8051 26.292 66.5941 26.5811C66.3871 26.8701 66.1313 27.0947 65.8266 27.2549C65.5219 27.415 65.1723 27.4951 64.7777 27.4951C64.3754 27.4951 64.0199 27.4287 63.7113 27.2959C63.4027 27.1631 63.141 26.9697 62.9262 26.7158C62.7113 26.4619 62.5395 26.1572 62.4105 25.8018C62.2855 25.4463 62.1996 25.0459 62.1527 24.6006V23.9443C62.1996 23.4756 62.2875 23.0557 62.4164 22.6846C62.5453 22.3135 62.7152 21.9971 62.9262 21.7354C63.141 21.4697 63.4008 21.2686 63.7055 21.1318C64.0102 20.9912 64.3617 20.9209 64.7602 20.9209C65.1586 20.9209 65.5121 20.999 65.8207 21.1553C66.1293 21.3076 66.3891 21.5264 66.6 21.8115C66.8109 22.0967 66.9691 22.4385 67.0746 22.8369C67.184 23.2314 67.2387 23.6709 67.2387 24.1553ZM66.1488 24.2783V24.1553C66.1488 23.8389 66.1156 23.542 66.0492 23.2646C65.9828 22.9834 65.8793 22.7373 65.7387 22.5264C65.602 22.3115 65.4262 22.1436 65.2113 22.0225C64.9965 21.8975 64.7406 21.835 64.4438 21.835C64.1703 21.835 63.932 21.8818 63.7289 21.9756C63.5297 22.0693 63.3598 22.1963 63.2191 22.3564C63.0785 22.5127 62.9633 22.6924 62.8734 22.8955C62.7875 23.0947 62.723 23.3018 62.6801 23.5166V25.0342C62.7582 25.3076 62.8676 25.5654 63.0082 25.8076C63.1488 26.0459 63.3363 26.2393 63.5707 26.3877C63.8051 26.5322 64.1 26.6045 64.4555 26.6045C64.7484 26.6045 65.0004 26.5439 65.2113 26.4229C65.4262 26.2979 65.602 26.1279 65.7387 25.9131C65.8793 25.6982 65.9828 25.4521 66.0492 25.1748C66.1156 24.8936 66.1488 24.5947 66.1488 24.2783ZM69.5344 24.2783V24.1436C69.5344 23.6865 69.6008 23.2627 69.7336 22.8721C69.8664 22.4775 70.0578 22.1357 70.3078 21.8467C70.5578 21.5537 70.8605 21.3271 71.216 21.167C71.5715 21.0029 71.9699 20.9209 72.4113 20.9209C72.8566 20.9209 73.257 21.0029 73.6125 21.167C73.9719 21.3271 74.2766 21.5537 74.5266 21.8467C74.7805 22.1357 74.9738 22.4775 75.1066 22.8721C75.2395 23.2627 75.3059 23.6865 75.3059 24.1436V24.2783C75.3059 24.7354 75.2395 25.1592 75.1066 25.5498C74.9738 25.9404 74.7805 26.2822 74.5266 26.5752C74.2766 26.8643 73.9738 27.0908 73.6184 27.2549C73.2668 27.415 72.8684 27.4951 72.423 27.4951C71.9777 27.4951 71.5773 27.415 71.2219 27.2549C70.8664 27.0908 70.5617 26.8643 70.3078 26.5752C70.0578 26.2822 69.8664 25.9404 69.7336 25.5498C69.6008 25.1592 69.5344 24.7354 69.5344 24.2783ZM70.6184 24.1436V24.2783C70.6184 24.5947 70.6555 24.8936 70.7297 25.1748C70.8039 25.4521 70.9152 25.6982 71.0637 25.9131C71.216 26.1279 71.4055 26.2979 71.632 26.4229C71.8586 26.5439 72.1223 26.6045 72.423 26.6045C72.7199 26.6045 72.9797 26.5439 73.2023 26.4229C73.4289 26.2979 73.6164 26.1279 73.7648 25.9131C73.9133 25.6982 74.0246 25.4521 74.0988 25.1748C74.177 24.8936 74.216 24.5947 74.216 24.2783V24.1436C74.216 23.8311 74.177 23.5361 74.0988 23.2588C74.0246 22.9775 73.9113 22.7295 73.759 22.5146C73.6105 22.2959 73.423 22.124 73.1965 21.999C72.9738 21.874 72.7121 21.8115 72.4113 21.8115C72.1145 21.8115 71.8527 21.874 71.6262 21.999C71.4035 22.124 71.216 22.2959 71.0637 22.5146C70.9152 22.7295 70.8039 22.9775 70.7297 23.2588C70.6555 23.5361 70.6184 23.8311 70.6184 24.1436ZM78.9492 22.3916V27.3779H77.8652V21.0381H78.8906L78.9492 22.3916ZM78.6914 23.9678L78.2402 23.9502C78.2441 23.5166 78.3086 23.1162 78.4336 22.749C78.5586 22.3779 78.7344 22.0557 78.9609 21.7822C79.1875 21.5088 79.457 21.2979 79.7695 21.1494C80.0859 20.9971 80.4355 20.9209 80.8184 20.9209C81.1309 20.9209 81.4121 20.9639 81.6621 21.0498C81.9121 21.1318 82.125 21.2646 82.3008 21.4482C82.4805 21.6318 82.6172 21.8701 82.7109 22.1631C82.8047 22.4521 82.8516 22.8057 82.8516 23.2236V27.3779H81.7617V23.2119C81.7617 22.8799 81.7129 22.6143 81.6152 22.415C81.5176 22.2119 81.375 22.0654 81.1875 21.9756C81 21.8818 80.7695 21.835 80.4961 21.835C80.2266 21.835 79.9805 21.8916 79.7578 22.0049C79.5391 22.1182 79.3496 22.2744 79.1895 22.4736C79.0332 22.6729 78.9102 22.9014 78.8203 23.1592C78.7344 23.4131 78.6914 23.6826 78.6914 23.9678ZM89.6941 26.1475V18.3779H90.784V27.3779H89.7879L89.6941 26.1475ZM85.4285 24.2783V24.1553C85.4285 23.6709 85.4871 23.2314 85.6043 22.8369C85.7254 22.4385 85.8953 22.0967 86.1141 21.8115C86.3367 21.5264 86.6004 21.3076 86.9051 21.1553C87.2137 20.999 87.5574 20.9209 87.9363 20.9209C88.3348 20.9209 88.6824 20.9912 88.9793 21.1318C89.2801 21.2686 89.534 21.4697 89.741 21.7354C89.952 21.9971 90.118 22.3135 90.2391 22.6846C90.3602 23.0557 90.4441 23.4756 90.491 23.9443V24.4834C90.448 24.9482 90.3641 25.3662 90.2391 25.7373C90.118 26.1084 89.952 26.4248 89.741 26.6865C89.534 26.9482 89.2801 27.1494 88.9793 27.29C88.6785 27.4268 88.327 27.4951 87.9246 27.4951C87.5535 27.4951 87.2137 27.415 86.9051 27.2549C86.6004 27.0947 86.3367 26.8701 86.1141 26.5811C85.8953 26.292 85.7254 25.9521 85.6043 25.5615C85.4871 25.167 85.4285 24.7393 85.4285 24.2783ZM86.5184 24.1553V24.2783C86.5184 24.5947 86.5496 24.8916 86.6121 25.1689C86.6785 25.4463 86.7801 25.6904 86.9168 25.9014C87.0535 26.1123 87.2273 26.2783 87.4383 26.3994C87.6492 26.5166 87.9012 26.5752 88.1941 26.5752C88.5535 26.5752 88.8484 26.499 89.0789 26.3467C89.3133 26.1943 89.5008 25.9932 89.6414 25.7432C89.782 25.4932 89.8914 25.2217 89.9695 24.9287V23.5166C89.9227 23.3018 89.8543 23.0947 89.7645 22.8955C89.6785 22.6924 89.5652 22.5127 89.4246 22.3564C89.2879 22.1963 89.118 22.0693 88.9148 21.9756C88.7156 21.8818 88.4793 21.835 88.2059 21.835C87.909 21.835 87.6531 21.8975 87.4383 22.0225C87.2273 22.1436 87.0535 22.3115 86.9168 22.5264C86.7801 22.7373 86.6785 22.9834 86.6121 23.2646C86.5496 23.542 86.5184 23.8389 86.5184 24.1553Z" fill="white"/>
<path d="M393 35H262.895C257.372 35 252.895 30.5228 252.895 25V11C252.895 5.47715 248.418 1 242.895 1H146.649C141.126 1 136.649 5.47715 136.649 11V25C136.649 30.5228 132.171 35 126.649 35H0" stroke="#4E6E81" stroke-width="2"/>
<path d="M160.859 21.834H163.057C162.986 22.6719 162.752 23.4189 162.354 24.0752C161.955 24.7256 161.396 25.2383 160.675 25.6133C159.954 25.9883 159.078 26.1758 158.047 26.1758C157.256 26.1758 156.544 26.0352 155.911 25.7539C155.278 25.4668 154.736 25.0625 154.285 24.541C153.834 24.0137 153.488 23.3779 153.248 22.6338C153.014 21.8896 152.896 21.0576 152.896 20.1377V19.0742C152.896 18.1543 153.017 17.3223 153.257 16.5781C153.503 15.834 153.854 15.1982 154.312 14.6709C154.769 14.1377 155.316 13.7305 155.955 13.4492C156.6 13.168 157.323 13.0273 158.126 13.0273C159.146 13.0273 160.007 13.2148 160.71 13.5898C161.413 13.9648 161.958 14.4834 162.345 15.1455C162.737 15.8076 162.978 16.5664 163.065 17.4219H160.868C160.81 16.8711 160.681 16.3994 160.481 16.0068C160.288 15.6143 160.001 15.3154 159.62 15.1104C159.239 14.8994 158.741 14.7939 158.126 14.7939C157.622 14.7939 157.183 14.8877 156.808 15.0752C156.433 15.2627 156.119 15.5381 155.867 15.9014C155.615 16.2646 155.425 16.7129 155.296 17.2461C155.173 17.7734 155.111 18.377 155.111 19.0566V20.1377C155.111 20.7822 155.167 21.3682 155.278 21.8955C155.396 22.417 155.571 22.8652 155.806 23.2402C156.046 23.6152 156.351 23.9053 156.72 24.1104C157.089 24.3154 157.531 24.418 158.047 24.418C158.674 24.418 159.181 24.3184 159.567 24.1191C159.96 23.9199 160.256 23.6299 160.455 23.249C160.66 22.8623 160.795 22.3906 160.859 21.834ZM166.245 21.3506V21.1484C166.245 20.4629 166.345 19.8271 166.544 19.2412C166.743 18.6494 167.03 18.1367 167.405 17.7031C167.786 17.2637 168.249 16.9238 168.794 16.6836C169.345 16.4375 169.966 16.3145 170.657 16.3145C171.355 16.3145 171.976 16.4375 172.521 16.6836C173.071 16.9238 173.537 17.2637 173.918 17.7031C174.299 18.1367 174.589 18.6494 174.788 19.2412C174.988 19.8271 175.087 20.4629 175.087 21.1484V21.3506C175.087 22.0361 174.988 22.6719 174.788 23.2578C174.589 23.8438 174.299 24.3564 173.918 24.7959C173.537 25.2295 173.074 25.5693 172.529 25.8154C171.985 26.0557 171.366 26.1758 170.675 26.1758C169.978 26.1758 169.354 26.0557 168.803 25.8154C168.258 25.5693 167.795 25.2295 167.414 24.7959C167.033 24.3564 166.743 23.8438 166.544 23.2578C166.345 22.6719 166.245 22.0361 166.245 21.3506ZM168.363 21.1484V21.3506C168.363 21.7783 168.407 22.1826 168.495 22.5635C168.583 22.9443 168.721 23.2783 168.908 23.5654C169.096 23.8525 169.336 24.0781 169.629 24.2422C169.922 24.4062 170.271 24.4883 170.675 24.4883C171.068 24.4883 171.407 24.4062 171.695 24.2422C171.988 24.0781 172.228 23.8525 172.415 23.5654C172.603 23.2783 172.74 22.9443 172.828 22.5635C172.922 22.1826 172.969 21.7783 172.969 21.3506V21.1484C172.969 20.7266 172.922 20.3281 172.828 19.9531C172.74 19.5723 172.6 19.2354 172.406 18.9424C172.219 18.6494 171.979 18.4209 171.686 18.2568C171.399 18.0869 171.056 18.002 170.657 18.002C170.259 18.002 169.913 18.0869 169.62 18.2568C169.333 18.4209 169.096 18.6494 168.908 18.9424C168.721 19.2354 168.583 19.5723 168.495 19.9531C168.407 20.3281 168.363 20.7266 168.363 21.1484ZM180.763 18.5205V26H178.645V16.4902H180.64L180.763 18.5205ZM180.385 20.8936L179.7 20.8848C179.705 20.2109 179.799 19.5928 179.981 19.0303C180.168 18.4678 180.426 17.9844 180.754 17.5801C181.088 17.1758 181.487 16.8652 181.95 16.6484C182.413 16.4258 182.928 16.3145 183.496 16.3145C183.954 16.3145 184.367 16.3789 184.736 16.5078C185.111 16.6309 185.43 16.833 185.694 17.1143C185.963 17.3955 186.168 17.7617 186.309 18.2129C186.45 18.6582 186.52 19.2061 186.52 19.8564V26H184.393V19.8477C184.393 19.3906 184.326 19.0303 184.191 18.7666C184.062 18.4971 183.871 18.3066 183.62 18.1953C183.373 18.0781 183.066 18.0195 182.697 18.0195C182.333 18.0195 182.008 18.0957 181.721 18.248C181.434 18.4004 181.191 18.6084 180.992 18.8721C180.798 19.1357 180.649 19.4404 180.543 19.7861C180.438 20.1318 180.385 20.501 180.385 20.8936ZM194.841 16.4902V18.0371H189.48V16.4902H194.841ZM191.027 14.1611H193.145V23.3721C193.145 23.665 193.186 23.8906 193.268 24.0488C193.356 24.2012 193.476 24.3037 193.629 24.3564C193.781 24.4092 193.96 24.4355 194.165 24.4355C194.311 24.4355 194.452 24.4268 194.587 24.4092C194.721 24.3916 194.83 24.374 194.912 24.3564L194.921 25.9736C194.745 26.0264 194.54 26.0732 194.305 26.1143C194.077 26.1553 193.813 26.1758 193.514 26.1758C193.028 26.1758 192.597 26.0908 192.222 25.9209C191.847 25.7451 191.554 25.4609 191.343 25.0684C191.132 24.6758 191.027 24.1543 191.027 23.5039V14.1611ZM203.638 24.0928V19.5576C203.638 19.2178 203.576 18.9248 203.453 18.6787C203.33 18.4326 203.142 18.2422 202.89 18.1074C202.644 17.9727 202.334 17.9053 201.959 17.9053C201.613 17.9053 201.314 17.9639 201.062 18.0811C200.81 18.1982 200.614 18.3564 200.473 18.5557C200.333 18.7549 200.263 18.9805 200.263 19.2324H198.153C198.153 18.8574 198.244 18.4941 198.426 18.1426C198.607 17.791 198.871 17.4775 199.217 17.2021C199.562 16.9268 199.975 16.71 200.456 16.5518C200.936 16.3936 201.475 16.3145 202.073 16.3145C202.788 16.3145 203.421 16.4346 203.971 16.6748C204.528 16.915 204.965 17.2783 205.281 17.7646C205.603 18.2451 205.764 18.8486 205.764 19.5752V23.8027C205.764 24.2363 205.794 24.626 205.852 24.9717C205.917 25.3115 206.008 25.6074 206.125 25.8594V26H203.954C203.854 25.7715 203.775 25.4814 203.717 25.1299C203.664 24.7725 203.638 24.4268 203.638 24.0928ZM203.945 20.2168L203.963 21.5264H202.442C202.05 21.5264 201.704 21.5645 201.405 21.6406C201.106 21.7109 200.857 21.8164 200.658 21.957C200.459 22.0977 200.309 22.2676 200.21 22.4668C200.11 22.666 200.06 22.8916 200.06 23.1436C200.06 23.3955 200.119 23.627 200.236 23.8379C200.353 24.043 200.523 24.2041 200.746 24.3213C200.974 24.4385 201.25 24.4971 201.572 24.4971C202.006 24.4971 202.384 24.4092 202.706 24.2334C203.034 24.0518 203.292 23.832 203.479 23.5742C203.667 23.3105 203.766 23.0615 203.778 22.8271L204.464 23.7676C204.393 24.0078 204.273 24.2656 204.103 24.541C203.933 24.8164 203.711 25.0801 203.435 25.332C203.166 25.5781 202.841 25.7803 202.46 25.9385C202.085 26.0967 201.651 26.1758 201.159 26.1758C200.538 26.1758 199.984 26.0527 199.498 25.8066C199.012 25.5547 198.631 25.2178 198.355 24.7959C198.08 24.3682 197.942 23.8848 197.942 23.3457C197.942 22.8418 198.036 22.3965 198.223 22.0098C198.417 21.6172 198.698 21.2891 199.067 21.0254C199.442 20.7617 199.899 20.5625 200.438 20.4277C200.977 20.2871 201.593 20.2168 202.284 20.2168H203.945ZM213.664 24.4883C214.01 24.4883 214.32 24.4209 214.596 24.2861C214.877 24.1455 215.103 23.9521 215.272 23.7061C215.448 23.46 215.545 23.1758 215.562 22.8535H217.558C217.546 23.4688 217.364 24.0283 217.013 24.5322C216.661 25.0361 216.195 25.4375 215.615 25.7363C215.035 26.0293 214.394 26.1758 213.69 26.1758C212.964 26.1758 212.331 26.0527 211.792 25.8066C211.253 25.5547 210.805 25.209 210.447 24.7695C210.09 24.3301 209.82 23.8232 209.639 23.249C209.463 22.6748 209.375 22.0596 209.375 21.4033V21.0957C209.375 20.4395 209.463 19.8242 209.639 19.25C209.82 18.6699 210.09 18.1602 210.447 17.7207C210.805 17.2812 211.253 16.9385 211.792 16.6924C212.331 16.4404 212.961 16.3145 213.682 16.3145C214.443 16.3145 215.111 16.4668 215.686 16.7715C216.26 17.0703 216.711 17.4893 217.039 18.0283C217.373 18.5615 217.546 19.1826 217.558 19.8916H215.562C215.545 19.54 215.457 19.2236 215.299 18.9424C215.146 18.6553 214.93 18.4268 214.648 18.2568C214.373 18.0869 214.042 18.002 213.655 18.002C213.228 18.002 212.873 18.0898 212.592 18.2656C212.311 18.4355 212.091 18.6699 211.933 18.9688C211.774 19.2617 211.66 19.5928 211.59 19.9619C211.525 20.3252 211.493 20.7031 211.493 21.0957V21.4033C211.493 21.7959 211.525 22.1768 211.59 22.5459C211.654 22.915 211.766 23.2461 211.924 23.5391C212.088 23.8262 212.311 24.0576 212.592 24.2334C212.873 24.4033 213.23 24.4883 213.664 24.4883ZM225.343 16.4902V18.0371H219.982V16.4902H225.343ZM221.529 14.1611H223.647V23.3721C223.647 23.665 223.688 23.8906 223.77 24.0488C223.858 24.2012 223.978 24.3037 224.13 24.3564C224.282 24.4092 224.461 24.4355 224.666 24.4355C224.813 24.4355 224.953 24.4268 225.088 24.4092C225.223 24.3916 225.331 24.374 225.413 24.3564L225.422 25.9736C225.246 26.0264 225.041 26.0732 224.807 26.1143C224.578 26.1553 224.315 26.1758 224.016 26.1758C223.529 26.1758 223.099 26.0908 222.724 25.9209C222.349 25.7451 222.056 25.4609 221.845 25.0684C221.634 24.6758 221.529 24.1543 221.529 23.5039V14.1611ZM234.113 23.4248C234.113 23.2139 234.06 23.0234 233.954 22.8535C233.849 22.6777 233.647 22.5195 233.348 22.3789C233.055 22.2383 232.621 22.1094 232.047 21.9922C231.543 21.8809 231.08 21.749 230.659 21.5967C230.243 21.4385 229.885 21.248 229.586 21.0254C229.287 20.8027 229.056 20.5391 228.892 20.2344C228.728 19.9297 228.646 19.5781 228.646 19.1797C228.646 18.793 228.731 18.4268 228.901 18.0811C229.071 17.7354 229.314 17.4307 229.63 17.167C229.947 16.9033 230.33 16.6953 230.782 16.543C231.239 16.3906 231.748 16.3145 232.311 16.3145C233.108 16.3145 233.79 16.4492 234.359 16.7188C234.933 16.9824 235.372 17.3428 235.677 17.7998C235.982 18.251 236.134 18.7607 236.134 19.3291H234.016C234.016 19.0771 233.952 18.8428 233.823 18.626C233.7 18.4033 233.512 18.2246 233.26 18.0898C233.008 17.9492 232.692 17.8789 232.311 17.8789C231.948 17.8789 231.646 17.9375 231.406 18.0547C231.171 18.166 230.996 18.3125 230.878 18.4941C230.767 18.6758 230.711 18.875 230.711 19.0918C230.711 19.25 230.741 19.3936 230.799 19.5225C230.864 19.6455 230.969 19.7598 231.116 19.8652C231.262 19.9648 231.461 20.0586 231.713 20.1465C231.971 20.2344 232.293 20.3193 232.68 20.4014C233.407 20.5537 234.031 20.75 234.552 20.9902C235.079 21.2246 235.484 21.5293 235.765 21.9043C236.046 22.2734 236.187 22.7422 236.187 23.3105C236.187 23.7324 236.096 24.1191 235.914 24.4707C235.739 24.8164 235.481 25.1182 235.141 25.376C234.801 25.6279 234.394 25.8242 233.919 25.9648C233.451 26.1055 232.923 26.1758 232.337 26.1758C231.476 26.1758 230.746 26.0234 230.149 25.7188C229.551 25.4082 229.097 25.0127 228.787 24.5322C228.482 24.0459 228.329 23.542 228.329 23.0205H230.377C230.401 23.4131 230.509 23.7266 230.703 23.9609C230.902 24.1895 231.148 24.3564 231.441 24.4619C231.74 24.5615 232.047 24.6113 232.364 24.6113C232.745 24.6113 233.064 24.5615 233.322 24.4619C233.579 24.3564 233.776 24.2158 233.911 24.04C234.045 23.8584 234.113 23.6533 234.113 23.4248Z" fill="#4E6E81"/>
<path d="M269.5 18C269.5 12.4772 273.977 8 279.5 8H369.727C375.25 8 379.727 12.4772 379.727 18V34H269.5V18Z" fill="#97A9B4"/>
<path d="M313.141 23.665H314.266C314.207 24.2041 314.053 24.6865 313.803 25.1123C313.553 25.5381 313.199 25.876 312.742 26.126C312.285 26.3721 311.715 26.4951 311.031 26.4951C310.531 26.4951 310.076 26.4014 309.666 26.2139C309.26 26.0264 308.91 25.7607 308.617 25.417C308.324 25.0693 308.098 24.6533 307.938 24.1689C307.781 23.6807 307.703 23.1377 307.703 22.54V21.6904C307.703 21.0928 307.781 20.5518 307.938 20.0674C308.098 19.5791 308.326 19.1611 308.623 18.8135C308.924 18.4658 309.285 18.1982 309.707 18.0107C310.129 17.8232 310.604 17.7295 311.131 17.7295C311.775 17.7295 312.32 17.8506 312.766 18.0928C313.211 18.335 313.557 18.6709 313.803 19.1006C314.053 19.5264 314.207 20.0205 314.266 20.583H313.141C313.086 20.1846 312.984 19.8428 312.836 19.5576C312.688 19.2686 312.477 19.0459 312.203 18.8896C311.93 18.7334 311.572 18.6553 311.131 18.6553C310.752 18.6553 310.418 18.7275 310.129 18.8721C309.844 19.0166 309.604 19.2217 309.408 19.4873C309.217 19.7529 309.072 20.0713 308.975 20.4424C308.877 20.8135 308.828 21.2256 308.828 21.6787V22.54C308.828 22.958 308.871 23.3506 308.957 23.7178C309.047 24.085 309.182 24.4072 309.361 24.6846C309.541 24.9619 309.77 25.1807 310.047 25.3408C310.324 25.4971 310.652 25.5752 311.031 25.5752C311.512 25.5752 311.895 25.499 312.18 25.3467C312.465 25.1943 312.68 24.9756 312.824 24.6904C312.973 24.4053 313.078 24.0635 313.141 23.665ZM317.927 17.3779V26.3779H316.843V17.3779H317.927ZM317.669 22.9678L317.218 22.9502C317.221 22.5166 317.286 22.1162 317.411 21.749C317.536 21.3779 317.712 21.0557 317.938 20.7822C318.165 20.5088 318.434 20.2979 318.747 20.1494C319.063 19.9971 319.413 19.9209 319.796 19.9209C320.108 19.9209 320.389 19.9639 320.639 20.0498C320.889 20.1318 321.102 20.2646 321.278 20.4482C321.458 20.6318 321.595 20.8701 321.688 21.1631C321.782 21.4521 321.829 21.8057 321.829 22.2236V26.3779H320.739V22.2119C320.739 21.8799 320.69 21.6143 320.593 21.415C320.495 21.2119 320.352 21.0654 320.165 20.9756C319.977 20.8818 319.747 20.835 319.473 20.835C319.204 20.835 318.958 20.8916 318.735 21.0049C318.516 21.1182 318.327 21.2744 318.167 21.4736C318.011 21.6729 317.887 21.9014 317.798 22.1592C317.712 22.4131 317.669 22.6826 317.669 22.9678ZM328.39 25.2939V22.0303C328.39 21.7803 328.339 21.5635 328.238 21.3799C328.14 21.1924 327.992 21.0479 327.793 20.9463C327.593 20.8447 327.347 20.7939 327.054 20.7939C326.781 20.7939 326.541 20.8408 326.334 20.9346C326.13 21.0283 325.97 21.1514 325.853 21.3037C325.74 21.4561 325.683 21.6201 325.683 21.7959H324.599C324.599 21.5693 324.658 21.3447 324.775 21.1221C324.892 20.8994 325.06 20.6982 325.279 20.5186C325.502 20.335 325.767 20.1904 326.076 20.085C326.388 19.9756 326.736 19.9209 327.119 19.9209C327.58 19.9209 327.986 19.999 328.337 20.1553C328.693 20.3115 328.97 20.5479 329.17 20.8643C329.373 21.1768 329.474 21.5693 329.474 22.042V24.9951C329.474 25.2061 329.492 25.4307 329.527 25.6689C329.566 25.9072 329.623 26.1123 329.697 26.2842V26.3779H328.566C328.511 26.2529 328.468 26.0869 328.437 25.8799C328.406 25.6689 328.39 25.4736 328.39 25.2939ZM328.578 22.5342L328.589 23.2959H327.494C327.185 23.2959 326.91 23.3213 326.668 23.3721C326.425 23.4189 326.222 23.4912 326.058 23.5889C325.894 23.6865 325.769 23.8096 325.683 23.958C325.597 24.1025 325.554 24.2725 325.554 24.4678C325.554 24.667 325.599 24.8486 325.689 25.0127C325.779 25.1768 325.914 25.3076 326.093 25.4053C326.277 25.499 326.502 25.5459 326.767 25.5459C327.099 25.5459 327.392 25.4756 327.646 25.335C327.9 25.1943 328.101 25.0225 328.25 24.8193C328.402 24.6162 328.484 24.4189 328.496 24.2275L328.959 24.749C328.931 24.9131 328.857 25.0947 328.736 25.2939C328.615 25.4932 328.453 25.6846 328.25 25.8682C328.05 26.0479 327.812 26.1982 327.535 26.3193C327.261 26.4365 326.953 26.4951 326.609 26.4951C326.179 26.4951 325.802 26.4111 325.478 26.2432C325.158 26.0752 324.908 25.8506 324.728 25.5693C324.552 25.2842 324.464 24.9658 324.464 24.6143C324.464 24.2744 324.531 23.9756 324.664 23.7178C324.796 23.4561 324.988 23.2393 325.238 23.0674C325.488 22.8916 325.789 22.7588 326.14 22.6689C326.492 22.5791 326.884 22.5342 327.318 22.5342H328.578ZM335.034 20.0381V20.8701H331.606V20.0381H335.034ZM332.766 18.4971H333.85V24.8076C333.85 25.0225 333.883 25.1846 333.95 25.2939C334.016 25.4033 334.102 25.4756 334.207 25.5107C334.313 25.5459 334.426 25.5635 334.547 25.5635C334.637 25.5635 334.731 25.5557 334.829 25.54C334.93 25.5205 335.006 25.5049 335.057 25.4932L335.063 26.3779C334.977 26.4053 334.864 26.4307 334.723 26.4541C334.586 26.4814 334.42 26.4951 334.225 26.4951C333.959 26.4951 333.715 26.4424 333.493 26.3369C333.27 26.2314 333.092 26.0557 332.959 25.8096C332.83 25.5596 332.766 25.2236 332.766 24.8018V18.4971ZM341.196 24.6963C341.196 24.54 341.161 24.3955 341.091 24.2627C341.025 24.126 340.886 24.0029 340.675 23.8936C340.468 23.7803 340.155 23.6826 339.737 23.6006C339.386 23.5264 339.068 23.4385 338.782 23.3369C338.501 23.2354 338.261 23.1123 338.062 22.9678C337.866 22.8232 337.716 22.6533 337.611 22.458C337.505 22.2627 337.452 22.0342 337.452 21.7725C337.452 21.5225 337.507 21.2861 337.616 21.0635C337.73 20.8408 337.888 20.6436 338.091 20.4717C338.298 20.2998 338.546 20.165 338.835 20.0674C339.124 19.9697 339.446 19.9209 339.802 19.9209C340.31 19.9209 340.743 20.0107 341.103 20.1904C341.462 20.3701 341.737 20.6104 341.929 20.9111C342.12 21.208 342.216 21.5381 342.216 21.9014H341.132C341.132 21.7256 341.079 21.5557 340.974 21.3916C340.872 21.2236 340.722 21.085 340.523 20.9756C340.327 20.8662 340.087 20.8115 339.802 20.8115C339.501 20.8115 339.257 20.8584 339.07 20.9521C338.886 21.042 338.751 21.1572 338.665 21.2979C338.583 21.4385 338.542 21.5869 338.542 21.7432C338.542 21.8604 338.562 21.9658 338.601 22.0596C338.644 22.1494 338.718 22.2334 338.823 22.3115C338.929 22.3857 339.077 22.4561 339.269 22.5225C339.46 22.5889 339.704 22.6553 340.001 22.7217C340.521 22.8389 340.948 22.9795 341.284 23.1436C341.62 23.3076 341.87 23.5088 342.034 23.7471C342.198 23.9854 342.28 24.2744 342.28 24.6143C342.28 24.8916 342.222 25.1455 342.105 25.376C341.991 25.6064 341.825 25.8057 341.607 25.9736C341.392 26.1377 341.134 26.2666 340.833 26.3604C340.536 26.4502 340.202 26.4951 339.831 26.4951C339.273 26.4951 338.8 26.3955 338.413 26.1963C338.027 25.9971 337.734 25.7393 337.534 25.4229C337.335 25.1064 337.236 24.7725 337.236 24.4209H338.325C338.341 24.7178 338.427 24.9541 338.583 25.1299C338.739 25.3018 338.931 25.4248 339.157 25.499C339.384 25.5693 339.609 25.6045 339.831 25.6045C340.128 25.6045 340.376 25.5654 340.575 25.4873C340.779 25.4092 340.933 25.3018 341.038 25.165C341.144 25.0283 341.196 24.8721 341.196 24.6963Z" fill="white"/>
</svg>
