<svg width="393" height="36" viewBox="0 0 393 36" fill="none" xmlns="http://www.w3.org/2000/svg">
<path d="M11.5 19C11.5 13.4772 15.9772 9 21.5 9H111.727C117.25 9 121.727 13.4772 121.727 19V35H11.5V19Z" fill="#97A9B4"/>
<path d="M40.3469 18.4688H43.1711C43.8117 18.4688 44.3527 18.5664 44.7941 18.7617C45.2395 18.957 45.5773 19.2461 45.8078 19.6289C46.0422 20.0078 46.1594 20.4746 46.1594 21.0293C46.1594 21.4199 46.0793 21.7773 45.9191 22.1016C45.7629 22.4219 45.5363 22.6953 45.2395 22.9219C44.9465 23.1445 44.5949 23.3105 44.1848 23.4199L43.8684 23.543H41.2141L41.2023 22.623H43.2062C43.6125 22.623 43.9504 22.5527 44.2199 22.4121C44.4895 22.2676 44.6926 22.0742 44.8293 21.832C44.966 21.5898 45.0344 21.3223 45.0344 21.0293C45.0344 20.7012 44.9699 20.4141 44.841 20.168C44.7121 19.9219 44.509 19.7324 44.2316 19.5996C43.9582 19.4629 43.6047 19.3945 43.1711 19.3945H41.4777V27H40.3469V18.4688ZM45.3332 27L43.259 23.1328L44.4367 23.127L46.5402 26.9297V27H45.3332ZM51.4082 27.1172C50.9668 27.1172 50.5664 27.043 50.207 26.8945C49.8516 26.7422 49.5449 26.5293 49.2871 26.2559C49.0332 25.9824 48.8379 25.6582 48.7012 25.2832C48.5645 24.9082 48.4961 24.498 48.4961 24.0527V23.8066C48.4961 23.291 48.5723 22.832 48.7246 22.4297C48.877 22.0234 49.084 21.6797 49.3457 21.3984C49.6074 21.1172 49.9043 20.9043 50.2363 20.7598C50.5684 20.6152 50.9121 20.543 51.2676 20.543C51.7207 20.543 52.1113 20.6211 52.4395 20.7773C52.7715 20.9336 53.043 21.1523 53.2539 21.4336C53.4648 21.7109 53.6211 22.0391 53.7227 22.418C53.8242 22.793 53.875 23.2031 53.875 23.6484V24.1348H49.1406V23.25H52.791V23.168C52.7754 22.8867 52.7168 22.6133 52.6152 22.3477C52.5176 22.082 52.3613 21.8633 52.1465 21.6914C51.9316 21.5195 51.6387 21.4336 51.2676 21.4336C51.0215 21.4336 50.7949 21.4863 50.5879 21.5918C50.3809 21.6934 50.2031 21.8457 50.0547 22.0488C49.9062 22.252 49.791 22.5 49.709 22.793C49.627 23.0859 49.5859 23.4238 49.5859 23.8066V24.0527C49.5859 24.3535 49.627 24.6367 49.709 24.9023C49.7949 25.1641 49.918 25.3945 50.0781 25.5938C50.2422 25.793 50.4395 25.9492 50.6699 26.0625C50.9043 26.1758 51.1699 26.2324 51.4668 26.2324C51.8496 26.2324 52.1738 26.1543 52.4395 25.998C52.7051 25.8418 52.9375 25.6328 53.1367 25.3711L53.793 25.8926C53.6562 26.0996 53.4824 26.2969 53.2715 26.4844C53.0605 26.6719 52.8008 26.8242 52.4922 26.9414C52.1875 27.0586 51.8262 27.1172 51.4082 27.1172ZM60.3309 29.4375V21.8789L60.4246 20.6602H61.4207V29.4375H60.3309ZM56.0711 23.9004V23.7773C56.0711 23.293 56.1277 22.8535 56.241 22.459C56.3543 22.0605 56.5203 21.7188 56.7391 21.4336C56.9578 21.1484 57.2215 20.9297 57.5301 20.7773C57.8426 20.6211 58.198 20.543 58.5965 20.543C58.9949 20.543 59.3445 20.6133 59.6453 20.7539C59.95 20.8906 60.2078 21.0918 60.4187 21.3574C60.6336 21.6191 60.8035 21.9355 60.9285 22.3066C61.0535 22.6777 61.1395 23.0977 61.1863 23.5664V24.1055C61.1434 24.5703 61.0594 24.9883 60.9344 25.3594C60.8094 25.7305 60.6395 26.0469 60.4246 26.3086C60.2137 26.5703 59.9539 26.7715 59.6453 26.9121C59.3406 27.0488 58.9871 27.1172 58.5848 27.1172C58.1941 27.1172 57.8426 27.0371 57.5301 26.877C57.2215 26.7168 56.9578 26.4922 56.7391 26.2031C56.5242 25.9141 56.3582 25.5742 56.241 25.1836C56.1277 24.7891 56.0711 24.3613 56.0711 23.9004ZM57.1609 23.7773V23.9004C57.1609 24.2168 57.1941 24.5156 57.2605 24.7969C57.327 25.0742 57.4285 25.3203 57.5652 25.5352C57.7059 25.75 57.8816 25.9199 58.0926 26.0449C58.3074 26.166 58.5613 26.2266 58.8543 26.2266C59.2137 26.2266 59.5125 26.1484 59.7508 25.9922C59.993 25.8359 60.1863 25.6309 60.3309 25.377C60.4754 25.1191 60.5867 24.8438 60.6648 24.5508V23.1387C60.6219 22.9238 60.5535 22.7148 60.4598 22.5117C60.3699 22.3086 60.2527 22.127 60.1082 21.9668C59.9637 21.8027 59.7879 21.6738 59.5809 21.5801C59.3777 21.4824 59.1395 21.4336 58.866 21.4336C58.5691 21.4336 58.3133 21.4961 58.0984 21.6211C57.8836 21.7461 57.7059 21.918 57.5652 22.1367C57.4285 22.3516 57.327 22.5996 57.2605 22.8809C57.1941 23.1621 57.1609 23.4609 57.1609 23.7773ZM68.2398 25.5352V20.6602H69.3297V27H68.2926L68.2398 25.5352ZM68.4449 24.1992L68.8961 24.1875C68.8961 24.6094 68.8512 25 68.7613 25.3594C68.6754 25.7148 68.5348 26.0234 68.3395 26.2852C68.1441 26.5469 67.8883 26.752 67.5719 26.9004C67.2555 27.0449 66.8707 27.1172 66.4176 27.1172C66.109 27.1172 65.8258 27.0723 65.568 26.9824C65.3141 26.8926 65.0953 26.7539 64.9117 26.5664C64.7281 26.3789 64.5855 26.1348 64.484 25.834C64.3863 25.5332 64.3375 25.1719 64.3375 24.75V20.6602H65.4215V24.7617C65.4215 25.0469 65.4527 25.2832 65.5152 25.4707C65.5816 25.6543 65.6695 25.8008 65.7789 25.9102C65.8922 26.0156 66.0172 26.0898 66.1539 26.1328C66.2945 26.1758 66.4391 26.1973 66.5875 26.1973C67.0484 26.1973 67.4137 26.1094 67.6832 25.9336C67.9527 25.7539 68.1461 25.5137 68.2633 25.2129C68.3844 24.9082 68.4449 24.5703 68.4449 24.1992ZM74.8129 27.1172C74.3715 27.1172 73.9711 27.043 73.6117 26.8945C73.2562 26.7422 72.9496 26.5293 72.6918 26.2559C72.4379 25.9824 72.2426 25.6582 72.1059 25.2832C71.9691 24.9082 71.9008 24.498 71.9008 24.0527V23.8066C71.9008 23.291 71.977 22.832 72.1293 22.4297C72.2816 22.0234 72.4887 21.6797 72.7504 21.3984C73.0121 21.1172 73.309 20.9043 73.641 20.7598C73.973 20.6152 74.3168 20.543 74.6723 20.543C75.1254 20.543 75.516 20.6211 75.8441 20.7773C76.1762 20.9336 76.4477 21.1523 76.6586 21.4336C76.8695 21.7109 77.0258 22.0391 77.1273 22.418C77.2289 22.793 77.2797 23.2031 77.2797 23.6484V24.1348H72.5453V23.25H76.1957V23.168C76.1801 22.8867 76.1215 22.6133 76.0199 22.3477C75.9223 22.082 75.766 21.8633 75.5512 21.6914C75.3363 21.5195 75.0434 21.4336 74.6723 21.4336C74.4262 21.4336 74.1996 21.4863 73.9926 21.5918C73.7855 21.6934 73.6078 21.8457 73.4594 22.0488C73.3109 22.252 73.1957 22.5 73.1137 22.793C73.0316 23.0859 72.9906 23.4238 72.9906 23.8066V24.0527C72.9906 24.3535 73.0316 24.6367 73.1137 24.9023C73.1996 25.1641 73.3227 25.3945 73.4828 25.5938C73.6469 25.793 73.8441 25.9492 74.0746 26.0625C74.309 26.1758 74.5746 26.2324 74.8715 26.2324C75.2543 26.2324 75.5785 26.1543 75.8441 25.998C76.1098 25.8418 76.3422 25.6328 76.5414 25.3711L77.1977 25.8926C77.0609 26.0996 76.8871 26.2969 76.6762 26.4844C76.4652 26.6719 76.2055 26.8242 75.8969 26.9414C75.5922 27.0586 75.2309 27.1172 74.8129 27.1172ZM83.4367 25.3184C83.4367 25.1621 83.4016 25.0176 83.3312 24.8848C83.2648 24.748 83.1262 24.625 82.9152 24.5156C82.7082 24.4023 82.3957 24.3047 81.9777 24.2227C81.6262 24.1484 81.3078 24.0605 81.0227 23.959C80.7414 23.8574 80.5012 23.7344 80.302 23.5898C80.1066 23.4453 79.9562 23.2754 79.8508 23.0801C79.7453 22.8848 79.6926 22.6562 79.6926 22.3945C79.6926 22.1445 79.7473 21.9082 79.8566 21.6855C79.9699 21.4629 80.1281 21.2656 80.3312 21.0938C80.5383 20.9219 80.7863 20.7871 81.0754 20.6895C81.3645 20.5918 81.6867 20.543 82.0422 20.543C82.55 20.543 82.9836 20.6328 83.343 20.8125C83.7023 20.9922 83.9777 21.2324 84.1691 21.5332C84.3605 21.8301 84.4562 22.1602 84.4562 22.5234H83.3723C83.3723 22.3477 83.3195 22.1777 83.2141 22.0137C83.1125 21.8457 82.9621 21.707 82.7629 21.5977C82.5676 21.4883 82.3273 21.4336 82.0422 21.4336C81.7414 21.4336 81.4973 21.4805 81.3098 21.5742C81.1262 21.6641 80.9914 21.7793 80.9055 21.9199C80.8234 22.0605 80.7824 22.209 80.7824 22.3652C80.7824 22.4824 80.802 22.5879 80.841 22.6816C80.884 22.7715 80.9582 22.8555 81.0637 22.9336C81.1691 23.0078 81.3176 23.0781 81.509 23.1445C81.7004 23.2109 81.9445 23.2773 82.2414 23.3438C82.7609 23.4609 83.1887 23.6016 83.5246 23.7656C83.8605 23.9297 84.1105 24.1309 84.2746 24.3691C84.4387 24.6074 84.5207 24.8965 84.5207 25.2363C84.5207 25.5137 84.4621 25.7676 84.3449 25.998C84.2316 26.2285 84.0656 26.4277 83.8469 26.5957C83.632 26.7598 83.3742 26.8887 83.0734 26.9824C82.7766 27.0723 82.4426 27.1172 82.0715 27.1172C81.5129 27.1172 81.0402 27.0176 80.6535 26.8184C80.2668 26.6191 79.9738 26.3613 79.7746 26.0449C79.5754 25.7285 79.4758 25.3945 79.4758 25.043H80.5656C80.5812 25.3398 80.6672 25.5762 80.8234 25.752C80.9797 25.9238 81.1711 26.0469 81.3977 26.1211C81.6242 26.1914 81.8488 26.2266 82.0715 26.2266C82.3684 26.2266 82.6164 26.1875 82.8156 26.1094C83.0187 26.0312 83.173 25.9238 83.2785 25.7871C83.384 25.6504 83.4367 25.4941 83.4367 25.3184ZM89.7988 20.6602V21.4922H86.3711V20.6602H89.7988ZM87.5312 19.1191H88.6152V25.4297C88.6152 25.6445 88.6484 25.8066 88.7148 25.916C88.7812 26.0254 88.8672 26.0977 88.9727 26.1328C89.0781 26.168 89.1914 26.1855 89.3125 26.1855C89.4023 26.1855 89.4961 26.1777 89.5938 26.1621C89.6953 26.1426 89.7715 26.127 89.8223 26.1152L89.8281 27C89.7422 27.0273 89.6289 27.0527 89.4883 27.0762C89.3516 27.1035 89.1855 27.1172 88.9902 27.1172C88.7246 27.1172 88.4805 27.0645 88.2578 26.959C88.0352 26.8535 87.8574 26.6777 87.7246 26.4316C87.5957 26.1816 87.5312 25.8457 87.5312 25.4238V19.1191ZM95.9617 25.3184C95.9617 25.1621 95.9266 25.0176 95.8563 24.8848C95.7898 24.748 95.6512 24.625 95.4402 24.5156C95.2332 24.4023 94.9207 24.3047 94.5027 24.2227C94.1512 24.1484 93.8328 24.0605 93.5477 23.959C93.2664 23.8574 93.0262 23.7344 92.827 23.5898C92.6316 23.4453 92.4813 23.2754 92.3758 23.0801C92.2703 22.8848 92.2176 22.6562 92.2176 22.3945C92.2176 22.1445 92.2723 21.9082 92.3816 21.6855C92.4949 21.4629 92.6531 21.2656 92.8563 21.0938C93.0633 20.9219 93.3113 20.7871 93.6004 20.6895C93.8895 20.5918 94.2117 20.543 94.5672 20.543C95.075 20.543 95.5086 20.6328 95.868 20.8125C96.2273 20.9922 96.5027 21.2324 96.6941 21.5332C96.8855 21.8301 96.9813 22.1602 96.9813 22.5234H95.8973C95.8973 22.3477 95.8445 22.1777 95.7391 22.0137C95.6375 21.8457 95.4871 21.707 95.2879 21.5977C95.0926 21.4883 94.8523 21.4336 94.5672 21.4336C94.2664 21.4336 94.0223 21.4805 93.8348 21.5742C93.6512 21.6641 93.5164 21.7793 93.4305 21.9199C93.3484 22.0605 93.3074 22.209 93.3074 22.3652C93.3074 22.4824 93.327 22.5879 93.366 22.6816C93.409 22.7715 93.4832 22.8555 93.5887 22.9336C93.6941 23.0078 93.8426 23.0781 94.034 23.1445C94.2254 23.2109 94.4695 23.2773 94.7664 23.3438C95.2859 23.4609 95.7137 23.6016 96.0496 23.7656C96.3855 23.9297 96.6355 24.1309 96.7996 24.3691C96.9637 24.6074 97.0457 24.8965 97.0457 25.2363C97.0457 25.5137 96.9871 25.7676 96.8699 25.998C96.7566 26.2285 96.5906 26.4277 96.3719 26.5957C96.157 26.7598 95.8992 26.8887 95.5984 26.9824C95.3016 27.0723 94.9676 27.1172 94.5965 27.1172C94.0379 27.1172 93.5652 27.0176 93.1785 26.8184C92.7918 26.6191 92.4988 26.3613 92.2996 26.0449C92.1004 25.7285 92.0008 25.3945 92.0008 25.043H93.0906C93.1063 25.3398 93.1922 25.5762 93.3484 25.752C93.5047 25.9238 93.6961 26.0469 93.9227 26.1211C94.1492 26.1914 94.3738 26.2266 94.5965 26.2266C94.8934 26.2266 95.1414 26.1875 95.3406 26.1094C95.5438 26.0312 95.698 25.9238 95.8035 25.7871C95.909 25.6504 95.9617 25.4941 95.9617 25.3184Z" fill="white"/>
<path d="M393 35H262.895C257.372 35 252.895 30.5228 252.895 25V11C252.895 5.47715 248.418 1 242.895 1H146.649C141.126 1 136.649 5.47715 136.649 11V25C136.649 30.5228 132.171 35 126.649 35H0" stroke="#4E6E81" stroke-width="2"/>
<path d="M160.859 21.834H163.057C162.986 22.6719 162.752 23.4189 162.354 24.0752C161.955 24.7256 161.396 25.2383 160.675 25.6133C159.954 25.9883 159.078 26.1758 158.047 26.1758C157.256 26.1758 156.544 26.0352 155.911 25.7539C155.278 25.4668 154.736 25.0625 154.285 24.541C153.834 24.0137 153.488 23.3779 153.248 22.6338C153.014 21.8896 152.896 21.0576 152.896 20.1377V19.0742C152.896 18.1543 153.017 17.3223 153.257 16.5781C153.503 15.834 153.854 15.1982 154.312 14.6709C154.769 14.1377 155.316 13.7305 155.955 13.4492C156.6 13.168 157.323 13.0273 158.126 13.0273C159.146 13.0273 160.007 13.2148 160.71 13.5898C161.413 13.9648 161.958 14.4834 162.345 15.1455C162.737 15.8076 162.978 16.5664 163.065 17.4219H160.868C160.81 16.8711 160.681 16.3994 160.481 16.0068C160.288 15.6143 160.001 15.3154 159.62 15.1104C159.239 14.8994 158.741 14.7939 158.126 14.7939C157.622 14.7939 157.183 14.8877 156.808 15.0752C156.433 15.2627 156.119 15.5381 155.867 15.9014C155.615 16.2646 155.425 16.7129 155.296 17.2461C155.173 17.7734 155.111 18.377 155.111 19.0566V20.1377C155.111 20.7822 155.167 21.3682 155.278 21.8955C155.396 22.417 155.571 22.8652 155.806 23.2402C156.046 23.6152 156.351 23.9053 156.72 24.1104C157.089 24.3154 157.531 24.418 158.047 24.418C158.674 24.418 159.181 24.3184 159.567 24.1191C159.96 23.9199 160.256 23.6299 160.455 23.249C160.66 22.8623 160.795 22.3906 160.859 21.834ZM166.245 21.3506V21.1484C166.245 20.4629 166.345 19.8271 166.544 19.2412C166.743 18.6494 167.03 18.1367 167.405 17.7031C167.786 17.2637 168.249 16.9238 168.794 16.6836C169.345 16.4375 169.966 16.3145 170.657 16.3145C171.355 16.3145 171.976 16.4375 172.521 16.6836C173.071 16.9238 173.537 17.2637 173.918 17.7031C174.299 18.1367 174.589 18.6494 174.788 19.2412C174.988 19.8271 175.087 20.4629 175.087 21.1484V21.3506C175.087 22.0361 174.988 22.6719 174.788 23.2578C174.589 23.8438 174.299 24.3564 173.918 24.7959C173.537 25.2295 173.074 25.5693 172.529 25.8154C171.985 26.0557 171.366 26.1758 170.675 26.1758C169.978 26.1758 169.354 26.0557 168.803 25.8154C168.258 25.5693 167.795 25.2295 167.414 24.7959C167.033 24.3564 166.743 23.8438 166.544 23.2578C166.345 22.6719 166.245 22.0361 166.245 21.3506ZM168.363 21.1484V21.3506C168.363 21.7783 168.407 22.1826 168.495 22.5635C168.583 22.9443 168.721 23.2783 168.908 23.5654C169.096 23.8525 169.336 24.0781 169.629 24.2422C169.922 24.4062 170.271 24.4883 170.675 24.4883C171.068 24.4883 171.407 24.4062 171.695 24.2422C171.988 24.0781 172.228 23.8525 172.415 23.5654C172.603 23.2783 172.74 22.9443 172.828 22.5635C172.922 22.1826 172.969 21.7783 172.969 21.3506V21.1484C172.969 20.7266 172.922 20.3281 172.828 19.9531C172.74 19.5723 172.6 19.2354 172.406 18.9424C172.219 18.6494 171.979 18.4209 171.686 18.2568C171.399 18.0869 171.056 18.002 170.657 18.002C170.259 18.002 169.913 18.0869 169.62 18.2568C169.333 18.4209 169.096 18.6494 168.908 18.9424C168.721 19.2354 168.583 19.5723 168.495 19.9531C168.407 20.3281 168.363 20.7266 168.363 21.1484ZM180.763 18.5205V26H178.645V16.4902H180.64L180.763 18.5205ZM180.385 20.8936L179.7 20.8848C179.705 20.2109 179.799 19.5928 179.981 19.0303C180.168 18.4678 180.426 17.9844 180.754 17.5801C181.088 17.1758 181.487 16.8652 181.95 16.6484C182.413 16.4258 182.928 16.3145 183.496 16.3145C183.954 16.3145 184.367 16.3789 184.736 16.5078C185.111 16.6309 185.43 16.833 185.694 17.1143C185.963 17.3955 186.168 17.7617 186.309 18.2129C186.45 18.6582 186.52 19.2061 186.52 19.8564V26H184.393V19.8477C184.393 19.3906 184.326 19.0303 184.191 18.7666C184.062 18.4971 183.871 18.3066 183.62 18.1953C183.373 18.0781 183.066 18.0195 182.697 18.0195C182.333 18.0195 182.008 18.0957 181.721 18.248C181.434 18.4004 181.191 18.6084 180.992 18.8721C180.798 19.1357 180.649 19.4404 180.543 19.7861C180.438 20.1318 180.385 20.501 180.385 20.8936ZM194.841 16.4902V18.0371H189.48V16.4902H194.841ZM191.027 14.1611H193.145V23.3721C193.145 23.665 193.186 23.8906 193.268 24.0488C193.356 24.2012 193.476 24.3037 193.629 24.3564C193.781 24.4092 193.96 24.4355 194.165 24.4355C194.311 24.4355 194.452 24.4268 194.587 24.4092C194.721 24.3916 194.83 24.374 194.912 24.3564L194.921 25.9736C194.745 26.0264 194.54 26.0732 194.305 26.1143C194.077 26.1553 193.813 26.1758 193.514 26.1758C193.028 26.1758 192.597 26.0908 192.222 25.9209C191.847 25.7451 191.554 25.4609 191.343 25.0684C191.132 24.6758 191.027 24.1543 191.027 23.5039V14.1611ZM203.638 24.0928V19.5576C203.638 19.2178 203.576 18.9248 203.453 18.6787C203.33 18.4326 203.142 18.2422 202.89 18.1074C202.644 17.9727 202.334 17.9053 201.959 17.9053C201.613 17.9053 201.314 17.9639 201.062 18.0811C200.81 18.1982 200.614 18.3564 200.473 18.5557C200.333 18.7549 200.263 18.9805 200.263 19.2324H198.153C198.153 18.8574 198.244 18.4941 198.426 18.1426C198.607 17.791 198.871 17.4775 199.217 17.2021C199.562 16.9268 199.975 16.71 200.456 16.5518C200.936 16.3936 201.475 16.3145 202.073 16.3145C202.788 16.3145 203.421 16.4346 203.971 16.6748C204.528 16.915 204.965 17.2783 205.281 17.7646C205.603 18.2451 205.764 18.8486 205.764 19.5752V23.8027C205.764 24.2363 205.794 24.626 205.852 24.9717C205.917 25.3115 206.008 25.6074 206.125 25.8594V26H203.954C203.854 25.7715 203.775 25.4814 203.717 25.1299C203.664 24.7725 203.638 24.4268 203.638 24.0928ZM203.945 20.2168L203.963 21.5264H202.442C202.05 21.5264 201.704 21.5645 201.405 21.6406C201.106 21.7109 200.857 21.8164 200.658 21.957C200.459 22.0977 200.309 22.2676 200.21 22.4668C200.11 22.666 200.06 22.8916 200.06 23.1436C200.06 23.3955 200.119 23.627 200.236 23.8379C200.353 24.043 200.523 24.2041 200.746 24.3213C200.974 24.4385 201.25 24.4971 201.572 24.4971C202.006 24.4971 202.384 24.4092 202.706 24.2334C203.034 24.0518 203.292 23.832 203.479 23.5742C203.667 23.3105 203.766 23.0615 203.778 22.8271L204.464 23.7676C204.393 24.0078 204.273 24.2656 204.103 24.541C203.933 24.8164 203.711 25.0801 203.435 25.332C203.166 25.5781 202.841 25.7803 202.46 25.9385C202.085 26.0967 201.651 26.1758 201.159 26.1758C200.538 26.1758 199.984 26.0527 199.498 25.8066C199.012 25.5547 198.631 25.2178 198.355 24.7959C198.08 24.3682 197.942 23.8848 197.942 23.3457C197.942 22.8418 198.036 22.3965 198.223 22.0098C198.417 21.6172 198.698 21.2891 199.067 21.0254C199.442 20.7617 199.899 20.5625 200.438 20.4277C200.977 20.2871 201.593 20.2168 202.284 20.2168H203.945ZM213.664 24.4883C214.01 24.4883 214.32 24.4209 214.596 24.2861C214.877 24.1455 215.103 23.9521 215.272 23.7061C215.448 23.46 215.545 23.1758 215.562 22.8535H217.558C217.546 23.4688 217.364 24.0283 217.013 24.5322C216.661 25.0361 216.195 25.4375 215.615 25.7363C215.035 26.0293 214.394 26.1758 213.69 26.1758C212.964 26.1758 212.331 26.0527 211.792 25.8066C211.253 25.5547 210.805 25.209 210.447 24.7695C210.09 24.3301 209.82 23.8232 209.639 23.249C209.463 22.6748 209.375 22.0596 209.375 21.4033V21.0957C209.375 20.4395 209.463 19.8242 209.639 19.25C209.82 18.6699 210.09 18.1602 210.447 17.7207C210.805 17.2812 211.253 16.9385 211.792 16.6924C212.331 16.4404 212.961 16.3145 213.682 16.3145C214.443 16.3145 215.111 16.4668 215.686 16.7715C216.26 17.0703 216.711 17.4893 217.039 18.0283C217.373 18.5615 217.546 19.1826 217.558 19.8916H215.562C215.545 19.54 215.457 19.2236 215.299 18.9424C215.146 18.6553 214.93 18.4268 214.648 18.2568C214.373 18.0869 214.042 18.002 213.655 18.002C213.228 18.002 212.873 18.0898 212.592 18.2656C212.311 18.4355 212.091 18.6699 211.933 18.9688C211.774 19.2617 211.66 19.5928 211.59 19.9619C211.525 20.3252 211.493 20.7031 211.493 21.0957V21.4033C211.493 21.7959 211.525 22.1768 211.59 22.5459C211.654 22.915 211.766 23.2461 211.924 23.5391C212.088 23.8262 212.311 24.0576 212.592 24.2334C212.873 24.4033 213.23 24.4883 213.664 24.4883ZM225.343 16.4902V18.0371H219.982V16.4902H225.343ZM221.529 14.1611H223.647V23.3721C223.647 23.665 223.688 23.8906 223.77 24.0488C223.858 24.2012 223.978 24.3037 224.13 24.3564C224.282 24.4092 224.461 24.4355 224.666 24.4355C224.813 24.4355 224.953 24.4268 225.088 24.4092C225.223 24.3916 225.331 24.374 225.413 24.3564L225.422 25.9736C225.246 26.0264 225.041 26.0732 224.807 26.1143C224.578 26.1553 224.315 26.1758 224.016 26.1758C223.529 26.1758 223.099 26.0908 222.724 25.9209C222.349 25.7451 222.056 25.4609 221.845 25.0684C221.634 24.6758 221.529 24.1543 221.529 23.5039V14.1611ZM234.113 23.4248C234.113 23.2139 234.06 23.0234 233.954 22.8535C233.849 22.6777 233.647 22.5195 233.348 22.3789C233.055 22.2383 232.621 22.1094 232.047 21.9922C231.543 21.8809 231.08 21.749 230.659 21.5967C230.243 21.4385 229.885 21.248 229.586 21.0254C229.287 20.8027 229.056 20.5391 228.892 20.2344C228.728 19.9297 228.646 19.5781 228.646 19.1797C228.646 18.793 228.731 18.4268 228.901 18.0811C229.071 17.7354 229.314 17.4307 229.63 17.167C229.947 16.9033 230.33 16.6953 230.782 16.543C231.239 16.3906 231.748 16.3145 232.311 16.3145C233.108 16.3145 233.79 16.4492 234.359 16.7188C234.933 16.9824 235.372 17.3428 235.677 17.7998C235.982 18.251 236.134 18.7607 236.134 19.3291H234.016C234.016 19.0771 233.952 18.8428 233.823 18.626C233.7 18.4033 233.512 18.2246 233.26 18.0898C233.008 17.9492 232.692 17.8789 232.311 17.8789C231.948 17.8789 231.646 17.9375 231.406 18.0547C231.171 18.166 230.996 18.3125 230.878 18.4941C230.767 18.6758 230.711 18.875 230.711 19.0918C230.711 19.25 230.741 19.3936 230.799 19.5225C230.864 19.6455 230.969 19.7598 231.116 19.8652C231.262 19.9648 231.461 20.0586 231.713 20.1465C231.971 20.2344 232.293 20.3193 232.68 20.4014C233.407 20.5537 234.031 20.75 234.552 20.9902C235.079 21.2246 235.484 21.5293 235.765 21.9043C236.046 22.2734 236.187 22.7422 236.187 23.3105C236.187 23.7324 236.096 24.1191 235.914 24.4707C235.739 24.8164 235.481 25.1182 235.141 25.376C234.801 25.6279 234.394 25.8242 233.919 25.9648C233.451 26.1055 232.923 26.1758 232.337 26.1758C231.476 26.1758 230.746 26.0234 230.149 25.7188C229.551 25.4082 229.097 25.0127 228.787 24.5322C228.482 24.0459 228.329 23.542 228.329 23.0205H230.377C230.401 23.4131 230.509 23.7266 230.703 23.9609C230.902 24.1895 231.148 24.3564 231.441 24.4619C231.74 24.5615 232.047 24.6113 232.364 24.6113C232.745 24.6113 233.064 24.5615 233.322 24.4619C233.579 24.3564 233.776 24.2158 233.911 24.04C234.045 23.8584 234.113 23.6533 234.113 23.4248Z" fill="#4E6E81"/>
<path d="M269.5 18C269.5 12.4772 273.977 8 279.5 8H369.727C375.25 8 379.727 12.4772 379.727 18V34H269.5V18Z" fill="#97A9B4"/>
<path d="M313.141 23.665H314.266C314.207 24.2041 314.053 24.6865 313.803 25.1123C313.553 25.5381 313.199 25.876 312.742 26.126C312.285 26.3721 311.715 26.4951 311.031 26.4951C310.531 26.4951 310.076 26.4014 309.666 26.2139C309.26 26.0264 308.91 25.7607 308.617 25.417C308.324 25.0693 308.098 24.6533 307.938 24.1689C307.781 23.6807 307.703 23.1377 307.703 22.54V21.6904C307.703 21.0928 307.781 20.5518 307.938 20.0674C308.098 19.5791 308.326 19.1611 308.623 18.8135C308.924 18.4658 309.285 18.1982 309.707 18.0107C310.129 17.8232 310.604 17.7295 311.131 17.7295C311.775 17.7295 312.32 17.8506 312.766 18.0928C313.211 18.335 313.557 18.6709 313.803 19.1006C314.053 19.5264 314.207 20.0205 314.266 20.583H313.141C313.086 20.1846 312.984 19.8428 312.836 19.5576C312.688 19.2686 312.477 19.0459 312.203 18.8896C311.93 18.7334 311.572 18.6553 311.131 18.6553C310.752 18.6553 310.418 18.7275 310.129 18.8721C309.844 19.0166 309.604 19.2217 309.408 19.4873C309.217 19.7529 309.072 20.0713 308.975 20.4424C308.877 20.8135 308.828 21.2256 308.828 21.6787V22.54C308.828 22.958 308.871 23.3506 308.957 23.7178C309.047 24.085 309.182 24.4072 309.361 24.6846C309.541 24.9619 309.77 25.1807 310.047 25.3408C310.324 25.4971 310.652 25.5752 311.031 25.5752C311.512 25.5752 311.895 25.499 312.18 25.3467C312.465 25.1943 312.68 24.9756 312.824 24.6904C312.973 24.4053 313.078 24.0635 313.141 23.665ZM317.927 17.3779V26.3779H316.843V17.3779H317.927ZM317.669 22.9678L317.218 22.9502C317.221 22.5166 317.286 22.1162 317.411 21.749C317.536 21.3779 317.712 21.0557 317.938 20.7822C318.165 20.5088 318.434 20.2979 318.747 20.1494C319.063 19.9971 319.413 19.9209 319.796 19.9209C320.108 19.9209 320.389 19.9639 320.639 20.0498C320.889 20.1318 321.102 20.2646 321.278 20.4482C321.458 20.6318 321.595 20.8701 321.688 21.1631C321.782 21.4521 321.829 21.8057 321.829 22.2236V26.3779H320.739V22.2119C320.739 21.8799 320.69 21.6143 320.593 21.415C320.495 21.2119 320.352 21.0654 320.165 20.9756C319.977 20.8818 319.747 20.835 319.473 20.835C319.204 20.835 318.958 20.8916 318.735 21.0049C318.516 21.1182 318.327 21.2744 318.167 21.4736C318.011 21.6729 317.887 21.9014 317.798 22.1592C317.712 22.4131 317.669 22.6826 317.669 22.9678ZM328.39 25.2939V22.0303C328.39 21.7803 328.339 21.5635 328.238 21.3799C328.14 21.1924 327.992 21.0479 327.793 20.9463C327.593 20.8447 327.347 20.7939 327.054 20.7939C326.781 20.7939 326.541 20.8408 326.334 20.9346C326.13 21.0283 325.97 21.1514 325.853 21.3037C325.74 21.4561 325.683 21.6201 325.683 21.7959H324.599C324.599 21.5693 324.658 21.3447 324.775 21.1221C324.892 20.8994 325.06 20.6982 325.279 20.5186C325.502 20.335 325.767 20.1904 326.076 20.085C326.388 19.9756 326.736 19.9209 327.119 19.9209C327.58 19.9209 327.986 19.999 328.337 20.1553C328.693 20.3115 328.97 20.5479 329.17 20.8643C329.373 21.1768 329.474 21.5693 329.474 22.042V24.9951C329.474 25.2061 329.492 25.4307 329.527 25.6689C329.566 25.9072 329.623 26.1123 329.697 26.2842V26.3779H328.566C328.511 26.2529 328.468 26.0869 328.437 25.8799C328.406 25.6689 328.39 25.4736 328.39 25.2939ZM328.578 22.5342L328.589 23.2959H327.494C327.185 23.2959 326.91 23.3213 326.668 23.3721C326.425 23.4189 326.222 23.4912 326.058 23.5889C325.894 23.6865 325.769 23.8096 325.683 23.958C325.597 24.1025 325.554 24.2725 325.554 24.4678C325.554 24.667 325.599 24.8486 325.689 25.0127C325.779 25.1768 325.914 25.3076 326.093 25.4053C326.277 25.499 326.502 25.5459 326.767 25.5459C327.099 25.5459 327.392 25.4756 327.646 25.335C327.9 25.1943 328.101 25.0225 328.25 24.8193C328.402 24.6162 328.484 24.4189 328.496 24.2275L328.959 24.749C328.931 24.9131 328.857 25.0947 328.736 25.2939C328.615 25.4932 328.453 25.6846 328.25 25.8682C328.05 26.0479 327.812 26.1982 327.535 26.3193C327.261 26.4365 326.953 26.4951 326.609 26.4951C326.179 26.4951 325.802 26.4111 325.478 26.2432C325.158 26.0752 324.908 25.8506 324.728 25.5693C324.552 25.2842 324.464 24.9658 324.464 24.6143C324.464 24.2744 324.531 23.9756 324.664 23.7178C324.796 23.4561 324.988 23.2393 325.238 23.0674C325.488 22.8916 325.789 22.7588 326.14 22.6689C326.492 22.5791 326.884 22.5342 327.318 22.5342H328.578ZM335.034 20.0381V20.8701H331.606V20.0381H335.034ZM332.766 18.4971H333.85V24.8076C333.85 25.0225 333.883 25.1846 333.95 25.2939C334.016 25.4033 334.102 25.4756 334.207 25.5107C334.313 25.5459 334.426 25.5635 334.547 25.5635C334.637 25.5635 334.731 25.5557 334.829 25.54C334.93 25.5205 335.006 25.5049 335.057 25.4932L335.063 26.3779C334.977 26.4053 334.864 26.4307 334.723 26.4541C334.586 26.4814 334.42 26.4951 334.225 26.4951C333.959 26.4951 333.715 26.4424 333.493 26.3369C333.27 26.2314 333.092 26.0557 332.959 25.8096C332.83 25.5596 332.766 25.2236 332.766 24.8018V18.4971ZM341.196 24.6963C341.196 24.54 341.161 24.3955 341.091 24.2627C341.025 24.126 340.886 24.0029 340.675 23.8936C340.468 23.7803 340.155 23.6826 339.737 23.6006C339.386 23.5264 339.068 23.4385 338.782 23.3369C338.501 23.2354 338.261 23.1123 338.062 22.9678C337.866 22.8232 337.716 22.6533 337.611 22.458C337.505 22.2627 337.452 22.0342 337.452 21.7725C337.452 21.5225 337.507 21.2861 337.616 21.0635C337.73 20.8408 337.888 20.6436 338.091 20.4717C338.298 20.2998 338.546 20.165 338.835 20.0674C339.124 19.9697 339.446 19.9209 339.802 19.9209C340.31 19.9209 340.743 20.0107 341.103 20.1904C341.462 20.3701 341.737 20.6104 341.929 20.9111C342.12 21.208 342.216 21.5381 342.216 21.9014H341.132C341.132 21.7256 341.079 21.5557 340.974 21.3916C340.872 21.2236 340.722 21.085 340.523 20.9756C340.327 20.8662 340.087 20.8115 339.802 20.8115C339.501 20.8115 339.257 20.8584 339.07 20.9521C338.886 21.042 338.751 21.1572 338.665 21.2979C338.583 21.4385 338.542 21.5869 338.542 21.7432C338.542 21.8604 338.562 21.9658 338.601 22.0596C338.644 22.1494 338.718 22.2334 338.823 22.3115C338.929 22.3857 339.077 22.4561 339.269 22.5225C339.46 22.5889 339.704 22.6553 340.001 22.7217C340.521 22.8389 340.948 22.9795 341.284 23.1436C341.62 23.3076 341.87 23.5088 342.034 23.7471C342.198 23.9854 342.28 24.2744 342.28 24.6143C342.28 24.8916 342.222 25.1455 342.105 25.376C341.991 25.6064 341.825 25.8057 341.607 25.9736C341.392 26.1377 341.134 26.2666 340.833 26.3604C340.536 26.4502 340.202 26.4951 339.831 26.4951C339.273 26.4951 338.8 26.3955 338.413 26.1963C338.027 25.9971 337.734 25.7393 337.534 25.4229C337.335 25.1064 337.236 24.7725 337.236 24.4209H338.325C338.341 24.7178 338.427 24.9541 338.583 25.1299C338.739 25.3018 338.931 25.4248 339.157 25.499C339.384 25.5693 339.609 25.6045 339.831 25.6045C340.128 25.6045 340.376 25.5654 340.575 25.4873C340.779 25.4092 340.933 25.3018 341.038 25.165C341.144 25.0283 341.196 24.8721 341.196 24.6963Z" fill="white"/>
</svg>
