<?xml version="1.0" encoding="UTF-8"?>
<svg width="826px" height="1024px" viewBox="0 0 826 1024" version="1.1" xmlns="http://www.w3.org/2000/svg" xmlns:xlink="http://www.w3.org/1999/xlink">
    <title>Group</title>
    <g id="Page-1" stroke="none" stroke-width="1" fill="none" fill-rule="evenodd">
        <g id="Group" fill="#FFFFFF">
            <path d="M656.069004,607.221218 C656.974965,618.467296 658.147102,629.71177 658.732369,640.957848 C662.781132,715.148274 666.616633,789.338699 670.718311,863.527521 C673.008067,905.152449 675.512688,946.778981 677.962791,988.403909 C678.281881,993.680421 678.921666,999.009875 678.974581,1004.28639 C679.187842,1021.02074 677.430438,1023.0999 659.904506,1023.63253 C643.284534,1024.16676 626.610044,1024.05927 609.990072,1023.68708 C591.984701,1023.26033 590.919997,1022.67316 587.722676,1005.77838 C579.253145,961.00904 571.315966,916.132215 563.165525,871.255389 C556.400483,833.894666 549.635441,796.532339 539.087812,758.797816 C534.719958,781.983026 530.191758,805.11369 526.09008,828.2989 C515.702798,886.605243 505.581692,944.966132 495.139892,1003.27408 C491.783828,1021.82128 489.760248,1023.41916 469.623865,1023.74002 C447.35647,1024.05927 425.090678,1023.79296 400.212833,1023.79296 C399.520134,1013.13405 398.242168,1005.13827 398.561259,997.197026 C400.531924,946.458123 402.823283,895.666277 405.113039,844.927374 C408.416188,771.430002 409.907416,697.826746 416.087191,624.595686 C418.910903,591.019485 410.65303,562.824075 393.927229,533.884275 C347.795382,454.098083 303.581286,373.458408 258.621575,293.08665 C253.347761,283.706362 248.393037,274.165645 242,262.334001 C256.437649,249.756361 270.607518,237.497976 287.22749,223 C294.258708,230.621985 300.225222,236.378181 305.338689,242.719942 C345.079103,292.287713 385.191521,341.64051 424.024371,391.793847 C435.104352,406.129789 446.771203,412.792409 466.853068,412.259784 C520.017737,410.820735 573.286631,411.993472 626.504215,411.406301 C639.554861,411.247477 648.18474,414.71114 654.896867,425.317107 C710.032201,512.725284 765.592455,599.865545 820.939447,687.113293 C822.538107,689.672137 823.444068,692.603176 826,698.306429 C804.585651,709.339137 783.437478,720.211415 759.412679,732.575684 C725.852041,689.245395 693.465144,647.460038 661.023728,605.62174 C659.425068,606.261852 657.720579,606.741535 656.069004,607.221218 Z" id="Path" fill-rule="nonzero"></path>
            <path d="M435,278.285994 C435.266752,229.583108 481.565988,186.947633 534.297452,187 C591.229065,187 637.422697,228.738118 636.997082,279.764727 C636.518665,329.839928 590.963455,370.628178 535.043079,371 C480.821962,371.314335 434.735533,328.574031 435,278.285994 Z" id="Path" fill-rule="nonzero"></path>
            <path d="M201.205966,183 L89,212.613792 L133.793551,362 L246,332.386208 L201.205966,183 Z M176.733662,234.809572 L192.163183,229.354485 C193.229784,228.980672 194.394519,229.458052 194.756488,230.432233 C194.906101,230.82061 194.90771,231.242971 194.769358,231.63944 L189.655141,246.129161 L199.542519,257.829036 C200.224629,258.63492 200.047666,259.817853 199.153201,260.474859 C198.799276,260.737013 198.360087,260.889128 197.912855,260.898837 L181.571173,261.351945 L172.250076,274.038946 C172.032894,274.335084 171.733667,274.571347 171.384568,274.721844 C171.035469,274.87234 170.650978,274.930596 170.274531,274.891759 C169.899692,274.851303 169.545767,274.713752 169.256192,274.49529 C168.966617,274.276828 168.752653,273.987163 168.636823,273.655423 L163.654525,259.44404 L148.009109,255.582919 C147.491092,255.455078 147.056247,255.141139 146.800134,254.709069 C146.544021,254.276999 146.487715,253.762399 146.643442,253.280163 C146.773268,252.882076 147.037746,252.527682 147.403898,252.273618 L160.664663,243.036704 L160.312507,227.966035 C160.294328,226.927125 161.188311,226.038711 162.30961,225.982073 C162.756842,225.957799 163.194422,226.071076 163.554782,226.304103 L176.733662,234.809572 Z" id="Shape"></path>
            <path d="M329,65.6515027 C319.342566,75.5164534 310.592575,84.4600576 301.254754,94 C210.333862,25.974538 121.067407,25.1615276 29.3998428,92.9158229 C19.6354434,84.5143889 9.71099685,76.0042923 0,67.6028583 C66.6430379,-16.1958219 243.896375,-27.9579275 329,65.6515027 Z" id="Path" fill-rule="nonzero"></path>
            <path d="M285,108.265432 C275.965802,116.212903 266.664434,124.430682 255.822437,134 C196.241845,89.9915865 136.290096,89.1266342 75.4346059,133.837913 C65.3894802,125.025327 56.0353178,116.807548 47,108.914269 C82.8755405,50.6327593 222.763704,32.3050472 285,108.265432 Z" id="Path" fill-rule="nonzero"></path>
            <path d="M240,146.849877 C228.485618,156.184601 218.721793,164.045888 206.942272,173.599319 C179.295935,154.656118 149.95239,152.199569 119.335378,176 C109.465657,165.465593 100.922589,156.402979 91,145.812704 C107.396295,124.522883 131.32749,117.262506 156.903665,115.351984 C187.892191,112.949988 214.794221,122.776021 240,146.849877 Z" id="Path" fill-rule="nonzero"></path>
        </g>
    </g>
</svg>