<?xml version="1.0" encoding="UTF-8"?>
<svg width="401px" height="43px" viewBox="0 0 401 43" version="1.1" xmlns="http://www.w3.org/2000/svg" xmlns:xlink="http://www.w3.org/1999/xlink">
    <title>Group</title>
    <g id="Page-1" stroke="none" stroke-width="1" fill="none" fill-rule="evenodd">
        <g id="Group" transform="translate(0.000000, 1.000000)">
            <g id="Request-Button">
                <path d="M401,41 L364.931,41 C358.303,41 352.931,34.8812056 352.931,27.3333333 L352.931,13.6666667 C352.931,6.11879444 347.558,0 340.931,0 L217.085,0 C210.457,0 205.085,6.11879444 205.085,13.6666667 L205.085,27.3333333 C205.085,34.8812056 199.712,41 193.085,41 L0,41" id="Path" stroke="#4E6E81" stroke-width="2"></path>
                <path d="M249.479503,22.303957 L251.026986,22.303957 C250.945485,23.0884508 250.733996,23.7904353 250.389423,24.4100195 C250.045882,25.0296038 249.559972,25.5212767 248.930662,25.8851473 C248.302384,26.2432336 247.517294,26.4222222 246.577456,26.4222222 C245.889341,26.4222222 245.264158,26.285798 244.699843,26.0129496 C244.140685,25.7401011 243.659934,25.3536386 243.256556,24.8534528 C242.854211,24.3474827 242.542651,23.7420865 242.321877,23.0372644 C242.107292,22.326658 242,21.536598 242,20.6668663 L242,19.4305354 C242,18.5608038 242.107292,17.7735814 242.321877,17.0686502 C242.542651,16.3581528 242.856274,15.7499191 243.26481,15.2440581 C243.678504,14.7380879 244.175762,14.3487878 244.755552,14.0759393 C245.336374,13.8030909 245.989412,13.6666667 246.714666,13.6666667 C247.600858,13.6666667 248.350871,13.8428176 248.963675,14.1952287 C249.575447,14.5476397 250.05104,15.0365841 250.389423,15.6618436 C250.733996,16.2814279 250.945485,17.0004381 251.026986,17.8189834 L249.479503,17.8189834 C249.404192,17.239235 249.263887,16.7418869 249.059619,16.3268298 C248.855351,15.9062067 248.565456,15.582281 248.189933,15.3548346 C247.813379,15.1274972 247.321279,15.013774 246.714666,15.013774 C246.19368,15.013774 245.733561,15.1189844 245.336374,15.3292959 C244.944345,15.5396075 244.613183,15.8379946 244.344953,16.2245662 C244.081881,16.6111379 243.882771,17.0743254 243.748656,17.6143471 C243.614541,18.1543687 243.547483,18.7540896 243.547483,19.4135097 L243.547483,20.6668663 C243.547483,21.2751001 243.606288,21.8463356 243.723896,22.3806819 C243.847695,22.9150283 244.033393,23.3840002 244.279959,23.7875977 C244.527556,24.1911951 244.842211,24.5094455 245.222892,24.7425672 C245.604604,24.9699045 246.05647,25.0836278 246.577456,25.0836278 C247.238747,25.0836278 247.764891,24.9727422 248.15692,24.7510801 C248.548949,24.529418 248.845034,24.2110584 249.044144,23.7961105 C249.248412,23.3811626 249.392844,22.8838145 249.479503,22.303957 Z M254.17663,21.7412343 L254.17663,21.5451109 C254.17663,20.8800155 254.267416,20.2632689 254.450019,19.694871 C254.632622,19.1206888 254.896726,18.6233406 255.240267,18.2027175 C255.583808,17.776419 256.000597,17.446709 256.489602,17.2136964 C256.978607,16.9748995 257.526416,16.855501 258.134061,16.855501 C258.745833,16.855501 259.296737,16.9748995 259.785741,17.2136964 C260.279904,17.446709 260.699788,17.776419 261.04333,18.2027175 C261.392029,18.6233406 261.658196,19.1206888 261.840799,19.694871 C262.023402,20.2632689 262.11522,20.8800155 262.11522,21.5451109 L262.11522,21.7412343 C262.11522,22.4063297 262.023402,23.0230763 261.840799,23.5914742 C261.658196,24.1598721 261.392029,24.6573294 261.04333,25.0836278 C260.699788,25.5042509 260.282999,25.833961 259.793995,26.0726488 C259.310148,26.3057705 258.762339,26.4222222 258.149536,26.4222222 C257.536732,26.4222222 256.98686,26.3057705 256.497855,26.0726488 C256.008851,25.833961 255.588967,25.5042509 255.240267,25.0836278 C254.896726,24.6573294 254.632622,24.1598721 254.450019,23.5914742 C254.267416,23.0230763 254.17663,22.4063297 254.17663,21.7412343 Z M255.667373,21.5451109 L255.667373,21.7412343 C255.667373,22.2016934 255.717924,22.6365046 255.820058,23.0457773 C255.922191,23.4493747 256.075908,23.807461 256.280176,24.1201453 C256.489602,24.4327205 256.749579,24.6800303 257.062171,24.8619657 C257.373731,25.0381166 257.735842,25.1263013 258.149536,25.1263013 C258.558071,25.1263013 258.915024,25.0381166 259.221426,24.8619657 C259.532986,24.6800303 259.7909,24.4327205 259.995168,24.1201453 C260.199435,23.807461 260.353152,23.4493747 260.455286,23.0457773 C260.562578,22.6365046 260.616224,22.2016934 260.616224,21.7412343 L260.616224,21.5451109 C260.616224,21.0903271 260.562578,20.6611911 260.455286,20.2575936 C260.353152,19.848321 260.197372,19.4873971 259.986914,19.1747127 C259.783678,18.8564623 259.525764,18.6063149 259.213173,18.4243795 C258.907803,18.2425533 258.547755,18.1515311 258.134061,18.1515311 C257.725525,18.1515311 257.365478,18.2425533 257.053918,18.4243795 C256.747516,18.6063149 256.489602,18.8564623 256.280176,19.1747127 C256.075908,19.4873971 255.922191,19.848321 255.820058,20.2575936 C255.717924,20.6611911 255.667373,21.0903271 255.667373,21.5451109 Z M267.127002,18.9957242 L267.127002,26.2517465 L265.635228,26.2517465 L265.635228,17.0260858 L267.046533,17.0260858 L267.127002,18.9957242 Z M266.772113,21.2892882 L266.151056,21.2637496 C266.157246,20.6328148 266.245968,20.0501197 266.417223,19.5157733 C266.58951,18.9757517 266.830917,18.5067798 267.142477,18.1089667 C267.454037,17.7110446 267.825433,17.4040355 268.255633,17.1880487 C268.68996,16.9663866 269.171743,16.855501 269.697888,16.855501 C270.128088,16.855501 270.514959,16.9180378 270.8585,17.0431116 C271.202042,17.1625101 271.495032,17.3557959 271.737471,17.6229691 C271.984036,17.8900331 272.171798,18.2367689 272.300755,18.6631765 C272.429712,19.0837996 272.494706,19.5981735 272.494706,20.2064073 L272.494706,26.2517465 L270.99571,26.2517465 L270.99571,20.1893815 C270.99571,19.7062215 270.928653,19.3196498 270.793506,19.0297757 C270.659391,18.7342262 270.463376,18.521077 270.205462,18.390328 C269.947548,18.2539038 269.63083,18.1856917 269.254276,18.1856917 C268.883912,18.1856917 268.545529,18.2680919 268.239127,18.4328924 C267.937883,18.597802 267.677906,18.8251393 267.457132,19.1150135 C267.242548,19.4049968 267.073356,19.7374354 266.949557,20.1126566 C266.830917,20.4820933 266.772113,20.8743403 266.772113,21.2892882 Z M280.060868,17.0260858 L280.060868,18.2367689 L275.346202,18.2367689 L275.346202,17.0260858 L280.060868,17.0260858 Z M276.942173,14.7835991 L278.432915,14.7835991 L278.432915,23.9665862 C278.432915,24.2792706 278.478308,24.5152299 278.570125,24.6743551 C278.660911,24.8334803 278.779552,24.9386907 278.925015,24.989877 C279.069447,25.0409543 279.225227,25.066602 279.392355,25.066602 C279.516154,25.066602 279.64511,25.0551424 279.779226,25.0324414 C279.918499,25.0040652 280.023728,24.981255 280.092849,24.9642293 L280.101102,26.2517465 C279.983494,26.2915824 279.827714,26.3284715 279.633762,26.3626321 C279.446001,26.4023589 279.218005,26.4222222 278.948743,26.4222222 C278.583537,26.4222222 278.247217,26.3454972 277.941847,26.1920473 C277.635446,26.0385973 277.390943,25.7827746 277.20834,25.4246883 C277.030895,25.0609268 276.942173,24.5719824 276.942173,23.9580734 L276.942173,14.7835991 Z M288.602976,24.6743551 L288.602976,19.925046 C288.602976,19.5612844 288.532823,19.2457625 288.393549,18.9785893 C288.259434,18.7057408 288.055166,18.4954293 287.780746,18.3476545 C287.506326,18.1998798 287.167943,18.1259925 286.765597,18.1259925 C286.389043,18.1259925 286.058913,18.1942046 285.774176,18.3306288 C285.494597,18.467053 285.273823,18.6460416 285.112885,18.8678128 C284.957105,19.0894749 284.879731,19.3281627 284.879731,19.5839854 L283.387957,19.5839854 C283.387957,19.2542754 283.468426,18.9275121 283.630396,18.6034772 C283.791334,18.2794424 284.022425,17.9867306 284.323668,17.7252327 C284.629038,17.4580595 284.995276,17.2477479 285.419287,17.0942979 C285.849487,16.9350636 286.327143,16.855501 286.854319,16.855501 C287.487756,16.855501 288.046913,16.9692242 288.53076,17.1965615 C289.019764,17.424008 289.400445,17.7679062 289.674866,18.2282561 C289.954444,18.6830399 290.093718,19.2542754 290.093718,19.9421808 L290.093718,24.2394347 C290.093718,24.5464437 290.118477,24.8733162 290.166965,25.220052 C290.220611,25.5667878 290.297986,25.8651748 290.400119,26.1153223 L290.400119,26.2517465 L288.844383,26.2517465 C288.769072,26.0698112 288.710268,25.8282857 288.666938,25.5269519 C288.62464,25.220052 288.602976,24.935853 288.602976,24.6743551 Z M288.860889,20.6583534 L288.877396,21.766773 L287.370147,21.766773 C286.945105,21.766773 286.566487,21.8037712 286.233263,21.8776586 C285.900038,21.9458707 285.620459,22.0509719 285.395558,22.1930714 C285.169626,22.33528 284.997339,22.5142685 284.879731,22.7302554 C284.76109,22.940567 284.702286,23.1878768 284.702286,23.4720757 C284.702286,23.762059 284.764185,24.0262855 284.886952,24.2650824 C285.010751,24.5037703 285.196449,24.6942185 285.443015,24.8363179 C285.69577,24.9727422 286.005267,25.0409543 286.370473,25.0409543 C286.827496,25.0409543 287.229842,24.9386907 287.579573,24.7340543 C287.928273,24.529418 288.205788,24.2792706 288.409024,23.9837211 C288.619482,23.6880625 288.731932,23.401026 288.748439,23.1225023 L289.38497,23.8813484 C289.346799,24.1201453 289.244665,24.3844809 289.078569,24.6743551 C288.911441,24.9642293 288.688603,25.242753 288.409024,25.5099262 C288.135636,25.7714241 287.807569,25.9902486 287.425857,26.1665087 C287.050334,26.3369844 286.625292,26.4222222 286.152794,26.4222222 C285.561655,26.4222222 285.042732,26.3000953 284.597057,26.0556231 C284.15654,25.81126 283.812999,25.4843876 283.565402,25.0751149 C283.323994,24.660167 283.20329,24.1968703 283.20329,23.6852249 C283.20329,23.1907144 283.294076,22.7559031 283.476679,22.3806819 C283.659282,21.9998947 283.922354,21.6843727 284.266927,21.4342253 C284.610469,21.1785117 285.024162,20.9852259 285.508009,20.8544769 C285.991855,20.7237279 286.531411,20.6583534 287.127708,20.6583534 L288.860889,20.6583534 Z M297.57941,25.1263013 C297.9343,25.1263013 298.262366,25.0494671 298.56361,24.8960172 C298.863821,24.7425672 299.111419,24.5322556 299.304338,24.2650824 C299.49829,23.992234 299.608677,23.6823873 299.6355,23.3356515 L301.054026,23.3356515 C301.027203,23.8813484 300.851822,24.3901562 300.529945,24.8619657 C300.213227,25.3279908 299.796438,25.7060496 299.28061,25.9959238 C298.764783,26.2801228 298.197372,26.4222222 297.57941,26.4222222 C296.924309,26.4222222 296.35174,26.3000953 295.862736,26.0556231 C295.379921,25.81126 294.976543,25.4758747 294.654667,25.0494671 C294.336917,24.6231687 294.098605,24.1343335 293.936635,23.5829613 C293.780855,23.0259139 293.70348,22.4375436 293.70348,21.8179593 L293.70348,21.459873 C293.70348,20.8402888 293.780855,20.254756 293.936635,19.7033839 C294.098605,19.1463365 294.336917,18.6546636 294.654667,18.2282561 C294.976543,17.8019577 295.379921,17.4665724 295.862736,17.2222093 C296.35174,16.9777371 296.924309,16.855501 297.57941,16.855501 C298.262366,16.855501 298.858663,17.0032757 299.369333,17.2989343 C299.880002,17.5888085 300.280285,17.9867306 300.57018,18.4925916 C300.865233,18.9928865 301.027203,19.5612844 301.054026,20.1978944 L299.6355,20.1978944 C299.608677,19.8171071 299.506543,19.4732089 299.329098,19.1661999 C299.156812,18.8592999 298.920563,18.6148277 298.619319,18.4328924 C298.324266,18.245391 297.977629,18.1515311 297.57941,18.1515311 C297.123419,18.1515311 296.738611,18.2482286 296.427051,18.4415144 C296.120649,18.6290159 295.876147,18.8848386 295.693544,19.2088734 C295.516099,19.5271238 295.388174,19.8824816 295.306673,20.2746194 C295.231362,20.6611911 295.194223,21.0562756 295.194223,21.459873 L295.194223,21.8179593 C295.194223,22.2215567 295.231362,22.6194789 295.306673,23.0116167 C295.381984,23.4038636 295.508878,23.7591123 295.686322,24.0774718 C295.868925,24.3958314 296.113428,24.6516541 296.41983,24.8448308 C296.731389,25.0324414 297.11826,25.1263013 297.57941,25.1263013 Z M308.032144,17.0260858 L308.032144,18.2367689 L303.316447,18.2367689 L303.316447,17.0260858 L308.032144,17.0260858 Z M304.912418,14.7835991 L306.404192,14.7835991 L306.404192,23.9665862 C306.404192,24.2792706 306.449585,24.5152299 306.54037,24.6743551 C306.632188,24.8334803 306.750828,24.9386907 306.89526,24.989877 C307.040723,25.0409543 307.196503,25.066602 307.3626,25.066602 C307.486398,25.066602 307.615355,25.0551424 307.749471,25.0324414 C307.889776,25.0040652 307.993973,24.981255 308.064126,24.9642293 L308.072379,26.2517465 C307.953738,26.2915824 307.797958,26.3284715 307.605039,26.3626321 C307.416246,26.4023589 307.18825,26.4222222 306.92002,26.4222222 C306.553782,26.4222222 306.218494,26.3454972 305.912092,26.1920473 C305.60569,26.0385973 305.361188,25.7827746 305.178585,25.4246883 C305.00114,25.0609268 304.912418,24.5719824 304.912418,23.9580734 L304.912418,14.7835991 Z M316.509258,23.8046234 C316.509258,23.5772861 316.46077,23.3669745 316.363794,23.1736887 C316.273009,22.9747276 316.082152,22.7956299 315.792257,22.6365046 C315.50752,22.4717042 315.07732,22.3294956 314.502688,22.2102062 C314.018841,22.1021583 313.580388,21.9742469 313.188359,21.8264722 C312.801488,21.6786975 312.471358,21.4995998 312.196938,21.2892882 C311.928707,21.0789766 311.721344,20.8317759 311.576913,20.5474678 C311.431449,20.2632689 311.359233,19.9307212 311.359233,19.5499339 C311.359233,19.1860632 311.434544,18.8421651 311.584134,18.5182394 C311.740946,18.1942046 311.957594,17.907168 312.237172,17.6570206 C312.521909,17.4068731 312.863387,17.2107497 313.260574,17.0686502 C313.658794,16.9265507 314.102405,16.855501 314.59141,16.855501 C315.289841,16.855501 315.886138,16.98625 316.380301,17.2477479 C316.874464,17.5092459 317.253081,17.8588193 317.516154,18.2964682 C317.780257,18.728551 317.911278,19.2088734 317.911278,19.7374354 L316.420535,19.7374354 C316.420535,19.4817218 316.348319,19.234412 316.202856,18.9957242 C316.063583,18.751252 315.85622,18.5494533 315.581799,18.390328 C315.313569,18.2310937 314.983439,18.1515311 314.59141,18.1515311 C314.177716,18.1515311 313.841397,18.2197432 313.583483,18.3561674 C313.330727,18.4869164 313.146061,18.6546636 313.02742,18.8592999 C312.91497,19.0639363 312.858229,19.2799231 312.858229,19.5072604 C312.858229,19.6778453 312.885052,19.8312952 312.938698,19.9677195 C312.997502,20.0984684 313.099636,20.2207045 313.2451,20.3343186 C313.389531,20.4423666 313.593799,20.5446302 313.857903,20.6413277 C314.120975,20.737916 314.456263,20.8346135 314.864799,20.9312019 C315.579736,21.1016776 316.16778,21.3064231 316.629961,21.5451109 C317.092143,21.7837987 317.435684,22.0766196 317.661617,22.4233554 C317.88755,22.7700912 318,23.1907144 318,23.6852249 C318,24.0888223 317.919531,24.4583683 317.758593,24.7937536 C317.602813,25.1291389 317.373785,25.4190131 317.073573,25.6633761 C316.777488,25.9021731 316.42363,26.0897837 316.009936,26.2262079 C315.601401,26.3569569 315.141283,26.4222222 314.631645,26.4222222 C313.863061,26.4222222 313.213118,26.2772851 312.680784,25.9874109 C312.14845,25.6975368 311.746104,25.3223156 311.471684,24.8619657 C311.197263,24.4015067 311.061085,23.915509 311.061085,23.4038636 L312.56008,23.4038636 C312.581745,23.8359464 312.699354,24.1798446 312.91497,24.4355581 C313.129554,24.6857056 313.392626,24.8648033 313.704186,24.9727422 C314.015746,25.0751149 314.325243,25.1263013 314.631645,25.1263013 C315.039149,25.1263013 315.380627,25.0694396 315.655047,24.9557164 C315.934626,24.8419932 316.146115,24.6857056 316.291578,24.4867445 C316.437042,24.2877834 316.509258,24.0604461 316.509258,23.8046234 Z" id="Shape" fill="#4E6E81" fill-rule="nonzero"></path>
            </g>
            <g id="Connects-Button-US-(1)" transform="translate(33.000000, 6.000000)" fill-rule="nonzero">
                <path d="M0,12 C0,5.37258 5.37258,0 12,0 L137,0 C143.627,0 149,5.37258 149,12 L149,36 L0,36 L0,12 Z" id="Path" fill="#97A9B4"></path>
                <path d="M36,12 L39.7855889,12 C40.6443232,12 41.3695527,12.1335385 41.9611766,12.4006154 C42.5581286,12.6676923 43.01102,13.0630769 43.3199513,13.5865641 C43.6341101,14.1047179 43.7911393,14.7430769 43.7911393,15.501641 C43.7911393,16.0357949 43.6837723,16.5246154 43.469139,16.968 C43.2597333,17.4059487 42.9560297,17.7798974 42.5581286,18.0897436 C42.1653547,18.3942564 41.6941667,18.6212308 41.1443636,18.7708718 L40.720224,18.9390769 L37.162438,18.9390769 L37.1466546,17.6811282 L39.8327379,17.6811282 C40.3773134,17.6811282 40.8302048,17.5849231 41.1915126,17.3926154 C41.5528204,17.1949744 41.8250578,16.9305641 42.0083255,16.5993846 C42.1915932,16.2682051 42.2831768,15.9022564 42.2831768,15.501641 C42.2831768,15.0529231 42.1968208,14.6603077 42.0240083,14.3236923 C41.8511959,13.9871795 41.5789584,13.7281026 41.2071954,13.5464615 C40.84066,13.3594872 40.3668582,13.2660513 39.7855889,13.2660513 L37.5158038,13.2660513 L37.5158038,23.6666667 L36,23.6666667 L36,12 Z M42.6837922,23.6666667 L39.903411,18.3782564 L41.4820466,18.3701538 L44.3016348,23.5704615 L44.3016348,23.6666667 L42.6837922,23.6666667 Z M50.8267893,23.8268718 C50.2350649,23.8268718 49.6984313,23.7254359 49.2166876,23.5224615 C48.7401715,23.3140513 48.3292014,23.0229744 47.9835764,22.6490256 C47.6432796,22.2750769 47.3814973,21.8316923 47.1982296,21.3188718 C47.0149619,20.8060513 46.9232778,20.2452308 46.9232778,19.6362051 L46.9232778,19.2996923 C46.9232778,18.5945641 47.0254171,17.9668718 47.2295952,17.4166154 C47.4338739,16.8611282 47.711339,16.3909744 48.0621915,16.006359 C48.4129436,15.6217436 48.8108446,15.3306667 49.2559951,15.1330256 C49.7010451,14.9353846 50.1617779,14.8365128 50.638294,14.8365128 C51.2456008,14.8365128 51.7692659,14.9433846 52.2090883,15.1570256 C52.6541382,15.3707692 53.0179593,15.6698462 53.3007525,16.0544615 C53.5834452,16.4337436 53.7929515,16.8824615 53.9290702,17.4006154 C54.065189,17.9134359 54.1332483,18.474359 54.1332483,19.0832821 L54.1332483,19.7484103 L47.7872397,19.7484103 L47.7872397,18.5384615 L52.6802762,18.5384615 L52.6802762,18.4262564 C52.6593658,18.041641 52.5807507,17.6676923 52.444632,17.3045128 C52.3137408,16.9412308 52.1043351,16.6420513 51.8163143,16.4070769 C51.528394,16.172 51.1356201,16.0544615 50.638294,16.0544615 C50.3083519,16.0544615 50.0046482,16.1265641 49.7271831,16.2708718 C49.4497181,16.4097436 49.21146,16.6180513 49.0125095,16.8957949 C48.8134584,17.173641 48.6590431,17.5128205 48.5490624,17.9134359 C48.4391822,18.3140513 48.3841918,18.7762051 48.3841918,19.2996923 L48.3841918,19.6362051 C48.3841918,20.0475897 48.4391822,20.4348718 48.5490624,20.7980513 C48.6642707,21.156 48.8292418,21.4711795 49.0438751,21.7435897 C49.2638365,22.016 49.5282326,22.2297436 49.8371639,22.3846154 C50.1513227,22.5394872 50.5073024,22.6170256 50.9053039,22.6170256 C51.4184133,22.6170256 51.8530081,22.5101538 52.2090883,22.2965128 C52.5650679,22.0827692 52.876613,21.7970256 53.1436228,21.4390769 L54.0232676,22.1522051 C53.8399999,22.4353846 53.60707,22.7051282 53.3242767,22.9615385 C53.041584,23.2179487 52.6933453,23.4262564 52.2797614,23.5865641 C51.8713047,23.7467692 51.3869471,23.8268718 50.8267893,23.8268718 Z M62.786741,27 L62.786741,16.6634872 L62.9124046,14.9968205 L64.2476551,14.9968205 L64.2476551,27 L62.786741,27 Z M57.0768915,19.4278974 L57.0768915,19.2595897 C57.0768915,18.5972308 57.1528928,17.9963077 57.3046944,17.4567179 C57.4564959,16.9118974 57.6790712,16.4444103 57.9723196,16.0544615 C58.2654675,15.6645128 58.6189339,15.3653333 59.0326183,15.1570256 C59.4514297,14.9433846 59.9279459,14.8365128 60.4619656,14.8365128 C60.9960859,14.8365128 61.4646601,14.9327179 61.8678893,15.1250256 C62.2762455,15.312 62.6218705,15.5870769 62.9045632,15.950359 C63.192584,16.3082051 63.4202863,16.7409231 63.5878712,17.2484103 C63.7554561,17.7558974 63.8706644,18.3301538 63.9334962,18.9711795 L63.9334962,19.7083077 C63.875892,20.344 63.7632975,20.9155897 63.5957126,21.4230769 C63.4281277,21.9305641 63.2004254,22.3632821 62.9124046,22.7211282 C62.6297119,23.0790769 62.2814731,23.3541538 61.8678893,23.5464615 C61.4594325,23.7334359 60.9856307,23.8268718 60.4462828,23.8268718 C59.9227182,23.8268718 59.4514297,23.7174359 59.0326183,23.498359 C58.6189339,23.2793846 58.2654675,22.9722051 57.9723196,22.5769231 C57.6842988,22.181641 57.4618241,21.7169231 57.3046944,21.1826667 C57.1528928,20.6431795 57.0768915,20.0582564 57.0768915,19.4278974 Z M58.5378055,19.2595897 L58.5378055,19.4278974 C58.5378055,19.8606154 58.5822402,20.2692308 58.6713105,20.6538462 C58.7602803,21.0331282 58.896399,21.369641 59.0796667,21.6634872 C59.268162,21.9572308 59.5038063,22.189641 59.7865995,22.3606154 C60.0745198,22.5261538 60.4149172,22.6090256 60.8075906,22.6090256 C61.2892338,22.6090256 61.6898492,22.5021538 62.0092356,22.2884103 C62.3338497,22.0747692 62.5930181,21.794359 62.786741,21.4470769 C62.9804639,21.0945641 63.1297522,20.7179487 63.2344048,20.3173333 L63.2344048,18.3862564 C63.1768007,18.0924103 63.0852171,17.8066667 62.9595535,17.5288205 C62.8391176,17.2510769 62.6820884,17.0026667 62.4883655,16.7836923 C62.2945421,16.5592821 62.0589984,16.3829744 61.7814327,16.2547692 C61.5091953,16.1212308 61.1898088,16.0544615 60.8232734,16.0544615 C60.4253724,16.0544615 60.0823612,16.14 59.7944409,16.3108718 C59.5064201,16.4818462 59.268162,16.7169231 59.0796667,17.016 C58.896399,17.3098462 58.7602803,17.6490256 58.6713105,18.033641 C58.5822402,18.4182564 58.5378055,18.8268718 58.5378055,19.2595897 Z M73.3880186,21.6634872 L73.3880186,14.9968205 L74.8489326,14.9968205 L74.8489326,23.6666667 L73.4586917,23.6666667 L73.3880186,21.6634872 Z M73.6629704,19.8365128 L74.2676633,19.8205128 C74.2676633,20.3974359 74.2074454,20.9315897 74.0870094,21.4230769 C73.9719016,21.9092308 73.7834063,22.3311795 73.5215235,22.6891282 C73.2597412,23.0469744 72.9168306,23.3274872 72.492691,23.5304615 C72.0685514,23.7281026 71.5528283,23.8268718 70.945421,23.8268718 C70.5318372,23.8268718 70.1522328,23.7655385 69.8066078,23.6426667 C69.4663109,23.5197949 69.1730625,23.3301538 68.926963,23.0737436 C68.6808636,22.8173333 68.4897545,22.4834872 68.3536357,22.0721026 C68.2227446,21.6608205 68.157299,21.1666667 68.157299,20.5897436 L68.157299,14.9968205 L69.6102711,14.9968205 L69.6102711,20.6057436 C69.6102711,20.9956923 69.6521924,21.3188718 69.7359346,21.5752821 C69.8250049,21.826359 69.9428271,22.0266667 70.089401,22.1763077 C70.2412026,22.3205128 70.4087875,22.4220513 70.5920552,22.4808205 C70.7805505,22.5394872 70.9742734,22.5689231 71.1732239,22.5689231 C71.7910864,22.5689231 72.2806715,22.4487179 72.6418788,22.2083077 C73.0031866,21.9625641 73.262355,21.6340513 73.4194847,21.2227692 C73.5817415,20.8060513 73.6629704,20.344 73.6629704,19.8365128 Z M82.198641,23.8268718 C81.6070171,23.8268718 81.070283,23.7254359 80.5885392,23.5224615 C80.1121236,23.3140513 79.7010531,23.0229744 79.3555286,22.6490256 C79.0151312,22.2750769 78.7533489,21.8316923 78.5700812,21.3188718 C78.3868135,20.8060513 78.2952299,20.2452308 78.2952299,19.6362051 L78.2952299,19.2996923 C78.2952299,18.5945641 78.3973693,17.9668718 78.6015474,17.4166154 C78.8057255,16.8611282 79.0831906,16.3909744 79.4340432,16.006359 C79.7848958,15.6217436 80.1827968,15.3306667 80.6278468,15.1330256 C81.0728968,14.9353846 81.5336295,14.8365128 82.0101457,14.8365128 C82.6175529,14.8365128 83.1411175,14.9433846 83.5809399,15.1570256 C84.0259899,15.3707692 84.3899115,15.6698462 84.6726042,16.0544615 C84.9553974,16.4337436 85.1648031,16.8824615 85.3009218,17.4006154 C85.4371411,17.9134359 85.5052005,18.474359 85.5052005,19.0832821 L85.5052005,19.7484103 L79.1591919,19.7484103 L79.1591919,18.5384615 L84.0522284,18.5384615 L84.0522284,18.4262564 C84.0312175,18.041641 83.9527029,17.6676923 83.8165841,17.3045128 C83.685693,16.9412308 83.4761868,16.6420513 83.1882665,16.4070769 C82.9002456,16.172 82.5075722,16.0544615 82.0101457,16.0544615 C81.680304,16.0544615 81.3766004,16.1265641 81.0991353,16.2708718 C80.8215697,16.4097436 80.5833116,16.6180513 80.3843611,16.8957949 C80.1854106,17.173641 80.0309952,17.5128205 79.9210145,17.9134359 C79.8110338,18.3140513 79.7560434,18.7762051 79.7560434,19.2996923 L79.7560434,19.6362051 C79.7560434,20.0475897 79.8110338,20.4348718 79.9210145,20.7980513 C80.0362228,21.156 80.2010934,21.4711795 80.4158273,21.7435897 C80.6356882,22.016 80.9000843,22.2297436 81.2090155,22.3846154 C81.5231743,22.5394872 81.8792545,22.6170256 82.2771556,22.6170256 C82.7902649,22.6170256 83.2248597,22.5101538 83.5809399,22.2965128 C83.9370201,22.0827692 84.2485651,21.7970256 84.515575,21.4390769 L85.3952198,22.1522051 C85.2119521,22.4353846 84.9789216,22.7051282 84.6962289,22.9615385 C84.4134357,23.2179487 84.0652974,23.4262564 83.6516131,23.5865641 C83.2432568,23.7467692 82.7588993,23.8268718 82.198641,23.8268718 Z M93.7580779,21.3669744 C93.7580779,21.1533333 93.7110294,20.9556923 93.6167315,20.7740513 C93.5277617,20.5870769 93.3418802,20.4187692 93.059087,20.2692308 C92.7816219,20.114359 92.3627099,19.9807179 91.8024516,19.8686154 C91.3312636,19.7670769 90.9045103,19.6468718 90.522292,19.508 C90.1453014,19.3691282 89.8233012,19.2008205 89.5562913,19.0031795 C89.2944085,18.8055385 89.0928442,18.5732308 88.9514978,18.3060513 C88.8101515,18.0389744 88.7393778,17.7264615 88.7393778,17.3686154 C88.7393778,17.0266667 88.8127653,16.7034872 88.9593392,16.3990769 C89.1111408,16.0945641 89.3232608,15.8248205 89.5954983,15.5897436 C89.873064,15.3546667 90.2055194,15.170359 90.5929652,15.0368205 C90.980411,14.9032821 91.412392,14.8365128 91.8889081,14.8365128 C92.5695019,14.8365128 93.1507711,14.9593846 93.6324143,15.2051282 C94.114158,15.4508718 94.4833073,15.7793846 94.7398619,16.1906667 C94.9964166,16.5967179 95.1246939,17.0481026 95.1246939,17.5448205 L93.6717219,17.5448205 C93.6717219,17.3045128 93.6010487,17.0721026 93.4597023,16.8477949 C93.3234831,16.6180513 93.1219188,16.4284103 92.8549089,16.2788718 C92.5931266,16.1292308 92.2711264,16.0544615 91.8889081,16.0544615 C91.485679,16.0544615 91.1584511,16.1185641 90.9071241,16.2467692 C90.6610246,16.369641 90.4803707,16.5272821 90.3651624,16.7195897 C90.2552822,16.9118974 90.2002918,17.1148718 90.2002918,17.3285128 C90.2002918,17.4888205 90.2264298,17.6330256 90.2788064,17.7612308 C90.3364105,17.8841026 90.4359361,17.9989744 90.5772824,18.1057436 C90.7186288,18.2072821 90.9175793,18.3033846 91.1741339,18.3942564 C91.4306886,18.4850256 91.758017,18.5758974 92.155918,18.6666667 C92.8522951,18.8268718 93.4256224,19.0192821 93.8759,19.2435897 C94.3261776,19.4678974 94.6613474,19.7430769 94.8812083,20.0689231 C95.1011697,20.3947692 95.2111505,20.7900513 95.2111505,21.2547692 C95.2111505,21.6340513 95.1325353,21.9813333 94.9755062,22.2965128 C94.8236041,22.6116923 94.6011294,22.8841026 94.307881,23.1137436 C94.0199607,23.3381538 93.6743357,23.5144615 93.271207,23.6426667 C92.8732055,23.7655385 92.4255417,23.8268718 91.9281152,23.8268718 C91.1793615,23.8268718 90.5458163,23.6906667 90.0274793,23.4182564 C89.5091424,23.1458462 89.1163684,22.7932308 88.8493585,22.3606154 C88.5823486,21.9278974 88.4488437,21.4711795 88.4488437,20.990359 L89.9096572,20.990359 C89.9305676,21.3964103 90.0457759,21.7195897 90.2552822,21.9598974 C90.4646879,22.1949744 90.7212426,22.3632821 91.0249462,22.4647179 C91.3286498,22.5609231 91.6296391,22.6090256 91.9281152,22.6090256 C92.3261167,22.6090256 92.6585722,22.5555897 92.9255821,22.4487179 C93.1978195,22.3418462 93.404712,22.1949744 93.5460583,22.008 C93.6874047,21.8210256 93.7580779,21.6073846 93.7580779,21.3669744 Z M102.285706,14.9968205 L102.285706,16.1345641 L97.6913465,16.1345641 L97.6913465,14.9968205 L102.285706,14.9968205 Z M99.2464579,12.8894359 L100.699329,12.8894359 L100.699329,21.5191795 C100.699329,21.8130256 100.743563,22.0347692 100.833035,22.1843077 C100.921503,22.3338462 101.037113,22.4327179 101.178862,22.4808205 C101.319605,22.5288205 101.471406,22.5529231 101.634266,22.5529231 C101.754903,22.5529231 101.880567,22.5421538 102.011257,22.5208205 C102.146973,22.4941538 102.249515,22.4727179 102.316871,22.4567179 L102.324913,23.6666667 C102.210308,23.7041026 102.058506,23.7387692 101.869508,23.7708718 C101.686542,23.8082051 101.464369,23.8268718 101.201984,23.8268718 C100.846104,23.8268718 100.518374,23.7547692 100.220803,23.6105641 C99.9219246,23.466359 99.6836665,23.2259487 99.5056264,22.8894359 C99.3328139,22.5475897 99.2464579,22.0881026 99.2464579,21.5111795 L99.2464579,12.8894359 Z M110.546324,21.3669744 C110.546324,21.1533333 110.50008,20.9556923 110.405581,20.7740513 C110.316109,20.5870769 110.130127,20.4187692 109.847635,20.2692308 C109.57017,20.114359 109.150956,19.9807179 108.591,19.8686154 C108.11951,19.7670769 107.693259,19.6468718 107.311242,19.508 C106.934252,19.3691282 106.611548,19.2008205 106.345141,19.0031795 C106.082755,18.8055385 105.881694,18.5732308 105.739945,18.3060513 C105.599202,18.0389744 105.527825,17.7264615 105.527825,17.3686154 C105.527825,17.0266667 105.601213,16.7034872 105.747988,16.3990769 C105.899789,16.0945641 106.111909,15.8248205 106.384348,15.5897436 C106.661813,15.3546667 106.99457,15.170359 107.381614,15.0368205 C107.768657,14.9032821 108.20094,14.8365128 108.677456,14.8365128 C109.35805,14.8365128 109.939118,14.9593846 110.420661,15.2051282 C110.903209,15.4508718 111.272157,15.7793846 111.52851,16.1906667 C111.784864,16.5967179 111.913543,17.0481026 111.913543,17.5448205 L110.459868,17.5448205 C110.459868,17.3045128 110.389496,17.0721026 110.248753,16.8477949 C110.112031,16.6180513 109.910969,16.4284103 109.643557,16.2788718 C109.382177,16.1292308 109.059473,16.0544615 108.677456,16.0544615 C108.274327,16.0544615 107.946597,16.1185641 107.69527,16.2467692 C107.449975,16.369641 107.269019,16.5272821 107.153409,16.7195897 C107.04383,16.9118974 106.988538,17.1148718 106.988538,17.3285128 C106.988538,17.4888205 107.014676,17.6330256 107.066952,17.7612308 C107.12526,17.8841026 107.224786,17.9989744 107.365529,18.1057436 C107.507277,18.2072821 107.706328,18.3033846 107.962682,18.3942564 C108.219036,18.4850256 108.546766,18.5758974 108.944868,18.6666667 C109.640541,18.8268718 110.214572,19.0192821 110.664951,19.2435897 C111.115329,19.4678974 111.450096,19.7430769 111.670259,20.0689231 C111.889416,20.3947692 112,20.7900513 112,21.2547692 C112,21.6340513 111.921586,21.9813333 111.763753,22.2965128 C111.611951,22.6116923 111.389778,22.8841026 111.096228,23.1137436 C110.80871,23.3381538 110.462884,23.5144615 110.059755,23.6426667 C109.661653,23.7655385 109.214291,23.8268718 108.716663,23.8268718 C107.967708,23.8268718 107.334364,23.6906667 106.815625,23.4182564 C106.297891,23.1458462 105.904816,22.7932308 105.638409,22.3606154 C105.370997,21.9278974 105.237291,21.4711795 105.237291,20.990359 L106.698004,20.990359 C106.719116,21.3964103 106.834726,21.7195897 107.04383,21.9598974 C107.252934,22.1949744 107.510293,22.3632821 107.813896,22.4647179 C108.117499,22.5609231 108.418087,22.6090256 108.716663,22.6090256 C109.114765,22.6090256 109.447522,22.5555897 109.713929,22.4487179 C109.986367,22.3418462 110.193461,22.1949744 110.334204,22.008 C110.475953,21.8210256 110.546324,21.6073846 110.546324,21.3669744 Z" id="Shape" fill="#FFFFFF"></path>
            </g>
        </g>
    </g>
</svg>