<?xml version="1.0" encoding="UTF-8"?>
<svg width="16px" height="16px" viewBox="0 0 16 16" version="1.1" xmlns="http://www.w3.org/2000/svg" xmlns:xlink="http://www.w3.org/1999/xlink">
    <title>Group 97</title>
    <g id="Page-1" stroke="none" stroke-width="1" fill="none" fill-rule="evenodd">
        <g id="Group-97" transform="translate(-0.000000, -0.000000)" fill="#4E6E81" fill-rule="nonzero">
            <path d="M4.30005989,13.693849 C4.10434378,13.8899253 3.79040964,13.966363 3.41254831,14.031746 C2.56360396,14.1764032 1.81395402,13.4427899 1.96645564,12.5845924 C2.02467375,12.2592047 2.19681898,11.8031237 2.30396066,11.6959945 C2.32737881,11.6730122 2.34296424,11.6432662 2.34851333,11.610902 C2.35405514,11.5786105 2.34926969,11.5453736 2.33483335,11.5158457 C2.32040427,11.4863907 2.29705885,11.4622448 2.26811343,11.4468263 C2.23917529,11.4314078 2.20609897,11.4254441 2.17360446,11.4298805 C1.69886326,11.4879907 1.25720565,11.7031946 0.918944268,12.0413098 C0.0792871729,12.8816888 2.7815503e-09,16 2.7815503e-09,16 C2.7815503e-09,16 3.1200396,15.9207258 3.9596967,15.0803469 C4.29884535,14.7423044 4.51434325,14.2999691 4.57149227,13.824615 C4.5847068,13.6753032 4.40291794,13.5863561 4.30005989,13.693849 Z" id="Path"></path>
            <path d="M15.915834,0.216911581 C15.9092885,0.185324824 15.8938703,0.156250841 15.8714704,0.133099148 C15.8489977,0.109947454 15.8204159,0.0936773399 15.7889978,0.0861950221 C13.6972186,-0.42524264 8.86391581,1.39729086 6.24532283,4.01483663 C5.77826889,4.47811778 5.35248762,4.98121784 4.97280084,5.51843488 C4.16528916,5.44700813 3.35777748,5.50665285 2.66956019,5.8066583 C0.727744516,6.66131384 0.162380156,8.89136166 0.00487796738,9.85065183 C-0.00405584652,9.90316188 -0.000686005058,9.95705376 0.014722311,10.0080365 C0.0301306547,10.0590193 0.0571573834,10.105711 0.0936769725,10.1444754 C0.130196198,10.1832397 0.17521214,10.2129857 0.225184439,10.2314588 C0.275156738,10.2498591 0.328722487,10.2564774 0.3816686,10.2506591 L3.49992275,9.90672558 C3.5021482,10.1418571 3.51633,10.376625 3.54242451,10.610302 C3.55811904,10.7725595 3.63014803,10.9241986 3.74600243,11.0388916 L4.95351359,12.2435681 C5.06832072,12.3592065 5.21989143,12.4312078 5.38209486,12.4471354 C5.61444365,12.4730995 5.84796335,12.4872816 6.08174486,12.4896089 L5.73959985,15.6039928 C5.73389077,15.6569392 5.74052348,15.7104675 5.75897437,15.7603593 C5.77742525,15.8103238 5.80719249,15.8552701 5.8459488,15.8917799 C5.88469784,15.9282896 5.93138142,15.9553446 5.98232681,15.9707631 C6.03327947,15.9861816 6.08711213,15.9895998 6.1396066,15.9807997 C7.09711809,15.8271969 9.33104248,15.2618048 10.1807141,13.320024 C10.4807137,12.6317933 10.5421682,11.8282151 10.4728592,11.0246368 C11.0114039,10.6449208 11.5158396,10.2190222 11.9804209,9.75174094 C14.6072538,7.13810797 16.4193969,2.41266205 15.915834,0.216911581 Z M9.35962426,6.63381516 C9.11977002,6.39410898 8.95642478,6.08864888 8.89017032,5.75606829 C8.82391586,5.42349497 8.85780672,5.07874689 8.98755201,4.7654321 C9.11722457,4.45211731 9.3370061,4.18430881 9.61889665,3.99589083 C9.90085992,3.80746559 10.2323504,3.70689649 10.5714772,3.70689649 C10.9105313,3.70689649 11.2420218,3.80746559 11.5239851,3.99589083 C11.8059484,4.18430881 12.0256572,4.45211731 12.1554025,4.7654321 C12.285075,5.07874689 12.3189659,5.42349497 12.2527114,5.75606829 C12.1865297,6.08864888 12.0231117,6.39410898 11.7832575,6.63381516 C11.6242031,6.79309806 11.4353307,6.91945672 11.2274037,7.00567647 C11.0194039,7.09188894 10.7965679,7.13626793 10.5714772,7.13626793 C10.3463866,7.13626793 10.1234778,7.09188894 9.91555081,7.00567647 C9.70762381,6.91945672 9.5186786,6.79309806 9.35962426,6.63381516 Z" id="Shape"></path>
        </g>
    </g>
</svg>