<svg width="396" height="36" viewBox="0 0 396 36" fill="none" xmlns="http://www.w3.org/2000/svg">
<path d="M13 19C13 13.4772 17.4772 9 23 9H113.227C118.75 9 123.227 13.4772 123.227 19V35H13V19Z" fill="#97A9B4"/>
<path d="M37.9902 18.8467H40.8145C41.4551 18.8467 41.9961 18.9443 42.4375 19.1396C42.8828 19.335 43.2207 19.624 43.4512 20.0068C43.6855 20.3857 43.8027 20.8525 43.8027 21.4072C43.8027 21.7979 43.7227 22.1553 43.5625 22.4795C43.4062 22.7998 43.1797 23.0732 42.8828 23.2998C42.5898 23.5225 42.2383 23.6885 41.8281 23.7979L41.5117 23.9209H38.8574L38.8457 23.001H40.8496C41.2559 23.001 41.5938 22.9307 41.8633 22.79C42.1328 22.6455 42.3359 22.4521 42.4727 22.21C42.6094 21.9678 42.6777 21.7002 42.6777 21.4072C42.6777 21.0791 42.6133 20.792 42.4844 20.5459C42.3555 20.2998 42.1523 20.1104 41.875 19.9775C41.6016 19.8408 41.248 19.7725 40.8145 19.7725H39.1211V27.3779H37.9902V18.8467ZM42.9766 27.3779L40.9023 23.5107L42.0801 23.5049L44.1836 27.3076V27.3779H42.9766ZM49.0516 27.4951C48.6102 27.4951 48.2098 27.4209 47.8504 27.2725C47.4949 27.1201 47.1883 26.9072 46.9305 26.6338C46.6766 26.3604 46.4812 26.0361 46.3445 25.6611C46.2078 25.2861 46.1395 24.876 46.1395 24.4307V24.1846C46.1395 23.6689 46.2156 23.21 46.368 22.8076C46.5203 22.4014 46.7273 22.0576 46.9891 21.7764C47.2508 21.4951 47.5477 21.2822 47.8797 21.1377C48.2117 20.9932 48.5555 20.9209 48.9109 20.9209C49.3641 20.9209 49.7547 20.999 50.0828 21.1553C50.4148 21.3115 50.6863 21.5303 50.8973 21.8115C51.1082 22.0889 51.2645 22.417 51.366 22.7959C51.4676 23.1709 51.5184 23.5811 51.5184 24.0264V24.5127H46.784V23.6279H50.4344V23.5459C50.4187 23.2646 50.3602 22.9912 50.2586 22.7256C50.1609 22.46 50.0047 22.2412 49.7898 22.0693C49.575 21.8975 49.282 21.8115 48.9109 21.8115C48.6648 21.8115 48.4383 21.8643 48.2312 21.9697C48.0242 22.0713 47.8465 22.2236 47.698 22.4268C47.5496 22.6299 47.4344 22.8779 47.3523 23.1709C47.2703 23.4639 47.2293 23.8018 47.2293 24.1846V24.4307C47.2293 24.7314 47.2703 25.0146 47.3523 25.2803C47.4383 25.542 47.5613 25.7725 47.7215 25.9717C47.8855 26.1709 48.0828 26.3271 48.3133 26.4404C48.5477 26.5537 48.8133 26.6104 49.1102 26.6104C49.493 26.6104 49.8172 26.5322 50.0828 26.376C50.3484 26.2197 50.5809 26.0107 50.7801 25.749L51.4363 26.2705C51.2996 26.4775 51.1258 26.6748 50.9148 26.8623C50.7039 27.0498 50.4441 27.2021 50.1355 27.3193C49.8309 27.4365 49.4695 27.4951 49.0516 27.4951ZM57.6754 25.6963C57.6754 25.54 57.6402 25.3955 57.5699 25.2627C57.5035 25.126 57.3648 25.0029 57.1539 24.8936C56.9469 24.7803 56.6344 24.6826 56.2164 24.6006C55.8648 24.5264 55.5465 24.4385 55.2613 24.3369C54.9801 24.2354 54.7398 24.1123 54.5406 23.9678C54.3453 23.8232 54.1949 23.6533 54.0895 23.458C53.984 23.2627 53.9312 23.0342 53.9312 22.7725C53.9312 22.5225 53.9859 22.2861 54.0953 22.0635C54.2086 21.8408 54.3668 21.6436 54.5699 21.4717C54.777 21.2998 55.025 21.165 55.3141 21.0674C55.6031 20.9697 55.9254 20.9209 56.2809 20.9209C56.7887 20.9209 57.2223 21.0107 57.5816 21.1904C57.941 21.3701 58.2164 21.6104 58.4078 21.9111C58.5992 22.208 58.6949 22.5381 58.6949 22.9014H57.6109C57.6109 22.7256 57.5582 22.5557 57.4527 22.3916C57.3512 22.2236 57.2008 22.085 57.0016 21.9756C56.8062 21.8662 56.566 21.8115 56.2809 21.8115C55.9801 21.8115 55.7359 21.8584 55.5484 21.9521C55.3648 22.042 55.2301 22.1572 55.1441 22.2979C55.0621 22.4385 55.0211 22.5869 55.0211 22.7432C55.0211 22.8604 55.0406 22.9658 55.0797 23.0596C55.1227 23.1494 55.1969 23.2334 55.3023 23.3115C55.4078 23.3857 55.5562 23.4561 55.7477 23.5225C55.9391 23.5889 56.1832 23.6553 56.4801 23.7217C56.9996 23.8389 57.4273 23.9795 57.7633 24.1436C58.0992 24.3076 58.3492 24.5088 58.5133 24.7471C58.6773 24.9854 58.7594 25.2744 58.7594 25.6143C58.7594 25.8916 58.7008 26.1455 58.5836 26.376C58.4703 26.6064 58.3043 26.8057 58.0855 26.9736C57.8707 27.1377 57.6129 27.2666 57.3121 27.3604C57.0152 27.4502 56.6812 27.4951 56.3102 27.4951C55.7516 27.4951 55.2789 27.3955 54.8922 27.1963C54.5055 26.9971 54.2125 26.7393 54.0133 26.4229C53.8141 26.1064 53.7145 25.7725 53.7145 25.4209H54.8043C54.8199 25.7178 54.9059 25.9541 55.0621 26.1299C55.2184 26.3018 55.4098 26.4248 55.6363 26.499C55.8629 26.5693 56.0875 26.6045 56.3102 26.6045C56.607 26.6045 56.8551 26.5654 57.0543 26.4873C57.2574 26.4092 57.4117 26.3018 57.5172 26.165C57.6227 26.0283 57.6754 25.8721 57.6754 25.6963ZM62.4672 22.2568V29.8154H61.3773V21.0381H62.3734L62.4672 22.2568ZM66.7387 24.1553V24.2783C66.7387 24.7393 66.684 25.167 66.5746 25.5615C66.4652 25.9521 66.3051 26.292 66.0941 26.5811C65.8871 26.8701 65.6313 27.0947 65.3266 27.2549C65.0219 27.415 64.6723 27.4951 64.2777 27.4951C63.8754 27.4951 63.5199 27.4287 63.2113 27.2959C62.9027 27.1631 62.641 26.9697 62.4262 26.7158C62.2113 26.4619 62.0395 26.1572 61.9105 25.8018C61.7855 25.4463 61.6996 25.0459 61.6527 24.6006V23.9443C61.6996 23.4756 61.7875 23.0557 61.9164 22.6846C62.0453 22.3135 62.2152 21.9971 62.4262 21.7354C62.641 21.4697 62.9008 21.2686 63.2055 21.1318C63.5102 20.9912 63.8617 20.9209 64.2602 20.9209C64.6586 20.9209 65.0121 20.999 65.3207 21.1553C65.6293 21.3076 65.8891 21.5264 66.1 21.8115C66.3109 22.0967 66.4691 22.4385 66.5746 22.8369C66.684 23.2314 66.7387 23.6709 66.7387 24.1553ZM65.6488 24.2783V24.1553C65.6488 23.8389 65.6156 23.542 65.5492 23.2646C65.4828 22.9834 65.3793 22.7373 65.2387 22.5264C65.102 22.3115 64.9262 22.1436 64.7113 22.0225C64.4965 21.8975 64.2406 21.835 63.9438 21.835C63.6703 21.835 63.432 21.8818 63.2289 21.9756C63.0297 22.0693 62.8598 22.1963 62.7191 22.3564C62.5785 22.5127 62.4633 22.6924 62.3734 22.8955C62.2875 23.0947 62.223 23.3018 62.1801 23.5166V25.0342C62.2582 25.3076 62.3676 25.5654 62.5082 25.8076C62.6488 26.0459 62.8363 26.2393 63.0707 26.3877C63.3051 26.5322 63.6 26.6045 63.9555 26.6045C64.2484 26.6045 64.5004 26.5439 64.7113 26.4229C64.9262 26.2979 65.102 26.1279 65.2387 25.9131C65.3793 25.6982 65.4828 25.4521 65.5492 25.1748C65.6156 24.8936 65.6488 24.5947 65.6488 24.2783ZM69.0344 24.2783V24.1436C69.0344 23.6865 69.1008 23.2627 69.2336 22.8721C69.3664 22.4775 69.5578 22.1357 69.8078 21.8467C70.0578 21.5537 70.3605 21.3271 70.716 21.167C71.0715 21.0029 71.4699 20.9209 71.9113 20.9209C72.3566 20.9209 72.757 21.0029 73.1125 21.167C73.4719 21.3271 73.7766 21.5537 74.0266 21.8467C74.2805 22.1357 74.4738 22.4775 74.6066 22.8721C74.7395 23.2627 74.8059 23.6865 74.8059 24.1436V24.2783C74.8059 24.7354 74.7395 25.1592 74.6066 25.5498C74.4738 25.9404 74.2805 26.2822 74.0266 26.5752C73.7766 26.8643 73.4738 27.0908 73.1184 27.2549C72.7668 27.415 72.3684 27.4951 71.923 27.4951C71.4777 27.4951 71.0773 27.415 70.7219 27.2549C70.3664 27.0908 70.0617 26.8643 69.8078 26.5752C69.5578 26.2822 69.3664 25.9404 69.2336 25.5498C69.1008 25.1592 69.0344 24.7354 69.0344 24.2783ZM70.1184 24.1436V24.2783C70.1184 24.5947 70.1555 24.8936 70.2297 25.1748C70.3039 25.4521 70.4152 25.6982 70.5637 25.9131C70.716 26.1279 70.9055 26.2979 71.132 26.4229C71.3586 26.5439 71.6223 26.6045 71.923 26.6045C72.2199 26.6045 72.4797 26.5439 72.7023 26.4229C72.9289 26.2979 73.1164 26.1279 73.2648 25.9131C73.4133 25.6982 73.5246 25.4521 73.5988 25.1748C73.677 24.8936 73.716 24.5947 73.716 24.2783V24.1436C73.716 23.8311 73.677 23.5361 73.5988 23.2588C73.5246 22.9775 73.4113 22.7295 73.259 22.5146C73.1105 22.2959 72.923 22.124 72.6965 21.999C72.4738 21.874 72.2121 21.8115 71.9113 21.8115C71.6145 21.8115 71.3527 21.874 71.1262 21.999C70.9035 22.124 70.716 22.2959 70.5637 22.5146C70.4152 22.7295 70.3039 22.9775 70.2297 23.2588C70.1555 23.5361 70.1184 23.8311 70.1184 24.1436ZM78.4492 22.3916V27.3779H77.3652V21.0381H78.3906L78.4492 22.3916ZM78.1914 23.9678L77.7402 23.9502C77.7441 23.5166 77.8086 23.1162 77.9336 22.749C78.0586 22.3779 78.2344 22.0557 78.4609 21.7822C78.6875 21.5088 78.957 21.2979 79.2695 21.1494C79.5859 20.9971 79.9355 20.9209 80.3184 20.9209C80.6309 20.9209 80.9121 20.9639 81.1621 21.0498C81.4121 21.1318 81.625 21.2646 81.8008 21.4482C81.9805 21.6318 82.1172 21.8701 82.2109 22.1631C82.3047 22.4521 82.3516 22.8057 82.3516 23.2236V27.3779H81.2617V23.2119C81.2617 22.8799 81.2129 22.6143 81.1152 22.415C81.0176 22.2119 80.875 22.0654 80.6875 21.9756C80.5 21.8818 80.2695 21.835 79.9961 21.835C79.7266 21.835 79.4805 21.8916 79.2578 22.0049C79.0391 22.1182 78.8496 22.2744 78.6895 22.4736C78.5332 22.6729 78.4102 22.9014 78.3203 23.1592C78.2344 23.4131 78.1914 23.6826 78.1914 23.9678ZM89.1941 26.1475V18.3779H90.284V27.3779H89.2879L89.1941 26.1475ZM84.9285 24.2783V24.1553C84.9285 23.6709 84.9871 23.2314 85.1043 22.8369C85.2254 22.4385 85.3953 22.0967 85.6141 21.8115C85.8367 21.5264 86.1004 21.3076 86.4051 21.1553C86.7137 20.999 87.0574 20.9209 87.4363 20.9209C87.8348 20.9209 88.1824 20.9912 88.4793 21.1318C88.7801 21.2686 89.034 21.4697 89.241 21.7354C89.452 21.9971 89.618 22.3135 89.7391 22.6846C89.8602 23.0557 89.9441 23.4756 89.991 23.9443V24.4834C89.948 24.9482 89.8641 25.3662 89.7391 25.7373C89.618 26.1084 89.452 26.4248 89.241 26.6865C89.034 26.9482 88.7801 27.1494 88.4793 27.29C88.1785 27.4268 87.827 27.4951 87.4246 27.4951C87.0535 27.4951 86.7137 27.415 86.4051 27.2549C86.1004 27.0947 85.8367 26.8701 85.6141 26.5811C85.3953 26.292 85.2254 25.9521 85.1043 25.5615C84.9871 25.167 84.9285 24.7393 84.9285 24.2783ZM86.0184 24.1553V24.2783C86.0184 24.5947 86.0496 24.8916 86.1121 25.1689C86.1785 25.4463 86.2801 25.6904 86.4168 25.9014C86.5535 26.1123 86.7273 26.2783 86.9383 26.3994C87.1492 26.5166 87.4012 26.5752 87.6941 26.5752C88.0535 26.5752 88.3484 26.499 88.5789 26.3467C88.8133 26.1943 89.0008 25.9932 89.1414 25.7432C89.282 25.4932 89.3914 25.2217 89.4695 24.9287V23.5166C89.4227 23.3018 89.3543 23.0947 89.2645 22.8955C89.1785 22.6924 89.0652 22.5127 88.9246 22.3564C88.7879 22.1963 88.618 22.0693 88.4148 21.9756C88.2156 21.8818 87.9793 21.835 87.7059 21.835C87.409 21.835 87.1531 21.8975 86.9383 22.0225C86.7273 22.1436 86.5535 22.3115 86.4168 22.5264C86.2801 22.7373 86.1785 22.9834 86.1121 23.2646C86.0496 23.542 86.0184 23.8389 86.0184 24.1553Z" fill="white"/>
<path d="M395.5 35H388.762C383.24 35 378.762 30.5228 378.762 25V11C378.762 5.47715 374.285 1 368.762 1H268.893C263.37 1 258.893 5.47715 258.893 11V25C258.893 30.5228 254.415 35 248.893 35H0.5" stroke="#4E6E81" stroke-width="2"/>
<path d="M296.859 23.834H299.057C298.986 24.6719 298.752 25.4189 298.354 26.0752C297.955 26.7256 297.396 27.2383 296.675 27.6133C295.954 27.9883 295.078 28.1758 294.047 28.1758C293.256 28.1758 292.544 28.0352 291.911 27.7539C291.278 27.4668 290.736 27.0625 290.285 26.541C289.834 26.0137 289.488 25.3779 289.248 24.6338C289.014 23.8896 288.896 23.0576 288.896 22.1377V21.0742C288.896 20.1543 289.017 19.3223 289.257 18.5781C289.503 17.834 289.854 17.1982 290.312 16.6709C290.769 16.1377 291.316 15.7305 291.955 15.4492C292.6 15.168 293.323 15.0273 294.126 15.0273C295.146 15.0273 296.007 15.2148 296.71 15.5898C297.413 15.9648 297.958 16.4834 298.345 17.1455C298.737 17.8076 298.978 18.5664 299.065 19.4219H296.868C296.81 18.8711 296.681 18.3994 296.481 18.0068C296.288 17.6143 296.001 17.3154 295.62 17.1104C295.239 16.8994 294.741 16.7939 294.126 16.7939C293.622 16.7939 293.183 16.8877 292.808 17.0752C292.433 17.2627 292.119 17.5381 291.867 17.9014C291.615 18.2646 291.425 18.7129 291.296 19.2461C291.173 19.7734 291.111 20.377 291.111 21.0566V22.1377C291.111 22.7822 291.167 23.3682 291.278 23.8955C291.396 24.417 291.571 24.8652 291.806 25.2402C292.046 25.6152 292.351 25.9053 292.72 26.1104C293.089 26.3154 293.531 26.418 294.047 26.418C294.674 26.418 295.181 26.3184 295.567 26.1191C295.96 25.9199 296.256 25.6299 296.455 25.249C296.66 24.8623 296.795 24.3906 296.859 23.834ZM304.741 14.5V28H302.632V14.5H304.741ZM304.372 22.8936L303.687 22.8848C303.693 22.2285 303.783 21.6221 303.959 21.0654C304.141 20.5088 304.393 20.0254 304.715 19.6152C305.043 19.1992 305.436 18.8799 305.893 18.6572C306.35 18.4287 306.857 18.3145 307.413 18.3145C307.882 18.3145 308.304 18.3789 308.679 18.5078C309.06 18.6367 309.388 18.8447 309.663 19.1318C309.939 19.4131 310.147 19.7822 310.287 20.2393C310.434 20.6904 310.507 21.2412 310.507 21.8916V28H308.38V21.874C308.38 21.417 308.313 21.0537 308.178 20.7842C308.049 20.5146 307.859 20.3213 307.607 20.2041C307.355 20.0811 307.047 20.0195 306.684 20.0195C306.303 20.0195 305.966 20.0957 305.673 20.248C305.386 20.4004 305.146 20.6084 304.952 20.8721C304.759 21.1357 304.613 21.4404 304.513 21.7861C304.419 22.1318 304.372 22.501 304.372 22.8936ZM319.813 26.0928V21.5576C319.813 21.2178 319.751 20.9248 319.628 20.6787C319.505 20.4326 319.318 20.2422 319.066 20.1074C318.82 19.9727 318.509 19.9053 318.134 19.9053C317.788 19.9053 317.49 19.9639 317.238 20.0811C316.986 20.1982 316.789 20.3564 316.649 20.5557C316.508 20.7549 316.438 20.9805 316.438 21.2324H314.329C314.329 20.8574 314.419 20.4941 314.601 20.1426C314.783 19.791 315.046 19.4775 315.392 19.2021C315.738 18.9268 316.151 18.71 316.631 18.5518C317.112 18.3936 317.651 18.3145 318.248 18.3145C318.963 18.3145 319.596 18.4346 320.147 18.6748C320.704 18.915 321.14 19.2783 321.456 19.7646C321.779 20.2451 321.94 20.8486 321.94 21.5752V25.8027C321.94 26.2363 321.969 26.626 322.028 26.9717C322.092 27.3115 322.183 27.6074 322.3 27.8594V28H320.129C320.03 27.7715 319.951 27.4814 319.892 27.1299C319.839 26.7725 319.813 26.4268 319.813 26.0928ZM320.121 22.2168L320.138 23.5264H318.618C318.225 23.5264 317.879 23.5645 317.58 23.6406C317.282 23.7109 317.033 23.8164 316.833 23.957C316.634 24.0977 316.485 24.2676 316.385 24.4668C316.286 24.666 316.236 24.8916 316.236 25.1436C316.236 25.3955 316.294 25.627 316.412 25.8379C316.529 26.043 316.699 26.2041 316.921 26.3213C317.15 26.4385 317.425 26.4971 317.747 26.4971C318.181 26.4971 318.559 26.4092 318.881 26.2334C319.209 26.0518 319.467 25.832 319.655 25.5742C319.842 25.3105 319.942 25.0615 319.954 24.8271L320.639 25.7676C320.569 26.0078 320.449 26.2656 320.279 26.541C320.109 26.8164 319.886 27.0801 319.611 27.332C319.341 27.5781 319.016 27.7803 318.635 27.9385C318.26 28.0967 317.827 28.1758 317.334 28.1758C316.713 28.1758 316.16 28.0527 315.673 27.8066C315.187 27.5547 314.806 27.2178 314.531 26.7959C314.255 26.3682 314.118 25.8848 314.118 25.3457C314.118 24.8418 314.211 24.3965 314.399 24.0098C314.592 23.6172 314.873 23.2891 315.243 23.0254C315.618 22.7617 316.075 22.5625 316.614 22.4277C317.153 22.2871 317.768 22.2168 318.459 22.2168H320.121ZM330.314 18.4902V20.0371H324.953V18.4902H330.314ZM326.5 16.1611H328.618V25.3721C328.618 25.665 328.659 25.8906 328.741 26.0488C328.829 26.2012 328.949 26.3037 329.101 26.3564C329.254 26.4092 329.432 26.4355 329.637 26.4355C329.784 26.4355 329.924 26.4268 330.059 26.4092C330.194 26.3916 330.302 26.374 330.384 26.3564L330.393 27.9736C330.217 28.0264 330.012 28.0732 329.778 28.1143C329.549 28.1553 329.286 28.1758 328.987 28.1758C328.501 28.1758 328.07 28.0908 327.695 27.9209C327.32 27.7451 327.027 27.4609 326.816 27.0684C326.605 26.6758 326.5 26.1543 326.5 25.5039V16.1611ZM339.084 25.4248C339.084 25.2139 339.031 25.0234 338.926 24.8535C338.82 24.6777 338.618 24.5195 338.319 24.3789C338.026 24.2383 337.593 24.1094 337.018 23.9922C336.514 23.8809 336.052 23.749 335.63 23.5967C335.214 23.4385 334.856 23.248 334.557 23.0254C334.259 22.8027 334.027 22.5391 333.863 22.2344C333.699 21.9297 333.617 21.5781 333.617 21.1797C333.617 20.793 333.702 20.4268 333.872 20.0811C334.042 19.7354 334.285 19.4307 334.601 19.167C334.918 18.9033 335.302 18.6953 335.753 18.543C336.21 18.3906 336.72 18.3145 337.282 18.3145C338.079 18.3145 338.762 18.4492 339.33 18.7188C339.904 18.9824 340.344 19.3428 340.648 19.7998C340.953 20.251 341.105 20.7607 341.105 21.3291H338.987C338.987 21.0771 338.923 20.8428 338.794 20.626C338.671 20.4033 338.483 20.2246 338.231 20.0898C337.979 19.9492 337.663 19.8789 337.282 19.8789C336.919 19.8789 336.617 19.9375 336.377 20.0547C336.142 20.166 335.967 20.3125 335.849 20.4941C335.738 20.6758 335.682 20.875 335.682 21.0918C335.682 21.25 335.712 21.3936 335.77 21.5225C335.835 21.6455 335.94 21.7598 336.087 21.8652C336.233 21.9648 336.432 22.0586 336.684 22.1465C336.942 22.2344 337.264 22.3193 337.651 22.4014C338.378 22.5537 339.002 22.75 339.523 22.9902C340.051 23.2246 340.455 23.5293 340.736 23.9043C341.017 24.2734 341.158 24.7422 341.158 25.3105C341.158 25.7324 341.067 26.1191 340.886 26.4707C340.71 26.8164 340.452 27.1182 340.112 27.376C339.772 27.6279 339.365 27.8242 338.89 27.9648C338.422 28.1055 337.894 28.1758 337.308 28.1758C336.447 28.1758 335.718 28.0234 335.12 27.7188C334.522 27.4082 334.068 27.0127 333.758 26.5322C333.453 26.0459 333.301 25.542 333.301 25.0205H335.348C335.372 25.4131 335.48 25.7266 335.674 25.9609C335.873 26.1895 336.119 26.3564 336.412 26.4619C336.711 26.5615 337.018 26.6113 337.335 26.6113C337.716 26.6113 338.035 26.5615 338.293 26.4619C338.551 26.3564 338.747 26.2158 338.882 26.04C339.016 25.8584 339.084 25.6533 339.084 25.4248Z" fill="#4E6E81"/>
<path d="M133 18C133 12.4772 137.477 8 143 8H233.227C238.75 8 243.227 12.4772 243.227 18V34H133V18Z" fill="#97A9B4"/>
<path d="M165.141 23.5176H166.266C166.207 24.0566 166.053 24.5391 165.803 24.9648C165.553 25.3906 165.199 25.7285 164.742 25.9785C164.285 26.2246 163.715 26.3477 163.031 26.3477C162.531 26.3477 162.076 26.2539 161.666 26.0664C161.26 25.8789 160.91 25.6133 160.617 25.2695C160.324 24.9219 160.098 24.5059 159.938 24.0215C159.781 23.5332 159.703 22.9902 159.703 22.3926V21.543C159.703 20.9453 159.781 20.4043 159.938 19.9199C160.098 19.4316 160.326 19.0137 160.623 18.666C160.924 18.3184 161.285 18.0508 161.707 17.8633C162.129 17.6758 162.604 17.582 163.131 17.582C163.775 17.582 164.32 17.7031 164.766 17.9453C165.211 18.1875 165.557 18.5234 165.803 18.9531C166.053 19.3789 166.207 19.873 166.266 20.4355H165.141C165.086 20.0371 164.984 19.6953 164.836 19.4102C164.688 19.1211 164.477 18.8984 164.203 18.7422C163.93 18.5859 163.572 18.5078 163.131 18.5078C162.752 18.5078 162.418 18.5801 162.129 18.7246C161.844 18.8691 161.604 19.0742 161.408 19.3398C161.217 19.6055 161.072 19.9238 160.975 20.2949C160.877 20.666 160.828 21.0781 160.828 21.5312V22.3926C160.828 22.8105 160.871 23.2031 160.957 23.5703C161.047 23.9375 161.182 24.2598 161.361 24.5371C161.541 24.8145 161.77 25.0332 162.047 25.1934C162.324 25.3496 162.652 25.4277 163.031 25.4277C163.512 25.4277 163.895 25.3516 164.18 25.1992C164.465 25.0469 164.68 24.8281 164.824 24.543C164.973 24.2578 165.078 23.916 165.141 23.5176ZM168.555 23.1309V22.9961C168.555 22.5391 168.622 22.1152 168.755 21.7246C168.887 21.3301 169.079 20.9883 169.329 20.6992C169.579 20.4062 169.882 20.1797 170.237 20.0195C170.593 19.8555 170.991 19.7734 171.432 19.7734C171.878 19.7734 172.278 19.8555 172.634 20.0195C172.993 20.1797 173.298 20.4062 173.548 20.6992C173.802 20.9883 173.995 21.3301 174.128 21.7246C174.261 22.1152 174.327 22.5391 174.327 22.9961V23.1309C174.327 23.5879 174.261 24.0117 174.128 24.4023C173.995 24.793 173.802 25.1348 173.548 25.4277C173.298 25.7168 172.995 25.9434 172.639 26.1074C172.288 26.2676 171.889 26.3477 171.444 26.3477C170.999 26.3477 170.598 26.2676 170.243 26.1074C169.887 25.9434 169.583 25.7168 169.329 25.4277C169.079 25.1348 168.887 24.793 168.755 24.4023C168.622 24.0117 168.555 23.5879 168.555 23.1309ZM169.639 22.9961V23.1309C169.639 23.4473 169.677 23.7461 169.751 24.0273C169.825 24.3047 169.936 24.5508 170.085 24.7656C170.237 24.9805 170.427 25.1504 170.653 25.2754C170.88 25.3965 171.143 25.457 171.444 25.457C171.741 25.457 172.001 25.3965 172.223 25.2754C172.45 25.1504 172.637 24.9805 172.786 24.7656C172.934 24.5508 173.046 24.3047 173.12 24.0273C173.198 23.7461 173.237 23.4473 173.237 23.1309V22.9961C173.237 22.6836 173.198 22.3887 173.12 22.1113C173.046 21.8301 172.932 21.582 172.78 21.3672C172.632 21.1484 172.444 20.9766 172.218 20.8516C171.995 20.7266 171.733 20.6641 171.432 20.6641C171.136 20.6641 170.874 20.7266 170.647 20.8516C170.425 20.9766 170.237 21.1484 170.085 21.3672C169.936 21.582 169.825 21.8301 169.751 22.1113C169.677 22.3887 169.639 22.6836 169.639 22.9961ZM177.97 21.2441V26.2305H176.886V19.8906H177.912L177.97 21.2441ZM177.712 22.8203L177.261 22.8027C177.265 22.3691 177.33 21.9688 177.455 21.6016C177.58 21.2305 177.755 20.9082 177.982 20.6348C178.209 20.3613 178.478 20.1504 178.791 20.002C179.107 19.8496 179.457 19.7734 179.839 19.7734C180.152 19.7734 180.433 19.8164 180.683 19.9023C180.933 19.9844 181.146 20.1172 181.322 20.3008C181.502 20.4844 181.638 20.7227 181.732 21.0156C181.826 21.3047 181.873 21.6582 181.873 22.0762V26.2305H180.783V22.0645C180.783 21.7324 180.734 21.4668 180.636 21.2676C180.539 21.0645 180.396 20.918 180.209 20.8281C180.021 20.7344 179.791 20.6875 179.517 20.6875C179.248 20.6875 179.002 20.7441 178.779 20.8574C178.56 20.9707 178.371 21.127 178.211 21.3262C178.054 21.5254 177.931 21.7539 177.841 22.0117C177.755 22.2656 177.712 22.5352 177.712 22.8203ZM187.373 19.8906V20.7227H183.946V19.8906H187.373ZM185.106 18.3496H186.19V24.6602C186.19 24.875 186.223 25.0371 186.289 25.1465C186.356 25.2559 186.442 25.3281 186.547 25.3633C186.653 25.3984 186.766 25.416 186.887 25.416C186.977 25.416 187.071 25.4082 187.168 25.3926C187.27 25.373 187.346 25.3574 187.397 25.3457L187.403 26.2305C187.317 26.2578 187.204 26.2832 187.063 26.3066C186.926 26.334 186.76 26.3477 186.565 26.3477C186.299 26.3477 186.055 26.2949 185.832 26.1895C185.61 26.084 185.432 25.9082 185.299 25.6621C185.17 25.4121 185.106 25.0762 185.106 24.6543V18.3496ZM193.583 25.1465V21.8828C193.583 21.6328 193.532 21.416 193.431 21.2324C193.333 21.0449 193.185 20.9004 192.986 20.7988C192.786 20.6973 192.54 20.6465 192.247 20.6465C191.974 20.6465 191.734 20.6934 191.527 20.7871C191.323 20.8809 191.163 21.0039 191.046 21.1562C190.933 21.3086 190.876 21.4727 190.876 21.6484H189.792C189.792 21.4219 189.851 21.1973 189.968 20.9746C190.085 20.752 190.253 20.5508 190.472 20.3711C190.695 20.1875 190.96 20.043 191.269 19.9375C191.581 19.8281 191.929 19.7734 192.312 19.7734C192.773 19.7734 193.179 19.8516 193.53 20.0078C193.886 20.1641 194.163 20.4004 194.362 20.7168C194.566 21.0293 194.667 21.4219 194.667 21.8945V24.8477C194.667 25.0586 194.685 25.2832 194.72 25.5215C194.759 25.7598 194.816 25.9648 194.89 26.1367V26.2305H193.759C193.704 26.1055 193.661 25.9395 193.63 25.7324C193.599 25.5215 193.583 25.3262 193.583 25.1465ZM193.771 22.3867L193.782 23.1484H192.687C192.378 23.1484 192.103 23.1738 191.861 23.2246C191.618 23.2715 191.415 23.3438 191.251 23.4414C191.087 23.5391 190.962 23.6621 190.876 23.8105C190.79 23.9551 190.747 24.125 190.747 24.3203C190.747 24.5195 190.792 24.7012 190.882 24.8652C190.972 25.0293 191.107 25.1602 191.286 25.2578C191.47 25.3516 191.695 25.3984 191.96 25.3984C192.292 25.3984 192.585 25.3281 192.839 25.1875C193.093 25.0469 193.294 24.875 193.443 24.6719C193.595 24.4688 193.677 24.2715 193.689 24.0801L194.152 24.6016C194.124 24.7656 194.05 24.9473 193.929 25.1465C193.808 25.3457 193.646 25.5371 193.443 25.7207C193.243 25.9004 193.005 26.0508 192.728 26.1719C192.454 26.2891 192.146 26.3477 191.802 26.3477C191.372 26.3477 190.995 26.2637 190.671 26.0957C190.351 25.9277 190.101 25.7031 189.921 25.4219C189.745 25.1367 189.657 24.8184 189.657 24.4668C189.657 24.127 189.724 23.8281 189.857 23.5703C189.989 23.3086 190.181 23.0918 190.431 22.9199C190.681 22.7441 190.982 22.6113 191.333 22.5215C191.685 22.4316 192.077 22.3867 192.511 22.3867H193.771ZM200.109 25.457C200.367 25.457 200.605 25.4043 200.824 25.2988C201.043 25.1934 201.223 25.0488 201.363 24.8652C201.504 24.6777 201.584 24.4648 201.604 24.2266H202.635C202.615 24.6016 202.488 24.9512 202.254 25.2754C202.023 25.5957 201.721 25.8555 201.346 26.0547C200.971 26.25 200.559 26.3477 200.109 26.3477C199.633 26.3477 199.217 26.2637 198.861 26.0957C198.51 25.9277 198.217 25.6973 197.982 25.4043C197.752 25.1113 197.578 24.7754 197.461 24.3965C197.348 24.0137 197.291 23.6094 197.291 23.1836V22.9375C197.291 22.5117 197.348 22.1094 197.461 21.7305C197.578 21.3477 197.752 21.0098 197.982 20.7168C198.217 20.4238 198.51 20.1934 198.861 20.0254C199.217 19.8574 199.633 19.7734 200.109 19.7734C200.605 19.7734 201.039 19.875 201.41 20.0781C201.781 20.2773 202.072 20.5508 202.283 20.8984C202.498 21.2422 202.615 21.6328 202.635 22.0703H201.604C201.584 21.8086 201.51 21.5723 201.381 21.3613C201.256 21.1504 201.084 20.9824 200.865 20.8574C200.65 20.7285 200.398 20.6641 200.109 20.6641C199.777 20.6641 199.498 20.7305 199.271 20.8633C199.049 20.9922 198.871 21.168 198.738 21.3906C198.609 21.6094 198.516 21.8535 198.457 22.123C198.402 22.3887 198.375 22.6602 198.375 22.9375V23.1836C198.375 23.4609 198.402 23.7344 198.457 24.0039C198.512 24.2734 198.604 24.5176 198.732 24.7363C198.865 24.9551 199.043 25.1309 199.266 25.2637C199.492 25.3926 199.773 25.457 200.109 25.457ZM207.708 19.8906V20.7227H204.28V19.8906H207.708ZM205.44 18.3496H206.524V24.6602C206.524 24.875 206.557 25.0371 206.624 25.1465C206.69 25.2559 206.776 25.3281 206.882 25.3633C206.987 25.3984 207.1 25.416 207.221 25.416C207.311 25.416 207.405 25.4082 207.503 25.3926C207.604 25.373 207.68 25.3574 207.731 25.3457L207.737 26.2305C207.651 26.2578 207.538 26.2832 207.397 26.3066C207.261 26.334 207.095 26.3477 206.899 26.3477C206.634 26.3477 206.389 26.2949 206.167 26.1895C205.944 26.084 205.766 25.9082 205.634 25.6621C205.505 25.4121 205.44 25.0762 205.44 24.6543V18.3496ZM213.871 24.5488C213.871 24.3926 213.836 24.248 213.765 24.1152C213.699 23.9785 213.56 23.8555 213.349 23.7461C213.142 23.6328 212.83 23.5352 212.412 23.4531C212.06 23.3789 211.742 23.291 211.457 23.1895C211.175 23.0879 210.935 22.9648 210.736 22.8203C210.541 22.6758 210.39 22.5059 210.285 22.3105C210.179 22.1152 210.127 21.8867 210.127 21.625C210.127 21.375 210.181 21.1387 210.291 20.916C210.404 20.6934 210.562 20.4961 210.765 20.3242C210.972 20.1523 211.22 20.0176 211.509 19.9199C211.798 19.8223 212.121 19.7734 212.476 19.7734C212.984 19.7734 213.418 19.8633 213.777 20.043C214.136 20.2227 214.412 20.4629 214.603 20.7637C214.795 21.0605 214.89 21.3906 214.89 21.7539H213.806C213.806 21.5781 213.754 21.4082 213.648 21.2441C213.546 21.0762 213.396 20.9375 213.197 20.8281C213.002 20.7188 212.761 20.6641 212.476 20.6641C212.175 20.6641 211.931 20.7109 211.744 20.8047C211.56 20.8945 211.425 21.0098 211.339 21.1504C211.257 21.291 211.216 21.4395 211.216 21.5957C211.216 21.7129 211.236 21.8184 211.275 21.9121C211.318 22.002 211.392 22.0859 211.498 22.1641C211.603 22.2383 211.752 22.3086 211.943 22.375C212.134 22.4414 212.379 22.5078 212.675 22.5742C213.195 22.6914 213.623 22.832 213.959 22.9961C214.295 23.1602 214.545 23.3613 214.709 23.5996C214.873 23.8379 214.955 24.127 214.955 24.4668C214.955 24.7441 214.896 24.998 214.779 25.2285C214.666 25.459 214.5 25.6582 214.281 25.8262C214.066 25.9902 213.808 26.1191 213.507 26.2129C213.211 26.3027 212.877 26.3477 212.505 26.3477C211.947 26.3477 211.474 26.248 211.088 26.0488C210.701 25.8496 210.408 25.5918 210.209 25.2754C210.009 24.959 209.91 24.625 209.91 24.2734H211C211.015 24.5703 211.101 24.8066 211.257 24.9824C211.414 25.1543 211.605 25.2773 211.832 25.3516C212.058 25.4219 212.283 25.457 212.505 25.457C212.802 25.457 213.05 25.418 213.25 25.3398C213.453 25.2617 213.607 25.1543 213.713 25.0176C213.818 24.8809 213.871 24.7246 213.871 24.5488Z" fill="white"/>
</svg>
