<svg width="396" height="36" viewBox="0 0 396 36" fill="none" xmlns="http://www.w3.org/2000/svg">
<path d="M13 19C13 13.4772 17.4772 9 23 9H113.227C118.75 9 123.227 13.4772 123.227 19V35H13V19Z" fill="#97A9B4"/>
<path d="M40.8469 18.4688H43.6711C44.3117 18.4688 44.8527 18.5664 45.2941 18.7617C45.7395 18.957 46.0773 19.2461 46.3078 19.6289C46.5422 20.0078 46.6594 20.4746 46.6594 21.0293C46.6594 21.4199 46.5793 21.7773 46.4191 22.1016C46.2629 22.4219 46.0363 22.6953 45.7395 22.9219C45.4465 23.1445 45.0949 23.3105 44.6848 23.4199L44.3684 23.543H41.7141L41.7023 22.623H43.7062C44.1125 22.623 44.4504 22.5527 44.7199 22.4121C44.9895 22.2676 45.1926 22.0742 45.3293 21.832C45.466 21.5898 45.5344 21.3223 45.5344 21.0293C45.5344 20.7012 45.4699 20.4141 45.341 20.168C45.2121 19.9219 45.009 19.7324 44.7316 19.5996C44.4582 19.4629 44.1047 19.3945 43.6711 19.3945H41.9777V27H40.8469V18.4688ZM45.8332 27L43.759 23.1328L44.9367 23.127L47.0402 26.9297V27H45.8332ZM51.9082 27.1172C51.4668 27.1172 51.0664 27.043 50.707 26.8945C50.3516 26.7422 50.0449 26.5293 49.7871 26.2559C49.5332 25.9824 49.3379 25.6582 49.2012 25.2832C49.0645 24.9082 48.9961 24.498 48.9961 24.0527V23.8066C48.9961 23.291 49.0723 22.832 49.2246 22.4297C49.377 22.0234 49.584 21.6797 49.8457 21.3984C50.1074 21.1172 50.4043 20.9043 50.7363 20.7598C51.0684 20.6152 51.4121 20.543 51.7676 20.543C52.2207 20.543 52.6113 20.6211 52.9395 20.7773C53.2715 20.9336 53.543 21.1523 53.7539 21.4336C53.9648 21.7109 54.1211 22.0391 54.2227 22.418C54.3242 22.793 54.375 23.2031 54.375 23.6484V24.1348H49.6406V23.25H53.291V23.168C53.2754 22.8867 53.2168 22.6133 53.1152 22.3477C53.0176 22.082 52.8613 21.8633 52.6465 21.6914C52.4316 21.5195 52.1387 21.4336 51.7676 21.4336C51.5215 21.4336 51.2949 21.4863 51.0879 21.5918C50.8809 21.6934 50.7031 21.8457 50.5547 22.0488C50.4062 22.252 50.291 22.5 50.209 22.793C50.127 23.0859 50.0859 23.4238 50.0859 23.8066V24.0527C50.0859 24.3535 50.127 24.6367 50.209 24.9023C50.2949 25.1641 50.418 25.3945 50.5781 25.5938C50.7422 25.793 50.9395 25.9492 51.1699 26.0625C51.4043 26.1758 51.6699 26.2324 51.9668 26.2324C52.3496 26.2324 52.6738 26.1543 52.9395 25.998C53.2051 25.8418 53.4375 25.6328 53.6367 25.3711L54.293 25.8926C54.1562 26.0996 53.9824 26.2969 53.7715 26.4844C53.5605 26.6719 53.3008 26.8242 52.9922 26.9414C52.6875 27.0586 52.3262 27.1172 51.9082 27.1172ZM60.8309 29.4375V21.8789L60.9246 20.6602H61.9207V29.4375H60.8309ZM56.5711 23.9004V23.7773C56.5711 23.293 56.6277 22.8535 56.741 22.459C56.8543 22.0605 57.0203 21.7188 57.2391 21.4336C57.4578 21.1484 57.7215 20.9297 58.0301 20.7773C58.3426 20.6211 58.698 20.543 59.0965 20.543C59.4949 20.543 59.8445 20.6133 60.1453 20.7539C60.45 20.8906 60.7078 21.0918 60.9187 21.3574C61.1336 21.6191 61.3035 21.9355 61.4285 22.3066C61.5535 22.6777 61.6395 23.0977 61.6863 23.5664V24.1055C61.6434 24.5703 61.5594 24.9883 61.4344 25.3594C61.3094 25.7305 61.1395 26.0469 60.9246 26.3086C60.7137 26.5703 60.4539 26.7715 60.1453 26.9121C59.8406 27.0488 59.4871 27.1172 59.0848 27.1172C58.6941 27.1172 58.3426 27.0371 58.0301 26.877C57.7215 26.7168 57.4578 26.4922 57.2391 26.2031C57.0242 25.9141 56.8582 25.5742 56.741 25.1836C56.6277 24.7891 56.5711 24.3613 56.5711 23.9004ZM57.6609 23.7773V23.9004C57.6609 24.2168 57.6941 24.5156 57.7605 24.7969C57.827 25.0742 57.9285 25.3203 58.0652 25.5352C58.2059 25.75 58.3816 25.9199 58.5926 26.0449C58.8074 26.166 59.0613 26.2266 59.3543 26.2266C59.7137 26.2266 60.0125 26.1484 60.2508 25.9922C60.493 25.8359 60.6863 25.6309 60.8309 25.377C60.9754 25.1191 61.0867 24.8438 61.1648 24.5508V23.1387C61.1219 22.9238 61.0535 22.7148 60.9598 22.5117C60.8699 22.3086 60.7527 22.127 60.6082 21.9668C60.4637 21.8027 60.2879 21.6738 60.0809 21.5801C59.8777 21.4824 59.6395 21.4336 59.366 21.4336C59.0691 21.4336 58.8133 21.4961 58.5984 21.6211C58.3836 21.7461 58.2059 21.918 58.0652 22.1367C57.9285 22.3516 57.827 22.5996 57.7605 22.8809C57.6941 23.1621 57.6609 23.4609 57.6609 23.7773ZM68.7398 25.5352V20.6602H69.8297V27H68.7926L68.7398 25.5352ZM68.9449 24.1992L69.3961 24.1875C69.3961 24.6094 69.3512 25 69.2613 25.3594C69.1754 25.7148 69.0348 26.0234 68.8395 26.2852C68.6441 26.5469 68.3883 26.752 68.0719 26.9004C67.7555 27.0449 67.3707 27.1172 66.9176 27.1172C66.609 27.1172 66.3258 27.0723 66.068 26.9824C65.8141 26.8926 65.5953 26.7539 65.4117 26.5664C65.2281 26.3789 65.0855 26.1348 64.984 25.834C64.8863 25.5332 64.8375 25.1719 64.8375 24.75V20.6602H65.9215V24.7617C65.9215 25.0469 65.9527 25.2832 66.0152 25.4707C66.0816 25.6543 66.1695 25.8008 66.2789 25.9102C66.3922 26.0156 66.5172 26.0898 66.6539 26.1328C66.7945 26.1758 66.9391 26.1973 67.0875 26.1973C67.5484 26.1973 67.9137 26.1094 68.1832 25.9336C68.4527 25.7539 68.6461 25.5137 68.7633 25.2129C68.8844 24.9082 68.9449 24.5703 68.9449 24.1992ZM75.3129 27.1172C74.8715 27.1172 74.4711 27.043 74.1117 26.8945C73.7562 26.7422 73.4496 26.5293 73.1918 26.2559C72.9379 25.9824 72.7426 25.6582 72.6059 25.2832C72.4691 24.9082 72.4008 24.498 72.4008 24.0527V23.8066C72.4008 23.291 72.477 22.832 72.6293 22.4297C72.7816 22.0234 72.9887 21.6797 73.2504 21.3984C73.5121 21.1172 73.809 20.9043 74.141 20.7598C74.473 20.6152 74.8168 20.543 75.1723 20.543C75.6254 20.543 76.016 20.6211 76.3441 20.7773C76.6762 20.9336 76.9477 21.1523 77.1586 21.4336C77.3695 21.7109 77.5258 22.0391 77.6273 22.418C77.7289 22.793 77.7797 23.2031 77.7797 23.6484V24.1348H73.0453V23.25H76.6957V23.168C76.6801 22.8867 76.6215 22.6133 76.5199 22.3477C76.4223 22.082 76.266 21.8633 76.0512 21.6914C75.8363 21.5195 75.5434 21.4336 75.1723 21.4336C74.9262 21.4336 74.6996 21.4863 74.4926 21.5918C74.2855 21.6934 74.1078 21.8457 73.9594 22.0488C73.8109 22.252 73.6957 22.5 73.6137 22.793C73.5316 23.0859 73.4906 23.4238 73.4906 23.8066V24.0527C73.4906 24.3535 73.5316 24.6367 73.6137 24.9023C73.6996 25.1641 73.8227 25.3945 73.9828 25.5938C74.1469 25.793 74.3441 25.9492 74.5746 26.0625C74.809 26.1758 75.0746 26.2324 75.3715 26.2324C75.7543 26.2324 76.0785 26.1543 76.3441 25.998C76.6098 25.8418 76.8422 25.6328 77.0414 25.3711L77.6977 25.8926C77.5609 26.0996 77.3871 26.2969 77.1762 26.4844C76.9652 26.6719 76.7055 26.8242 76.3969 26.9414C76.0922 27.0586 75.7309 27.1172 75.3129 27.1172ZM83.9367 25.3184C83.9367 25.1621 83.9016 25.0176 83.8312 24.8848C83.7648 24.748 83.6262 24.625 83.4152 24.5156C83.2082 24.4023 82.8957 24.3047 82.4777 24.2227C82.1262 24.1484 81.8078 24.0605 81.5227 23.959C81.2414 23.8574 81.0012 23.7344 80.802 23.5898C80.6066 23.4453 80.4562 23.2754 80.3508 23.0801C80.2453 22.8848 80.1926 22.6562 80.1926 22.3945C80.1926 22.1445 80.2473 21.9082 80.3566 21.6855C80.4699 21.4629 80.6281 21.2656 80.8312 21.0938C81.0383 20.9219 81.2863 20.7871 81.5754 20.6895C81.8645 20.5918 82.1867 20.543 82.5422 20.543C83.05 20.543 83.4836 20.6328 83.843 20.8125C84.2023 20.9922 84.4777 21.2324 84.6691 21.5332C84.8605 21.8301 84.9562 22.1602 84.9562 22.5234H83.8723C83.8723 22.3477 83.8195 22.1777 83.7141 22.0137C83.6125 21.8457 83.4621 21.707 83.2629 21.5977C83.0676 21.4883 82.8273 21.4336 82.5422 21.4336C82.2414 21.4336 81.9973 21.4805 81.8098 21.5742C81.6262 21.6641 81.4914 21.7793 81.4055 21.9199C81.3234 22.0605 81.2824 22.209 81.2824 22.3652C81.2824 22.4824 81.302 22.5879 81.341 22.6816C81.384 22.7715 81.4582 22.8555 81.5637 22.9336C81.6691 23.0078 81.8176 23.0781 82.009 23.1445C82.2004 23.2109 82.4445 23.2773 82.7414 23.3438C83.2609 23.4609 83.6887 23.6016 84.0246 23.7656C84.3605 23.9297 84.6105 24.1309 84.7746 24.3691C84.9387 24.6074 85.0207 24.8965 85.0207 25.2363C85.0207 25.5137 84.9621 25.7676 84.8449 25.998C84.7316 26.2285 84.5656 26.4277 84.3469 26.5957C84.132 26.7598 83.8742 26.8887 83.5734 26.9824C83.2766 27.0723 82.9426 27.1172 82.5715 27.1172C82.0129 27.1172 81.5402 27.0176 81.1535 26.8184C80.7668 26.6191 80.4738 26.3613 80.2746 26.0449C80.0754 25.7285 79.9758 25.3945 79.9758 25.043H81.0656C81.0812 25.3398 81.1672 25.5762 81.3234 25.752C81.4797 25.9238 81.6711 26.0469 81.8977 26.1211C82.1242 26.1914 82.3488 26.2266 82.5715 26.2266C82.8684 26.2266 83.1164 26.1875 83.3156 26.1094C83.5187 26.0312 83.673 25.9238 83.7785 25.7871C83.884 25.6504 83.9367 25.4941 83.9367 25.3184ZM90.2988 20.6602V21.4922H86.8711V20.6602H90.2988ZM88.0312 19.1191H89.1152V25.4297C89.1152 25.6445 89.1484 25.8066 89.2148 25.916C89.2812 26.0254 89.3672 26.0977 89.4727 26.1328C89.5781 26.168 89.6914 26.1855 89.8125 26.1855C89.9023 26.1855 89.9961 26.1777 90.0938 26.1621C90.1953 26.1426 90.2715 26.127 90.3223 26.1152L90.3281 27C90.2422 27.0273 90.1289 27.0527 89.9883 27.0762C89.8516 27.1035 89.6855 27.1172 89.4902 27.1172C89.2246 27.1172 88.9805 27.0645 88.7578 26.959C88.5352 26.8535 88.3574 26.6777 88.2246 26.4316C88.0957 26.1816 88.0312 25.8457 88.0312 25.4238V19.1191ZM96.4617 25.3184C96.4617 25.1621 96.4266 25.0176 96.3563 24.8848C96.2898 24.748 96.1512 24.625 95.9402 24.5156C95.7332 24.4023 95.4207 24.3047 95.0027 24.2227C94.6512 24.1484 94.3328 24.0605 94.0477 23.959C93.7664 23.8574 93.5262 23.7344 93.327 23.5898C93.1316 23.4453 92.9813 23.2754 92.8758 23.0801C92.7703 22.8848 92.7176 22.6562 92.7176 22.3945C92.7176 22.1445 92.7723 21.9082 92.8816 21.6855C92.9949 21.4629 93.1531 21.2656 93.3563 21.0938C93.5633 20.9219 93.8113 20.7871 94.1004 20.6895C94.3895 20.5918 94.7117 20.543 95.0672 20.543C95.575 20.543 96.0086 20.6328 96.368 20.8125C96.7273 20.9922 97.0027 21.2324 97.1941 21.5332C97.3855 21.8301 97.4813 22.1602 97.4813 22.5234H96.3973C96.3973 22.3477 96.3445 22.1777 96.2391 22.0137C96.1375 21.8457 95.9871 21.707 95.7879 21.5977C95.5926 21.4883 95.3523 21.4336 95.0672 21.4336C94.7664 21.4336 94.5223 21.4805 94.3348 21.5742C94.1512 21.6641 94.0164 21.7793 93.9305 21.9199C93.8484 22.0605 93.8074 22.209 93.8074 22.3652C93.8074 22.4824 93.827 22.5879 93.866 22.6816C93.909 22.7715 93.9832 22.8555 94.0887 22.9336C94.1941 23.0078 94.3426 23.0781 94.534 23.1445C94.7254 23.2109 94.9695 23.2773 95.2664 23.3438C95.7859 23.4609 96.2137 23.6016 96.5496 23.7656C96.8855 23.9297 97.1355 24.1309 97.2996 24.3691C97.4637 24.6074 97.5457 24.8965 97.5457 25.2363C97.5457 25.5137 97.4871 25.7676 97.3699 25.998C97.2566 26.2285 97.0906 26.4277 96.8719 26.5957C96.657 26.7598 96.3992 26.8887 96.0984 26.9824C95.8016 27.0723 95.4676 27.1172 95.0965 27.1172C94.5379 27.1172 94.0652 27.0176 93.6785 26.8184C93.2918 26.6191 92.9988 26.3613 92.7996 26.0449C92.6004 25.7285 92.5008 25.3945 92.5008 25.043H93.5906C93.6063 25.3398 93.6922 25.5762 93.8484 25.752C94.0047 25.9238 94.1961 26.0469 94.4227 26.1211C94.6492 26.1914 94.8738 26.2266 95.0965 26.2266C95.3934 26.2266 95.6414 26.1875 95.8406 26.1094C96.0438 26.0312 96.198 25.9238 96.3035 25.7871C96.409 25.6504 96.4617 25.4941 96.4617 25.3184Z" fill="white"/>
<path d="M395.5 35H388.762C383.24 35 378.762 30.5228 378.762 25V11C378.762 5.47715 374.285 1 368.762 1H268.893C263.37 1 258.893 5.47715 258.893 11V25C258.893 30.5228 254.415 35 248.893 35H0.5" stroke="#4E6E81" stroke-width="2"/>
<path d="M296.859 23.834H299.057C298.986 24.6719 298.752 25.4189 298.354 26.0752C297.955 26.7256 297.396 27.2383 296.675 27.6133C295.954 27.9883 295.078 28.1758 294.047 28.1758C293.256 28.1758 292.544 28.0352 291.911 27.7539C291.278 27.4668 290.736 27.0625 290.285 26.541C289.834 26.0137 289.488 25.3779 289.248 24.6338C289.014 23.8896 288.896 23.0576 288.896 22.1377V21.0742C288.896 20.1543 289.017 19.3223 289.257 18.5781C289.503 17.834 289.854 17.1982 290.312 16.6709C290.769 16.1377 291.316 15.7305 291.955 15.4492C292.6 15.168 293.323 15.0273 294.126 15.0273C295.146 15.0273 296.007 15.2148 296.71 15.5898C297.413 15.9648 297.958 16.4834 298.345 17.1455C298.737 17.8076 298.978 18.5664 299.065 19.4219H296.868C296.81 18.8711 296.681 18.3994 296.481 18.0068C296.288 17.6143 296.001 17.3154 295.62 17.1104C295.239 16.8994 294.741 16.7939 294.126 16.7939C293.622 16.7939 293.183 16.8877 292.808 17.0752C292.433 17.2627 292.119 17.5381 291.867 17.9014C291.615 18.2646 291.425 18.7129 291.296 19.2461C291.173 19.7734 291.111 20.377 291.111 21.0566V22.1377C291.111 22.7822 291.167 23.3682 291.278 23.8955C291.396 24.417 291.571 24.8652 291.806 25.2402C292.046 25.6152 292.351 25.9053 292.72 26.1104C293.089 26.3154 293.531 26.418 294.047 26.418C294.674 26.418 295.181 26.3184 295.567 26.1191C295.96 25.9199 296.256 25.6299 296.455 25.249C296.66 24.8623 296.795 24.3906 296.859 23.834ZM304.741 14.5V28H302.632V14.5H304.741ZM304.372 22.8936L303.687 22.8848C303.693 22.2285 303.783 21.6221 303.959 21.0654C304.141 20.5088 304.393 20.0254 304.715 19.6152C305.043 19.1992 305.436 18.8799 305.893 18.6572C306.35 18.4287 306.857 18.3145 307.413 18.3145C307.882 18.3145 308.304 18.3789 308.679 18.5078C309.06 18.6367 309.388 18.8447 309.663 19.1318C309.939 19.4131 310.147 19.7822 310.287 20.2393C310.434 20.6904 310.507 21.2412 310.507 21.8916V28H308.38V21.874C308.38 21.417 308.313 21.0537 308.178 20.7842C308.049 20.5146 307.859 20.3213 307.607 20.2041C307.355 20.0811 307.047 20.0195 306.684 20.0195C306.303 20.0195 305.966 20.0957 305.673 20.248C305.386 20.4004 305.146 20.6084 304.952 20.8721C304.759 21.1357 304.613 21.4404 304.513 21.7861C304.419 22.1318 304.372 22.501 304.372 22.8936ZM319.813 26.0928V21.5576C319.813 21.2178 319.751 20.9248 319.628 20.6787C319.505 20.4326 319.318 20.2422 319.066 20.1074C318.82 19.9727 318.509 19.9053 318.134 19.9053C317.788 19.9053 317.49 19.9639 317.238 20.0811C316.986 20.1982 316.789 20.3564 316.649 20.5557C316.508 20.7549 316.438 20.9805 316.438 21.2324H314.329C314.329 20.8574 314.419 20.4941 314.601 20.1426C314.783 19.791 315.046 19.4775 315.392 19.2021C315.738 18.9268 316.151 18.71 316.631 18.5518C317.112 18.3936 317.651 18.3145 318.248 18.3145C318.963 18.3145 319.596 18.4346 320.147 18.6748C320.704 18.915 321.14 19.2783 321.456 19.7646C321.779 20.2451 321.94 20.8486 321.94 21.5752V25.8027C321.94 26.2363 321.969 26.626 322.028 26.9717C322.092 27.3115 322.183 27.6074 322.3 27.8594V28H320.129C320.03 27.7715 319.951 27.4814 319.892 27.1299C319.839 26.7725 319.813 26.4268 319.813 26.0928ZM320.121 22.2168L320.138 23.5264H318.618C318.225 23.5264 317.879 23.5645 317.58 23.6406C317.282 23.7109 317.033 23.8164 316.833 23.957C316.634 24.0977 316.485 24.2676 316.385 24.4668C316.286 24.666 316.236 24.8916 316.236 25.1436C316.236 25.3955 316.294 25.627 316.412 25.8379C316.529 26.043 316.699 26.2041 316.921 26.3213C317.15 26.4385 317.425 26.4971 317.747 26.4971C318.181 26.4971 318.559 26.4092 318.881 26.2334C319.209 26.0518 319.467 25.832 319.655 25.5742C319.842 25.3105 319.942 25.0615 319.954 24.8271L320.639 25.7676C320.569 26.0078 320.449 26.2656 320.279 26.541C320.109 26.8164 319.886 27.0801 319.611 27.332C319.341 27.5781 319.016 27.7803 318.635 27.9385C318.26 28.0967 317.827 28.1758 317.334 28.1758C316.713 28.1758 316.16 28.0527 315.673 27.8066C315.187 27.5547 314.806 27.2178 314.531 26.7959C314.255 26.3682 314.118 25.8848 314.118 25.3457C314.118 24.8418 314.211 24.3965 314.399 24.0098C314.592 23.6172 314.873 23.2891 315.243 23.0254C315.618 22.7617 316.075 22.5625 316.614 22.4277C317.153 22.2871 317.768 22.2168 318.459 22.2168H320.121ZM330.314 18.4902V20.0371H324.953V18.4902H330.314ZM326.5 16.1611H328.618V25.3721C328.618 25.665 328.659 25.8906 328.741 26.0488C328.829 26.2012 328.949 26.3037 329.101 26.3564C329.254 26.4092 329.432 26.4355 329.637 26.4355C329.784 26.4355 329.924 26.4268 330.059 26.4092C330.194 26.3916 330.302 26.374 330.384 26.3564L330.393 27.9736C330.217 28.0264 330.012 28.0732 329.778 28.1143C329.549 28.1553 329.286 28.1758 328.987 28.1758C328.501 28.1758 328.07 28.0908 327.695 27.9209C327.32 27.7451 327.027 27.4609 326.816 27.0684C326.605 26.6758 326.5 26.1543 326.5 25.5039V16.1611ZM339.084 25.4248C339.084 25.2139 339.031 25.0234 338.926 24.8535C338.82 24.6777 338.618 24.5195 338.319 24.3789C338.026 24.2383 337.593 24.1094 337.018 23.9922C336.514 23.8809 336.052 23.749 335.63 23.5967C335.214 23.4385 334.856 23.248 334.557 23.0254C334.259 22.8027 334.027 22.5391 333.863 22.2344C333.699 21.9297 333.617 21.5781 333.617 21.1797C333.617 20.793 333.702 20.4268 333.872 20.0811C334.042 19.7354 334.285 19.4307 334.601 19.167C334.918 18.9033 335.302 18.6953 335.753 18.543C336.21 18.3906 336.72 18.3145 337.282 18.3145C338.079 18.3145 338.762 18.4492 339.33 18.7188C339.904 18.9824 340.344 19.3428 340.648 19.7998C340.953 20.251 341.105 20.7607 341.105 21.3291H338.987C338.987 21.0771 338.923 20.8428 338.794 20.626C338.671 20.4033 338.483 20.2246 338.231 20.0898C337.979 19.9492 337.663 19.8789 337.282 19.8789C336.919 19.8789 336.617 19.9375 336.377 20.0547C336.142 20.166 335.967 20.3125 335.849 20.4941C335.738 20.6758 335.682 20.875 335.682 21.0918C335.682 21.25 335.712 21.3936 335.77 21.5225C335.835 21.6455 335.94 21.7598 336.087 21.8652C336.233 21.9648 336.432 22.0586 336.684 22.1465C336.942 22.2344 337.264 22.3193 337.651 22.4014C338.378 22.5537 339.002 22.75 339.523 22.9902C340.051 23.2246 340.455 23.5293 340.736 23.9043C341.017 24.2734 341.158 24.7422 341.158 25.3105C341.158 25.7324 341.067 26.1191 340.886 26.4707C340.71 26.8164 340.452 27.1182 340.112 27.376C339.772 27.6279 339.365 27.8242 338.89 27.9648C338.422 28.1055 337.894 28.1758 337.308 28.1758C336.447 28.1758 335.718 28.0234 335.12 27.7188C334.522 27.4082 334.068 27.0127 333.758 26.5322C333.453 26.0459 333.301 25.542 333.301 25.0205H335.348C335.372 25.4131 335.48 25.7266 335.674 25.9609C335.873 26.1895 336.119 26.3564 336.412 26.4619C336.711 26.5615 337.018 26.6113 337.335 26.6113C337.716 26.6113 338.035 26.5615 338.293 26.4619C338.551 26.3564 338.747 26.2158 338.882 26.04C339.016 25.8584 339.084 25.6533 339.084 25.4248Z" fill="#4E6E81"/>
<path d="M133 18C133 12.4772 137.477 8 143 8H233.227C238.75 8 243.227 12.4772 243.227 18V34H133V18Z" fill="#97A9B4"/>
<path d="M165.141 23.5176H166.266C166.207 24.0566 166.053 24.5391 165.803 24.9648C165.553 25.3906 165.199 25.7285 164.742 25.9785C164.285 26.2246 163.715 26.3477 163.031 26.3477C162.531 26.3477 162.076 26.2539 161.666 26.0664C161.26 25.8789 160.91 25.6133 160.617 25.2695C160.324 24.9219 160.098 24.5059 159.938 24.0215C159.781 23.5332 159.703 22.9902 159.703 22.3926V21.543C159.703 20.9453 159.781 20.4043 159.938 19.9199C160.098 19.4316 160.326 19.0137 160.623 18.666C160.924 18.3184 161.285 18.0508 161.707 17.8633C162.129 17.6758 162.604 17.582 163.131 17.582C163.775 17.582 164.32 17.7031 164.766 17.9453C165.211 18.1875 165.557 18.5234 165.803 18.9531C166.053 19.3789 166.207 19.873 166.266 20.4355H165.141C165.086 20.0371 164.984 19.6953 164.836 19.4102C164.688 19.1211 164.477 18.8984 164.203 18.7422C163.93 18.5859 163.572 18.5078 163.131 18.5078C162.752 18.5078 162.418 18.5801 162.129 18.7246C161.844 18.8691 161.604 19.0742 161.408 19.3398C161.217 19.6055 161.072 19.9238 160.975 20.2949C160.877 20.666 160.828 21.0781 160.828 21.5312V22.3926C160.828 22.8105 160.871 23.2031 160.957 23.5703C161.047 23.9375 161.182 24.2598 161.361 24.5371C161.541 24.8145 161.77 25.0332 162.047 25.1934C162.324 25.3496 162.652 25.4277 163.031 25.4277C163.512 25.4277 163.895 25.3516 164.18 25.1992C164.465 25.0469 164.68 24.8281 164.824 24.543C164.973 24.2578 165.078 23.916 165.141 23.5176ZM168.555 23.1309V22.9961C168.555 22.5391 168.622 22.1152 168.755 21.7246C168.887 21.3301 169.079 20.9883 169.329 20.6992C169.579 20.4062 169.882 20.1797 170.237 20.0195C170.593 19.8555 170.991 19.7734 171.432 19.7734C171.878 19.7734 172.278 19.8555 172.634 20.0195C172.993 20.1797 173.298 20.4062 173.548 20.6992C173.802 20.9883 173.995 21.3301 174.128 21.7246C174.261 22.1152 174.327 22.5391 174.327 22.9961V23.1309C174.327 23.5879 174.261 24.0117 174.128 24.4023C173.995 24.793 173.802 25.1348 173.548 25.4277C173.298 25.7168 172.995 25.9434 172.639 26.1074C172.288 26.2676 171.889 26.3477 171.444 26.3477C170.999 26.3477 170.598 26.2676 170.243 26.1074C169.887 25.9434 169.583 25.7168 169.329 25.4277C169.079 25.1348 168.887 24.793 168.755 24.4023C168.622 24.0117 168.555 23.5879 168.555 23.1309ZM169.639 22.9961V23.1309C169.639 23.4473 169.677 23.7461 169.751 24.0273C169.825 24.3047 169.936 24.5508 170.085 24.7656C170.237 24.9805 170.427 25.1504 170.653 25.2754C170.88 25.3965 171.143 25.457 171.444 25.457C171.741 25.457 172.001 25.3965 172.223 25.2754C172.45 25.1504 172.637 24.9805 172.786 24.7656C172.934 24.5508 173.046 24.3047 173.12 24.0273C173.198 23.7461 173.237 23.4473 173.237 23.1309V22.9961C173.237 22.6836 173.198 22.3887 173.12 22.1113C173.046 21.8301 172.932 21.582 172.78 21.3672C172.632 21.1484 172.444 20.9766 172.218 20.8516C171.995 20.7266 171.733 20.6641 171.432 20.6641C171.136 20.6641 170.874 20.7266 170.647 20.8516C170.425 20.9766 170.237 21.1484 170.085 21.3672C169.936 21.582 169.825 21.8301 169.751 22.1113C169.677 22.3887 169.639 22.6836 169.639 22.9961ZM177.97 21.2441V26.2305H176.886V19.8906H177.912L177.97 21.2441ZM177.712 22.8203L177.261 22.8027C177.265 22.3691 177.33 21.9688 177.455 21.6016C177.58 21.2305 177.755 20.9082 177.982 20.6348C178.209 20.3613 178.478 20.1504 178.791 20.002C179.107 19.8496 179.457 19.7734 179.839 19.7734C180.152 19.7734 180.433 19.8164 180.683 19.9023C180.933 19.9844 181.146 20.1172 181.322 20.3008C181.502 20.4844 181.638 20.7227 181.732 21.0156C181.826 21.3047 181.873 21.6582 181.873 22.0762V26.2305H180.783V22.0645C180.783 21.7324 180.734 21.4668 180.636 21.2676C180.539 21.0645 180.396 20.918 180.209 20.8281C180.021 20.7344 179.791 20.6875 179.517 20.6875C179.248 20.6875 179.002 20.7441 178.779 20.8574C178.56 20.9707 178.371 21.127 178.211 21.3262C178.054 21.5254 177.931 21.7539 177.841 22.0117C177.755 22.2656 177.712 22.5352 177.712 22.8203ZM187.373 19.8906V20.7227H183.946V19.8906H187.373ZM185.106 18.3496H186.19V24.6602C186.19 24.875 186.223 25.0371 186.289 25.1465C186.356 25.2559 186.442 25.3281 186.547 25.3633C186.653 25.3984 186.766 25.416 186.887 25.416C186.977 25.416 187.071 25.4082 187.168 25.3926C187.27 25.373 187.346 25.3574 187.397 25.3457L187.403 26.2305C187.317 26.2578 187.204 26.2832 187.063 26.3066C186.926 26.334 186.76 26.3477 186.565 26.3477C186.299 26.3477 186.055 26.2949 185.832 26.1895C185.61 26.084 185.432 25.9082 185.299 25.6621C185.17 25.4121 185.106 25.0762 185.106 24.6543V18.3496ZM193.583 25.1465V21.8828C193.583 21.6328 193.532 21.416 193.431 21.2324C193.333 21.0449 193.185 20.9004 192.986 20.7988C192.786 20.6973 192.54 20.6465 192.247 20.6465C191.974 20.6465 191.734 20.6934 191.527 20.7871C191.323 20.8809 191.163 21.0039 191.046 21.1562C190.933 21.3086 190.876 21.4727 190.876 21.6484H189.792C189.792 21.4219 189.851 21.1973 189.968 20.9746C190.085 20.752 190.253 20.5508 190.472 20.3711C190.695 20.1875 190.96 20.043 191.269 19.9375C191.581 19.8281 191.929 19.7734 192.312 19.7734C192.773 19.7734 193.179 19.8516 193.53 20.0078C193.886 20.1641 194.163 20.4004 194.362 20.7168C194.566 21.0293 194.667 21.4219 194.667 21.8945V24.8477C194.667 25.0586 194.685 25.2832 194.72 25.5215C194.759 25.7598 194.816 25.9648 194.89 26.1367V26.2305H193.759C193.704 26.1055 193.661 25.9395 193.63 25.7324C193.599 25.5215 193.583 25.3262 193.583 25.1465ZM193.771 22.3867L193.782 23.1484H192.687C192.378 23.1484 192.103 23.1738 191.861 23.2246C191.618 23.2715 191.415 23.3438 191.251 23.4414C191.087 23.5391 190.962 23.6621 190.876 23.8105C190.79 23.9551 190.747 24.125 190.747 24.3203C190.747 24.5195 190.792 24.7012 190.882 24.8652C190.972 25.0293 191.107 25.1602 191.286 25.2578C191.47 25.3516 191.695 25.3984 191.96 25.3984C192.292 25.3984 192.585 25.3281 192.839 25.1875C193.093 25.0469 193.294 24.875 193.443 24.6719C193.595 24.4688 193.677 24.2715 193.689 24.0801L194.152 24.6016C194.124 24.7656 194.05 24.9473 193.929 25.1465C193.808 25.3457 193.646 25.5371 193.443 25.7207C193.243 25.9004 193.005 26.0508 192.728 26.1719C192.454 26.2891 192.146 26.3477 191.802 26.3477C191.372 26.3477 190.995 26.2637 190.671 26.0957C190.351 25.9277 190.101 25.7031 189.921 25.4219C189.745 25.1367 189.657 24.8184 189.657 24.4668C189.657 24.127 189.724 23.8281 189.857 23.5703C189.989 23.3086 190.181 23.0918 190.431 22.9199C190.681 22.7441 190.982 22.6113 191.333 22.5215C191.685 22.4316 192.077 22.3867 192.511 22.3867H193.771ZM200.109 25.457C200.367 25.457 200.605 25.4043 200.824 25.2988C201.043 25.1934 201.223 25.0488 201.363 24.8652C201.504 24.6777 201.584 24.4648 201.604 24.2266H202.635C202.615 24.6016 202.488 24.9512 202.254 25.2754C202.023 25.5957 201.721 25.8555 201.346 26.0547C200.971 26.25 200.559 26.3477 200.109 26.3477C199.633 26.3477 199.217 26.2637 198.861 26.0957C198.51 25.9277 198.217 25.6973 197.982 25.4043C197.752 25.1113 197.578 24.7754 197.461 24.3965C197.348 24.0137 197.291 23.6094 197.291 23.1836V22.9375C197.291 22.5117 197.348 22.1094 197.461 21.7305C197.578 21.3477 197.752 21.0098 197.982 20.7168C198.217 20.4238 198.51 20.1934 198.861 20.0254C199.217 19.8574 199.633 19.7734 200.109 19.7734C200.605 19.7734 201.039 19.875 201.41 20.0781C201.781 20.2773 202.072 20.5508 202.283 20.8984C202.498 21.2422 202.615 21.6328 202.635 22.0703H201.604C201.584 21.8086 201.51 21.5723 201.381 21.3613C201.256 21.1504 201.084 20.9824 200.865 20.8574C200.65 20.7285 200.398 20.6641 200.109 20.6641C199.777 20.6641 199.498 20.7305 199.271 20.8633C199.049 20.9922 198.871 21.168 198.738 21.3906C198.609 21.6094 198.516 21.8535 198.457 22.123C198.402 22.3887 198.375 22.6602 198.375 22.9375V23.1836C198.375 23.4609 198.402 23.7344 198.457 24.0039C198.512 24.2734 198.604 24.5176 198.732 24.7363C198.865 24.9551 199.043 25.1309 199.266 25.2637C199.492 25.3926 199.773 25.457 200.109 25.457ZM207.708 19.8906V20.7227H204.28V19.8906H207.708ZM205.44 18.3496H206.524V24.6602C206.524 24.875 206.557 25.0371 206.624 25.1465C206.69 25.2559 206.776 25.3281 206.882 25.3633C206.987 25.3984 207.1 25.416 207.221 25.416C207.311 25.416 207.405 25.4082 207.503 25.3926C207.604 25.373 207.68 25.3574 207.731 25.3457L207.737 26.2305C207.651 26.2578 207.538 26.2832 207.397 26.3066C207.261 26.334 207.095 26.3477 206.899 26.3477C206.634 26.3477 206.389 26.2949 206.167 26.1895C205.944 26.084 205.766 25.9082 205.634 25.6621C205.505 25.4121 205.44 25.0762 205.44 24.6543V18.3496ZM213.871 24.5488C213.871 24.3926 213.836 24.248 213.765 24.1152C213.699 23.9785 213.56 23.8555 213.349 23.7461C213.142 23.6328 212.83 23.5352 212.412 23.4531C212.06 23.3789 211.742 23.291 211.457 23.1895C211.175 23.0879 210.935 22.9648 210.736 22.8203C210.541 22.6758 210.39 22.5059 210.285 22.3105C210.179 22.1152 210.127 21.8867 210.127 21.625C210.127 21.375 210.181 21.1387 210.291 20.916C210.404 20.6934 210.562 20.4961 210.765 20.3242C210.972 20.1523 211.22 20.0176 211.509 19.9199C211.798 19.8223 212.121 19.7734 212.476 19.7734C212.984 19.7734 213.418 19.8633 213.777 20.043C214.136 20.2227 214.412 20.4629 214.603 20.7637C214.795 21.0605 214.89 21.3906 214.89 21.7539H213.806C213.806 21.5781 213.754 21.4082 213.648 21.2441C213.546 21.0762 213.396 20.9375 213.197 20.8281C213.002 20.7188 212.761 20.6641 212.476 20.6641C212.175 20.6641 211.931 20.7109 211.744 20.8047C211.56 20.8945 211.425 21.0098 211.339 21.1504C211.257 21.291 211.216 21.4395 211.216 21.5957C211.216 21.7129 211.236 21.8184 211.275 21.9121C211.318 22.002 211.392 22.0859 211.498 22.1641C211.603 22.2383 211.752 22.3086 211.943 22.375C212.134 22.4414 212.379 22.5078 212.675 22.5742C213.195 22.6914 213.623 22.832 213.959 22.9961C214.295 23.1602 214.545 23.3613 214.709 23.5996C214.873 23.8379 214.955 24.127 214.955 24.4668C214.955 24.7441 214.896 24.998 214.779 25.2285C214.666 25.459 214.5 25.6582 214.281 25.8262C214.066 25.9902 213.808 26.1191 213.507 26.2129C213.211 26.3027 212.877 26.3477 212.505 26.3477C211.947 26.3477 211.474 26.248 211.088 26.0488C210.701 25.8496 210.408 25.5918 210.209 25.2754C210.009 24.959 209.91 24.625 209.91 24.2734H211C211.015 24.5703 211.101 24.8066 211.257 24.9824C211.414 25.1543 211.605 25.2773 211.832 25.3516C212.058 25.4219 212.283 25.457 212.505 25.457C212.802 25.457 213.05 25.418 213.25 25.3398C213.453 25.2617 213.607 25.1543 213.713 25.0176C213.818 24.8809 213.871 24.7246 213.871 24.5488Z" fill="white"/>
</svg>
