<?xml version="1.0" encoding="UTF-8"?>
<svg width="273px" height="338px" viewBox="0 0 273 338" version="1.1" xmlns="http://www.w3.org/2000/svg" xmlns:xlink="http://www.w3.org/1999/xlink">
    <title>Kismmet-Logo-Grey</title>
    <g id="Page-1" stroke="none" stroke-width="1" fill="none" fill-rule="evenodd">
        <g id="Kismmet-Logo-Grey" fill="#4E6E81">
            <path d="M216.841298,200.634708 C217.140699,204.341281 217.528066,208.047325 217.721485,211.753897 C219.059518,236.206173 220.327072,260.658448 221.682592,285.110194 C222.43931,298.829271 223.267036,312.548878 224.076744,326.267955 C224.182197,328.00703 224.393633,329.763554 224.41112,331.502629 C224.481599,337.018073 223.900813,337.703339 218.108852,337.878886 C212.616293,338.054961 207.105716,338.019535 201.613157,337.896864 C195.662752,337.756215 195.310889,337.562691 194.254241,331.994372 C191.455235,317.238934 188.83216,302.448071 186.138607,287.657207 C183.902899,275.34356 181.667192,263.029385 178.181417,250.592539 C176.737931,258.234106 175.241454,265.857696 173.885934,273.499263 C170.453151,292.716335 167.108333,311.951384 163.657533,331.168985 C162.548423,337.281922 161.879671,337.808562 155.22501,337.914313 C147.866094,338.019535 140.507707,337.931762 132.28609,337.931762 C132.057168,334.418713 131.634826,331.783398 131.740279,329.166061 C132.391543,312.443127 133.148791,295.702743 133.905508,278.979809 C134.997131,254.755956 135.489951,230.497205 137.53224,206.361125 C138.465418,195.294812 135.736361,186.001942 130.208827,176.463731 C114.9632,150.167158 100.351349,123.589288 85.4930892,97.0997199 C83.7502018,94.0080894 82.1127674,90.8635833 80,86.9640152 C84.7713462,82.818576 89.4541968,78.778359 94.946756,74 C97.2704291,76.512115 99.2422394,78.409288 100.932135,80.4994565 C114.065525,96.8363999 127.321856,113.10249 140.155314,129.632429 C143.81702,134.357384 147.672675,136.553303 154.309319,136.377757 C171.879149,135.903463 189.483424,136.289983 207.070742,136.096459 C211.383713,136.044112 214.23571,137.185694 216.45393,140.681294 C234.675025,169.489981 253.036548,198.210367 271.327591,226.966179 C271.855916,227.809543 272.155317,228.775579 273,230.655303 C265.922998,234.291551 258.933961,237.874923 250.994259,241.950038 C239.903158,227.668894 229.199953,213.896941 218.478732,200.10754 C217.950408,200.318513 217.387109,200.476611 216.841298,200.634708 Z" id="Path" fill-rule="nonzero"></path>
            <path d="M143,92.2632915 C143.088477,76.1172261 158.445155,61.9826394 175.935294,62 C194.818551,62 210.140202,75.8370935 209.999032,92.7535236 C209.840349,109.354541 194.730453,122.876733 176.182605,123 C158.198374,123.104209 142.912281,108.934869 143,92.2632915 Z" id="Path" fill-rule="nonzero"></path>
            <path d="M66.1637595,60 L29,69.7609706 L43.8360807,119 L81,109.239029 L66.1637595,60 Z M58.0582829,77.076898 L63.1686974,75.2788526 C63.5219666,75.1556403 63.9077387,75.3129893 64.0276264,75.6340879 C64.07718,75.7621006 64.0777129,75.9013145 64.0318891,76.0319941 L62.3380086,80.8079357 L65.6128087,84.6643192 C65.8387305,84.9299456 65.7801187,85.319851 65.4838628,85.5364059 C65.3666392,85.6228145 65.2211755,85.6729528 65.0730475,85.6761531 L59.6605158,85.8255013 L56.5732734,90.0072504 C56.5013408,90.1048601 56.4022336,90.1827346 56.2866085,90.2323395 C56.1709835,90.2819444 56.0436361,90.3011463 55.9189528,90.2883451 C55.7948024,90.2750104 55.6775788,90.2296726 55.5816687,90.1576654 C55.4857585,90.0856582 55.4148915,89.9901821 55.3765274,89.8808379 L53.7263393,85.1966388 L48.5444184,83.9239789 C48.3728457,83.8818414 48.2288206,83.7783644 48.1439934,83.6359502 C48.0591661,83.4935361 48.0405169,83.3239192 48.0920953,83.1649701 C48.135095,83.033757 48.222693,82.9169454 48.3439661,82.8332038 L52.7360666,79.7886344 L52.6194292,74.8212071 C52.6134082,74.478773 52.9095042,74.1859439 53.2808898,74.1672754 C53.4290178,74.1592746 53.5739487,74.1966116 53.6933036,74.2734193 L58.0582829,77.076898 Z" id="Shape"></path>
            <path d="M108,21.6510275 C104.829779,24.9043623 101.957441,27.8538488 98.892138,31 C69.0457663,8.56607104 39.7424921,8.29795058 9.65101223,30.6424522 C6.44567746,27.8717665 3.18780444,25.0652453 0,22.2945596 C21.8767419,-5.34117529 80.0632478,-9.22016757 108,21.6510275 Z" id="Path" fill-rule="nonzero"></path>
            <path d="M94,35.5346817 C91.0012536,38.1489814 87.9138247,40.8521981 84.3150104,44 C64.5382596,29.5235482 44.638309,29.2390244 24.4383776,43.9466819 C21.1040711,41.0478049 17.9991181,38.3445881 15,35.7481147 C26.9082677,16.5765656 73.3417335,10.5477129 94,35.5346817 Z" id="Path" fill-rule="nonzero"></path>
            <path d="M79,48.4425828 C75.2133912,51.5031479 72.0024687,54.080619 68.1286665,57.2128913 C59.0369184,51.0020059 49.3870275,50.1965798 39.3183459,58 C36.0725986,54.546096 33.2631334,51.5747473 30,48.102526 C35.3920701,41.1222566 43.2620604,38.7418051 51.6730173,38.1154045 C61.8638748,37.3278649 70.7108511,40.5495152 79,48.4425828 Z" id="Path" fill-rule="nonzero"></path>
        </g>
    </g>
</svg>